<svg width="16" height="14" viewBox="0 0 16 14" xmlns="http://www.w3.org/2000/svg">
    <g fill="none" fill-rule="evenodd">
        <path fill="#FFF" d="M-24-27h1680v1077H-24z"/>
        <path stroke="#979797" fill="#D8D8D8" d="M-24-27h1680v63H-24z"/>
        <path fill="#2A3643" d="M-24-27h1681v70H-24z"/>
        <path fill="#000" opacity=".276" d="M-24-27h66v71h-66z"/>
        <path d="M4.667.75v2.5a.75.75 0 0 1-.75.75H.75A.75.75 0 0 1 0 3.25V.75A.75.75 0 0 1 .75 0h3.167a.75.75 0 0 1 .75.75zm5.666 7.5v-2.5a.75.75 0 0 0-.75-.75H6.417a.75.75 0 0 0-.75.75v2.5c0 .414.335.75.75.75h3.166a.75.75 0 0 0 .75-.75zm1-7.5v2.5c0 .414.336.75.75.75h3.167a.75.75 0 0 0 .75-.75V.75a.75.75 0 0 0-.75-.75h-3.167a.75.75 0 0 0-.75.75zm-1 2.5V.75a.75.75 0 0 0-.75-.75H6.417a.75.75 0 0 0-.75.75v2.5c0 .414.335.75.75.75h3.166a.75.75 0 0 0 .75-.75zM3.917 5H.75a.75.75 0 0 0-.75.75v2.5c0 .414.336.75.75.75h3.167a.75.75 0 0 0 .75-.75v-2.5a.75.75 0 0 0-.75-.75zM0 10.75v2.5c0 .414.336.75.75.75h3.167a.75.75 0 0 0 .75-.75v-2.5a.75.75 0 0 0-.75-.75H.75a.75.75 0 0 0-.75.75zM12.083 9h3.167a.75.75 0 0 0 .75-.75v-2.5a.75.75 0 0 0-.75-.75h-3.167a.75.75 0 0 0-.75.75v2.5c0 .414.336.75.75.75zm0 5h3.167a.75.75 0 0 0 .75-.75v-2.5a.75.75 0 0 0-.75-.75h-3.167a.75.75 0 0 0-.75.75v2.5c0 .414.336.75.75.75zm-6.416-3.25v2.5c0 .414.335.75.75.75h3.166a.75.75 0 0 0 .75-.75v-2.5a.75.75 0 0 0-.75-.75H6.417a.75.75 0 0 0-.75.75z" fill="#FFF"/>
    </g>
</svg>
