<svg width="16" height="16" viewBox="0 0 16 16" xmlns="http://www.w3.org/2000/svg">
    <g fill="#13B600" fill-rule="nonzero">
        <path d="M8 0a8 8 0 0 0-8 8 8 8 0 0 0 8 8 8 8 0 0 0 8-8 8 8 0 0 0-8-8zm0 14.4A6.41 6.41 0 0 1 1.6 8 6.41 6.41 0 0 1 8 1.6 6.41 6.41 0 0 1 14.4 8 6.41 6.41 0 0 1 8 14.4z"/>
        <path d="M6.287 11.19a.79.79 0 0 1-.552-.35l-1.6-2.4a.8.8 0 0 1 1.33-.887l1.105 1.66 4.117-3.43a.802.802 0 0 1 1.127.1.802.802 0 0 1-.1 1.128l-4.8 4c-.208.211-.59.186-.627.18z"/>
    </g>
</svg>
