<svg width="16" height="16" viewBox="0 0 16 16" xmlns="http://www.w3.org/2000/svg">
    <g fill="#F2F9FF" fill-rule="nonzero">
        <path d="M12.383 8.333H10c-1.103 0-2-.897-2-2V6c0-.264.032-.525.093-.78l-.336-.14V3.927a.595.595 0 0 0-.594-.594h-1.66a.595.595 0 0 0-.593.594V5.08l-.813.337-.734-.737a.61.61 0 0 0-.84 0L1.35 5.853a.595.595 0 0 0 0 .844l.73.73c-.177.4-.283.653-.347.816H.593A.595.595 0 0 0 0 8.837v1.66c0 .326.267.593.593.593h1.154l.336.813-.733.734a.595.595 0 0 0-.177.423.58.58 0 0 0 .177.417l1.173 1.176a.61.61 0 0 0 .84 0l.734-.736.813.336v1.154c0 .326.267.593.593.593h1.66a.595.595 0 0 0 .594-.593v-1.154l.813-.336.737.736a.61.61 0 0 0 .84 0l1.173-1.176a.59.59 0 0 0 .173-.417c0-.16-.063-.31-.173-.423l-.737-.734.337-.813h1.153a.595.595 0 0 0 .594-.593v-1.66a.592.592 0 0 0-.284-.504zm-6.05 4.29a2.96 2.96 0 0 1-2.956-2.956c0-1.63 1.326-2.96 2.956-2.96 1.634 0 2.96 1.33 2.96 2.96a2.961 2.961 0 0 1-2.96 2.956z"/>
        <circle cx="12.333" cy="1.667" r="1.667"/>
        <path d="M14.13 3.153a2.33 2.33 0 0 1-3.594 0C9.487 3.726 8.666 4.76 8.666 6v.333c0 .737.6 1.334 1.334 1.334h4.667c.736 0 1.333-.597 1.333-1.334V6c0-1.24-.82-2.274-1.87-2.847z"/>
    </g>
</svg>
