<svg width="21" height="15" viewBox="0 0 21 15" xmlns="http://www.w3.org/2000/svg">
    <g fill="#F2F9FF" fill-rule="nonzero">
        <path d="M1.5 9.585c0-.853.529-1.411 1.352-1.411.794 0 1.353.588 1.353 1.411 0 .912-.618 1.676-1.353 1.676S1.5 10.526 1.5 9.585zM5.704 12.82v.705c0 .294-.235.53-.53.53H.53a.527.527 0 0 1-.529-.53v-.706c0-.323.206-.646.5-.764 1.646-.53 3.175-.53 4.675 0 .323.118.529.412.529.764zM3.381 6.968v-.94c0-.412.235-.765.618-.912 2.058-.706 4.087-.706 6.115 0 .383.176.618.53.618.94v.942a.621.621 0 0 1-.618.617H4c-.353-.059-.618-.323-.618-.647zM14.113 12.82v.705c0 .294-.235.53-.53.53H8.939a.527.527 0 0 1-.529-.53v-.706c0-.323.206-.646.5-.764 1.5-.5 3.146-.559 4.675 0 .323.118.53.412.53.764zM5.38 1.794C5.38.706 6.058 0 7.058 0c1.029 0 1.675.706 1.675 1.794 0 1.176-.764 2.117-1.675 2.117-.941-.03-1.676-.97-1.676-2.117zM18.825 3.26c.242-.336.39-.744.39-1.189A2.04 2.04 0 0 0 17.177.034a2.04 2.04 0 0 0-2.037 2.037c0 .444.147.853.39 1.188a3.295 3.295 0 0 0-1.652 2.848v.251c0 .707.575 1.28 1.28 1.28h4.036c.706 0 1.28-.575 1.28-1.28v-.251c0-1.184-.64-2.263-1.65-2.848zM17.178.576a1.495 1.495 0 0 1 0 2.988 1.495 1.495 0 0 1 0-2.988zm2.755 5.781h-.002c0 .406-.33.737-.736.737H15.16a.738.738 0 0 1-.737-.737v-.251c0-1.034.586-1.973 1.5-2.443.347.274.78.444 1.255.444.475 0 .907-.17 1.255-.444.914.47 1.5 1.408 1.5 2.443v.251zM13.423 2.99a.27.27 0 0 0-.058-.297L12.28 1.607a.272.272 0 0 0-.385.384l.622.623h-2.06a.272.272 0 0 0 0 .543h2.06l-.622.623a.272.272 0 0 0 .384.384l1.087-1.086a.293.293 0 0 0 .058-.089zM8.82 10.526 7.058 8.879l-1.765 1.647a.284.284 0 0 1-.411 0c-.118-.118-.118-.294.03-.412l1.94-1.823a.284.284 0 0 1 .411 0l1.97 1.823a.315.315 0 0 1 .03.412c-.147.118-.324.118-.441 0zM11.261 8.174c.794 0 1.353.588 1.353 1.411 0 .912-.618 1.676-1.353 1.676S9.91 10.526 9.91 9.585c0-.823.529-1.411 1.352-1.411z"/>
    </g>
</svg>
