<svg width="15" height="14" viewBox="0 0 15 14" xmlns="http://www.w3.org/2000/svg">
    <g fill="#F2F9FF" fill-rule="nonzero">
        <path d="M13.498 1.385h-1.31v-.64A.737.737 0 0 0 11.442 0a.737.737 0 0 0-.745.745v.64H9.67v-.64A.737.737 0 0 0 8.926 0a.737.737 0 0 0-.745.745v.64H7.153v-.64A.737.737 0 0 0 6.41 0a.737.737 0 0 0-.745.745v.64H4.636v-.64A.737.737 0 0 0 3.891 0a.737.737 0 0 0-.744.745v.64h-1.31C1.15 1.385.6 1.936.6 2.621v10.143C.6 13.449 1.151 14 1.836 14h11.692c.685 0 1.236-.551 1.236-1.236V2.62a1.279 1.279 0 0 0-1.266-1.236zm0 11.066a.315.315 0 0 1-.313.313H2.12a.315.315 0 0 1-.313-.313V4.423c0-.163.134-.312.313-.312h11.066c.164 0 .313.134.313.312v8.028z"/>
        <path d="M5.232 9.13H3.906a.4.4 0 0 0-.402.402v1.147a.4.4 0 0 0 .402.402h1.326a.4.4 0 0 0 .402-.402V9.532a.4.4 0 0 0-.402-.402zM8.315 9.13H6.989a.4.4 0 0 0-.402.402v1.147a.4.4 0 0 0 .402.402h1.326a.4.4 0 0 0 .402-.402V9.532a.4.4 0 0 0-.402-.402zM11.413 9.13h-1.326a.4.4 0 0 0-.402.402v1.147a.4.4 0 0 0 .402.402h1.326a.4.4 0 0 0 .402-.402V9.532a.4.4 0 0 0-.402-.402zM5.232 5.957H3.906a.4.4 0 0 0-.402.403v1.146a.4.4 0 0 0 .402.403h1.326a.4.4 0 0 0 .402-.403V6.36a.4.4 0 0 0-.402-.403zM8.315 5.957H6.989a.4.4 0 0 0-.402.403v1.146a.4.4 0 0 0 .402.403h1.326a.4.4 0 0 0 .402-.403V6.36a.4.4 0 0 0-.402-.403zM11.413 5.957h-1.326a.4.4 0 0 0-.402.403v1.146a.4.4 0 0 0 .402.403h1.326a.4.4 0 0 0 .402-.403V6.36a.4.4 0 0 0-.402-.403z"/>
    </g>
</svg>
