<svg width="17" height="12" viewBox="0 0 17 12" xmlns="http://www.w3.org/2000/svg">
    <path d="M1.75.113C1.094.113.56.696.56 1.41V9.82c0 .713.534 1.293 1.19 1.293h13.763c.656 0 1.192-.582 1.192-1.293V1.41c0-.713-.536-1.296-1.192-1.296H1.75zM15.224 3.46V1.885a.181.181 0 0 0-.183-.182h-3.522c-.1 0-.183.082-.183.182V3.46c0 .1.083.183.183.183h3.522c.098 0 .183-.08.183-.183zm-2.596 4.774a.185.185 0 0 1-.185-.183v-.366c0-.1.082-.183.185-.183h2.41c.1 0 .184.083.184.183v.366c0 .1-.083.183-.183.183h-2.411zm-3.365 0a.184.184 0 0 1-.183-.183v-.364c0-.102.083-.183.183-.183h2.413c.1 0 .183.083.183.183v.364c0 .1-.083.183-.183.183H9.263zm-3.362 0a.184.184 0 0 1-.183-.183v-.364c0-.102.082-.183.183-.183h2.413c.1 0 .182.083.182.183v.364c0 .1-.082.183-.182.183H5.9zm-3.363 0a.184.184 0 0 1-.183-.183v-.364c0-.102.083-.183.183-.183h2.413c.1 0 .183.083.183.183v.364c0 .1-.083.183-.183.183H2.538z" fill="#F2F9FF" fill-rule="evenodd"/>
</svg>
