<svg width="13" height="14" viewBox="0 0 13 14" xmlns="http://www.w3.org/2000/svg">
    <path d="M12.703 2.297A.96.96 0 0 0 12 2h-1v-.75c0-.344-.122-.638-.367-.883A1.204 1.204 0 0 0 9.75 0h-.5c-.344 0-.638.122-.883.367S8 .907 8 1.25V2H5v-.75c0-.344-.122-.638-.367-.883A1.204 1.204 0 0 0 3.75 0h-.5c-.344 0-.638.122-.883.367S2 .907 2 1.25V2H1a.961.961 0 0 0-.703.297A.961.961 0 0 0 0 3v10c0 .27.099.505.297.703A.961.961 0 0 0 1 14h11a.96.96 0 0 0 .703-.297A.961.961 0 0 0 13 13V3a.961.961 0 0 0-.297-.703zM3.25 13H1v-2.25h2.25V13zm0-2.75H1v-2.5h2.25v2.5zm0-3H1V5h2.25v2.25zm-.176-3.574A.24.24 0 0 1 3 3.5V1.25a.24.24 0 0 1 .074-.176A.24.24 0 0 1 3.25 1h.5a.24.24 0 0 1 .176.074A.24.24 0 0 1 4 1.25V3.5a.24.24 0 0 1-.074.176.24.24 0 0 1-.176.074h-.5a.24.24 0 0 1-.176-.074zM6.25 13h-2.5v-2.25h2.5V13zm0-2.75h-2.5v-2.5h2.5v2.5zm0-3h-2.5V5h2.5v2.25zm3 5.75h-2.5v-2.25h2.5V13zm0-2.75h-2.5v-2.5h2.5v2.5zm0-3h-2.5V5h2.5v2.25zm-.176-3.574A.24.24 0 0 1 9 3.5V1.25a.24.24 0 0 1 .074-.176A.24.24 0 0 1 9.25 1h.5a.24.24 0 0 1 .176.074.24.24 0 0 1 .074.176V3.5a.24.24 0 0 1-.074.176.24.24 0 0 1-.176.074h-.5a.24.24 0 0 1-.176-.074zM12 13H9.75v-2.25H12V13zm0-2.75H9.75v-2.5H12v2.5zm0-3H9.75V5H12v2.25z" fill="#BBBDC5" fill-rule="nonzero"/>
</svg>
