<svg width="17" height="17" viewBox="0 0 17 17" xmlns="http://www.w3.org/2000/svg">
    <g fill="#FFF" fill-rule="nonzero">
        <path d="M.394 2.194v12.094a2 2 0 0 0 2 2h12a2 2 0 0 0 2-2V2.194a2 2 0 0 0-2-2h-12a2 2 0 0 0-2 2zm4.524-.598c1.725 0 3.131 1.415 3.131 3.15 0 1.734-1.406 3.149-3.13 3.149-1.725 0-3.131-1.415-3.131-3.15a3.14 3.14 0 0 1 3.13-3.149zm9.967 7.61-4.871 4.2a.342.342 0 0 1-.404.032l-3.265-1.972-3.983 3.342a.352.352 0 0 1-.224.082.352.352 0 0 1-.224-.62l4.174-3.497a.355.355 0 0 1 .404-.033l3.265 1.969 4.672-4.031a.343.343 0 0 1 .489.037.35.35 0 0 1-.033.492zm-.228-2.012H9.786a.347.347 0 0 1-.347-.349c0-.193.155-.349.347-.349h4.871c.192 0 .347.156.347.349a.347.347 0 0 1-.347.349zm0-2.1H9.786a.347.347 0 0 1-.347-.348c0-.193.155-.349.347-.349h4.871c.192 0 .347.156.347.349a.347.347 0 0 1-.347.348zm0-2.1H9.786a.347.347 0 0 1-.347-.348c0-.193.155-.348.347-.348h4.871c.192 0 .347.155.347.348a.347.347 0 0 1-.347.349z"/>
        <path d="M4.918 7.194a2.445 2.445 0 0 0 2.434-2.448c0-1.23-.909-2.256-2.087-2.424v2.28l1.288 1.296a.355.355 0 0 1 0 .496.345.345 0 0 1-.49 0l-1.39-1.398a.352.352 0 0 1-.101-.246V2.326A2.45 2.45 0 0 0 2.485 4.75a2.438 2.438 0 0 0 2.433 2.444z"/>
    </g>
</svg>
