<svg width="16" height="14" viewBox="0 0 16 14" xmlns="http://www.w3.org/2000/svg">
    <g fill="#F2F9FF" fill-rule="nonzero">
        <path d="M13.987 0H1.269C.562 0 0 .562 0 1.269V11.93c0 .707.562 1.269 1.269 1.269h12.718c.706 0 1.268-.562 1.268-1.269V1.27C15.255.562 14.693 0 13.987 0zM1.269.851h12.718c.24 0 .417.193.417.418v2.12H.851v-2.12c0-.241.177-.418.418-.418zM13.987 12.35H1.269a.415.415 0 0 1-.418-.418V4.223h13.57v7.708a.428.428 0 0 1-.434.418z"/>
        <circle cx="2.168" cy="2.12" r="1"/>
        <circle cx="3.709" cy="2.12" r="1"/>
        <circle cx="5.251" cy="2.12" r="1"/>
        <path d="m6.905 7.917-.466-.129c-.064-.16-.096-.224-.16-.385l.24-.418a.172.172 0 0 0-.015-.176l-.322-.321c-.048-.049-.112-.065-.176-.016l-.418.24c-.16-.064-.224-.096-.385-.16l-.129-.466c-.016-.08-.08-.128-.144-.128h-.45a.154.154 0 0 0-.144.112l-.129.466c-.16.064-.225.096-.385.16l-.418-.24a.172.172 0 0 0-.176.016l-.305.305c-.049.048-.065.112-.016.176l.24.418c-.064.16-.096.225-.16.385l-.466.129a.154.154 0 0 0-.112.144v.45c0 .064.048.128.112.144l.466.129c.064.16.096.225.16.385l-.24.418a.172.172 0 0 0 .016.176l.305.305c.048.049.112.065.176.017l.418-.241c.16.064.225.096.385.16l.129.466c.016.064.08.112.144.112h.45a.154.154 0 0 0 .144-.112l.129-.466c.16-.064.225-.096.385-.16l.418.24a.172.172 0 0 0 .176-.016l.306-.305c.048-.048.064-.112.016-.176l-.225-.386c.064-.16.096-.224.16-.385l.466-.129a.154.154 0 0 0 .113-.144v-.45a.154.154 0 0 0-.113-.144zm-2.2 1.317a.966.966 0 0 1-.963-.964c0-.53.433-.963.963-.963s.964.433.964.963a.956.956 0 0 1-.964.964zM8.977 8.11H7.98c-.064 0-.096.048-.096.096v1.943c0 .064.048.096.096.096h.996c.064 0 .096-.048.096-.096V8.222c0-.064-.048-.113-.096-.113zM12.766 7.323h-.995c-.064 0-.097.048-.097.096v2.73c0 .064.049.096.097.096h.995c.065 0 .097-.048.097-.096v-2.73a.104.104 0 0 0-.097-.096zM10.872 6.295h-.996c-.064 0-.096.048-.096.096v3.758c0 .064.048.096.096.096h.996c.064 0 .096-.048.096-.096V6.407c0-.064-.048-.112-.096-.112z"/>
    </g>
</svg>
