<svg width="28" height="17" viewBox="0 0 28 17" xmlns="http://www.w3.org/2000/svg">
    <g fill="#FFF" fill-rule="nonzero">
        <path d="M8.44 0c3.28 0 6.11 1.638 7.29 3.966.13.247.239.505.325.772.182.537.275 1.1.274 1.667 0 1.973-1.106 3.743-2.842 4.9-.23.157-.47.3-.716.43a9.188 9.188 0 0 1-4.34 1.059 9.5 9.5 0 0 1-2.88-.43l-2.17 1.18a.399.399 0 0 1-.197.051.429.429 0 0 1-.223-.064.429.429 0 0 1-.193-.369l.095-2.22A5.878 5.878 0 0 1 .534 6.404C.534 2.873 4.076.005 8.44 0zm-.722 3.583a.529.529 0 0 0-.559 0 .58.58 0 0 0-.28.492v4.283c0 .213.107.386.28.492a.523.523 0 0 0 .559 0l3.112-2.154a.531.531 0 0 0 .266-.48c0-.199-.093-.372-.266-.478L7.731 3.597z"/>
        <path d="M20.076 2.911c4.356 0 7.898 2.873 7.898 6.406a5.878 5.878 0 0 1-2.315 4.544l.09 2.221a.407.407 0 0 1-.429.429.459.459 0 0 1-.197-.047l-2.17-1.18a9.32 9.32 0 0 1-2.877.43c-2.915 0-5.535-1.283-6.902-3.29a7.79 7.79 0 0 0 .75-.454c2.032-1.376 3.194-3.404 3.194-5.573 0-.649-.106-1.293-.313-1.908a4.995 4.995 0 0 0-.364-.858 9.327 9.327 0 0 1 3.635-.72zm.978 8.528a1.025 1.025 0 0 0-.279.03.429.429 0 0 0-.171.094.519.519 0 0 0-.094.189 1.638 1.638 0 0 0-.022.278c0 .092.007.184.022.275a.48.48 0 0 0 .094.18c.049.044.108.076.171.094.091.023.185.033.279.03a.913.913 0 0 0 .262-.03.33.33 0 0 0 .27-.274c.018-.09.027-.182.025-.275a1.256 1.256 0 0 0-.025-.278.454.454 0 0 0-.09-.189.429.429 0 0 0-.18-.094.913.913 0 0 0-.262-.03zm-.043-4.34c-.132 0-.264.01-.394.031l-.343.077c-.091.027-.18.062-.266.103a.429.429 0 0 0-.15.09.189.189 0 0 0-.056.103 1.286 1.286 0 0 0 0 .206 1.625 1.625 0 0 0 0 .218c.002.047.01.093.026.138.008.026.023.05.043.068a.064.064 0 0 0 .047 0 .24.24 0 0 0 .116-.043l.184-.085a1.535 1.535 0 0 1 .622-.133c.131-.001.262.02.386.064.104.04.2.1.278.18a.81.81 0 0 1 .163.27 1.162 1.162 0 0 1 .004.673.656.656 0 0 1-.145.262.733.733 0 0 1-.253.18.9.9 0 0 1-.36.064h-.056a.69.69 0 0 0-.15 0 .27.27 0 0 0-.107.069.257.257 0 0 0-.056.128.956.956 0 0 0 0 .206l.034.93a.163.163 0 0 0 .03.073.088.088 0 0 0 .077.043.763.763 0 0 0 .142.022h.218c.106.002.211-.009.313-.035.073-.021.112-.06.112-.107l.034-.771c.182-.02.359-.07.523-.15.155-.072.293-.176.403-.305a1.36 1.36 0 0 0 .262-.454c.057-.175.084-.357.081-.54a1.69 1.69 0 0 0-.098-.597 1.286 1.286 0 0 0-.313-.501 1.51 1.51 0 0 0-.545-.347 2.238 2.238 0 0 0-.806-.13z"/>
    </g>
</svg>
