<svg width="14" height="16" viewBox="0 0 14 16" xmlns="http://www.w3.org/2000/svg">
    <path d="M8.24 13.44c5.12 0 5.12-3.26 5.12-6.7C13.36 3 13.36 0 6.68 0S0 3 0 6.74c0 3.44 0 6.7 5.12 6.7.88 1.5 2.64 2.52 4.44 2.56-.7-.36-1.24-.92-1.48-1.58-.12-.3-.2-.98.16-.98zm-.98-2.66c-.16.14-.36.22-.6.22-.22 0-.42-.08-.58-.22-.16-.14-.24-.36-.24-.62 0-.24.08-.42.24-.58.16-.16.36-.24.6-.24s.44.08.6.24c.16.16.24.36.24.58 0 .26-.08.46-.26.62zm.22-6.12L7.3 7.32c-.04.34-.08.6-.16.78-.08.16-.22.26-.42.26-.2 0-.34-.08-.42-.26-.08-.18-.14-.42-.16-.76l-.26-2.76c-.02-.26-.04-.5-.04-.74 0-.42.06-.74.16-.96.1-.22.32-.34.64-.34.26 0 .48.08.64.26.16.18.24.42.24.72 0 .24-.02.62-.04 1.14z" fill="#F2F9FF" fill-rule="nonzero"/>
</svg>
