<svg width="15" height="16" viewBox="0 0 15 16" xmlns="http://www.w3.org/2000/svg">
    <path d="M7.122 5.58V4.18a4.761 4.761 0 0 0-4.67 3.914c-.42 2.278.83 4.526 2.97 5.345a1.2 1.2 0 0 1 .689 1.544 1.184 1.184 0 0 1-1.529.695C1.369 14.448-.508 11.075.121 7.658c.634-3.457 3.638-5.865 7-5.86V.636c0-.558.702-.845 1.127-.46l2.732 2.472c.277.25.277.67 0 .921L8.248 6.041c-.425.384-1.126.098-1.126-.46m1.567 7.896a4.376 4.376 0 0 1-.54.158 1.198 1.198 0 0 0 .038 2.346c.152.027.312.026.472-.01.28-.062.554-.142.823-.238.616-.222.94-.907.72-1.53a1.183 1.183 0 0 0-1.513-.726m2.356-1.841c-.05.076-.103.15-.159.224-.4.523-.303 1.274.216 1.678a1.18 1.18 0 0 0 1.663-.22c.085-.112.167-.227.246-.345a1.205 1.205 0 0 0-.32-1.662 1.181 1.181 0 0 0-1.646.325m2.023-3.671c-.654-.018-1.2.527-1.217 1.188a1.18 1.18 0 0 0 1.15 1.215c.654.02 1.2-.51 1.22-1.171l.001-.028a1.17 1.17 0 0 0-1.154-1.204" fill="#56A9FF" fill-rule="nonzero"/>
</svg>
