<svg width="17" height="16" viewBox="0 0 17 16" xmlns="http://www.w3.org/2000/svg">
    <path d="M1.347 9.063c-.588 0-.98.47-.854 1.045 0 0-.088-.314.01.038a8 8 0 1 0-.005-4.275c-.095.347-.005.021-.005.021-.117.577.267 1.045.854 1.045h6.687c.148 0 .183-.084.077-.189 0 0-.864-.862-1.179-1.171-1.015-1.012.493-2.515 1.499-1.513l3.241 3.256a.946.946 0 0 1 .004 1.326l-3.245 3.29c-1.006 1.002-2.514-.5-1.509-1.503.324-.318 1.19-1.18 1.19-1.18.104-.105.07-.19-.078-.19H1.347z" fill="#9B9B9B" fill-rule="nonzero"/>
</svg>
