<svg width="16" height="16" viewBox="0 0 16 16" xmlns="http://www.w3.org/2000/svg">
    <g fill="#F2F9FF" fill-rule="nonzero">
        <path d="M8.825 13.523a.87.87 0 0 1-.538.226H7.5a.868.868 0 0 1-.538-.226L3.24 9.716c-.12-.124-.221-.084-.221.09v5.618a.316.316 0 0 1-.317.316H1.307a.316.316 0 0 1-.316-.316V6.766c0-.174.142-.316.316-.316h.786c.2.01.39.091.538.227l5.042 5.211a.304.304 0 0 0 .44 0l5.042-5.212a.86.86 0 0 1 .537-.227h.787c.175 0 .317.141.317.316v8.658a.316.316 0 0 1-.317.316h-1.395a.316.316 0 0 1-.317-.316V9.805c0-.173-.099-.21-.22-.09l-3.722 3.808z"/>
        <ellipse cx="2.502" cy="2.494" rx="2.502" ry="2.494"/>
        <ellipse cx="13.279" cy="2.494" rx="2.502" ry="2.494"/>
    </g>
</svg>
