<svg width="17" height="12" viewBox="0 0 17 12" xmlns="http://www.w3.org/2000/svg">
    <g fill="#9B9B9B" fill-rule="nonzero">
        <path d="M3.736 4.968c.33.16.697.254 1.087.26a3.387 3.387 0 0 1 2.52-3.453A2.618 2.618 0 0 0 4.892 0a2.618 2.618 0 0 0-2.636 2.593 2.616 2.616 0 0 0 1.48 2.375zM11.585 5.073c0 .07-.004.141-.01.212l.046-.003a2.615 2.615 0 0 0 2.571-2.588A2.619 2.619 0 0 0 11.866.072c-.019-.002-.038-.001-.058-.003a2.585 2.585 0 0 0-.206-.012h-.003a2.65 2.65 0 0 0-.212.009c-.017 0-.035 0-.052.002A2.62 2.62 0 0 0 9.116 1.79a3.387 3.387 0 0 1 2.47 3.282zM13.548 5.184a3.2 3.2 0 0 1-2 .686c-.022 0-.044-.004-.067-.005a3.412 3.412 0 0 1-.732 1.399c.813.297 1.506.83 2.007 1.508l3.107.029a.216.216 0 0 0 .218-.214 3.517 3.517 0 0 0-2.533-3.403zM5.617 7.221a3.407 3.407 0 0 1-.709-1.41c-.022 0-.043.003-.065.003a3.164 3.164 0 0 1-1.987-.72A3.517 3.517 0 0 0 .264 8.45a.216.216 0 0 0 .215.218l3.108.026a4.36 4.36 0 0 1 2.03-1.474zM10.264 7.72a3.383 3.383 0 0 1-2.09.71 3.346 3.346 0 0 1-2.08-.744 3.765 3.765 0 0 0-2.824 3.608.232.232 0 0 0 .23.234l9.295.077a.232.232 0 0 0 .234-.23 3.747 3.747 0 0 0-1.026-2.61 3.766 3.766 0 0 0-1.739-1.044z"/>
        <path d="M5.4 5.022c0 .05.003.1.005.15a2.795 2.795 0 0 0 .847 1.875 2.78 2.78 0 0 0 1.926.797 2.782 2.782 0 0 0 1.938-.764 2.797 2.797 0 0 0 .878-1.865c.003-.049.006-.098.007-.147A2.803 2.803 0 0 0 7.47 2.345 2.804 2.804 0 0 0 5.4 5.022z"/>
    </g>
</svg>
