<svg width="17" height="16" viewBox="0 0 17 16" xmlns="http://www.w3.org/2000/svg">
    <path d="M7.153 0c-.42.022-.832.076-1.232.163l.173.656A6.888 6.888 0 0 1 7.206.672V0c-.018 0-.035-.002-.053 0zm.724 0v.672c.38.018.75.07 1.112.147l.173-.656A7.543 7.543 0 0 0 7.877.001zM5.276.337c-.418.132-.818.3-1.201.498l.335.583c.331-.17.68-.316 1.039-.43l-.173-.65zm5.155.231-.257.619a6.875 6.875 0 0 1 3.99 8.217L12.46 7.924c-.248-.165-.487-.03-.55.189l-1.007 5.034c-.047.23.218.46.44.382l4.867-1.677c.222-.077.288-.419.11-.572l-1.6-1.395A7.553 7.553 0 0 0 10.43.567zm-6.933.603c-.366.233-.714.49-1.033.781l.472.478c.278-.251.575-.48.891-.682l-.33-.577zM1.988 2.43a7.579 7.579 0 0 0-.792 1.027l.577.336c.205-.316.434-.615.687-.892l-.472-.471zm5.218.718v4.022a.5.5 0 0 0-.142.225L3.592 9.397l.336.583 3.42-1.972a.503.503 0 0 0 .53-.839l-.001-4.022h-.671zm-6.351.886c-.201.383-.37.783-.504 1.201l.65.173c.118-.36.263-.707.436-1.038l-.582-.336zM.173 5.88C.078 6.299.021 6.73 0 7.174h.671c.02-.381.073-.754.152-1.117l-.65-.178zM0 7.845c.018.44.067.872.157 1.29l.65-.173a6.904 6.904 0 0 1-.136-1.117H0zm.975 1.767-.645.173c.132.422.3.826.499 1.212l.576-.336a6.794 6.794 0 0 1-.43-1.049zm.766 1.631-.577.336c.234.369.494.716.787 1.038l.477-.472a6.912 6.912 0 0 1-.687-.902zm1.16 1.38-.473.471c.322.296.67.565 1.038.803l.336-.582a6.84 6.84 0 0 1-.902-.693zm1.478 1.032-.336.577c.386.202.79.375 1.212.509l.178-.65a6.866 6.866 0 0 1-1.054-.436zm1.7.609-.174.65c.421.093.856.148 1.3.168v-.672a6.893 6.893 0 0 1-1.127-.146z" fill="#56A9FF" fill-rule="nonzero"/>
</svg>
