<svg width="16" height="16" viewBox="0 0 16 16" xmlns="http://www.w3.org/2000/svg">
    <g fill="#9B9B9B" fill-rule="evenodd">
        <path d="M8 0a8 8 0 0 0-8 8 8 8 0 0 0 8 8 8 8 0 0 0 8-8 8 8 0 0 0-8-8zm0 14.4A6.41 6.41 0 0 1 1.6 8 6.41 6.41 0 0 1 8 1.6 6.41 6.41 0 0 1 14.4 8 6.41 6.41 0 0 1 8 14.4z" fill-rule="nonzero"/>
        <text font-family="Poppins-SemiBold, Poppins" font-size="6" font-weight="500">
                        <tspan x="3.647" y="10">NA</tspan>
                    </text>
    </g>
</svg>
