<svg width="16" height="18" viewBox="0 0 16 18" xmlns="http://www.w3.org/2000/svg">
    <path d="M5.688 16.286A2.145 2.145 0 0 0 7.788 18a2.145 2.145 0 0 0 2.1-1.714h-4.2zm.728-13.544a1.715 1.715 0 1 1 2.743.001 5.568 5.568 0 0 1 4.2 5.4v2.865c0 1.023.406 2.004 1.13 2.728l.961.961a.428.428 0 0 1-.303.732H.428a.428.428 0 0 1-.303-.732l.962-.961a3.857 3.857 0 0 0 1.13-2.728V8.143a5.574 5.574 0 0 1 4.199-5.401zM7.788.857a.857.857 0 1 1 0 1.715.857.857 0 0 1 0-1.715z" fill="#FFF" fill-rule="evenodd"/>
</svg>
