<svg width="16" height="16" viewBox="0 0 16 16" xmlns="http://www.w3.org/2000/svg">
    <path d="M15.996 5.647A5.647 5.647 0 0 0 10.35 0c-.813 0-1.616.178-2.353.522A5.539 5.539 0 0 0 5.643 0 5.647 5.647 0 0 0 2.35 10.23v.123a5.647 5.647 0 0 0 11.294 0v-.122a5.647 5.647 0 0 0 2.353-4.584zm-8-4.07a4.706 4.706 0 0 1 2.353 3.637 5.59 5.59 0 0 0-4.659 0 4.706 4.706 0 0 1 2.306-3.637zm-2.31 4.706a4.668 4.668 0 0 1 4.62 0 4.706 4.706 0 0 1-2.31 3.435 4.706 4.706 0 0 1-2.31-3.459v.024zm1.284 3.9a4.763 4.763 0 0 1-1.327.17 4.64 4.64 0 0 1-2.31-.612 4.734 4.734 0 0 1 1.505-2.87 5.647 5.647 0 0 0 2.132 3.29v.023zm4.184-3.293a4.734 4.734 0 0 1 1.506 2.87 4.64 4.64 0 0 1-2.31.593 4.763 4.763 0 0 1-1.328-.193 5.647 5.647 0 0 0 2.132-3.29v.02zM.937 5.647A4.706 4.706 0 0 1 6.97 1.134a5.647 5.647 0 0 0-2.268 4.513v.123a5.647 5.647 0 0 0-2.221 3.36A4.706 4.706 0 0 1 .937 5.647zm7.06 9.412a4.706 4.706 0 0 1-4.683-4.273 5.577 5.577 0 0 0 4.706 0 5.577 5.577 0 0 0 4.706 0 4.706 4.706 0 0 1-4.73 4.273zm5.51-5.93a5.647 5.647 0 0 0-2.217-3.36v-.122a5.647 5.647 0 0 0-2.268-4.513A4.763 4.763 0 0 1 10.35.941a4.706 4.706 0 0 1 3.158 8.189z" fill="#F2F9FF" fill-rule="nonzero"/>
</svg>
