<svg width="17" height="16" viewBox="0 0 17 16" xmlns="http://www.w3.org/2000/svg">
    <g transform="translate(.8)" fill="#FF6500" fill-rule="nonzero">
        <circle cx="4.393" cy="7.792" r="1"/>
        <circle cx="7.708" cy="7.792" r="1"/>
        <circle cx="11.024" cy="7.792" r="1"/>
        <path d="M7.725 0C3.467 0 0 3.467 0 7.725c0 4.258 3.467 7.725 7.725 7.725 4.258 0 7.725-3.467 7.725-7.725C15.467 3.467 12 0 7.725 0zm0 13.616a5.879 5.879 0 0 1-5.874-5.874 5.879 5.879 0 0 1 5.874-5.874c3.231 0 5.874 2.642 5.874 5.874.017 3.231-2.626 5.874-5.874 5.874z"/>
    </g>
</svg>
