<svg width="16" height="16" viewBox="0 0 16 16" xmlns="http://www.w3.org/2000/svg">
    <g fill="#F2F9FF" fill-rule="nonzero">
        <circle cx="12.8" cy="10.4" r="1.6"/>
        <circle cx="3.2" cy="1.6" r="1.6"/>
        <path d="M6.4 12.8H3.2V9.6a.8.8 0 1 0-1.6 0v4a.8.8 0 0 0 .8.8h4V16l2.4-2.4-2.4-2.4v1.6zM12.8 6.4a.8.8 0 1 0 1.6 0v-4a.8.8 0 0 0-.8-.8H8.8V0L6.4 2.4l2.4 2.4V3.2h4v3.2zM6.4 5.6A1.6 1.6 0 0 0 4.8 4H1.6A1.6 1.6 0 0 0 0 5.6v1.6h6.4V5.6zM14.4 12.8h-3.2a1.6 1.6 0 0 0-1.6 1.6V16H16v-1.6a1.6 1.6 0 0 0-1.6-1.6z"/>
    </g>
</svg>
