<svg width="16" height="16" viewBox="0 0 16 16" xmlns="http://www.w3.org/2000/svg">
    <path d="M3.667 10c.184 0 .333.15.333.333v5.334c0 .184-.15.333-.333.333H.333A.333.333 0 0 1 0 15.667v-5.334C0 10.15.15 10 .333 10h3.334zm6-4c.184 0 .333.15.333.333v9.334c0 .184-.15.333-.333.333H6.333A.333.333 0 0 1 6 15.667V6.333C6 6.15 6.15 6 6.333 6h3.334zm6-6c.184 0 .333.15.333.333v15.334c0 .184-.15.333-.333.333h-3.334a.333.333 0 0 1-.333-.333V.333c0-.184.15-.333.333-.333h3.334z" fill="#F2F9FF" fill-rule="nonzero"/>
</svg>
