<svg width="16" height="16" viewBox="0 0 16 16" xmlns="http://www.w3.org/2000/svg">
    <path d="M7.78.317C3.6.317.2 3.717.2 7.896s3.4 7.579 7.58 7.579c4.179 0 7.578-3.4 7.578-7.58 0-4.178-3.4-7.578-7.579-7.578zm0 13.895a6.323 6.323 0 0 1-6.316-6.316A6.323 6.323 0 0 1 7.779 1.58a6.323 6.323 0 0 1 6.316 6.316 6.323 6.323 0 0 1-6.316 6.316zm2.972-8.396-2.08 2.08 2.08 2.08a.631.631 0 1 1-.893.893l-2.08-2.08-2.08 2.08a.63.63 0 0 1-.892 0 .631.631 0 0 1 0-.894l2.08-2.08-2.08-2.079a.631.631 0 1 1 .893-.893l2.08 2.08 2.08-2.08a.631.631 0 1 1 .892.893z" fill="#D0021B" fill-rule="nonzero"/>
</svg>
