<svg width="14" height="16" viewBox="0 0 14 16" xmlns="http://www.w3.org/2000/svg">
    <path d="M9.384 4.199h-5.01C1.913 6.635-1.14 10.465.43 13.257c1.24 2.21 4.046 2.779 6.767 2.743 2.722-.039 5.36-.685 6.267-2.741 1.157-2.627-1.797-6.563-4.08-9.059V4.2zm-2.048 8.538v.787H6.58v-.733c-.516-.023-1.017-.162-1.31-.332l.23-.902c.324.178.78.339 1.28.339.44 0 .741-.17.741-.479 0-.293-.246-.477-.817-.67-.827-.278-1.388-.664-1.388-1.412 0-.679.477-1.21 1.303-1.374v-.733h.756v.68c.517.023.864.13 1.12.253l-.226.874c-.2-.086-.554-.263-1.11-.263-.502 0-.663.216-.663.432 0 .253.27.416.925.663.918.325 1.288.749 1.288 1.442 0 .687-.485 1.274-1.373 1.427v.001zM10.866.42C10.18.003 9.333 1.506 8.729 1.483 8.124 1.46 7.647-.024 6.958 0c-.691.024-.965 1.374-1.518 1.502-.553.125-1.933-1.595-2.487-.99-.449.488.924 2.446 1.46 3.168h4.95C9.925 2.912 11.429.76 10.865.42l.002.001z" fill="#F2F9FF" fill-rule="nonzero"/>
</svg>
