<svg width="17" height="16" viewBox="0 0 17 16" xmlns="http://www.w3.org/2000/svg">
    <g fill="#13B600" fill-rule="nonzero">
        <path d="M16.329 11.458H7.81c.269-.88.51-1.833.734-2.806.598-.407 1.185-.74 1.688-.94.415-.164.624-.177.703-.177.025 0 .037.003.038 0 .016.039.168.515-.709 2.266-.195.392-.157.68.117.858.425.276.624.034 1.363-.867.5-.61 1.337-1.633 1.752-1.913.441-.298.696-.309.75-.264.1.078.203.564-.143 1.49a.522.522 0 0 0 .976.366c.463-1.24.395-2.216-.188-2.676-.286-.224-.921-.495-1.979.22-.249.169-.546.457-.878.823.03-.435-.068-.763-.289-1.004-.567-.619-1.569-.222-1.897-.091a7.803 7.803 0 0 0-.99.49c.082-.377.161-.752.24-1.124.032-.148.062-.295.094-.44.861-.453 1.594-.965 1.956-1.449 1.496-1.994 1.323-3.083 1.088-3.554A1.194 1.194 0 0 0 11.146 0c-.726 0-1.448.541-1.884 1.413-.341.682-.649 1.983-.984 3.543-1.225.579-2.655 1.033-3.414 1.033a.521.521 0 0 0 0 1.042c.77 0 1.977-.329 3.145-.81-.122.576-.254 1.194-.397 1.824-1.395 1.006-2.806 2.336-3.417 3.413H.348a.348.348 0 0 0 0 .695h3.496c-.418.919-.994 2.513-.403 3.325.162.222.458.46.98.46.113 0 .237-.011.371-.036 1.232-.227 2.106-1.733 2.794-3.75h8.743a.348.348 0 0 0 0-.694zm-6.135-9.58c.287-.573.695-.835.951-.835.105 0 .136.044.16.09.127.255.062 1.06-.99 2.463-.166.22-.457.46-.824.698.242-1.07.476-1.96.703-2.415zM7.226 9.657c-.159.622-.328 1.23-.51 1.802h-1.27c.433-.565 1.072-1.204 1.78-1.802zm-2.622 5.222c-.202.037-.302.012-.32-.014-.191-.262.086-1.485.72-2.71h1.479c-.531 1.486-1.152 2.59-1.879 2.724z"/>
        <path d="M.102 9.883a.349.349 0 0 0 .491 0l.797-.797.796.796a.347.347 0 1 0 .492-.49l-.797-.798.796-.796a.348.348 0 0 0-.491-.491l-.796.796-.797-.796a.348.348 0 0 0-.49.491l.796.796-.797.797a.348.348 0 0 0 0 .492z"/>
    </g>
</svg>
