<svg width="17" height="16" viewBox="0 0 17 16" xmlns="http://www.w3.org/2000/svg">
    <path d="M16.417 9.098V6.819L13.82 6.1a4.808 4.808 0 0 0-.252-.62l1.324-2.33-1.625-1.624-2.346 1.323a3.815 3.815 0 0 0-.603-.251L9.614 0H7.302L6.6 2.597c-.201.084-.42.167-.604.251L3.65 1.525 2.025 3.15l1.323 2.329a4 4 0 0 0-.251.62L.5 6.819v2.295l2.597.704c.067.201.15.402.251.603l-1.323 2.33 1.625 1.624 2.345-1.323c.185.1.403.184.604.251l.72 2.597h2.295l.704-2.58c.201-.084.419-.168.603-.252l2.346 1.324 1.625-1.625-1.324-2.329c.101-.201.185-.402.252-.603l2.597-.737zm-7.959 1.575a2.703 2.703 0 0 1-2.714-2.715 2.703 2.703 0 0 1 2.714-2.714 2.714 2.714 0 1 1 0 5.429z" fill="#9B9B9B" fill-rule="nonzero"/>
</svg>
