<svg width="16" height="10" viewBox="0 0 16 10" xmlns="http://www.w3.org/2000/svg">
    <path d="M10.282 1.936a.616.616 0 0 1 .618.614l.068 6.823a.616.616 0 0 1-.605.627.616.616 0 0 1-.618-.614l-.068-6.824a.616.616 0 0 1 .605-.626zm-2.91 2.343c.3-.003.55.22.6.513l.009.101.044 4.48a.612.612 0 0 1-.597.627.608.608 0 0 1-.6-.514l-.01-.1-.044-4.48a.612.612 0 0 1 .597-.627zM.55 0l11.773.013.06-.007c.1-.003.198 0 .295.007h.02c.043 0 .086.005.126.015 1.292.18 2.288 1.327 2.336 2.697.052 1.502-1.134 2.762-2.65 2.815a.547.547 0 0 1-.567-.525.547.547 0 0 1 .53-.563 1.64 1.64 0 0 0 1.59-1.689c-.031-.873-.668-1.585-1.45-1.663l-7.417-.007.005.057.084 8.232a.615.615 0 0 1-.612.618.616.616 0 0 1-.616-.516l-.008-.09-.083-8.231c0-.025 0-.048.003-.072l-3.42-.003A.547.547 0 0 1 0 .544C0 .244.246 0 .55 0zm6.878 1.935c.351 0 .637.294.637.655a.646.646 0 0 1-.637.655.646.646 0 0 1-.637-.655c0-.361.285-.655.637-.655z" fill="#F2F9FF" fill-rule="nonzero"/>
</svg>
