<svg width="33" height="30" viewBox="0 0 33 30" xmlns="http://www.w3.org/2000/svg">
    <g fill="none" fill-rule="evenodd">
        <path d="M23.05 21.554a1.642 1.642 0 0 0-1.37-2.54 1.641 1.641 0 0 0 0 3.279c.325-.001.636-.096.902-.271L23.86 23.3c.09.091.237.091.327 0l.141-.14a.232.232 0 0 0 0-.328l-1.279-1.278zm-.669-.2a.985.985 0 0 1-.701.29.993.993 0 0 1 0-1.983.993.993 0 0 1 .701 1.693z"/>
        <path d="M22.218 17.381a3.813 3.813 0 0 0-3.81 3.81A3.813 3.813 0 0 0 22.219 25c2.1 0 3.81-1.709 3.81-3.81 0-2.1-1.71-3.809-3.81-3.809zm2.11 5.778-.141.141a.23.23 0 0 1-.327 0l-1.279-1.278c-.265.175-.576.27-.901.27a1.641 1.641 0 0 1 0-3.279 1.642 1.642 0 0 1 1.37 2.54l1.277 1.279c.09.09.09.237 0 .327z" fill="#FFF" fill-rule="nonzero"/>
        <path d="M21.68 19.661a.993.993 0 0 0 0 1.983.993.993 0 0 0 0-1.983z" fill="#FFF" fill-rule="nonzero"/>
        <path d="M16.153 14.598c1.758 0 3.403.427 4.814 1.172a5.715 5.715 0 0 0-3.14 8.278H6.67c-.083-.298-.083-.67-.083-.968 0-4.687 4.242-8.482 9.566-8.482zm0-9.598c2.744 0 4.99 2.009 4.99 4.464 0 2.53-2.246 4.539-4.99 4.539-2.828 0-5.074-2.009-5.074-4.539C11.079 7.01 13.325 5 16.153 5z" fill="#FFF"/>
    </g>
</svg>
