<svg width="16" height="14" viewBox="0 0 16 14" xmlns="http://www.w3.org/2000/svg">
    <g fill="#F2F9FF" fill-rule="nonzero">
        <path d="M13.293 0c1.208 0 1.208 1.208 1.208 1.208v.955h-3.577c-.02 0-.04 0-.06.002h-.846c-1.157 0-2.099.941-2.099 2.098v1.812c0 1.157.942 2.098 2.1 2.098H14.5v3.707c-.005.118-.068 1.197-1.21 1.197H1.21A1.21 1.21 0 0 1 0 11.868V1.208A1.21 1.21 0 0 1 1.209 0h12.084zM4.451 2.732h-.925v.947c-.78.113-1.384.78-1.384 1.592 0 .89.724 1.615 1.616 1.615h.46a.693.693 0 0 1 .001 1.385h-.461a.693.693 0 0 1-.693-.692v-.231h-.923v.231c0 .811.604 1.48 1.384 1.593v.947h.924v-.947a1.614 1.614 0 0 0 1.384-1.594c0-.89-.725-1.615-1.615-1.615h-.461a.693.693 0 0 1 0-1.385h.46c.383 0 .693.31.693.693v.23h.923v-.23c0-.812-.603-1.48-1.384-1.592v-.947z"/>
        <path d="M15.028 3.054h-.002l-.015-.001h-4.087l-.02.001h-.886A1.21 1.21 0 0 0 8.81 4.263v1.812a1.21 1.21 0 0 0 1.21 1.209h5.01v-.002c.371-.013.374-.39.374-.39V3.444s-.003-.377-.375-.39zm-4.505 2.798a.683.683 0 1 1-.003-1.368.683.683 0 0 1 .003 1.37v-.002z"/>
    </g>
</svg>
