<svg width="113" height="99" viewBox="0 0 113 99" xmlns="http://www.w3.org/2000/svg" xmlns:xlink="http://www.w3.org/1999/xlink">
    <defs>
        <path id="a" d="M0 98.123h112.37V0H0z"/>
        <path id="c" d="M0 0h5.504v2.627H0z"/>
    </defs>
    <g fill="none" fill-rule="evenodd">
        <path d="M103.33 98.123H9.04a3.257 3.257 0 1 1 0-6.515h94.29a3.258 3.258 0 1 1 0 6.515" fill="#C7E2E0"/>
        <path d="M48.543 6.19a2.439 2.439 0 0 0-2.32-1.691c-.552 0-1.059.185-1.468.494a1.948 1.948 0 0 0-.645-.381 2.693 2.693 0 0 0-3-2.398A3.885 3.885 0 0 0 36.778.79a3.63 3.63 0 0 0-5.592 1.409c-.038-.002-.075-.006-.113-.006a3.295 3.295 0 0 0-3.29 3.144 2.532 2.532 0 0 0-.387-.033 2.527 2.527 0 1 0 .875 4.896 3.485 3.485 0 0 0 6.333 1.695 3.655 3.655 0 0 0 1.973.317 3.092 3.092 0 0 0 2.481 1.247 3.098 3.098 0 0 0 2.82-1.818 3.581 3.581 0 0 0 4.637-.578 2.64 2.64 0 0 0 3.507-2.5c0-1.043-.604-1.941-1.479-2.373M110.566 45.714a2.975 2.975 0 0 0-2.83-2.062c-.674 0-1.292.226-1.79.602a2.37 2.37 0 0 0-.787-.465 3.285 3.285 0 0 0-3.66-2.925 4.74 4.74 0 0 0-5.285-1.737 4.406 4.406 0 0 0-2.753-.964 4.427 4.427 0 0 0-4.068 2.682c-.047-.001-.092-.007-.139-.007a4.02 4.02 0 0 0-4.013 3.835 3.092 3.092 0 0 0-.472-.04 3.083 3.083 0 0 0 0 6.167c.376 0 .735-.07 1.068-.194a4.251 4.251 0 0 0 7.725 2.068 4.461 4.461 0 0 0 2.407.386 3.772 3.772 0 0 0 3.027 1.522 3.78 3.78 0 0 0 3.44-2.218 4.367 4.367 0 0 0 5.656-.705 3.228 3.228 0 0 0 4.278-3.05 3.225 3.225 0 0 0-1.804-2.895M28.918 41.954a2.979 2.979 0 0 0-2.834-2.065c-.674 0-1.293.226-1.792.603a2.374 2.374 0 0 0-.788-.466 3.29 3.29 0 0 0-3.665-2.929 4.745 4.745 0 0 0-5.292-1.74 4.411 4.411 0 0 0-2.756-.964 4.434 4.434 0 0 0-4.074 2.686c-.047-.002-.092-.007-.139-.007a4.025 4.025 0 0 0-4.018 3.84 3.096 3.096 0 0 0-.473-.04 3.087 3.087 0 0 0 0 6.175c.377 0 .736-.071 1.07-.194a4.257 4.257 0 0 0 7.735 2.07c.574.267 1.211.42 1.886.42.177 0 .352-.013.523-.033a3.777 3.777 0 0 0 3.032 1.523 3.785 3.785 0 0 0 3.445-2.22 4.374 4.374 0 0 0 5.664-.706c.33.113.682.178 1.05.178a3.23 3.23 0 0 0 1.426-6.13" fill="#FFF"/>
        <path d="m84.356 94.06-56.695-.264a2.799 2.799 0 0 1-2.786-2.812l.328-70.249a2.799 2.799 0 0 1 2.811-2.785l56.696.264a2.799 2.799 0 0 1 2.786 2.812l-.328 70.249a2.799 2.799 0 0 1-2.812 2.786" fill="#ADBEE9"/>
        <path fill="#8096C1" d="m83.886 92.404-56.935-.265.33-70.852 56.936.265z"/>
        <path fill="#FFF" d="m83.89 91.561-55.74-.26.33-70.852 55.74.26z"/>
        <mask id="b" fill="#fff">
            <use xlink:href="#a"/>
        </mask>
        <path d="M70.853 41.466H77.8v-6.948h-6.947v6.948zm-.458.457h7.863V34.06h-7.863v7.863z" fill="#D1DBDB" mask="url(#b)"/>
        <path fill="#ADBEE9" mask="url(#b)" d="M34.611 35.591h16.336v-1.53H34.611z"/>
        <path fill="#D1DBDB" mask="url(#b)" d="M34.611 37.747H65.84v-.52H34.611zM34.611 39.835H65.84v-.52H34.611zM34.611 41.923H65.84v-.52H34.611zM70.853 56.909H77.8V49.96h-6.947v6.948zm-.458.457h7.863v-7.862h-7.863v7.862z"/>
        <path fill="#ADBEE9" mask="url(#b)" d="M34.611 51.034h16.336v-1.53H34.611z"/>
        <path fill="#D1DBDB" mask="url(#b)" d="M34.611 53.19H65.84v-.52H34.611zM34.611 55.278H65.84v-.52H34.611zM34.611 57.366H65.84v-.52H34.611zM70.853 72.352H77.8v-6.948h-6.947v6.948zm-.458.457h7.863v-7.862h-7.863v7.862z"/>
        <path fill="#ADBEE9" mask="url(#b)" d="M34.611 66.478h16.336v-1.53H34.611z"/>
        <path fill="#D1DBDB" mask="url(#b)" d="M34.611 68.634H65.84v-.521H34.611zM34.611 70.721H65.84v-.52H34.611zM34.611 72.81H65.84v-.521H34.611z"/>
        <path d="M70.116 35.95s2.57 1.522 4.05 4.462c0 0 3.448-5.502 7.25-6.856l-.986-1.311s-3.274 1.971-6.09 6.88c0 0-1.126-2.797-3.133-4.451l-1.091 1.277zM71.92 51.1s2.57 1.52 4.051 4.46c0 0 3.448-5.5 7.25-6.855l-.986-1.312s-3.274 1.972-6.09 6.88c0 0-1.126-2.796-3.133-4.45L71.921 51.1z" fill="#116EC1" mask="url(#b)"/>
        <path d="M83.38 59.667s-3.206-4.787-4.925-5.945c0 0-.844.925-1.13 1.647 0 0 3.206 3.973 3.928 5.418l2.128-1.12zM88.017 93.46s-.295.801-1.17 1.619c-.873.817-1.391 1.488-.985 1.656.406.169 3.643-.887 4.403-1.199.763-.312 1.344-.346-.088-2.66l-2.16.584z" fill="#3D9EED" mask="url(#b)"/>
        <path d="M84.358 76.267s-1.327 9.63 3.659 17.193l2.16-.584s-3.622-8.905-2.725-14.118l1.302-.199s2.42 6.554 12.393 6.554v-2.368s-9.867.176-9.754-8.889l-7.035 2.411z" fill="#062F71" mask="url(#b)"/>
        <path d="M88.794 93.25c-4.692-6.384-2.801-17.228-2.801-17.228v-.315l-1.635.56s-1.327 9.63 3.659 17.193l.777-.21zM101.147 84.03c-7.282.704-11.207-5.235-11.207-5.235.6-.874.421-2.372.421-2.372-.338 1-2.909 2.335-2.909 2.335l1.302-.199s2.42 6.554 12.393 6.554V84.03z" fill="#061D38" mask="url(#b)"/>
        <path d="M83.607 66.156s-2.574 2.906-9.2 5.544l.744 1.505s5.693-.756 8.456-3.85c0 0-.036 4.48.751 6.912 0 0 6.083-.683 7.036-2.41 0 0-2.591-7.063-5.259-10.149l-2.528 2.448z" fill="#3D9EED" mask="url(#b)"/>
        <path d="M86.501 62.415a3.281 3.281 0 1 1-6.562 0 3.281 3.281 0 0 1 6.562 0" fill="#FFC99C" mask="url(#b)"/>
        <path d="M101.147 85.113s.908.493 1.796 1.221c.888.728 1.59 1.8 1.778 1.145.187-.653-1.083-3.95-1.314-4.734-.148-.505-2.26 0-2.26 0v2.368z" fill="#3D9EED" mask="url(#b)"/>
        <path d="M80.022 61.682s.252.733 1.725.733 2.446.317 2.572 1.045c0 0 .462-.655.75-.619.287.037.27 1.241-.34 1.404l.99.425s1.418-1.79.782-3.941c-.471-1.595-1.69-1.595-1.69-1.595s-1.375-1.005-2.66-.518c-1.284.488-2.472 2.186-2.893 1.348 0 0-.18 1.703.764 1.718" fill="#062F71" mask="url(#b)"/>
        <path d="M74.406 71.7s-1.359-.85-1.933-.638c-.574.211.967 1.008.967 1.008s-1.607 1.177-2.386 1.59c-.78.412 1.942 1.175 4.097-.455l-.745-1.505zM77.325 55.37s-2.007.123-2.24-.2c-.23-.322.766-.55 1.483-.554 0 0 .685-2.866 1.294-3.088 1.22-.445.593 2.194.593 2.194s-.966 1.24-1.13 1.647" fill="#FFC99C" mask="url(#b)"/>
        <path d="M80.022 61.682s.252.733 1.725.733 2.446.317 2.572 1.045c0 0 .462-.655.75-.619.287.037.27 1.241-.34 1.404l.99.425s.447-.565.726-1.44c-.033-.509-.086-.998-.17-1.252-.224-.67-.76-.402-1.566-.402-.804 0-.76-1.163-.76-1.163s-.983 1.029-2.324.984c-1.045-.035-1.897-.883-2.223-1.257a.445.445 0 0 1-.144-.176s-.18 1.703.764 1.718" fill="#061D38" mask="url(#b)"/>
        <path d="M84.486 67.322s-.358.468-3.666 2.666c-1.948 1.294-4.376 2.053-6.044 2.46l.375.757s5.693-.756 8.456-3.85c0 0-.036 4.48.75 6.912 0 0 .688-.077 1.636-.245-1.465-3.812-1.507-8.7-1.507-8.7M88.863 94.542c.201-.251.115-.76-.07-1.292l-.776.21s-.295.801-1.17 1.619c-.873.817-1.391 1.488-.985 1.656.118.049.476-.006.941-.115.545-1.131 1.652-1.566 2.06-2.078M104.72 87.48c.056-.194-.017-.62-.152-1.142-.776-.676-1.787-1.55-2.171-1.858-.197-.158-.675-.311-1.25-.45v1.083s.908.493 1.796 1.221c.888.728 1.59 1.8 1.778 1.146" fill="#116EC1" mask="url(#b)"/>
        <path d="M58.024 13.87s8.654 1.722 11.538 11.967h-1.879s-3.215-7.186-7.678-7.755H48.954s2.43-3.226 5.75-3.719l3.32-.493z" fill="#3D9EED" mask="url(#b)"/>
        <path d="M65.693 21.373c-2.513-2.822-4.213-4.29-6.03-4.406-1.817-.116-3.595.038-4.407-.928-.373-.444-.753-1.05-1.056-1.577-3.058.72-5.246 3.62-5.246 3.62h11.051c4.463.569 7.678 7.755 7.678 7.755h.592a13.064 13.064 0 0 0-2.582-4.464" fill="#116EC1" mask="url(#b)"/>
        <path d="M59.841 13.105a.526.526 0 0 0-.35-.002v-.005a3.38 3.38 0 1 0-6.762 0v.005a.526.526 0 0 0-.35.002c-.306.113-.446.494-.314.854.132.359.486.559.791.447a.507.507 0 0 0 .114-.06 3.38 3.38 0 0 0 3.14 2.133 3.38 3.38 0 0 0 3.14-2.133.5.5 0 0 0 .114.06c.305.112.66-.088.791-.447.132-.36-.009-.741-.314-.854" fill="#FFC99C" mask="url(#b)"/>
        <path d="M53.689 12.583c0-.985.38-1.878.999-2.549a3.378 3.378 0 0 0-1.959 3.064v.005a.526.526 0 0 0-.35.002c-.305.112-.446.494-.314.853.132.36.486.56.791.448a.497.497 0 0 0 .114-.06 3.38 3.38 0 0 0 4.125 1.986 3.767 3.767 0 0 1-3.406-3.75" fill="#EAAE81" mask="url(#b)"/>
        <path d="M57.098 11.113s-1.166 1.802-2.832 1.985l.362-.971s-1.462.497-1.654 1.472c0 0-.325-.476-.595-.494 0 0-.364-4.967 4.402-4.288l-.269-.542s1.822.167 2.405 1.825c0 0 1.174.415.924 3.005 0 0-.32-.167-.615.278 0 0-.364-2.05-2.128-2.27" fill="#062F71" mask="url(#b)"/>
        <path d="M67.683 25.838s-.507 1.168-.427 1.515c.081.346.575.141.849-.463 0 0 .782.046 1.198.856.416.81.764 1.41.948.902.186-.509.402-1.411-.69-2.81h-1.878zM50.058 17.822s-2.123-.34-2.246.113c-.123.452-.25 1.256.192 1.404.442.148 2.609.143 2.688-.317.08-.46.178-1.105-.634-1.2" fill="#FFC99C" mask="url(#b)"/>
        <path d="M56.11 10.644c-1.222-.131-2.45.293-2.45.293.681-1.452 1.734-2 2.206-2.181-3.8.048-3.487 4.35-3.487 4.35.27.017.595.493.595.493.192-.976 1.654-1.472 1.654-1.472l-.362.97c1.43-.823 1.844-2.453 1.844-2.453" fill="#061D38" mask="url(#b)"/>
        <path d="m54.235 90.982-3.676-.725.002-.358-.91.18-.91-.18.001.358-3.675.725s-5.073 1.603-4.837 3.859c.216 2.067 5.99 2.674 9.42 1.666 3.431 1.008 9.206.401 9.422-1.666.236-2.256-4.837-3.859-4.837-3.859" fill="#062F71" mask="url(#b)"/>
        <path d="M59.072 94.84c.006-.056.006-.112.006-.167-1.545 1.321-5.398 1.136-5.755-.057-.385-1.284 1.669-1.673 1.669-1.673h-6.033c-1.635 0-3.063.35-3.063.35l3.76.636 1.096 1.661s-8.526-.468-8.449-1.661c.078-1.194 6.246-3.634 6.247-3.634l-3.484.687s-5.072 1.603-4.836 3.859c.216 2.067 5.99 2.674 9.42 1.666 3.431 1.008 9.206.401 9.422-1.666" fill="#061D38" mask="url(#b)"/>
        <path d="m65.085 77.604-.253-.792s-.962-1.368-.61-1.698c.352-.33.377.486 1.11.782.734.295 3.768-1.193 3.96-.658.17.472-2.424 1.574-3.222 2.572l-.985-.206z" fill="#FFC99C" mask="url(#b)"/>
        <path d="M49.446 79.66s-3.573 1.263-4.056 1.584c-.74.492-3.612 6.314-3.308 7.15.588 1.622 5.473 2.39 5.473 2.39h6.195l.99-7.736s5.6.1 6.177.006c1.364-.222 5.153-5.244 5.153-5.244s-.868-1.075-1.238-.998c0 0-4.1 3.983-4.69 4.056-.592.073-9.25-1.19-9.74-1.201-.49-.01-.956-.007-.956-.007" fill="#3D9EED" mask="url(#b)"/>
        <path d="M45.578 81.142c-.082.04-.147.075-.188.102-.74.492-3.612 6.314-3.308 7.151.3.825 1.712 1.429 3.027 1.823l.452-.925s-2.723-1.52-2.546-2.028c.156-.448 2.003-4.872 2.563-6.123" fill="#116EC1" mask="url(#b)"/>
        <path d="M50.637 79.632c0 .463-.442.838-.986.838-.545 0-.986-.375-.986-.838 0-.462.441-.837.986-.837.544 0 .986.375.986.837" fill="#D89A71" mask="url(#b)"/>
        <path d="M53.387 76.293a.526.526 0 0 0-.35-.001v-.006a3.38 3.38 0 1 0-6.762 0v.006a.526.526 0 0 0-.35.001c-.306.113-.446.495-.314.854s.486.559.791.447a.5.5 0 0 0 .113-.06 3.38 3.38 0 0 0 3.14 2.133 3.38 3.38 0 0 0 3.14-2.133.507.507 0 0 0 .114.06c.305.112.66-.088.792-.447.131-.36-.009-.741-.314-.854" fill="#FFC99C" mask="url(#b)"/>
        <path d="M50.949 79.327a4.29 4.29 0 0 1-4.29-4.29c0-.118.008-.233.017-.348a3.365 3.365 0 0 0-.401 1.597v.005a.526.526 0 0 0-.35.002c-.306.112-.446.494-.314.853.131.36.486.56.79.448a.508.508 0 0 0 .114-.06 3.38 3.38 0 0 0 4.639 1.782c-.069.004-.136.01-.205.01" fill="#EAB186" mask="url(#b)"/>
        <path d="M47.801 74.652s.463.896 2.583.823c2.12-.074 2.364.615 2.388 1.337 0 0 .103-.515.615-.519 0 0 .28-1.982-1.351-3.143-2.465-1.754-4.527.226-4.527.226s-1.86.45-1.585 2.917c0 0 .513-.014.683.375 0 0 .073-1.45 1.194-2.016" fill="#062F71" mask="url(#b)"/>
        <path d="M54.849 84.176H44.463a.558.558 0 0 0-.558.558v5.491a.558.558 0 0 0 .558.558h10.386a.558.558 0 0 0 .558-.558v-5.49c0-.15-.058-.29-.164-.396a.555.555 0 0 0-.394-.163" fill="#D1DBDB" mask="url(#b)"/>
        <path d="M55.234 91.456H44.077a.166.166 0 0 1-.084-.022.18.18 0 0 1-.088-.157v-.314c0-.05.019-.095.05-.127a.169.169 0 0 1 .122-.053h11.157c.048 0 .091.02.122.053.032.032.05.077.05.127v.314a.182.182 0 0 1-.039.114.17.17 0 0 1-.133.065" fill="#ADBEE9" mask="url(#b)"/>
        <path d="M50.752 87.48a1.101 1.101 0 1 1-2.203 0 1.101 1.101 0 0 1 2.203 0" fill="#FFF" mask="url(#b)"/>
        <path d="M49.65 96.507s.918-.245 1.708.775c.79 1.02 1.899 1.02 1.962.487.064-.535-1.105-2.415-1.506-2.928-.4-.513-.852-1.098-1.177-.856-.326.243-.981.198-.981.198s.403.762-.005 2.324" fill="#3D9EED" mask="url(#b)"/>
        <path d="M50.806 74.933c-1.61.18-2.481-.894-2.481-.894-1.028.224-1.61.783-1.61.783.184-.672.45-1.145.6-1.378-.467.194-1.611.875-1.39 2.85 0 0 .512-.016.682.374 0 0 .074-1.45 1.194-2.016 0 0 .463.896 2.583.823 2.12-.073 2.364.615 2.388 1.337.142-1.076-.356-2.057-1.966-1.879" fill="#061D38" mask="url(#b)"/>
        <path d="M60.917 83.054c1.364-.222 5.153-5.244 5.153-5.244s-.15-.184-.35-.395c-1.27 1.447-4.43 5.012-4.83 5.112-.502.126-6.053-.242-6.053-.242l-.097.763s5.6.1 6.177.006M51.358 97.282c.79 1.02 1.899 1.02 1.962.486a.798.798 0 0 0-.037-.283 1.37 1.37 0 0 1-.575.001c-.604-.129-.826-1.018-1.459-1.46-.31-.217-.908-.353-1.435-.436a5.57 5.57 0 0 1-.163.917s.917-.245 1.707.775M62.02 71.028s2.57 1.521 4.05 4.461c0 0 3.448-5.501 7.25-6.855l-.985-1.312s-3.274 1.971-6.09 6.88c0 0-1.127-2.796-3.134-4.451l-1.091 1.277z" fill="#116EC1" mask="url(#b)"/>
        <path d="m12.466 86.937 1.899 5.697c0 .519 1.005.94 2.245.94 1.24 0 2.245-.421 2.245-.94l1.9-5.697h-8.29z" fill="#ADBEE9" mask="url(#b)"/>
        <path d="M20.754 86.937c0 .519-1.855.94-4.144.94s-4.144-.421-4.144-.94c0-.519 1.855-.94 4.144-.94s4.144.421 4.144.94" fill="#8096C1" mask="url(#b)"/>
        <path d="M13.021 87.406c.717.281 2.055.47 3.589.47 1.534 0 2.872-.189 3.588-.47-.716-.28-2.054-.47-3.588-.47-1.534 0-2.872.19-3.589.47" fill="#FFF" mask="url(#b)"/>
        <path d="M14.067 92.583a2.357 2.357 0 0 1-2.297-1.845 2.356 2.356 0 0 1 1.79-2.805l.114.52a1.822 1.822 0 0 0-1.384 2.17 1.822 1.822 0 0 0 2.17 1.385l.115.52c-.17.037-.34.055-.508.055" fill="#ADBEE9" mask="url(#b)"/>
        <path d="M15.845 80.092c.033-.059-.05-.13-.097-.075-.33.395-.383.89-.307 1.39.067.44.253.842.389 1.262.187.58.188 1.015.061 1.604-.028.131.14.2.214.09.906-1.337-1.06-2.838-.26-4.271M17.2 79.603c.08-.09-.043-.213-.134-.133-1.748 1.543.534 3.653-.303 5.455-.085.184.16.426.307.237 1.344-1.738-1.416-3.842.13-5.559M18.47 83.323c-.282-.977-.803-2.115-.04-3.018.09-.105-.054-.255-.153-.153-.504.517-.624 1.168-.536 1.87.061.485.234.935.347 1.407.183.765-.046 1.191-.2 1.914a.168.168 0 0 0 .305.129c.444-.652.49-1.41.277-2.149" fill="#FFF" mask="url(#b)"/>
        <g mask="url(#b)">
            <path d="M35.342 67.414s1.183.071 1.515.256c.331.184 2.569-.521 2.61-.684.042-.163 0-.243 0-.243h-4.392l.267.67z" fill="#DE9673"/>
            <path d="M30.029 62.195s-.377 2.967 0 3.355c1.442 1.486 6.787 1.368 6.787 1.368l-.002.604s-8.125 1.013-8.88-.563c-.906-1.893-.554-4.981-.554-4.981l2.649.217z" fill="#DE9673"/>
            <path fill="#2F4563" d="m27.348 93.457.482-.55-.871-.911-.736.515z"/>
            <path d="M26.223 92.511s.994.75 1.271.78c.277.03.407.153.374.574-.033.422.404 2.196.709 2.225.304.028 1.341.034 1.53.717.187.684-3.29.54-3.505-.02-.215-.56-1.713-3.278-1.535-3.496.177-.219.646-.71 1.156-.78" fill="#1E2D40"/>
            <path d="M32.604 71.278s6.496 11.317 3.86 13.658c-1.035.918-2.03 1.749-3.461 2.978-.761.653-1.68 1.41-2.768 2.543l-.045.047a182.028 182.028 0 0 0-1.634 1.725l-.022.023-.723.69-1.06-.932s1.202-1.664 1.88-2.942c.952-1.794 2.55-3.902 3.29-4.49 1.268-1.008 1.616-1.206 1.616-2.17 0-1.033-5.954-6.805-5.954-6.805s-.864-3.613 1.2-4.559c2.01-.921 3.82.234 3.82.234" fill="#23344A"/>
            <path d="M27.65 95.21s-.042-.521.046-.854c.088-.334-1.345-.142-1.345-.142s-.184 1.392-.13 1.71c.053.319 1.428-.714 1.428-.714" fill="#41608A"/>
            <path d="m27.917 94.357-1.932.349s-.14-2.466-.114-4.355c.027-2.03-.076-3.627.545-5.243.58-1.512.448-2.088.498-3.12.051-1.031-.495-6.346-.495-6.346s-.66-2.38.868-4.057c1.488-1.636 5.34-.007 5.34-.007s-.803 7.26-2.729 11.75c-.545 1.271-.25 2.043-.946 4.007 0 0-1.056 4.283-1.035 7.022" fill="#2F4563"/>
            <path d="M29.6 57.224c-.102.17-.176.389-.23.621-.051.219-.084.45-.106.663-.047.463-.039.844-.039.844s-2.577-.561-2.154-1.162c.422-.601.174-2.423.174-2.423s2.688.894 2.354 1.457" fill="#EEA987"/>
            <path d="M31.05 52.259s.66.573.364 2.223c0 0 .146 1.315.347 1.545.202.229-.54.314-.618.479-.078.165-.226.938-.743 1.404-.517.466-3.077-.939-3.202-1.732s-1.898-4.194.91-4.35c2.807-.155 2.941.43 2.941.43" fill="#EEA886"/>
            <path d="M32.816 64.439c-.052.166.144 2.706.126 2.925-.098 1.201.212 3.027.335 3.68l.045.234c-2.783 1.361-6.655 1.242-6.655 1.242.014-.105.555-1.413.569-1.513.229-1.634.567-2.38.475-3.485-.051-.621-.21-1.27-.536-2.074-.945-2.323-.894-3.869-.74-5.145.154-1.275.536-2.003.536-2.003l2.352.253c.499.552.943.847 2.362 2.106 1.509 1.34 1.773 1.747 1.13 3.78" fill="#EB4747"/>
            <path fill="#6E6760" d="M33.538 67.091h8.067v-.45h-8.067z"/>
            <path fill="#6E6760" d="m45.24 59.889-3.635 7.202-.402-.203 3.634-7.202z"/>
            <path fill="#EB4747" d="m26.972 58.3.165-.45 2.258.45v.4z"/>
            <path d="M34.724 65.787s1.183-.091 1.514-.326c.332-.235 2.57.663 2.611.87.042.208 0 .31 0 .31h-4.392l.267-.854zM28.672 60.987s.242-1.703-.943-1.852c-1.185-.15-1.315 1.53-1.315 1.53l2.258.322z" fill="#EEA987"/>
            <path d="M31.484 53.889s.316-3.428-3.007-2.816c-3.324.612-1.61 4.359-1.163 5.58 0 0-.054-1.897 1.546-1.959 1.6-.061 1.93-.432 2.624-.805" fill="#464240"/>
            <path d="M28.6 54.213c-.2-.348-.886-.162-.808.368.078.53.628 1.06.81.803.183-.257.292-.66-.002-1.17M28.675 60.948s-.273 2.936.104 3.325c1.442 1.486 7.132 1.514 7.132 1.514l.272.854s-8.458.575-9.213-1c-.907-1.894-.555-4.982-.555-4.982l2.26.289z" fill="#EEA987"/>
            <path d="M27.423 51.917s-1.28-1.228-2.19.163c-.91 1.39 1.081 3.33 1.888 2.18.807-1.153.302-2.343.302-2.343" fill="#464240"/>
            <path d="M29.37 57.845c-.051.219-.084.45-.106.663-.856-.39-1.496-1.583-1.496-1.583.62.535 1.602.92 1.602.92z" fill="#A77860"/>
            <g transform="translate(25.985 95.062)">
                <mask id="d" fill="#fff">
                    <use xlink:href="#c"/>
                </mask>
                <path d="M.15.5S1.51.114 1.55.076c.04-.038.049-.12.237-.045.187.075.265.359.449.449.184.09 1.306.418 1.921.72.223.11 1.163.468 1.298.768.136.3.094.75-1.522.643C2.317 2.504.55 2.732.196 2.555-.157 2.38.056.968.15.5" fill="#23344A" mask="url(#d)"/>
            </g>
        </g>
    </g>
</svg>
