<svg width="110" height="70" viewBox="0 0 110 70" xmlns="http://www.w3.org/2000/svg" xmlns:xlink="http://www.w3.org/1999/xlink">
    <defs>
        <path id="a" d="M0 0h96.83v69.838H0z"/>
        <path id="c" d="M0 69.838h109.084V0H0z"/>
        <path d="M2.38 0a.18.18 0 0 0-.176.166L0 37.472a.156.156 0 0 0 .157.167h66.385a.18.18 0 0 0 .176-.167L68.922.166A.156.156 0 0 0 68.765 0H2.38z" id="e"/>
        <path id="g" d="M0 69.838h109.084V0H0z"/>
        <path d="m.738.074-.011.37-.259.018c-.007.07-.014.45.003.59C.31.915.317.437.093.563c-.201.113-.043.421.163.57l-.213.326v.518c.071.418.604.629.805.62a.496.496 0 0 0 .4-.29v-.652a.714.714 0 0 0 .202-.057C1.91 1.39 1.88.32 1.84 0 1.38.225.934.105.739.074" id="i"/>
        <linearGradient x1="48.391%" y1="85.413%" x2="48.391%" y2="49.997%" id="j">
            <stop stop-color="#E4AA8C" offset="0%"/>
            <stop stop-color="#D39E80" offset="100%"/>
        </linearGradient>
    </defs>
    <g fill="none" fill-rule="evenodd">
        <g>
            <g transform="translate(12.254)">
                <mask id="b" fill="#fff">
                    <use xlink:href="#a"/>
                </mask>
                <path d="M7.538 50.968C7.39 54.366.224 59.635 1.87 68.626l94.958 1.212c-1.507-7.368-7.08-11.59-7.552-15.319-.835-7.592 6.68-12.999 5.531-17.543-1.148-4.544-10.749-5.004-12.21-7.132-1.461-2.129-.73-11.504-3.235-13.748-2.505-2.243-7.566-.632-15.34-4.774C55.046 6.433 57.098 1.164 49.91.183 41.53-.96 41.744 3.478 34.681 7.108 29.98 9.524 19.291 4.82 16.313 8.44c-2.539 3.087.837 8.369-1.782 11.739-2.074 2.67-9.986-2.615-13.454 3.627-4.53 8.154 6.705 21.492 6.46 27.162" fill="#F0F5FF" mask="url(#b)"/>
            </g>
            <mask id="d" fill="#fff">
                <use xlink:href="#c"/>
            </mask>
            <path fill="#F1F1F1" mask="url(#d)" d="M4.712 67.71h17.952V33.92H4.712z"/>
            <path d="M16.054 31.976H7.525v37.696H23.93V42.738c-4.377-.213-7.876-4.95-7.876-10.762" fill="#4E83E6" mask="url(#d)"/>
            <path fill="#7EAAFC" mask="url(#d)" d="M0 69.672h9.424V31.976H0z"/>
            <path fill="#FFF" mask="url(#d)" d="M.942 57.084h7.54V33.322H.942z"/>
            <path d="M1.456 34.651h6.513v-.605H1.456v.605zm0 7.868h6.513v-.606H1.456v.606zm0-1.574h6.513v-.606H1.456v.606zm0-1.573h6.513v-.606H1.456v.606zm0-1.574h6.513v-.605H1.456v.605zm0-1.573h6.513v-.606H1.456v.606z" fill="#7EAAFC" mask="url(#d)"/>
            <path d="M4.712 60.81a2.86 2.86 0 1 1 0 5.723 2.86 2.86 0 0 1 0-5.722" fill="#2C75FF" mask="url(#d)"/>
            <path fill="#F1F1F1" mask="url(#d)" d="M16.761 67.71h17.952V33.92H16.761z"/>
            <path d="M28.103 31.976h-8.529v37.696H35.98V42.738c-4.377-.213-7.876-4.95-7.876-10.762" fill="#E7AD4B" mask="url(#d)"/>
            <path fill="#FFC35C" mask="url(#d)" d="M12.05 69.672h9.423V31.976H12.05z"/>
            <path fill="#FFF" mask="url(#d)" d="M12.992 57.084h7.539V33.322h-7.54z"/>
            <path d="M13.505 34.651h6.513v-.605h-6.513v.605zm0 9.441h6.513v-.606h-6.513v.606zm0-1.573h6.513v-.606h-6.513v.606zm0-1.574h6.513v-.606h-6.513v.606zm0-1.573h6.513v-.606h-6.513v.606zm0-1.574h6.513v-.605h-6.513v.605zm0-1.573h6.513v-.606h-6.513v.606z" fill="#7EAAFC" mask="url(#d)"/>
            <path d="M16.761 60.81a2.86 2.86 0 1 1 0 5.723 2.86 2.86 0 0 1 0-5.722" fill="#C89134" mask="url(#d)"/>
            <path d="M86.037 62.48h1.935c1.255 0 2.343-1.028 2.418-2.284l2.32-39.29a2.134 2.134 0 0 0-2.147-2.283H22.665c-1.256 0-2.344 1.028-2.418 2.283l-2.321 39.29a2.134 2.134 0 0 0 2.148 2.283h65.963z" fill="#E9E9E9" mask="url(#d)"/>
            <path d="M22.665 18.755c-1.19 0-2.216.969-2.286 2.16l-2.321 39.289c-.034.571.158 1.11.54 1.515.382.405.906.628 1.476.628h67.898c1.19 0 2.215-.968 2.286-2.159l2.32-39.29a2.011 2.011 0 0 0-.54-1.515 2.004 2.004 0 0 0-1.475-.628H22.665zm65.307 43.856H20.074a2.266 2.266 0 0 1-2.28-2.423l2.32-39.29c.08-1.327 1.223-2.407 2.55-2.407h67.899a2.266 2.266 0 0 1 2.28 2.423l-2.321 39.29c-.079 1.327-1.223 2.407-2.55 2.407z" fill="#8D8D8D" mask="url(#d)"/>
            <path d="M22.665 18.623h65.963a2.134 2.134 0 0 1 2.148 2.284l-2.321 39.29c-.074 1.255-1.162 2.282-2.418 2.282H20.074a2.134 2.134 0 0 1-2.149-2.283l2.322-39.29c.074-1.255 1.162-2.283 2.418-2.283" fill="#F7F7F7" mask="url(#d)"/>
            <path d="M22.665 18.755c-1.19 0-2.216.969-2.287 2.16l-2.32 39.289c-.034.571.158 1.11.54 1.515.382.405.906.628 1.476.628h65.963c1.19 0 2.216-.968 2.286-2.159l2.321-39.29a2.012 2.012 0 0 0-.54-1.515 2.004 2.004 0 0 0-1.476-.628H22.665zm63.372 43.856H20.074a2.266 2.266 0 0 1-2.28-2.423l2.32-39.29c.08-1.327 1.223-2.407 2.55-2.407h65.964a2.266 2.266 0 0 1 2.28 2.424l-2.321 39.289c-.079 1.327-1.223 2.407-2.55 2.407z" fill="#ADADAD" mask="url(#d)"/>
        </g>
        <g transform="translate(19.953 20.657)">
            <mask id="f" fill="#fff">
                <use xlink:href="#e"/>
            </mask>
            <path d="M2.38 0a.18.18 0 0 0-.176.166L0 37.472a.156.156 0 0 0 .157.167h66.385a.18.18 0 0 0 .176-.167L68.922.166A.156.156 0 0 0 68.765 0H2.38z" fill="#7EAAFC" mask="url(#f)"/>
        </g>
        <g>
            <path fill="#D5D5D5" d="m60.904 62.48 2.389 5.659H47.331l-2.39-5.66z"/>
            <path d="M34.244 69.672H63.07l.003-.04c.075-1.189-.729-2.158-1.788-2.158H36.307c-1.06 0-1.984.97-2.06 2.157l-.003.04z" fill="#D5D5D5"/>
            <path d="M50.26 69.672H64.84a.953.953 0 0 0 .816-.438.953.953 0 0 0 .085-.922l-2.476-5.833h-2.388l2.12 4.995H52.323c-1.06 0-1.983.97-2.06 2.157l-.002.04z" fill="#ADADAD"/>
            <path d="M34.867 58.296h34.296l.177-2.978v-.015l1.405-23.696 1.086-18.323.182-3.067H37.717l-.177 2.978h.002l-.007.09-.066 1.115-2.602 43.896z" fill="#FFF"/>
            <path d="M35.015 58.157h34.017l.164-2.756h-.001l.007-.108 2.663-44.937H37.848l-.162 2.724h.004l-.01.127a2.606 2.606 0 0 0-.006.085l-2.66 44.865zm34.28.278H34.718l.01-.147 2.667-45.012.004-.053.001-.036.185-3.11H72.16l-.191 3.22-2.676 45.138z" fill="#0040B7"/>
            <path d="M40.125 20.565h5.964l-.393 6.632h-6.632l.393-6.632h.668zm5.413.52h-5.59l-.332 5.591h5.59l.332-5.59z" fill="#B8D1FF"/>
            <path fill="#FF7272" d="m41.123 23.54-.381.359 1.32 1.404 2.399-2.265-.339-.36-2.017 1.905z"/>
            <path fill="#B8D1FF" d="M48.246 23.578h20.36l-.036.628H48.208zM48.136 25.433h20.36l-.036.627H48.098zM48.37 21.464h11.548l-.037.627H48.334zM39.568 29.968h5.964L45.14 36.6h-6.632l.393-6.632h.668zm5.413.52H39.39l-.332 5.591h5.591l.332-5.59zM39.01 39.37h5.965l-.393 6.632H37.95l.393-6.632h.667zm5.413.52h-5.59l-.332 5.592h5.591l.331-5.591zM38.453 48.773h5.965l-.394 6.632h-6.632l.393-6.632h.668zm5.413.52h-5.59l-.332 5.592h5.59l.332-5.591z"/>
            <path fill="#FF7272" d="m40.566 32.942-.381.36 1.32 1.403 2.398-2.264-.338-.36-2.017 1.905zM40.008 42.345l-.38.36 1.32 1.403 2.398-2.264-.338-.36-2.018 1.905zM39.451 51.747l-.381.36 1.32 1.404 2.399-2.264-.339-.36-2.017 1.904z"/>
            <path fill="#B8D1FF" d="M47.688 32.98H68.05l-.037.628H47.651zM47.13 42.383h20.362l-.037.628H47.094zM46.574 51.786h20.36l-.036.628H46.536zM47.578 34.835H67.94l-.038.628h-20.36zM47.021 44.238h20.361l-.037.628H46.984zM46.464 53.641h20.36l-.036.628H46.426zM47.814 30.866H59.36l-.037.628H47.776zM47.256 40.27h11.547l-.037.627H47.22zM46.699 49.672h11.547l-.037.627H46.662z"/>
            <path d="M40.286 17.099c-.011.163.005.313.047.449.043.136.104.254.184.354a.827.827 0 0 0 .654.312c.11 0 .212-.017.304-.051a.989.989 0 0 0 .25-.136.905.905 0 0 0 .19-.19c.051-.072.093-.145.126-.221h.649a1.814 1.814 0 0 1-.564.857c-.133.11-.285.2-.454.267-.168.067-.35.1-.544.1-.214 0-.414-.044-.6-.133a1.418 1.418 0 0 1-.479-.37 1.674 1.674 0 0 1-.305-.552 1.765 1.765 0 0 1-.081-.686c.016-.243.074-.47.173-.683.1-.212.226-.397.38-.555.154-.158.33-.281.528-.37.198-.089.405-.133.62-.133.186 0 .358.033.514.1a1.388 1.388 0 0 1 .7.656c.077.149.129.305.156.468h-.649a.747.747 0 0 0-.467-.547.899.899 0 0 0-.674.03c-.12.054-.226.132-.319.231a1.28 1.28 0 0 0-.34.803zm3.295 0c-.01.163.005.313.048.449.043.136.104.254.184.354a.827.827 0 0 0 .653.312.905.905 0 0 0 .374-.081.993.993 0 0 0 .322-.231 1.28 1.28 0 0 0 .34-.803 1.216 1.216 0 0 0-.048-.449 1.077 1.077 0 0 0-.184-.354.831.831 0 0 0-.654-.313.899.899 0 0 0-.376.082c-.12.054-.226.132-.32.231a1.28 1.28 0 0 0-.339.803zm2.543 0a1.895 1.895 0 0 1-.173.686c-.1.21-.226.394-.38.552-.154.158-.33.281-.528.37a1.495 1.495 0 0 1-.619.133c-.215 0-.415-.044-.6-.133a1.418 1.418 0 0 1-.48-.37 1.673 1.673 0 0 1-.305-.552 1.763 1.763 0 0 1-.08-.686c.016-.243.074-.47.173-.683.099-.212.225-.397.38-.555.154-.158.33-.281.528-.37.198-.089.404-.133.619-.133.214 0 .414.044.6.133.186.089.346.212.479.37s.235.343.305.555c.07.212.098.44.081.683zm3.93-1.714-.23 3.428H49.2l.129-1.905-.959 1.905h-.415l-.702-1.905-.129 1.905h-.622l.23-3.428h.546l.945 2.53 1.286-2.53h.545zm1.894 0a1.022 1.022 0 0 1 .983.7 1.212 1.212 0 0 1-.06.887c-.066.139-.154.26-.263.364a1.26 1.26 0 0 1-.372.245c-.139.06-.286.09-.442.09h-.596l-.077 1.142h-.623l.23-3.428h1.22zm-.111 1.66a.435.435 0 0 0 .19-.044.605.605 0 0 0 .337-.473.458.458 0 0 0-.028-.196.527.527 0 0 0-.246-.278.399.399 0 0 0-.184-.043h-.597l-.07 1.034h.598zm3.685 1.142-.042.626h-2.154l.231-3.428h.623l-.189 2.802h1.531zm.996.626h-.623l.231-3.428h.623l-.231 3.428zm.96 0h-.649l1.45-3.428h.572l.988 3.428h-.648l-.186-.707h-1.246l-.281.707zm1.36-1.306-.331-1.251-.5 1.251h.83zm4.165-2.122-.231 3.428h-.545l-1.303-2.231-.15 2.231h-.623l.23-3.428h.546l1.302 2.23.15-2.23h.624zm1 1.714c-.011.163.005.313.047.449.043.136.104.254.184.354a.826.826 0 0 0 .654.312c.11 0 .212-.017.304-.051a.989.989 0 0 0 .25-.136.903.903 0 0 0 .19-.19c.052-.072.094-.145.126-.221h.65a1.812 1.812 0 0 1-.565.857c-.133.11-.285.2-.453.267-.17.067-.35.1-.544.1-.215 0-.415-.044-.601-.133a1.418 1.418 0 0 1-.479-.37 1.673 1.673 0 0 1-.305-.552 1.764 1.764 0 0 1-.08-.686c.015-.243.073-.47.172-.683.1-.212.226-.397.38-.555.154-.158.33-.281.528-.37.199-.089.405-.133.62-.133.186 0 .358.033.514.1a1.389 1.389 0 0 1 .7.656c.077.149.129.305.156.468h-.649a.75.75 0 0 0-.764-.599.899.899 0 0 0-.376.082 1 1 0 0 0-.32.231 1.282 1.282 0 0 0-.34.803zm5.142 1.088-.042.626h-2.31l.232-3.428h2.257l-.042.626h-1.635l-.05.734h1.506l-.042.626h-1.505l-.055.816h1.686z" fill="#9B9B9B"/>
            <path d="M67.176 69.672v-1.396H96.12c2.488 0 4.53-1.769 4.53-3.925 0-2.155-2.042-3.924-4.53-3.924H67.176V59.03h36.543c2.926 0 5.32 2.394 5.32 5.32 0 2.927-2.394 5.32-5.32 5.32H67.176z" fill="#FFC35C"/>
            <path d="M96.725 69.672H67.176v-1.396H96.12c2.488 0 4.53-1.769 4.53-3.925 0-2.155-2.042-3.924-4.53-3.924H67.176V59.03h29.549c2.926 0 5.32 2.394 5.32 5.32 0 2.927-2.394 5.32-5.32 5.32" fill="#E7AD4B"/>
            <path d="M68.457 60.427v7.849H96.71c2.163 0 3.938-1.769 3.938-3.925 0-2.155-1.775-3.924-3.938-3.924H68.457z" fill="#FFF"/>
            <path d="M68.457 60.427v.9H99.21a3.925 3.925 0 0 0-2.5-.9H68.458z" fill="#C1C9FF"/>
            <path d="M98.412 67.888a3.94 3.94 0 0 0 2.237-3.537c0-1.55-.917-2.9-2.237-3.536.466 1.085.86 2.28.86 3.536 0 1.256-.394 2.452-.86 3.537" fill="#969698"/>
            <path d="M74.015 51.317c-.668 2.125-.66 4.203.003 6.33h33.432c-.56-1.947-.556-4.058 0-6.33H74.015z" fill="#F1EEEE"/>
            <path d="M73.424 49.932c-1.29 3.033-1.273 6.066 0 9.099h34.298c.215 0 .391-.176.391-.391v-.603a.392.392 0 0 0-.39-.39H81.956c-.735-2.127-.744-4.205-.003-6.33h25.768c.215 0 .391-.176.391-.391v-.603a.392.392 0 0 0-.39-.39h-34.3z" fill="#AAB4F4"/>
            <path d="M100.232 49.932H73.424c-1.29 3.033-1.273 6.066 0 9.099h26.808c.215 0 .39-.176.39-.391v-.603a.392.392 0 0 0-.39-.39H74.467c-.735-2.127-.744-4.205-.003-6.33h25.768c.215 0 .39-.176.39-.391v-.603a.392.392 0 0 0-.39-.39" fill="#C1C9FF"/>
            <path d="M99.956 51.317h-25.94c-.669 2.125-.66 4.203.002 6.33h25.938c-.56-1.947-.555-4.058 0-6.33" fill="#FFF"/>
            <mask id="h" fill="#fff">
                <use xlink:href="#g"/>
            </mask>
            <path fill="#DFDFDF" mask="url(#h)" d="M75.037 53.996h9.358v-.53h-9.358z"/>
            <path fill="#D9332D" mask="url(#h)" d="M76.231 53.466h2.71v3.596l-1.355-1.108-1.355 1.108z"/>
            <path fill="#EDECFF" mask="url(#h)" d="M69.204 63.281h27.535v-.433H69.204zM69.204 64.48h27.535v-.434H69.204zM69.204 65.678h27.535v-.433H69.204zM69.204 66.876h27.535v-.433H69.204z"/>
            <path d="M92.732 58.882c.022.044.04.247 1.318-.39.148-.134.362-.3.397-.31.036-.012.113.06.113.06.168-.063.642-.26.63-.368-.025-.227-.298-.436-.525-.446l-.044.018c.018.037-.008.2-.175.268-.168.069-.41.059-.5.012-.083.065-.382.606-.713.806-.332.201-.515.204-.501.35" fill="#0C3684" mask="url(#h)"/>
            <path d="m93.95 57.751-1.038-2.124 1.01-.591.756 2.406c.044.184-.01.291-.183.382-.188.098-.4.04-.545-.073" fill="#914226" mask="url(#h)"/>
            <path d="M97.565 39.322c.005.144.165.595.35.618.185.023.833-.514.861-.606v-.036c.27.063 1.245.356 1.773.564l-.227 2.347-.026-.036c.02 2.247.04 3.227.073 5.447-.833.203-4.003.846-4.624.38.414-4.17-.065-6.118.363-8.336.322-.29 1.148-.359 1.463-.405l-.006.063z" fill="#3B86FF" mask="url(#h)"/>
            <path d="M94.88 56.527c-.62.211-.758.298-1.358.547-.32-.654-1.616-3.166-2.223-4.524-.48-1.072-.826-1.822-1.119-2.986-.796-2.858 3.36-2.942 5.67-3.07.405.388 2.972.723 3.586.843-1.696 2.147-6.402 1.753-6.327 2.832.086 1.23.544 2.208.865 2.934.102.23.374.288.404.464.016.094-.221.416-.233.556-.023.293.547.385.547.72 0 .986-.375.584.188 1.684" fill="#082E75" mask="url(#h)"/>
            <path d="M93.148 43.033c.203.203 1.015 1.18 2.224.101 1.208-1.079-.084-.972-.084-.972l-.995.149-.512-.288-.633 1.01z" fill="#914226" mask="url(#h)"/>
            <path d="M96.108 39.664c-.3.278-1.8 2.076-2.045 2.526.264.32 1.142 1.073 1.295 1.18.357-.348 1.252-1.504 1.423-1.829l-.673-1.877z" fill="#3B86FF" mask="url(#h)"/>
            <path d="M89.756 39.529c.456.974 2.28 2.433 3.192 3.324 1.213 1.186 1.512-.102 1.32-.34a4.915 4.915 0 0 0-.546-.56c-1.444-1.206-3.614-2.462-3.692-2.663.191-.702-.209-.86-.187-.347-.101-.371-.567-.58-.743-.512-.137.053-.153.341.656 1.098M97.644 38.444a.974.974 0 0 1-.604-.805 2.2 2.2 0 0 1 .062-.747c.02-.087.042-.164.061-.226.318 0 .644-.336.983-.217.37.157.067.838.225 1.171.016-.148.157-.495.393-.375.237.12.128.537-.254.71l.254.448a188.33 188.33 0 0 0 .012.93c-.028.093-.676.63-.861.607-.185-.023-.345-.474-.35-.618l.006-.063.073-.815z" fill="#914226" mask="url(#h)"/>
            <path d="M98.146 36.449c-.34-.12-.665.217-.983.217-.019.062-.04.14-.061.226a.918.918 0 0 1-.462-.707c-.036-.495.323-1.013.735-.957.413.057.447.39.494.4.273.064.905-.18 1.362.436.588.79.424 1.857-.467 2.339l-.254-.447c.382-.174.49-.59.254-.71-.236-.121-.377.226-.393.374-.158-.333.146-1.014-.225-1.171" fill="#6B260D" mask="url(#h)"/>
            <path d="M85.193 57.917c-.014.048-.138.209 1.233.607.2.001.47.025.503.04.034.016.042.121.042.121.166.068.65.244.713.157.135-.184.076-.523-.084-.684l-.045-.017c-.011.04-.14.142-.31.079-.17-.063-.341-.234-.376-.33-.105-.009-.691.186-1.071.11-.38-.078-.517-.2-.605-.083" fill="#0C3684" mask="url(#h)"/>
            <path d="m86.855 57.911.676-2.265 1.144.25-1.075 2.28c-.093.166-.204.21-.394.158-.205-.055-.322-.241-.351-.423" fill="#F99F97" mask="url(#h)"/>
            <path d="M98.217 50.345c-1.53.25-5.296-.515-6.123.013-1.26.804-1.372 3.097-1.932 4.009-.198.323-.57.597-.755.91-.116.197.062.833-.064 1.007-.128.175-.38.286-.473.447-.075.129.04.35-.024.455-.126.21-.253.143-.35.434-.548-.308-1.038-.211-1.51-.43.328-1.081 2.13-8.494 2.707-9.448.66-1.092 6.855-.692 8.05-.692 1.03.2 2.184.288 2.625.145.05.433-.033 2.718-2.151 3.15" fill="#0F419D" mask="url(#h)"/>
            <path d="M101.077 41.091c-.033.682-.893 2.24-1.186 2.66a1.48 1.48 0 0 1-.032-.008c-.324-.083-.992-.354-1.362-.516a3.924 3.924 0 0 1-.24-.112c.114-.353.498-1.174.774-1.693.085-.15.759-1.709 1.317-1.59.402.087.763.577.73 1.259" fill="#3B86FF" mask="url(#h)"/>
            <path d="M93.329 44.527c.3 0 3.995.066 4.523.036.145-.105.484-1.005.645-1.336.37.162 1.038.433 1.362.516-.283.598-1.067 1.949-1.381 2.095-1.142.53-4.037-.551-5.281-.815-.2.068-1.15.286-1.479-.595-.11-.407 1.053-.232 1.251.03-.175-.31-.122-.511-.01-.569.092-.024.23.162.37.638" fill="#914226" mask="url(#h)"/>
            <path d="M96.912 46.96h-1.557v.27h1.692v-.135a.135.135 0 0 0-.135-.135" fill="#B79C4A" mask="url(#h)"/>
            <path fill="#B79C4A" mask="url(#h)" d="m95.562 47.23-1.071-3.065h-4.874l1.048 3.065z"/>
            <path d="m26.126 66.232-.162 1.287c-.01.19-.006.713.003 1.372.29.25.755.182.814-.022.059-.205.236-2.296.236-2.296l-.891-.341z" fill="#E4AB8D" mask="url(#h)"/>
            <path d="M27.067 69.398c-.177.019-.838.053-.904.059-.065.005-.196.095-.236.098-.208.014-.49-.08-.561-.096-.072-.016-1.17-.031-1.178-.053-.007-.022.005-.157.106-.202.051-.022.273-.097.535-.198.258-.1.534-.22.66-.284.08-.04.125-.094.193-.133.052-.035.294-.258.329-.252.035.005.274.16.274.198 0 .023-.04.093-.072.147.06.022.121.033.186.015.203-.054.22-.29.335-.298.114-.009.332.26.333 1" fill="#FFF" mask="url(#h)"/>
            <path d="m30.666 66.239-.288.94c-.011.19.12 1.06.129 1.72.29.25.754.182.813-.023.06-.205.11-2.24.11-2.24l-.764-.397z" fill="#E4AB8D" mask="url(#h)"/>
            <path d="m27.062 69.399.005.005c.011.03.05.155.038.182-.01.027-.46.134-1.281.112-.822-.021-1.51-.05-1.635-.291.034.021 1.106.036 1.177.052.071.017.353.11.56.096.041-.003.172-.093.237-.098.065-.006.715-.04.899-.058" fill="#3B47BB" mask="url(#h)"/>
            <path d="M29.77 69.698h1.785c.025-.117.005-.529-.045-.678-.063-.185-.134-.345-.217-.347-.167-.005-.07.304-.31.29-.242-.015-.157-.212-.479-.222-.057-.002-.382.286-.612.559-.086.1-.128.21-.122.398" fill="#FFF" mask="url(#h)"/>
            <path d="M29.77 69.698h1.785c.01-.044.012-.129.01-.226l-1.765-.017a1.44 1.44 0 0 0-.03.243M30.34 67.869c-.192-4.058-.7-8.135-.884-12.354-.207 1.185-.564 2.778-.88 4.199-.276 1.235-.52 2.34-.608 2.935-.165 1.11-.107 2.326-.162 2.586-.042.195-.221.356-.276.638-.036.184.117.51.116.757-.001.15-.239.034-.235.19.013.554.093.856.038.907-.045.04-.169.01-.282.006-.647-.026-.53-.01-1.229.193.057-7.544-.072-7.086 1.125-14.401.498-.33.966-.184 1.632-.163.667.021 1.231-.741 2.398-.417.612.17.985.514 1.232.737.209 2.398-.332 6.644-.362 8.24-.03 1.598.235 2.744.197 2.944-.038.2-.173.303-.212.44-.118.465.125 1.035.09 1.342-.036.307-.233.683-.32.775-.086.092.092.26-.062.352-.155.091-.785.236-1.315.094" fill="#3B47BB" mask="url(#h)"/>
            <path d="M28.004 43.667c.2 1.99-.186 3.206-.524 4.14.93-.23 1.2-.493 1.433-1.6l.35-.285-.148-1.011-.307-.644-.372-.372-.124-.441-.308.213z" fill="#281616" mask="url(#h)"/>
            <path d="M31.715 44.72c-.206-.486-.54-.447-.75-.818-.27-.478.022-1.045-.414-1.603-.165-.21-.589-.483-1.02-.51-1.44-.088-2.33 1.182-1.335 2.394a3.012 3.012 0 0 1-.025-.419c.18-.117.57-.267.813-.53l.011.122c-.084.132-.175.272-.219.419.046-.109.132-.217.23-.33.037.31.133.927.372 2.134.427 2.153 1.805 2.412 2.468 2.012 1.112-.672.044-1.355-.025-1.589-.12-.4.068-.872-.106-1.282zm-2.517-1.795.004-.014v.008l-.004.006z" fill="#281616" mask="url(#h)"/>
            <path d="M24.878 45.62c-.009-.359.095-1.16.222-1.283l.504.108c-.002.218-.034.876.033 1.247.005.238.081.709.205 1.216-.162.035-.605.052-.98.046-.011-.552.003-1.042.016-1.334" fill="#D39581" mask="url(#h)"/>
            <path d="M25.71 43.694c.06.241-.168 1.167-.63 1.547l.505.377c.238-.16.776-.918.695-1.724l-.57-.2z" fill="#605CD5" mask="url(#h)"/>
            <path d="M25.44 45.092c.196.07.768.151.879-.071.11-.222-.095-.583-.362-.724-.266-.142-.76-.281-.903.162-.124.385.298.595.386.633" fill="#F99F97" mask="url(#h)"/>
            <path d="M26.119 47.96c.652-1.6 1.382-2.21 1.676-2.343-.075.458-.117 2.476-.16 2.89-.117.168-.462.677-.603.843-.425-.375-.715-.868-.913-1.39" fill="#EAECFF" mask="url(#h)"/>
            <path d="M25.719 45.94c-.001.39.276 1.583.39 1.9.207.579.504 1.146.923 1.51-.317.373-.678.684-1.011.672-1.52-.053-1.325-3.54-1.326-4.469.303.212.597.306 1.024.388" fill="#FFF" mask="url(#h)"/>
            <path d="M27.706 43.665c.083.497.003.721-.387.965-1.155-.464-3.15-1.042-4.4-.627-.076.056-.144.078-.196.057-.22-.089-.11-.88.248-1.769.357-.888.825-1.536 1.045-1.448.053.021.087.083.102.177.615 1.164 2.434 2.181 3.588 2.645" fill="#434EAC" mask="url(#h)"/>
            <path d="M27.783 45.622c-1.498 1.955.217 2.784.11 5.047-.044.927-.692 1.74-.917 3.353.311.049 5.098.173 5.378.04-.346-1.42-1.014-2.643-1.005-3.761.014-1.617.267-2.24.663-4.377-1.244-.786-2.895-.911-4.229-.302" fill="#FFF" mask="url(#h)"/>
            <path d="M28.984 46.282c.201-.075.843-.592.975-.89-.017-.196-.01-.722-.017-.828.564-.396.6-.751.422-.905-.228-.12-.502.346-.475.51-.21-.375.248-.966-.448-1.372-.095.378-.54.678-.665.978.1-.334.442-.633.402-.884-.118.49-.759.712-1.007.873a3.01 3.01 0 0 0 .025.42c.027.205.082.415.184.579.025.076.17.237.349.283.194.33.017 1.117.255 1.236" fill="#F99F97" mask="url(#h)"/>
            <path d="M28.729 45.046c.06.101.084.245.096.4.694-.173.957-.703.956-.855-.058.196-.446.503-.9.483a.656.656 0 0 1-.152-.028" fill="#F18B82" mask="url(#h)"/>
            <path d="M32.467 52.386c-.192.56-.36 1.069-.619 1.602-.263.114-.688.231-.733.363-.023.07.43-.021.398.068-.089.253-.792.808-.69.917.134.146.813.035 1.086-.184.195-.155.38-.564.413-.881.306-.534.628-1.046.902-1.6l-.757-.285z" fill="#F99F97" mask="url(#h)"/>
            <path d="M31.84 53.64c.98-1.57 1.245-3.968.025-5.503-.059-.074-.344-.355-.383-.447-.325-.765.205-1.864.304-1.897.725.342 1.75 1.548 2.148 3.244.234.993-.003 3.697-1.322 5.256l-.772-.653zM51.112 69.46c-.162.378-3.233.278-3.283.12-.098-.304.088-.738.333-.888l.06-.004c0 .058.118.25.342.236.223-.014.485-.174.559-.288.128.031.759.539 1.237.593.478.055.687.037.752.23" fill="#FFF" mask="url(#h)"/>
            <path d="m49.132 68.658.107-1.242-1.147.101.063 1.177c.051.169.168.236.41.24a.66.66 0 0 0 .567-.276" fill="#F99F97" mask="url(#h)"/>
            <path d="M53.98 69.46c-.161.378-3.232.278-3.282.12-.097-.304.088-.738.333-.888l.06-.004c0 .058.118.25.342.236.224-.014.485-.174.559-.288.128.031.759.539 1.237.593.478.055.687.037.752.23" fill="#FFF" mask="url(#h)"/>
            <path d="m52.001 68.658.107-1.242-1.147.101.064 1.177c.05.169.167.236.41.24a.66.66 0 0 0 .566-.276" fill="#F99F97" mask="url(#h)"/>
            <path fill="#E5A485" mask="url(#h)" d="M48.87 45.556h1.26v-1.951h-1.26z"/>
            <path d="M50.228 43.797c.022-.145-.036-.356.043-.568-.027-.224.045-.446.135-.478.222-.041.243.282.224.464.056-.117.077-.294.084-.461.009-.22-.006-.423 0-.463.014-.08.229-.234.328-.471.117-.282.116-.65.063-.707-.165-.16-.384.17-.567.138-.184-.03-.23-.483-.462-.488-.23-.004-.515.436-.698.45-.113.008-.141-.18-.32-.164-.273.026-.804.913-.818 1.723-.011.589.333.943.445 1.117.112.174.059.397.147.434.088.038.228-.165.3-.161.159.01.219.182.325.185.107.003.161-.168.242-.207.08-.04.5-.072.529-.343" fill="#2D357D" mask="url(#h)"/>
            <path d="M48.394 67.793c.385-.042.81-.078 1.001.002.16-3.353.674-7.947.782-10.432.4 1.128.87 2.27.981 3.338.198 1.906-.775 3.89-.763 4.077.013.187.243.071.252.497.005.251-.207.602-.24.833-.02.14.218.064.192.21-.088.514-.223 1.185-.179 1.24.036.044.167-.004.263.045.1.051.074.125.186.155.193.052 1.042-.286 1.437.26.285-2.03.915-6.643.854-7.387-.08-.958-.652-5.842-.733-6.338-.47-.311-1.012-.173-1.64-.153-.627.02-1.159-.699-2.258-.393-.576.16-.927.483-1.16.694-.197 2.258.349 5.332.39 7.077.05 2.044-.594 2.76-.538 2.938.057.178.351.205.388.334.11.438-.447 1.768-.414 2.057.034.289.309.573.39.66.082.086-.086.244.06.33.065.04.39-.005.75-.044" fill="#FFC35C" mask="url(#h)"/>
            <path d="M53.186 46.545c.008.076.03.383.069.384.122.003.53.109.54-.144-.012-.256.141-1.43.247-1.93.006-.028.112-.058.117-.082a6.11 6.11 0 0 0 .072-.644c-.003-.066-.394-.149-.444-.177.074-.31.141-.78.1-.801-.329-.164-.676 3.097-.701 3.394" fill="#DF9A7B" mask="url(#h)"/>
            <path d="M49.649 55.526a5.105 5.105 0 0 1 .046-1.742 1.865 1.865 0 0 0-1.166-.037c-.576.16-.927.483-1.16.694-.197 2.258.349 5.332.39 7.077.05 2.044-.594 2.76-.538 2.938.057.178.351.205.388.334.11.438-.447 1.768-.414 2.057.033.289.309.573.39.66.082.086-.086.244.06.33.065.04.39-.005.75-.044.384-.042.81-.077 1 .002.16-3.353.674-7.947.782-10.432-.221-.622-.421-1.24-.528-1.837" fill="#E7AD4B" mask="url(#h)"/>
            <path d="M50.401 43.552c.156-.114.209-.288.23-.336.018-.183-.003-.506-.225-.465-.09.032-.162.254-.135.478a.61.61 0 0 0 .13.323" fill="#E5A485" mask="url(#h)"/>
            <path d="M53.887 49.396c.045-.711.03-3.291.194-3.828l-.816.004c-.091.29-.705 3.096-.616 3.765l1.238.059z" fill="#4186E6" mask="url(#h)"/>
            <path d="M47.678 45.233c-.667.555-2.146 4.629-1.85 5.642.297 1.013 1.99 3.51 1.99 3.51l-.14-9.152z" fill="#2C71D0" mask="url(#h)"/>
            <path d="M50.63 43.216c-.02.048-.073.222-.229.336a.607.607 0 0 1-.13-.323c-.079.212-.02.423-.043.568a.26.26 0 0 1-.099.175v.28c.244-.034.918-.424.585-1.498-.007.165-.028.34-.082.457a.056.056 0 0 0-.002.004" fill="#DF9A7B" mask="url(#h)"/>
            <path d="M47.036 56.264c.62-.199 4.602-.904 6.021-.353-.182-.451-1.045-5.214-1.053-7.356.16.53.306.984.368 1.052.437.482 1.196.386 1.515-.211-.126-.325-1.095-3.827-1.324-4.136-.212-.288-.917-.45-1.683-.521-1.775-.164-2.295.12-3.202.494-.868 1.805-.64 10.18-.642 11.03" fill="#4186E6" mask="url(#h)"/>
            <path d="M52.17 50.748c-.036-.748-.147-1.528-.15-2.193-.205-.684-.434-1.494-.531-1.764-.019.219.325 2.794.68 3.957" fill="#2C71D0" mask="url(#h)"/>
            <path d="M9.86 39.147h.651V34.44H9.86v4.706zM9.51 63.042h.652V40.477h-.652v22.565z" fill="#2D357D" mask="url(#h)"/>
            <path d="m16.012 66.183.14 1.325c.006.196-.01.734-.033 1.412-.305.258-.78.188-.837-.023-.056-.21-.194-2.363-.194-2.363l.924-.35z" fill="#F99F97" mask="url(#h)"/>
            <path d="M14.976 69.442c.181.019.862.055.929.06.067.006.2.099.241.101.214.015.506-.082.58-.098.073-.017 1.204-.033 1.212-.055.009-.023 0-.162-.104-.208-.052-.023-.279-.1-.546-.204a8.926 8.926 0 0 1-.674-.292c-.08-.041-.126-.097-.195-.137-.053-.036-.297-.265-.333-.26-.036.006-.286.166-.287.205 0 .023.039.096.071.15a.309.309 0 0 1-.191.017c-.208-.056-.221-.298-.339-.307-.117-.01-.347.268-.364 1.028" fill="#272D66" mask="url(#h)"/>
            <path d="m14.981 69.442-.005.006c-.012.03-.054.16-.043.187.01.028.47.138 1.316.116.846-.023 1.554-.051 1.689-.3-.036.022-1.14.037-1.212.054-.074.017-.366.113-.58.098-.041-.002-.174-.095-.241-.1-.067-.006-.735-.041-.924-.06" fill="#FFF" mask="url(#h)"/>
            <path d="m14.112 60.074.007.024.025.103c.477 2.03-.304 4.33-.264 4.53.039.2.273.038.341.497.04.27-.141.684-.145.939-.002.154.245.035.238.196-.026.57-.079 1.317-.023 1.37.045.042.18-.032.29.006.116.039.098.123.224.137.216.026.675-.151 1.364.05.027-2.032.27-6.411.175-7.796h.003c.008-1.864-.756-5.119-1.028-7.023-.44-.296-3.02-.286-3.053.032.153 2.768 1.645 5.55 1.85 6.934h-.004z" fill="#082E75" mask="url(#h)"/>
            <path d="M15.626 48.799c-.006.3 1.217 2.63.323 2.852-.893.223-1.876-2.343-1.758-3.406.12-1.062.606-1.38.869-1.38.262 0 .586.559.566 1.934" fill="#F99F97" mask="url(#h)"/>
            <path d="M14.247 48.866c.406.089 1.147.101 1.568.077.058-1.056.004-3.281-1.059-3.707-.826-.331-.582 3.13-.509 3.63" fill="#8DAAA5" mask="url(#h)"/>
            <path d="M19.029 47.65c-.316 1.174-2.448 4.42-3.368 3.967-1.157-1.037 2.655-3.109 2.972-4.209-.393-.852-.006-.781.16-.486.219-.572.555-.593.625-.548.077.05.508.378-.389 1.277M11.34 66.19l.276.967c.008.196-.145 1.092-.169 1.77-.305.258-.78.188-.837-.022-.056-.211-.064-2.305-.064-2.305l.794-.41z" fill="#F99F97" mask="url(#h)"/>
            <path d="M12.188 69.75h-1.837c-.023-.12.007-.544.061-.697.069-.191.146-.355.23-.357.173-.005.065.312.314.297.25-.015.165-.217.497-.227.059-.002.387.294.618.575.086.103.128.217.117.41" fill="#272D66" mask="url(#h)"/>
            <path d="M12.188 69.75h-1.837a1.18 1.18 0 0 1-.005-.232l1.834.055c.01.052.012.11.008.178" fill="#FFF" mask="url(#h)"/>
            <path d="M11.64 67.82c.333-4.882 1.46-10.22 1.407-15.022-.48-.202-1.012-.523-1.863-.288-.634.175-1.084.451-1.343.681-.266 2.468.222 7.342.218 8.985-.003 1.643-.47 2.29-.436 2.496.035.206.257.228.294.369.111.479-.304 1.332-.274 1.648.03.316.27.626.358.72.087.095-.1.268.057.362.157.095 1.033.196 1.582.05" fill="#0F419D" mask="url(#h)"/>
            <path d="M14.992 45.381c.19.123-.328 3.943.49 8.738-.32.05-5.496.175-5.781.038-.01-1.258.534-8.508.678-8.846.521-.326 1.366-.661 1.787-.682.967-.049 1.707.034 2.826.752" fill="#9FB9B5" mask="url(#h)"/>
            <path d="M10.403 48.413c-.362-.2-1.026-.127-1.352-.159-.46 2.937.73 5.124 3.888 5.484.518.406 1.59.034 1.513-.328-.049-.234-.797-.361-.993-.227.142-.166.193-.295.12-.369-.064-.043-.187-.004-.414.327-2.3-.53-3.434-2.547-2.762-4.728" fill="#F99F97" mask="url(#h)"/>
            <path d="M10.498 48.841c-.416.038-1.153-.042-1.564-.118.011-.892.581-3.076 1.675-3.518.896.017.044 3.152-.111 3.636" fill="#9FB9B5" mask="url(#h)"/>
            <path d="M12.695 43.928a4.98 4.98 0 0 1-.003-.59l.26-.02.01-.369c.228.037.798.193 1.334-.217.967-.74-.006-1.734-.502-1.045-.132-.092-.773-.309-1.294-.036-.237.124-.53.365-.557.778-.202-.018-.51.238-.537.708-.026.47.331 1.068.862 1.196l.213-.327c-.206-.148-.365-.455-.164-.569.224-.125.217.352.378.49" fill="#403382" mask="url(#h)"/>
        </g>
        <g transform="translate(12.224 42.875)">
            <mask id="k" fill="#fff">
                <use xlink:href="#i"/>
            </mask>
            <path d="m.738.074-.011.37-.259.018c-.007.07-.014.45.003.59C.31.915.317.437.093.563c-.201.113-.043.421.163.57l-.213.326v.518c.071.418.604.629.805.62a.496.496 0 0 0 .4-.29v-.652a.714.714 0 0 0 .202-.057C1.91 1.39 1.88.32 1.84 0 1.38.225.934.105.739.074" fill="url(#j)" mask="url(#k)"/>
        </g>
        <path d="M13.473 44.529c-.307.04-.666-.087-.789-.327.023.255.264.577.789.585v-.258z" fill="#BC896F"/>
    </g>
</svg>
