<svg width="116" height="88" viewBox="0 0 116 88" xmlns="http://www.w3.org/2000/svg" xmlns:xlink="http://www.w3.org/1999/xlink">
    <defs>
        <path d="M2.392 0A2.392 2.392 0 0 0 0 2.392v56.011a4.509 4.509 0 0 0 4.492 4.491H62.12a4.509 4.509 0 0 0 4.492-4.491V14a4.504 4.504 0 0 0-4.488-4.496H26.945V2.392A2.392 2.392 0 0 0 24.553 0H2.393z" id="a"/>
        <path d="m34.513 0 12.252 13.444v45.088a2.246 2.246 0 0 1-2.245 2.246H2.246A2.246 2.246 0 0 1 0 58.532V2.246A2.246 2.246 0 0 1 2.246 0" id="c"/>
        <path d="m0 0 12.244 13.449-9.232-.142A3.068 3.068 0 0 1 0 10.239V0z" id="e"/>
        <path d="m0 0 12.244 13.449-9.232-.142A3.067 3.067 0 0 1 0 10.239V0z" id="h"/>
        <path d="M0 2.233V58.51a2.246 2.246 0 0 0 2.246 2.246h42.286a2.246 2.246 0 0 0 2.246-2.246V13.423L34.525 0H2.245A2.246 2.246 0 0 0 0 2.233" id="j"/>
        <path d="M0 10.24a3.067 3.067 0 0 0 3.012 3.067l9.232.142L0 0v10.24z" id="l"/>
        <path d="M2.397 0A2.396 2.396 0 0 0 .014 2.65l4.01 37.86a4.573 4.573 0 0 0 4.573 4.573H66.07a4.573 4.573 0 0 0 4.565-4.577l3.21-37.925A2.396 2.396 0 0 0 71.456 0H2.397z" id="n"/>
        <path id="p" d="M3.708 3.704 0 5.731l3.708 2.026 2.027 3.708L7.76 7.757l3.704-2.026-3.704-2.027L5.735 0z"/>
        <path id="r" d="M1.811 1.811 0 2.801l1.811.985.99 1.811.985-1.811 1.811-.985-1.811-.99L2.8 0z"/>
        <path d="M6.26 0c.66 0 1.196.535 1.196 1.196v3.059c0 .66-.536 1.196-1.196 1.196H1.196C.536 5.45 0 4.915 0 4.255V1.196C0 .536.535 0 1.196 0" id="t"/>
        <path d="M6.26 0c.66 0 1.196.535 1.196 1.196v3.059c0 .66-.536 1.196-1.196 1.196H1.196C.536 5.45 0 4.915 0 4.255V1.196C0 .536.535 0 1.196 0" id="v"/>
        <path d="M2.018 0A2.018 2.018 0 0 0 0 2.018v9.301c0 1.115.903 2.018 2.018 2.018H16.34a2.018 2.018 0 0 0 2.018-2.018V2.018A2.018 2.018 0 0 0 16.34 0H2.018z" id="x"/>
        <path d="m13.726.612-.023.022C10.975 3.294 7.78 4.642 3.652 4.872A3.804 3.804 0 0 0 .069 8.6c0 .402 0 .752-.034 1.129v.064c-.079 4.21-.18 9.449 1.573 14.205a18.082 18.082 0 0 0 4.34 6.774c2.178 2.13 5.034 3.816 8.489 5.02a2.57 2.57 0 0 0 1.355.094c.118-.023.235-.055.35-.094 3.446-1.204 6.303-2.898 8.482-5.024a18.108 18.108 0 0 0 4.338-6.773c1.758-4.776 1.656-10.021 1.577-14.24V9.73c0-.346-.026-.711-.034-1.13a3.804 3.804 0 0 0-3.582-3.728c-4.14-.23-7.323-1.577-10.051-4.238l-.023-.022A2.293 2.293 0 0 0 15.287 0c-.56 0-1.12.204-1.561.612" id="z"/>
        <path d="m13.248.59-.023.022c-2.634 2.567-5.716 3.865-9.701 4.09A3.673 3.673 0 0 0 .065 8.3c0 .377 0 .753-.03 1.077v.063c-.079 4.065-.173 9.118 1.506 13.71a17.45 17.45 0 0 0 4.2 6.517c2.103 2.055 4.861 3.684 8.192 4.847a2.48 2.48 0 0 0 1.31.09c.114-.022.227-.052.338-.09 3.326-1.163 6.081-2.796 8.185-4.85a17.476 17.476 0 0 0 4.2-6.522c1.685-4.602 1.587-9.656 1.504-13.74v-.025c0-.332-.026-.685-.03-1.077a3.673 3.673 0 0 0-3.458-3.597c-3.985-.222-7.067-1.506-9.701-4.09L16.258.59A2.21 2.21 0 0 0 14.753 0c-.54 0-1.08.196-1.505.59" id="B"/>
        <path d="M13.77 0 .168 16.2a66.86 66.86 0 0 1-.128-7.007V9.13c.03-.323.03-.7.03-1.076a3.673 3.673 0 0 1 3.458-3.598c3.986-.225 7.068-1.524 9.702-4.09l.022-.023c.157-.137.332-.252.52-.342" id="D"/>
        <path d="M15.335 0c.19.091.368.21.526.35l.023.023a14.58 14.58 0 0 0 2.521 1.983L1.152 22.906A23.421 23.421 0 0 1 0 18.266" id="F"/>
        <path d="M19.944 0c.023.21.023.414.023.61v.026c.057 2.615.11 5.645-.327 8.697L5.803 25.815l-.083.023a2.48 2.48 0 0 1-1.31-.09A25.395 25.395 0 0 1 0 23.74" id="H"/>
        <path d="M10.104 0c-.166.617-.358 1.23-.58 1.836a17.475 17.475 0 0 1-4.203 6.522A20.159 20.159 0 0 1 0 12.016L10.104 0z" id="J"/>
        <filter x="-245%" y="-223.1%" width="590%" height="546.1%" filterUnits="objectBoundingBox" id="f">
            <feGaussianBlur stdDeviation="10" in="SourceGraphic"/>
        </filter>
    </defs>
    <g fill="none" fill-rule="evenodd">
        <path d="M82.554 14.62s-12.476 5.967-24.38 1.368c-11.905-4.6-15.433-12.39-32.788-7.86C8.031 12.658-.716 37.663.046 56.954c.761 19.291 16.09 30.189 28.42 30.722 12.33.534 32.822-18.758 42.352-19.119 9.404-.357 29.29 7.464 37.58-3.12 8.29-10.583 11.074-35.08 1.44-46.515-9.632-11.435-21.502-8.372-27.284-4.302" fill="#E5EDFF"/>
        <g transform="translate(28.033 17.914)">
            <mask id="b" fill="#fff">
                <use xlink:href="#a"/>
            </mask>
            <path d="M2.392 0A2.392 2.392 0 0 0 0 2.392v56.011a4.509 4.509 0 0 0 4.492 4.491H62.12a4.509 4.509 0 0 0 4.492-4.491V14a4.504 4.504 0 0 0-4.488-4.496H26.945V2.392A2.392 2.392 0 0 0 24.553 0H2.393z" fill="#EEA204" mask="url(#b)"/>
        </g>
        <g transform="translate(35.11 .004)">
            <mask id="d" fill="#fff">
                <use xlink:href="#c"/>
            </mask>
            <path d="M0 2.246v56.286a2.246 2.246 0 0 0 2.246 2.246H44.52a2.246 2.246 0 0 0 2.245-2.246V13.444L34.513 0H2.246A2.246 2.246 0 0 0 0 2.246" fill="#295AC3" opacity=".848" mask="url(#d)"/>
        </g>
        <g transform="translate(69.636)">
            <mask id="g" fill="#fff">
                <use xlink:href="#e"/>
            </mask>
            <path d="M0 0v10.24a3.068 3.068 0 0 0 3.012 3.067l9.232.142L0 0z" fill="#02143C" filter="url(#f)" mask="url(#g)"/>
        </g>
        <path d="M45.518 18.878h25.964a1.218 1.218 0 0 1 0 2.435H45.518a1.218 1.218 0 1 1 0-2.435M45.518 25.284h25.964a1.218 1.218 0 0 1 0 2.435H45.518a1.218 1.218 0 1 1 0-2.435M45.518 31.686h25.964a1.218 1.218 0 0 1 0 2.435H45.518a1.218 1.218 0 1 1 0-2.435M45.518 38.092h25.964a1.218 1.218 0 0 1 0 2.435H45.518a1.218 1.218 0 1 1 0-2.435" fill="#FFF"/>
        <g transform="translate(67.197 3.575)">
            <mask id="i" fill="#fff">
                <use xlink:href="#h"/>
            </mask>
            <path d="M0 0v10.24a3.067 3.067 0 0 0 3.012 3.067l9.232.142L0 0z" mask="url(#i)"/>
        </g>
        <g transform="translate(42.566 5.12)">
            <mask id="k" fill="#fff">
                <use xlink:href="#j"/>
            </mask>
            <path d="M0 2.233V58.51a2.246 2.246 0 0 0 2.246 2.246h42.286a2.246 2.246 0 0 0 2.246-2.246V13.423L34.525 0H2.245A2.246 2.246 0 0 0 0 2.233" fill="#739AF0" mask="url(#k)"/>
        </g>
        <g transform="translate(77.092 5.12)">
            <mask id="m" fill="#fff">
                <use xlink:href="#l"/>
            </mask>
            <path d="M0 10.24a3.067 3.067 0 0 0 3.012 3.067l9.232.142L0 0v10.24z" fill="#3C6CD4" mask="url(#m)"/>
        </g>
        <g fill="#FFF">
            <path d="M52.973 23.99h25.964a1.218 1.218 0 1 1 0 2.434H52.973a1.218 1.218 0 1 1 0-2.435M52.973 30.391h25.964a1.218 1.218 0 1 1 0 2.435H52.973a1.218 1.218 0 1 1 0-2.435M52.973 36.797h25.964a1.218 1.218 0 1 1 0 2.435H52.973a1.218 1.218 0 1 1 0-2.435M52.973 43.203h25.964a1.218 1.218 0 1 1 0 2.435H52.973a1.218 1.218 0 1 1 0-2.435"/>
        </g>
        <g transform="translate(24.01 35.73)">
            <mask id="o" fill="#fff">
                <use xlink:href="#n"/>
            </mask>
            <path d="M2.397 0A2.396 2.396 0 0 0 .014 2.65l4.01 37.86a4.573 4.573 0 0 0 4.573 4.573H66.07a4.573 4.573 0 0 0 4.565-4.577l3.21-37.925A2.396 2.396 0 0 0 71.456 0H2.397z" fill="#FBC80E" mask="url(#o)"/>
        </g>
        <g transform="translate(92.537 12.391)">
            <mask id="q" fill="#fff">
                <use xlink:href="#p"/>
            </mask>
            <path fill="#4670CD" opacity=".798" mask="url(#q)" d="M3.708 3.704 0 5.731l3.708 2.026 2.027 3.708L7.76 7.757l3.704-2.026-3.704-2.027L5.735 0z"/>
        </g>
        <g transform="translate(103.112 21.895)">
            <mask id="s" fill="#fff">
                <use xlink:href="#r"/>
            </mask>
            <path fill="#F97569" mask="url(#s)" d="M1.811 1.811 0 2.801l1.811.985.99 1.811.985-1.811 1.811-.985-1.811-.99L2.8 0z"/>
        </g>
        <g>
            <g transform="translate(104.451 43.306)">
                <mask id="u" fill="#fff">
                    <use xlink:href="#t"/>
                </mask>
                <path d="M6.26 0H1.196C.536 0 0 .535 0 1.196v3.059c0 .66.535 1.196 1.196 1.196H6.26c.66 0 1.196-.536 1.196-1.196V1.196C7.456.536 6.92 0 6.26 0" fill="#FF8755" opacity=".805" mask="url(#u)"/>
            </g>
            <g transform="translate(99.914 40.084)">
                <mask id="w" fill="#fff">
                    <use xlink:href="#v"/>
                </mask>
                <path d="M6.26 0H1.196C.536 0 0 .535 0 1.196v3.059c0 .66.535 1.196 1.196 1.196H6.26c.66 0 1.196-.536 1.196-1.196V1.196C7.456.536 6.92 0 6.26 0" fill="#3C6CD4" opacity=".618" mask="url(#w)"/>
            </g>
        </g>
        <g transform="translate(82.902 61.47)">
            <mask id="y" fill="#fff">
                <use xlink:href="#x"/>
            </mask>
            <path d="M2.018 0A2.018 2.018 0 0 0 0 2.018v9.301c0 1.115.903 2.018 2.018 2.018H16.34a2.018 2.018 0 0 0 2.018-2.018V2.018A2.018 2.018 0 0 0 16.34 0H2.018z" fill="#FB7171" opacity=".803" mask="url(#y)"/>
        </g>
        <g fill="#FFF">
            <path d="M85.802 63.484h6.514c.444 0 .804.36.804.804v.005c0 .444-.36.804-.804.804h-6.514a.805.805 0 0 1-.804-.804v-.005c0-.444.36-.804.804-.804M85.802 65.949h12.107c.444 0 .804.36.804.804v.005c0 .444-.36.804-.804.804H85.802a.805.805 0 0 1-.804-.804v-.005c0-.444.36-.804.804-.804M85.802 68.414h8.071c.444 0 .805.36.805.805v.004c0 .444-.36.804-.805.804h-8.071a.805.805 0 0 1-.804-.804v-.004c0-.445.36-.805.804-.805M85.802 70.88h4.29c.444 0 .804.36.804.804v.004c0 .444-.36.805-.805.805h-4.289a.805.805 0 0 1-.804-.805v-.004c0-.445.36-.805.804-.805"/>
        </g>
        <g transform="translate(11.992 46.194)">
            <mask id="A" fill="#fff">
                <use xlink:href="#z"/>
            </mask>
            <path d="m13.726.612-.023.022C10.975 3.294 7.78 4.642 3.652 4.872A3.804 3.804 0 0 0 .069 8.6c0 .402 0 .752-.034 1.129v.064c-.079 4.21-.18 9.449 1.573 14.205a18.082 18.082 0 0 0 4.34 6.774c2.178 2.13 5.034 3.816 8.489 5.02a2.57 2.57 0 0 0 1.355.094c.118-.023.235-.055.35-.094 3.446-1.204 6.303-2.898 8.482-5.024a18.108 18.108 0 0 0 4.338-6.773c1.758-4.776 1.656-10.021 1.577-14.24V9.73c0-.346-.026-.711-.034-1.13a3.804 3.804 0 0 0-3.582-3.728c-4.14-.23-7.323-1.577-10.051-4.238l-.023-.022A2.293 2.293 0 0 0 15.287 0c-.56 0-1.12.204-1.561.612" mask="url(#A)"/>
        </g>
        <g transform="translate(12.522 46.833)">
            <mask id="C" fill="#fff">
                <use xlink:href="#B"/>
            </mask>
            <path d="m13.248.59-.023.022c-2.634 2.567-5.716 3.865-9.701 4.09A3.673 3.673 0 0 0 .065 8.3c0 .377 0 .753-.03 1.077v.063c-.079 4.065-.173 9.118 1.506 13.71a17.45 17.45 0 0 0 4.2 6.517c2.103 2.055 4.861 3.684 8.192 4.847a2.48 2.48 0 0 0 1.31.09c.114-.022.227-.052.338-.09 3.326-1.163 6.081-2.796 8.185-4.85a17.476 17.476 0 0 0 4.2-6.522c1.685-4.602 1.587-9.656 1.504-13.74v-.025c0-.332-.026-.685-.03-1.077a3.673 3.673 0 0 0-3.458-3.597c-3.985-.222-7.067-1.506-9.701-4.09L16.258.59A2.21 2.21 0 0 0 14.753 0c-.54 0-1.08.196-1.505.59" fill="#609FFF" mask="url(#C)"/>
        </g>
        <g>
            <g transform="translate(12.519 47.08)">
                <mask id="E" fill="#fff">
                    <use xlink:href="#D"/>
                </mask>
                <path d="m13.251.342-.022.023C10.595 2.93 7.513 4.23 3.527 4.455A3.673 3.673 0 0 0 .07 8.053c0 .376 0 .753-.03 1.076v.064A66.86 66.86 0 0 0 .167 16.2L13.771 0c-.188.09-.363.205-.52.342" mask="url(#E)"/>
            </g>
            <g transform="translate(12.923 47.073)">
                <mask id="G" fill="#fff">
                    <use xlink:href="#F"/>
                </mask>
                <path d="m1.152 22.906 17.253-20.55A14.58 14.58 0 0 1 15.884.373L15.861.35a2.259 2.259 0 0 0-.526-.35L0 18.266c.225 1.582.61 3.137 1.152 4.64" mask="url(#G)"/>
            </g>
            <g transform="translate(22.026 55.6)">
                <mask id="I" fill="#fff">
                    <use xlink:href="#H"/>
                </mask>
                <path d="M19.967.636V.61c0-.196 0-.4-.023-.61L0 23.741c1.403.808 2.88 1.48 4.41 2.006a2.528 2.528 0 0 0 1.31.09l.083-.022L19.64 9.333c.436-3.052.384-6.082.327-8.697" mask="url(#I)"/>
            </g>
            <g transform="translate(30.963 68.139)">
                <mask id="K" fill="#fff">
                    <use xlink:href="#J"/>
                </mask>
                <path d="M0 12.016a20.159 20.159 0 0 0 5.321-3.658 17.475 17.475 0 0 0 4.203-6.522c.222-.606.414-1.219.58-1.836L0 12.016z" mask="url(#K)"/>
            </g>
            <path d="M39.317 57.685v-.023c0-.27-.019-.56-.026-.88a3.01 3.01 0 0 0-2.83-2.943c-3.259-.18-5.78-1.246-7.933-3.346a1.814 1.814 0 0 0-2.465 0c-2.152 2.1-4.673 3.162-7.932 3.346a3.01 3.01 0 0 0-2.83 2.943c0 .32 0 .606-.026.88v.053c-.064 3.323-.143 7.458 1.241 11.214a14.273 14.273 0 0 0 3.425 5.332 17.911 17.911 0 0 0 6.702 3.963 2.028 2.028 0 0 0 1.347 0 17.924 17.924 0 0 0 6.657-3.981 14.3 14.3 0 0 0 3.424-5.337c1.39-3.755 1.31-7.898 1.246-11.221z" stroke="#8FBBFF" stroke-width="2"/>
            <path d="m30.553 62.622-3.951 3.951a.85.85 0 0 1-1.2 0l-1.506-1.505a.85.85 0 0 1 1.2-1.2l.911.91 3.353-3.353a.85.85 0 1 1 1.2 1.2l-.007-.003zm-3.274-4.478a5.517 5.517 0 1 0 5.517 5.517 5.524 5.524 0 0 0-5.517-5.517z" fill="#FFF"/>
        </g>
    </g>
</svg>
