<svg width="112" height="91" viewBox="0 0 112 91" xmlns="http://www.w3.org/2000/svg" xmlns:xlink="http://www.w3.org/1999/xlink">
    <defs>
        <path id="a" d="M0 0h111.38v88.405H0z"/>
        <path id="c" d="M0 90.986h111.38V0H0z"/>
    </defs>
    <g fill="none" fill-rule="evenodd">
        <g>
            <mask id="b" fill="#fff">
                <use xlink:href="#a"/>
            </mask>
            <path d="M.515 44.503C2.26 35.82 9.09 29.348 12.79 23.378c2.76-4.453.813-13.464 6.892-15.723 8.33-3.096 16.342 11.568 25.146 10.803 14.31-1.245 28.81-25.263 41.117-16.564 8.455 5.975 1.246 14.977 4.98 20.532 3.566 5.305 12.796 5.587 17.259 13.316 3.941 6.826 4.005 17.827 1.456 27.435C97.825 107.7-8.255 88.132.515 44.503" fill="#D4DDFF" mask="url(#b)"/>
        </g>
        <path d="M24.92 66.384C22.307 54.472 16.11 35.498 5.655 37.073c.336 1.786 4.398 1.321 3.43 3.58-.718 1.678 4.43.572 3.606 3.15-.526 1.648 2.644 1.618 2.142 4.105-.364 1.809 2.865 2.15 2.35 4.626-.384 1.848 1.88 2.628 1.712 5.178-.196 2.959 3.038 6.928 4.991 9.157.345-.162.69-.323 1.032-.485" fill="#FEFEFE"/>
        <path d="M21.901 61.205c-2.926-7.862-8.97-20.19-15.94-18.111.383 1.022 1.28.737 2.005.99.499.173.052 1.025.646 1.526.774.655 1.053-.197 1.998.257.482.23.102 1.041.656 1.87.395.595 1.479.279 1.884 1.046.364.691-.46.733.169 1.851.622 1.106 2.094.145 1.982 1.881-.084 1.296 1.532 1.61 1.662 3.363.152 2.033 2.735 4.426 4.28 5.757l.658-.43" fill="#7C93E6"/>
        <path d="M23.028 58.709c.143-12.195-5.041-32.732-11.03-37.72-1.98.959 1.944 3.665.493 5.648-1.08 1.472 2.546 3.046 1.162 5.373-.884 1.486 2.13 3.053 1.08 5.363-.764 1.679 2.805 3.264 1.746 5.56-.791 1.714 1.573 3.372.833 5.818-.857 2.837 3.2 7.586 4.6 10.198l1.116-.24" fill="#ABBDFF"/>
        <path d="M88.627 71.938c2.613-11.912 8.81-30.886 19.264-29.312-.336 1.786-4.397 1.322-3.43 3.582.719 1.677-4.43.57-3.605 3.15.526 1.647-2.644 1.618-2.142 4.104.364 1.81-2.865 2.15-2.35 4.626.383 1.849-1.882 2.628-1.713 5.179.195 2.957-3.037 6.926-4.99 9.156l-1.034-.485" fill="#FEFEFE"/>
        <path d="M88.512 72.976c3.42-9.19 10.485-23.6 18.632-21.171-.448 1.195-1.497.862-2.343 1.157-.583.204-.062 1.2-.756 1.786-.905.764-1.23-.231-2.334.3-.563.269-.121 1.217-.767 2.187-.464.693-1.73.324-2.203 1.22-.426.808.54.856-.198 2.165-.727 1.291-2.446.169-2.316 2.199.098 1.515-1.792 1.88-1.945 3.93-.176 2.377-3.195 5.174-5.001 6.73l-.769-.503" fill="#7C93E6"/>
        <path d="M87.181 74.193c-.142-12.195 5.041-32.733 11.03-37.72 1.98.958-1.944 3.665-.491 5.648 1.077 1.472-2.548 3.045-1.163 5.373.885 1.486-2.129 3.052-1.08 5.363.763 1.678-2.805 3.263-1.745 5.56.791 1.714-1.574 3.371-.834 5.818.858 2.837-3.2 7.586-4.601 10.197-.372-.08-.745-.159-1.116-.24" fill="#ABBDFF"/>
        <path d="M34.087 21.2a5.802 5.802 0 1 1-.002 11.603 5.802 5.802 0 0 1 .002-11.604" fill="#FFAE3C"/>
        <mask id="d" fill="#fff">
            <use xlink:href="#c"/>
        </mask>
        <path fill="#57669C" mask="url(#d)" d="M47.003 87.689H61.89V76.886H47.003z"/>
        <path d="M39.443 90.59H69.45c.798 0 1.45-.653 1.45-1.451s-.652-1.45-1.45-1.45H39.443c-.798 0-1.452.652-1.452 1.45 0 .798.654 1.45 1.452 1.45M19.997 30.976h68.898c1.118 0 2.033.914 2.033 2.032v45.314a2.038 2.038 0 0 1-2.033 2.033H19.997a2.038 2.038 0 0 1-2.033-2.033V33.008c0-1.118.915-2.032 2.033-2.032" fill="#303C69" mask="url(#d)"/>
        <path fill="#57669C" mask="url(#d)" d="M20.543 74.704h67.805V33.801H20.543z"/>
        <path d="M38.723 25.566h39.849c-2.311 0-4.2 1.89-4.2 4.202V65.895a4.215 4.215 0 0 1-4.203 4.202H38.723a4.215 4.215 0 0 1-4.202-4.202V29.768a4.215 4.215 0 0 1 4.202-4.202" fill="#FEFEFE" mask="url(#d)"/>
        <path d="M78.572 25.566c-2.311 0-4.2 1.89-4.2 4.202v1.208h8.4v-1.208c0-2.311-1.89-4.202-4.2-4.202M26.12 63.735v2.16c0 2.31 1.89 4.202 4.2 4.202h39.85c-2.312 0-4.201-1.891-4.201-4.202v-2.16H26.12z" fill="#ABBDFF" mask="url(#d)"/>
        <path d="M65.973 35.085v-2.591h-.525a.35.35 0 0 1-.248-.09.288.288 0 0 1-.099-.222c0-.036.009-.072.027-.11a.38.38 0 0 1 .075-.1.392.392 0 0 1 .108-.076.32.32 0 0 1 .137-.03h1.743c.09 0 .17.03.244.09a.285.285 0 0 1 .004.447.362.362 0 0 1-.248.09h-.525v2.592c0 .085-.034.16-.102.223a.345.345 0 0 1-.244.093.346.346 0 0 1-.245-.093.294.294 0 0 1-.102-.223zm-3.317-1.966v.981c0 .211.044.379.13.505.088.124.243.188.464.188.151 0 .289-.04.41-.119l.05-.03.09-.052a.273.273 0 0 1 .123-.023c.096 0 .174.03.235.09s.093.129.093.208c0 .072-.03.142-.087.206a.757.757 0 0 1-.231.168 1.441 1.441 0 0 1-.326.114c-.123.028-.25.042-.381.042-.219 0-.407-.031-.566-.092a1.013 1.013 0 0 1-.624-.673 1.793 1.793 0 0 1-.074-.532v-.981c0-.196.025-.373.074-.533a1.013 1.013 0 0 1 .624-.673c.159-.061.347-.093.566-.093.131 0 .258.015.381.043.122.028.231.067.326.113a.78.78 0 0 1 .231.17.31.31 0 0 1 .087.205c0 .079-.032.148-.093.208a.322.322 0 0 1-.235.09.255.255 0 0 1-.123-.023l-.09-.053-.05-.03a.737.737 0 0 0-.41-.117c-.221 0-.376.06-.464.185-.086.124-.13.293-.13.508zm-2.515.985-.253-.846a1.433 1.433 0 0 1-.055-.241 16.167 16.167 0 0 1-.034-.245l-.035.245a1.594 1.594 0 0 1-.054.24l-.262.847h.693zm-.878.564-.163.5a.33.33 0 0 1-.139.172.355.355 0 0 1-.188.061.382.382 0 0 1-.25-.086.28.28 0 0 1-.106-.23c0-.012 0-.03.003-.055a.163.163 0 0 1 .011-.054l.967-2.818a.686.686 0 0 1 .136-.241c.057-.064.146-.097.265-.097.118 0 .207.032.265.095a.713.713 0 0 1 .14.243l.966 2.818a.13.13 0 0 1 .013.054l.003.055a.285.285 0 0 1-.102.23.373.373 0 0 1-.256.086.36.36 0 0 1-.197-.063.335.335 0 0 1-.139-.17l-.174-.5h-1.055zm-2.49-1.753a.557.557 0 0 0-.022-.153.312.312 0 0 0-.083-.134.46.46 0 0 0-.172-.096.846.846 0 0 0-.278-.038h-.524v.822h.554c.172 0 .302-.034.391-.103a.355.355 0 0 0 .135-.298zm.694 0c0 .248-.06.45-.183.61-.123.158-.29.272-.506.341l.68 1.02c.039.063.056.126.052.187a.325.325 0 0 1-.06.163.42.42 0 0 1-.132.117.343.343 0 0 1-.163.044.324.324 0 0 1-.292-.153l-.832-1.303h-.337v1.134a.314.314 0 0 1-.104.229.352.352 0 0 1-.248.097.336.336 0 0 1-.24-.096.307.307 0 0 1-.102-.23v-2.853c0-.095.037-.179.111-.25a.373.373 0 0 1 .265-.106h.862c.235 0 .431.03.587.09.157.061.282.142.377.242.094.099.162.21.203.335.04.127.062.254.062.382zm-4.977 2.17v-2.591h-.525c-.099 0-.181-.03-.248-.09a.293.293 0 0 1-.1-.222c0-.036.01-.072.028-.11a.415.415 0 0 1 .184-.176.309.309 0 0 1 .136-.03h1.744c.09 0 .17.03.242.09a.285.285 0 0 1 .004.447.359.359 0 0 1-.246.09h-.526v2.592c0 .085-.034.16-.1.223a.351.351 0 0 1-.246.093.349.349 0 0 1-.245-.093.294.294 0 0 1-.102-.223zm-2.183.316a.414.414 0 0 1-.19-.046.352.352 0 0 1-.142-.127l-1.15-2v1.852a.296.296 0 0 1-.103.225.348.348 0 0 1-.248.096.333.333 0 0 1-.243-.096.307.307 0 0 1-.1-.225v-2.922a.32.32 0 0 1 .103-.241.365.365 0 0 1 .26-.097.4.4 0 0 1 .337.185l.299.524a286.872 286.872 0 0 0 .54.944c.095.163.197.343.31.542v-1.873a.3.3 0 0 1 .104-.225.354.354 0 0 1 .248-.097c.095 0 .176.033.243.097.065.065.099.14.099.225v2.923a.322.322 0 0 1-.102.239.366.366 0 0 1-.265.097zM45.78 32.45c-.218 0-.372.06-.46.183a.807.807 0 0 0-.135.486v.981c0 .197.048.359.145.485.095.125.245.188.45.188.205 0 .355-.063.45-.188a.776.776 0 0 0 .144-.485v-.981c0-.201-.045-.364-.134-.486-.088-.122-.243-.183-.46-.183zm0 2.951a1.43 1.43 0 0 1-.562-.1 1.136 1.136 0 0 1-.402-.278 1.153 1.153 0 0 1-.242-.414 1.526 1.526 0 0 1-.082-.509v-.981c0-.176.024-.342.072-.498a1.062 1.062 0 0 1 .624-.696c.163-.07.36-.105.592-.105.232 0 .429.036.592.105a1.062 1.062 0 0 1 .623.696c.049.156.073.322.073.498v.981c0 .181-.027.352-.083.509a1.152 1.152 0 0 1-.242.414c-.108.118-.241.21-.401.278-.16.068-.347.1-.562.1zm-3.74-2.282v.981c0 .211.045.379.133.505.087.124.242.188.463.188.152 0 .29-.04.411-.119l.05-.03c.032-.02.062-.036.09-.052a.264.264 0 0 1 .122-.023c.095 0 .175.03.236.09.06.06.09.129.09.208a.302.302 0 0 1-.086.206.749.749 0 0 1-.23.168 1.683 1.683 0 0 1-.709.156c-.218 0-.405-.031-.564-.092a1.03 1.03 0 0 1-.394-.262 1.071 1.071 0 0 1-.23-.411 1.792 1.792 0 0 1-.075-.532v-.981c0-.196.026-.373.076-.533.05-.16.126-.298.23-.411a1.03 1.03 0 0 1 .393-.262c.16-.061.346-.093.565-.093a1.683 1.683 0 0 1 .708.156.772.772 0 0 1 .23.17.304.304 0 0 1 .087.205c0 .079-.03.148-.091.208a.324.324 0 0 1-.236.09.247.247 0 0 1-.123-.023l-.09-.053-.049-.03a.737.737 0 0 0-.41-.117c-.222 0-.377.06-.464.185-.088.124-.132.293-.132.508zM44.963 41.17H63.93v-1.5H44.963zM39.473 47.118h29.946v-.75H39.473v.75zm0 2.199h29.946v-.75H39.473v.75zm0 4.396h14.973v-.751H39.473v.751zm0-2.199h29.946v-.75H39.473v.75zm0-6.593h29.946v-.75H39.473v.75zM43.746 57.446a2.086 2.086 0 0 0-2.953 0 2.086 2.086 0 1 0 3.564 1.476c0-.576-.234-1.099-.611-1.476m-1.477-1.32a2.792 2.792 0 0 1 2.797 2.796c0 .772-.314 1.471-.82 1.977a2.788 2.788 0 0 1-1.977.82c-.772 0-1.47-.314-1.977-.82a2.788 2.788 0 0 1-.82-1.977c0-.772.314-1.472.82-1.978a2.79 2.79 0 0 1 1.977-.818M55.796 62.427h7.802v-1.213h-7.802v1.213zm9.797 0h3.826v-1.213h-3.826v1.213zM64.45 58.603c.008-.034.013-.07.019-.105a2.516 2.516 0 0 0-.17.21.988.988 0 0 0-.189.398c.002.001.019-.001.054-.007.14-.024.231-.223.286-.496m-4.85-2.476c.19-.285.364-.57.494-.829.113-.225.194-.424.224-.573.017-.08.026-.129.024-.13-.003-.001-.001.001-.007.001-.218-.011-.517.72-.734 1.531m-.85 1.716a.214.214 0 0 1-.301-.01.21.21 0 0 1 .01-.3c.161-.152.344-.354.53-.58.03-.192.068-.39.115-.589.256-1.104.77-2.216 1.25-2.191a.434.434 0 0 1 .215.065c.172.11.216.31.163.57a2.853 2.853 0 0 1-.26.681c-.258.51-.671 1.126-1.08 1.638-.038.27-.053.517-.042.717.013.216.047.355.11.335.174-.058.456-.339.874-.946.363-.526.571-.66.724-.554.15.103.11.309.056.574a3.35 3.35 0 0 0-.081.587v.007c.133-.135.371-.456.571-.727.226-.304.414-.557.572-.563.151-.004.235.07.24.241.005.169.022.28.049.342a.491.491 0 0 0 .066-.051c.193-.17.42-.515.573-.776a.213.213 0 0 1 .372.01c.042.082.042.227.04.401 0 .221 0 .516.023.53.037.022.224-.233.749-1.14.06-.101.188-.135.29-.077.059.034.094.09.104.151.062.122.115.3.152.51.04.236.073.531.089.837.68-.5 1.684-1.057 3.103-1.59a.212.212 0 0 1 .149.397c-1.575.592-2.611 1.203-3.245 1.72-.007.22-.027.434-.065.624-.09.443-.28.772-.632.831-.172.03-.314-.008-.414-.102-.11-.102-.152-.258-.112-.45.03-.143.109-.314.246-.506.128-.175.31-.375.556-.59a6.978 6.978 0 0 0-.095-1.1l-.004-.038c-.54.841-.872 1.013-1.083.89-.155-.09-.209-.307-.226-.537-.095.125-.194.24-.29.324a.659.659 0 0 1-.322.168c-.152.022-.28-.034-.374-.19a.68.68 0 0 1-.07-.167c-.027.047-.06.1-.1.155-.315.426-.71.958-1.001.96-.206 0-.334-.141-.335-.494 0-.094.009-.193.021-.292-.45.64-.792.953-1.042 1.033-.432.14-.63-.171-.662-.713a4.392 4.392 0 0 1-.004-.2c-.06.064-.118.122-.173.175" fill="#7C93E6" mask="url(#d)"/>
        <path d="M86.386 88.112c-.009.156-.017.31-.017.465l-1.58.071.176-.602.006.03c.585 0 .892.03 1.415.036" fill="#33437D" mask="url(#d)"/>
        <path d="M84.201 89.353c.379-.1.391-.364.587-.705l1.671-.075.158 1.905c-.359.017-.716.034-1.073.053l-.075-.285h-.609l-.105.285-2.595.007c-.017-.193-.1-.856.195-.893.7-.087 1.565-.218 1.846-.292" fill="#141D3D" mask="url(#d)"/>
        <path d="m86.59 90.147.027.331-1.073.053-.075-.285 1.12-.1z" fill="#57638F" mask="url(#d)"/>
        <path d="m84.86 90.246-.105.285-2.595.007c-.007-.08-.026-.186-.024-.285l2.724-.007zM84.86 88.176c.176.053.37.104.497.261-.127.306-.447 1.158-1.352.957.433-.252.743-.686.855-1.218" fill="#57669C" mask="url(#d)"/>
        <path d="M86.591 81.298c.107-2.3 1.473-3.697.229-8.047l-.042.002c-1.562.297-2.197.765-4.794.144.658 2.415 1.316 5.267 1.316 7.9.39 2.54 1.128 3.926 1.67 6.779.66 0 .966.038 1.624.038-.048-2.2.542-3.842-.003-6.816" fill="#EB8900" mask="url(#d)"/>
        <path d="M83.314 88.076c-.019.316-.06.636-.067.95l-1.552.07.313-1.056c.486.006.787.033 1.306.036" fill="#33437D" mask="url(#d)"/>
        <path d="M81.108 89.8c.38-.098.391-.364.587-.704l1.673-.075.156 1.905c-.358.017-.715.034-1.074.053-.024-.095-.05-.19-.073-.285h-.609l-.104.285c-.865.001-1.731.004-2.596.007-.017-.193-.102-.856.195-.893.7-.087 1.566-.218 1.845-.292" fill="#141D3D" mask="url(#d)"/>
        <path d="m83.497 90.595.027.331c-.358.017-.715.034-1.074.053-.024-.095-.05-.19-.073-.285l1.12-.1z" fill="#57638F" mask="url(#d)"/>
        <path d="m81.768 90.694-.104.285c-.865.001-1.731.004-2.596.007-.007-.08-.026-.186-.024-.285l2.724-.007zM81.768 88.624c.175.053.37.104.495.261-.126.306-.445 1.158-1.35.957.433-.252.742-.686.855-1.218" fill="#57669C" mask="url(#d)"/>
        <path d="M82.99 63.898c.015.303-.005.59-.192.84.05.598 1.786.824 2.397-.59-.204-.212-.169-.752-.165-1.13-.226.527-.774.94-1.49.97-.24.01-.418-.022-.55-.09" fill="#C46C5A" mask="url(#d)"/>
        <path d="M85.064 81.598c.107-2.3 3-3.997 1.756-8.347l-.042.002-.072.014-.07.014-.072.014-.068.016-.068.014-.066.016-.067.014-.064.015-.065.014-.062.016-.063.016-.062.014-.061.015-.061.015-.061.014-.06.014-.06.014-.06.014-.06.015-.06.012-.057.013-.06.013-.06.013-.059.01a.888.888 0 0 1-.06.012l-.06.012c-.02.002-.04.007-.06.01l-.06.01a.926.926 0 0 1-.063.01l-.061.008-.064.008-.062.007-.064.008c-.023 0-.044.004-.065.005l-.066.006h-.001l-.067.004-.066.004a1.114 1.114 0 0 1-.07.003c-.022.002-.047.002-.07.003l-.07.001h-.148l-.151-.004-.078-.004-.08-.004c-.027-.002-.055-.003-.082-.006l-.083-.006-.085-.008-.087-.009-.09-.011a2.002 2.002 0 0 1-.09-.011 15.886 15.886 0 0 0-.189-.026c-.032-.006-.065-.01-.097-.015a12.377 12.377 0 0 0-.202-.034c-.034-.008-.07-.013-.105-.02l-.106-.022-.11-.02c-.037-.01-.074-.016-.112-.025a7.896 7.896 0 0 0-.115-.025l-.117-.027a3.737 3.737 0 0 1-.12-.029c.658 2.415.02 4.428.02 7.062.39 2.539-.357 4.625-.214 7.58.659 0 .965.038 1.623.038.713-2.367 1.81-4.155 1.651-6.479" fill="#F2B052" mask="url(#d)"/>
        <path d="M82.423 73.978c-.114-.02-.235-.043-.361-.068-.11.002-.062.668.048.69l.329.052-.016-.674zm1.634.215c-.438-.05-.834-.09-1.302-.162l-.015.67c.459.075.844.13 1.32.168l-.003-.676zm2.22-.212a4.687 4.687 0 0 1-1.82.247v.663a5.654 5.654 0 0 0 1.994-.275l-.174-.635zm.72-.3c-.209.11-.175.086-.367.166l.141.652c.209-.084.166-.053.383-.17.1-.071-.035-.671-.157-.648z" fill="#303C69" mask="url(#d)"/>
        <path d="M82.798 64.738c-.45.495-1.144 1.465-1.331 2.576-.304 1.792-.71 3.44.517 6.083 2.597.621 3.232.153 4.794-.144.952-.423 1.013-1.746.998-3.28-.02-2.348 0-4.252-2.581-5.826-.611 1.415-2.346 1.19-2.397.591" fill="#141D3D" mask="url(#d)"/>
        <path d="M84.278 60.71c-.787-.164-1.65.148-1.714 1.133-.024.389.144.545.103 1.194-.037.584.115.984.872.951.89-.037 1.517-.663 1.596-1.365.08-.702.015-1.732-.857-1.914" fill="#E28775" mask="url(#d)"/>
        <path d="m83.11 61.947.13.808-.206-.02-.204-.018c.094-.257.189-.514.28-.77" fill="#C46C5A" mask="url(#d)"/>
        <path d="M83.013 61.805c.065-.006.104-.177.04-.19-.213-.045-.464-.064-.478.077-.01.103.231.134.438.113M83.482 61.886c-.056-.031-.024-.204.04-.19.213.044.678.186.635.319-.031.1-.493-.027-.675-.13" fill="#141D3D" mask="url(#d)"/>
        <path d="M84.037 62.556c-.13-.03-.31-.079-.411.005-.078.064-.025.279.072.302.176.042.702-.223.339-.307" fill="#DB6969" mask="url(#d)"/>
        <path d="M83.52 62.067c-.059.027-.074.118-.035.203.04.087.12.133.177.106.059-.026.074-.117.034-.204-.04-.085-.119-.133-.177-.105M82.782 61.944c-.062.017-.092.105-.068.196.026.09.095.151.157.134.063-.017.093-.105.067-.195-.024-.091-.095-.152-.156-.135" fill="#141D3D" mask="url(#d)"/>
        <path d="M83.302 63.029c.203 0 .397-.128.465-.042.142.185-.201.358-.465.358-.262 0-.606-.173-.463-.358.066-.086.262.042.463.042" fill="#FEFEFE" mask="url(#d)"/>
        <path d="M69.008 63.655a.377.377 0 0 1 .484-.218l.646.244a.375.375 0 1 1-.266.702l-.645-.244a.377.377 0 0 1-.219-.484" fill="#7C93E6" mask="url(#d)"/>
        <path d="m69.353 64.187 3.016 2.335a.227.227 0 0 1-.073-.258l.452-1.194.452-1.192a.225.225 0 0 1 .226-.145l-3.808-.248a.374.374 0 1 1-.265.702" fill="#D4DDFF" mask="url(#d)"/>
        <path d="m93.135 73.447.437-1.151a.171.171 0 0 1 .22-.1l.917.346c.09.034.134.134.1.223l-.435 1.151a.173.173 0 0 1-.222.1l-.916-.347a.174.174 0 0 1-.1-.222" fill="#57669C" mask="url(#d)"/>
        <path d="m72.296 66.264.904-2.386a.224.224 0 0 1 .29-.13l20.345 7.701a.225.225 0 0 1 .13.291l-.902 2.386a.226.226 0 0 1-.29.13l-20.345-7.703a.226.226 0 0 1-.132-.29" fill="#7C93E6" mask="url(#d)"/>
        <path fill="#57669C" mask="url(#d)" d="m92.253 74.06-.344.91-.771-.293.344-.91z"/>
        <path d="M91.909 74.97a.5.5 0 0 1-.64.289l-6.423-2.432a.5.5 0 0 1 .353-.931l6.42 2.431a.498.498 0 0 1 .29.642" fill="#7C93E6" mask="url(#d)"/>
        <path d="M74.852 67.045c-.209.285-.261.4-.32.554-.074.193.257.288.313.172-.007.114.205.188.29.121.068.077.221.095.255.025-.007.07.138.133.19.087a.754.754 0 0 0 .251-.469c.007-.07-.143-.12-.195-.075l.018-.05c.061-.17-.16-.27-.258-.137l-.015.021c.01-.042.018-.088.028-.139.024-.137-.211-.228-.29-.119a.17.17 0 0 0-.267.009" fill="#E28775" mask="url(#d)"/>
        <path d="M82.62 61.513c-.351-.11-.603-.28-.78-.707.226.04.444.066.6 0a.887.887 0 0 1-.045-.6c.303.147.62.132.968.128.589-.009 1.25-.102 1.74.226.531.355.312 2.262.017 2.188-.401-.1-.505-.29-.604-.48-.444.096.045-.978-.478-.888-.876.149-1.099-.183-1.418.133" fill="#F7E7DE" mask="url(#d)"/>
        <path d="M84.717 61.85a.376.376 0 0 1 .418.328c.024.206-.105.542-.31.566-.206.025-.28-.219-.303-.424-.026-.206-.01-.445.195-.47M79.968 66.958c-.268-.358-.187-.356-.435-.745-.183-.287-.006-.413.159-.288-.057-.165.202-.224.272-.12-.033-.22.238-.23.3-.087-.096-.213.219-.28.34-.104.103.152.138.187.172.217.002-.115.006-.227.014-.337.013-.176.237-.206.274-.017.07.357.144 1.383.173 1.498-.333.173-.666.332-1 .505l-.269-.522z" fill="#E28775" mask="url(#d)"/>
        <path d="M84.489 67.152c-.12.86-.556 1.938-1.436 1.238-.698-.554-1.698-1.41-1.748-1.45-.38.2-.761.378-1.141.58.56 2.078 4.596 6.41 6.478 1.946 1.43-3.387-1.928-3.907-2.153-2.314" fill="#141D3D" mask="url(#d)"/>
        <path d="M68.84 13.324c.313 0 .612.06.886.168a3.412 3.412 0 0 1 4.416-2.172 3.412 3.412 0 0 1 6.508 2.038 2.406 2.406 0 0 1-.405 4.777H68.84a2.406 2.406 0 0 1 0-4.81M20.31 24.62c.232 0 .453.044.656.125a2.524 2.524 0 0 1 3.266-1.608 2.526 2.526 0 0 1 4.906.837c0 .232-.032.458-.09.672a1.779 1.779 0 0 1-.301 3.534h-8.436a1.78 1.78 0 1 1 0-3.56M20.495 55.53c-.313 0-.611.059-.886.168a3.413 3.413 0 0 0-4.416-2.173 3.41 3.41 0 0 0-6.63 1.13c0 .316.042.619.121.908a2.408 2.408 0 0 0 .406 4.78h11.405a2.406 2.406 0 0 0 0-4.814M91.051 40.224c-.23 0-.452.044-.655.124a2.524 2.524 0 0 0-3.266-1.607 2.525 2.525 0 0 0-4.816 1.507 1.781 1.781 0 0 0 .3 3.536h8.437a1.78 1.78 0 1 0 0-3.56" fill="#FEFEFE" mask="url(#d)"/>
        <path d="M27.585 87.07c0 .236-.013.62-.013.82.383.889 1.271.527 1.354-.243.002-.147.014-.428.02-.618-.52.007-.85.034-1.361.041" fill="#57669C" mask="url(#d)"/>
        <path d="M28.933 87.333c.236.6 2.146.73 2.465 1.042.181.175.133.41.149.794l-2.583-.06-.047-.143-.802-.068v.186l-.694-.02c.05-.48.103-1.032.154-1.512.6.698.98-.575 1.358-.22" fill="#141D3D" mask="url(#d)"/>
        <path d="M27.488 64.903c.352.687 3.05 2.662 3.785 2.875l.003.001a.406.406 0 0 0 .16.02c1.632-.148 2.972-.45 4.447-1.236 0-.14-.014-.277-.035-.414-.184.027-.373.058-.577.093l.027-1.046.332-.1a14.51 14.51 0 0 1-.026-.145c-1.328-.028-2.533.317-3.727.702-.967-1.09-1.92-2.137-3.361-2.416-.539-.104-1.428.883-1.028 1.666" fill="#FEFEFE" mask="url(#d)"/>
        <path d="M26.319 79.027c-.114-2.46-1.747-3.067-.69-7.347.688.535 3.13.36 4.497-.097-.292 1.7-.567 6.166-.567 7.946-.438 2.848-.331 4.3-.4 7.499-.74 0-1.084.044-1.823.044.054-2.471-1.627-4.708-1.017-8.045" fill="#141D3D" mask="url(#d)"/>
        <path d="M25.464 87.7c.008.197.001.515.001.754.383.889 1.27.527 1.354-.242l.011-.552c-.523.006-.853.033-1.366.04" fill="#57669C" mask="url(#d)"/>
        <path d="m29.106 62.114.2 1.116c.08.594-2.03 1.487-2.385-.676l.017-1.28c.157.653.544 1.168 1.24 1.13.298-.015.667-.113.928-.29" fill="#C46C5A" mask="url(#d)"/>
        <path d="M25.478 79.027c-.114-2.46-1.745-3.067-.688-7.347.686.535 3.335.706 4.701.25-.147.86-.25 1.6-.32 2.318-.132 1.357-.783 3.558-.783 5.37-.438 2.85-.74 4.84-1.35 8.04-.738 0-1.082.043-1.821.043.055-2.47-.349-5.337.26-8.674" fill="#33437D" mask="url(#d)"/>
        <path d="M29.306 63.23c1.536 1.245 1.281 6.116.82 8.353-.897.877-4.684.731-5.39.052-1.026-3.475-1.173-7.533 2.185-9.081.537 1.444 2.304 1.27 2.385.676" fill="#FEFEFE" mask="url(#d)"/>
        <path d="M27.996 58.949c.888-.047 1.702.504 1.397 1.723-.083.338.006.443.047.845.058.559-.719.858-1.262.888-.888.047-1.273-.805-1.32-1.694-.048-.89.249-1.714 1.138-1.762" fill="#E28775" mask="url(#d)"/>
        <path d="M27.67 59.716c-.005.5-.112 1.134-.107 1.363.006.18.146.304.409.231.2-.056.61-.075.908-.024.204.034.355-.048.536.053.013.198.206.503.062.864-.243.613-1.979.617-2.391.095-.33-.415-.25-.958-.26-1.494-.698-.194-.84-1.544.175-1.685.388-.14.767-.295.975-.65.33-.443.621-.4.892-.124.28-.105.425-.009.415.324.362-.173.66-.099.729.254.1.52-.258.81-.6.895-.94-.543-.852.253-1.743-.102" fill="#141D3D" mask="url(#d)"/>
        <path d="m28.962 60.35-.25.777.205.012.206.013c-.054-.268-.11-.536-.16-.803" fill="#C46C5A" mask="url(#d)"/>
        <path d="M29.079 60.223c-.063-.016-.075-.191-.01-.194.217-.012.468.008.46.149-.005.103-.249.097-.45.045M28.602 60.233c.061-.023.056-.199-.01-.196-.216.012-.697.081-.676.22.017.104.492.048.686-.024" fill="#141D3D" mask="url(#d)"/>
        <path d="M28.717 61.523c-.201.011-.402-.106-.465-.016-.133.192.22.345.482.33.262-.012.597-.203.445-.38-.072-.083-.26.056-.462.066" fill="#E28775" mask="url(#d)"/>
        <path d="M27.955 60.811c.131-.01.316-.03.405.067.067.074-.018.28-.118.288-.18.014-.66-.328-.287-.355" fill="#DB6969" mask="url(#d)"/>
        <path d="M28.54 60.404c.054.037.054.13.003.207-.053.08-.14.114-.192.078-.053-.035-.055-.127-.002-.207.052-.078.137-.113.191-.078M29.287 60.396c.058.025.075.118.037.203-.038.086-.118.134-.176.109-.058-.027-.075-.118-.037-.203.039-.086.118-.135.176-.109" fill="#141D3D" mask="url(#d)"/>
        <path d="M27.33 60.283a.376.376 0 0 0-.355.394c.011.207.196.514.403.504.207-.011.358-.337.347-.544a.375.375 0 0 0-.394-.354" fill="#E28775" mask="url(#d)"/>
        <path d="M28.882 63.611c-.793-.31-1.443-.571-1.961-1.057-.252.076-.604.255-.765.436.662.942 1.5 1.28 2.164 1.7.087-.407.264-.771.562-1.079" fill="#D4DDFF" mask="url(#d)"/>
        <path d="M28.882 63.611c.285.173.472.383.623.607.107-.208.291-.335.243-.542-.067-.173-.201-.324-.442-.446-.067.215-.274.286-.424.381" fill="#D4DDFF" mask="url(#d)"/>
        <path d="M29.484 72.222c.116-.02.235-.042.363-.066.108 0 .062.666-.05.689l-.328.053.015-.676zm-1.633.215c.438-.05.834-.089 1.301-.16l.016.67c-.458.075-.845.13-1.321.166l.004-.676zm-2.219-.211c.645.22 1.224.279 1.82.245v.664a5.622 5.622 0 0 1-1.995-.274l.175-.635zm-.72-.3c.207.11.175.086.366.166l-.142.65c-.208-.082-.166-.05-.381-.167-.1-.073.035-.674.157-.65z" fill="#141D3D" mask="url(#d)"/>
        <path d="m35.298 65.196.54-.163c.284-.33.394-.339.665-.68.112-.14.381-.066.247.167-.162.28-.258.283-.193.319.065.034.723-.118 1.133-.294.252-.109.334.117.19.206-.32.198-.845.237-.858.3-.012.064.677-.134 1.069-.266.188-.065.293.155.103.255-.378.202-1.016.271-1.002.332.014.06.49-.11.88-.187.202-.04.277.177.031.262-.365.128-.96.208-.96.272 0 .063.327-.068.606-.102.218-.025.198.219-.004.271-.36.092-.675.139-1.046.164a13.85 13.85 0 0 0-1.428.19l.027-1.046" fill="#E28775" mask="url(#d)"/>
        <path d="M26.826 87.844c.088 1.098 2.146.783 2.465 1.095.182.176.134.41.15.794l-2.584-.06-.047-.143-.802-.068v.186l-.695-.02c.051-.48.101-1.19.152-1.669.474.698.985-.47 1.361-.115" fill="#33437D" mask="url(#d)"/>
        <path d="M21.072 76.503h5.531c.152 0 .276.124.276.275v4.07a.275.275 0 0 1-.276.275h-5.531a.275.275 0 0 1-.275-.275v-4.07c0-.151.123-.275.275-.275" fill="#EB8900" mask="url(#d)"/>
        <path d="M21.072 76.503h5.531c.152 0 .276.124.276.275v1.76a.275.275 0 0 1-.276.275h-5.531a.275.275 0 0 1-.275-.275v-1.76c0-.151.123-.275.275-.275" fill="#F2B052" mask="url(#d)"/>
        <path d="M23.489 78.475h.696c.072 0 .132.06.132.132v.413c0 .072-.06.131-.132.131h-.696c-.07 0-.13-.06-.13-.131v-.413c0-.072.06-.132.13-.132M23.095 75.439h1.486c.212 0 .405.086.544.226.14.14.227.332.227.545v.293h-.284v-.293a.483.483 0 0 0-.143-.345.483.483 0 0 0-.344-.143h-1.486a.48.48 0 0 0-.345.143.483.483 0 0 0-.143.345v.293h-.283v-.293a.768.768 0 0 1 .77-.771" fill="#FEFEFE" mask="url(#d)"/>
        <path d="M24.687 74.414c.198.306.533.66.567.944.01.082-.118.13-.192.093-.113-.058-.243-.188-.361-.319.001.19-.027.383-.11.59-.049.124-.311.115-.373.034-.12.053-.203.053-.271-.034-.105.118-.271.128-.367.046-.135.083-.366.065-.359-.046-.045-.646.145-1.127.204-1.505.39.102.8.122 1.262.197" fill="#E28775" mask="url(#d)"/>
        <path d="M23.218 74.154c-.227-1.582-.058-3.222.322-4.749.041-1.101.628-3.867 1.067-4.403.559-.68 1.82-.26 1.938.276.356 1.584-.388 2.996-1.064 4.47-.05 1.494-.098 3.254-.652 4.691-.604-.113-1.12-.113-1.61-.285" fill="#FEFEFE" mask="url(#d)"/>
        <path d="M29.26 65.653c-.02-.047.052-.13.128-.14.262-.03.296.19.09.226-.084.016-.195-.035-.218-.086m.394 1.15c-.02.045.053.128.128.137.262.03.296-.187.091-.226-.084-.015-.196.036-.219.088m.07 1.496c-.02-.045.056-.105.129-.118.07-.014.184.012.205.057.023.052-.03.133-.114.149-.082.015-.196-.036-.22-.088m.042 1.299c-.02-.046.055-.105.128-.118.07-.014.184.011.203.057.025.052-.028.133-.112.148-.082.016-.196-.035-.219-.087m-.096 1.33c-.02-.048.053-.131.128-.14.262-.03.296.189.091.227-.084.014-.196-.037-.219-.088m-.777-6.578c-.02-.045.055-.105.128-.117.07-.014.184.011.205.056.022.053-.03.134-.114.15-.082.015-.196-.036-.22-.089M25.46 71.614a.07.07 0 1 1-.14-.011c.049-.606.069-1.201.087-1.761l.003-.097c0-.01.003-.02.007-.028l.153-.332c.624-1.344 1.23-2.65.907-4.091a.071.071 0 0 1 .054-.085.07.07 0 0 1 .084.054c.333 1.487-.284 2.815-.916 4.182l-.149.319-.003.082a37.28 37.28 0 0 1-.086 1.768" fill="#D4DDFF" mask="url(#d)"/>
        <path d="M89.357 85.968h5.532c.15 0 .275.123.275.275v4.07a.276.276 0 0 1-.275.275h-5.532a.275.275 0 0 1-.275-.275v-4.07c0-.152.123-.275.275-.275" fill="#7C93E6" mask="url(#d)"/>
        <path d="M89.357 85.968h5.532c.15 0 .275.123.275.275v1.759a.276.276 0 0 1-.275.275h-5.532a.275.275 0 0 1-.275-.275v-1.76c0-.151.123-.274.275-.274" fill="#ABBDFF" mask="url(#d)"/>
        <path d="M91.774 87.94h.696c.073 0 .132.059.132.131v.413c0 .072-.06.132-.132.132h-.696a.131.131 0 0 1-.13-.132v-.413c0-.072.058-.132.13-.132M91.38 84.903h1.486c.212 0 .405.086.544.227.14.139.227.331.227.544v.294h-.284v-.294a.491.491 0 0 0-.487-.488H91.38a.487.487 0 0 0-.344.144.487.487 0 0 0-.145.344v.294h-.283v-.294a.77.77 0 0 1 .226-.544.77.77 0 0 1 .546-.227" fill="#57669C" mask="url(#d)"/>
        <path fill="#D4DDFF" mask="url(#d)" d="M17.96 89.778h-6.796v-1.766l-.563-.323.563-.278v-2.254h6.796l-.188.847.188 1.387v1.074l-.302.148.302.173z"/>
        <path fill="#ABBDFF" mask="url(#d)" d="m12.117 85.157 1.132 2.115 3.33-2.115zM8.402 89.778h2.762v-1.766l-.563-.323.563-.278v-1.289l.57-.055-.57-.41v-.5H8.402l-.15 1.821.15 1.388zM7.352 85.157h2.761l.158-2.223-.158-.838H7.352l.159 1.184-.16 1.071z"/>
        <path fill="#FEFEFE" mask="url(#d)" d="m12.117 85.157 1.132 1.492 3.33-1.492z"/>
        <path fill="#D4DDFF" mask="url(#d)" d="m10.187 84.115-.563.276.522.3-.033.466h6.797l.134-1.788-.134-1.273h-6.797l.158.838z"/>
        <path fill="#7C93E6" mask="url(#d)" d="m7.855 82.934.683 1.225 1.625-1.225z"/>
        <path fill="#D4DDFF" mask="url(#d)" d="m7.855 82.934.586.642 1.722-.642z"/>
    </g>
</svg>
