<svg width="125" height="88" viewBox="0 0 125 88" xmlns="http://www.w3.org/2000/svg" xmlns:xlink="http://www.w3.org/1999/xlink">
    <defs>
        <path id="a" d="M0 0h6.099v9.298H0z"/>
        <path d="M0 0c.001 0 4.638 2.58 8.482 7.273.761.929 1.491 1.94 2.148 3.031a23.043 23.043 0 0 1 1.1 2.06 19.728 19.728 0 0 1 1.132 3.048l.042.159a18.49 18.49 0 0 1 .313 1.35l.033.165c.026.14.05.279.073.418l.013.073c.026.164.05.327.073.49l.019.145a21.917 21.917 0 0 1 .135 1.34l.011.171c.008.125.015.25.02.374l.006.108c.007.16.011.32.015.48a23.598 23.598 0 0 1-.012 1.44l-.006.165c-.005.115-.01.23-.017.344l-.006.12c-.01.155-.02.309-.032.462l-.007.078c-.01.126-.02.252-.032.378l-.015.148a29.053 29.053 0 0 1-.087.763l-.019.151c-.014.109-.03.216-.045.324l-.016.114c-.043.292-.09.58-.14.864l-.02.114-.058.308-.025.132a31.7 31.7 0 0 1-.058.29l-.026.126-.066.308-.02.094c-.061.27-.124.536-.188.795l-.017.067a35.246 35.246 0 0 1-.181.691l-.026.094-.082.291-.019.067c-.07.243-.14.48-.212.708l-3-.29-1.338-4.35" id="c"/>
        <path d="M0 0s2.737.174 5.581 1.52A13.398 13.398 0 0 1 7.56 2.668a11.792 11.792 0 0 1 .857.67 10.32 10.32 0 0 1 1.034 1.029l.056.064a10.498 10.498 0 0 1 .45.565l.052.07c.044.06.086.12.128.18l.023.032c.049.071.097.143.144.214l.042.064a11.617 11.617 0 0 1 .365.6l.043.078.094.171.027.05c.04.074.078.148.115.222l.028.057c.028.055.056.111.082.167l.038.08a13.957 13.957 0 0 1 .171.375l.035.08.07.166.023.057.09.225.014.038c.024.062.048.123.07.185.01.024.018.049.027.073a14.168 14.168 0 0 1 .132.378l.025.075.052.163.018.057c.046.147.09.293.13.438l.016.058c.015.053.03.105.043.158l.018.067.038.15.017.065.038.16.012.048c.033.14.064.28.092.416l.008.035a17.693 17.693 0 0 1 .071.366l.01.05.027.155.006.036c.023.13.043.257.061.38-.486.18-.972.357-1.459.535L9.39 10.225" id="e"/>
        <path d="M16.347 0 6.243 34.818l-1.725 5.944c-1.12.044-2.239.088-3.359.13a58.335 58.335 0 0 1-.199-1.007l-.017-.095a62.31 62.31 0 0 1-.17-.948l-.022-.135a62.4 62.4 0 0 1-.073-.444l-.015-.096a58.111 58.111 0 0 1-.166-1.125l-.018-.134a60.6 60.6 0 0 1-.057-.435l-.023-.178a57.598 57.598 0 0 1-.118-1.03l-.017-.162c-.04-.4-.077-.807-.11-1.218l-.012-.16a52.232 52.232 0 0 1-.032-.456l-.014-.212a51.113 51.113 0 0 1-.055-1.072l-.009-.209a48.948 48.948 0 0 1-.016-.53c-.001-.037-.003-.073-.003-.11-.006-.214-.01-.43-.011-.647v-.167C0 30.162 0 30 0 29.839l.002-.231a44.879 44.879 0 0 1 .024-1.106l.009-.236c.006-.165.014-.33.023-.496l.008-.17c.012-.222.026-.445.042-.667.004-.05.009-.101.012-.152l.042-.519.023-.236a38.622 38.622 0 0 1 .123-1.131l.032-.249c.02-.159.043-.318.066-.478l.029-.2c.034-.226.07-.451.108-.677l.018-.101c.033-.192.068-.384.104-.576l.045-.228a34.39 34.39 0 0 1 .246-1.141l.06-.251c.037-.154.076-.308.116-.462l.055-.216a30.426 30.426 0 0 1 1.424-4.148 31.97 31.97 0 0 1 .916-1.968 35 35 0 0 1 2.976-4.835" id="g"/>
        <path d="m12.452 0-9.39 10.225L1.46 11.97 0 11.435c.018-.123.039-.25.061-.38l.006-.036.028-.155.01-.05a14.137 14.137 0 0 1 .07-.366l.008-.035c.029-.136.06-.275.092-.416l.012-.049.039-.16.016-.064a17.617 17.617 0 0 1 .1-.375l.015-.059c.04-.144.084-.29.13-.437l.01-.029.008-.028.052-.163.025-.075.05-.148.028-.079.054-.151c.01-.024.018-.049.027-.073l.07-.185.014-.038.09-.225.024-.058.07-.165.034-.08a13.5 13.5 0 0 1 .171-.376l.038-.08.082-.166.028-.057.115-.222.027-.05.094-.171.044-.078.083-.144.049-.082.085-.141.05-.08c.032-.051.064-.102.098-.153l.04-.064.145-.214c.008-.01.016-.02.023-.032l.128-.18.053-.07a11.956 11.956 0 0 1 .271-.35l.062-.076.117-.139L3 4.367A10.162 10.162 0 0 1 4.643 2.85a11.193 11.193 0 0 1 .547-.386A13.386 13.386 0 0 1 6.87 1.52" id="i"/>
        <path d="m12.452 0-9.39 10.225L1.46 11.97A865.22 865.22 0 0 1 0 11.435c.018-.123.039-.25.061-.38l.006-.036.028-.155.009-.05.028-.15.01-.05.034-.166.007-.035c.028-.136.06-.275.092-.416l.012-.049a15.889 15.889 0 0 1 .093-.374l.018-.067.043-.158.016-.058c.04-.145.084-.291.13-.438l.018-.057.052-.163.025-.075a14.323 14.323 0 0 1 .132-.378c.01-.024.018-.049.027-.073l.07-.185.014-.038.09-.225.024-.057.07-.166.034-.08.065-.146.038-.084.068-.146.038-.08.082-.166.028-.057.115-.222.027-.05.094-.171.044-.077a10.29 10.29 0 0 1 .217-.368l.05-.08.097-.153.042-.064c.047-.072.095-.143.144-.214l.023-.031.128-.18.053-.071a11.032 11.032 0 0 1 .271-.35l.062-.076a9.97 9.97 0 0 1 .117-.139L3 4.367A10.161 10.161 0 0 1 4.643 2.85a11.363 11.363 0 0 1 .547-.385A13.38 13.38 0 0 1 6.87 1.52" id="k"/>
        <path d="M.021.102C-.025.229 0 .418.138.5c0 0 .056-.063.124-.143L.33.28A2.53 2.53 0 0 0 .487.078C.497.064.501.054.5.05.498.042.48.038.454.037.37.03.19.046.09 0a.218.218 0 0 0-.069.102" id="m"/>
        <path d="M1.9.196A2 2 0 0 0 .868.807c-.712.767-1 2.065-.812 3.14C.318 5.44 1.85 8.392 1.85 8.58a145141 145141 0 0 0 5.643-.075s.187-2.802.897-4.073C9.1 3.162 6.31.794 6.31.794S5.849.271 5.014.047c0 0-.449-.047-1.082-.047C3.343 0 2.596.04 1.9.196" id="o"/>
        <path d="m.248.072-.014.02C.086.306.01.52 0 .622c-.003.035 0 .056.012.06a.41.41 0 0 0 .072.006C.205.69.426.683.426.683A.318.318 0 0 0 .5.461C.493.234.303 0 .303 0L.248.072" id="q"/>
        <path d="M.054.147C.034.157.02.168.014.18a.108.108 0 0 0-.011.074c.007.031.03.068.09.109.014.01.03.018.047.028C.204.426.295.462.423.5.522.39.51.264.473.167.437.07.377 0 .377 0 .285.073.129.11.054.147" id="s"/>
        <path d="m.248.072-.014.02C.086.306.01.52 0 .622c-.003.035 0 .056.013.06a.407.407 0 0 0 .07.006C.206.69.427.683.427.683A.318.318 0 0 0 .5.461C.493.234.303 0 .303 0 .283.024.266.048.248.072" id="u"/>
        <path d="M.278.093.235.156C.159.266.075.392.03.463A.234.234 0 0 0 0 .52c.002.005.026.02.07.035.08.03.224.063.415.05a.458.458 0 0 0 0-.232C.445.186.345 0 .345 0L.277.093" id="w"/>
        <path d="M.083.053C.035.056.003.061 0 .073c-.002.006.007.02.023.04.048.062.165.178.285.294l.12.113c.123.116.224.208.224.208a.44.44 0 0 0 .21-.58A.328.328 0 0 0 .738 0C.56.066.235.046.083.053" id="y"/>
        <path d="M1.834 1.016a.227.227 0 0 1-.24 0L.012 0A.512.512 0 0 0 0 .108v1.724c0 .122.045.24.125.326a.41.41 0 0 0 .301.135h2.575c.235 0 .426-.206.426-.46V.107A.521.521 0 0 0 3.416 0L1.834 1.016z" id="A"/>
        <path d="M.348 0A.418.418 0 0 0 0 .196l1.598 1.026a.075.075 0 0 0 .076 0L3.27.196A.418.418 0 0 0 2.923 0H.348z" id="C"/>
    </defs>
    <g fill="none" fill-rule="evenodd">
        <path d="M76.5 1.27C55.052-3.517 27.674 7.848 27.826 36.56 3.338 44.137 1.209 69.06 6.989 85.21h102.973c12.32-49.248-12.017-79.155-33.463-83.94" fill="#DBE6FF"/>
        <path d="M28.13 36.076c0 7.392-5.992 13.385-13.384 13.385S1.36 43.468 1.36 36.076c0-7.392 5.993-13.385 13.385-13.385 7.392 0 13.385 5.993 13.385 13.385" fill="#DBE6FF"/>
        <path d="M31.477 27.71a5.628 5.628 0 1 1-11.255 0 5.628 5.628 0 0 1 11.255 0" fill="#DBBAE8"/>
        <path d="M123.76 56.154a6.997 6.997 0 1 1-13.993 0 6.997 6.997 0 0 1 13.994 0" fill="#BED2FF"/>
        <path d="M83.515 26.632a.683.683 0 1 1-1.366 0 .683.683 0 0 1 1.366 0M87.045 26.632a.683.683 0 1 1-1.366 0 .683.683 0 0 1 1.366 0M90.461 26.632a.683.683 0 1 1-1.366 0 .683.683 0 0 1 1.366 0M80.327 26.632a.683.683 0 1 1-1.367 0 .683.683 0 0 1 1.367 0M83.515 29.023a.683.683 0 1 1-1.366 0 .683.683 0 0 1 1.366 0M87.045 29.023a.683.683 0 1 1-1.366 0 .683.683 0 0 1 1.366 0M90.461 29.023a.683.683 0 1 1-1.366 0 .683.683 0 0 1 1.366 0M80.327 29.023a.683.683 0 1 1-1.367 0 .683.683 0 0 1 1.367 0M83.515 31.414a.683.683 0 1 1-1.366 0 .683.683 0 0 1 1.366 0M87.045 31.414a.683.683 0 1 1-1.366 0 .683.683 0 0 1 1.366 0M90.461 31.414a.683.683 0 1 1-1.366 0 .683.683 0 0 1 1.366 0M80.327 31.414a.683.683 0 1 1-1.367 0 .683.683 0 0 1 1.367 0M83.515 33.806a.683.683 0 1 1-1.366 0 .683.683 0 0 1 1.366 0M87.045 33.806a.683.683 0 1 1-1.366 0 .683.683 0 0 1 1.366 0M90.461 33.806a.683.683 0 1 1-1.366 0 .683.683 0 0 1 1.366 0M80.327 33.806a.683.683 0 1 1-1.367 0 .683.683 0 0 1 1.367 0M94.744 44.9c.165.658.612 1.426 1.095 2.258.174.298.353.606.522.916.763 1.394 1.658 2.225 2.662 2.47.823.202 1.688.004 2.572-.589.771-.516 1.674-.349 2.47-.2.66.122 1.23.228 1.59-.067.275-.225.413-.683.422-1.4.018-1.513-.603-2.09-1.26-2.703-.718-.668-1.46-1.36-1.267-3.32.215-2.187-1.147-4-2.554-4.322-.832-.19-1.489.19-1.802 1.044-.708 1.932-2.053 2.925-3.134 3.723-.39.288-.76.56-1.034.835-.363.364-.414.823-.282 1.355m11.365 2.353c.073.294.113.635.108 1.037-.009.76-.164 1.254-.473 1.507-.41.337-1.038.22-1.704.096-.77-.143-1.643-.305-2.366.18-.919.615-1.822.82-2.685.609-1.044-.256-1.97-1.11-2.751-2.54l.062-.034-.062.034c-.169-.309-.348-.616-.52-.914-.865-1.487-1.682-2.892-.792-3.783.283-.282.655-.557 1.05-.848 1.066-.787 2.392-1.766 3.086-3.658.335-.915 1.07-1.338 1.966-1.133 1.099.25 2.172 1.37 2.546 2.867.125.5.172 1.04.116 1.606-.186 1.892.498 2.528 1.223 3.203.484.451.981.914 1.196 1.771M38.778 73.24c.164.658.611 1.426 1.094 2.257.174.299.353.607.523.917.762 1.394 1.657 2.225 2.661 2.47.823.202 1.688.004 2.572-.589.771-.517 1.674-.349 2.471-.2.66.122 1.23.228 1.59-.067.274-.225.412-.683.42-1.4.02-1.513-.601-2.091-1.259-2.703-.718-.668-1.46-1.36-1.267-3.32.216-2.187-1.146-4-2.553-4.322-.833-.19-1.49.19-1.803 1.044-.708 1.932-2.053 2.925-3.134 3.723-.39.288-.759.56-1.034.835-.363.363-.414.823-.281 1.354m11.364 2.354c.073.294.114.634.109 1.037-.01.76-.164 1.254-.473 1.507-.41.336-1.039.22-1.705.096-.77-.143-1.643-.306-2.366.179-.918.616-1.822.82-2.684.61-1.044-.256-1.97-1.11-2.752-2.54l.062-.034-.062.034c-.169-.309-.347-.616-.52-.914-.865-1.487-1.682-2.892-.791-3.783.282-.282.655-.557 1.05-.848 1.065-.787 2.392-1.766 3.085-3.658.335-.915 1.07-1.338 1.966-1.134 1.099.252 2.172 1.37 2.546 2.867.125.5.172 1.041.117 1.607-.187 1.891.498 2.528 1.222 3.203.485.45.982.914 1.196 1.77M46.242 35.865c-.512 0-1.043.019-1.599.057-3.034.21-5.2 1.093-6.435 2.622-1.098 1.357-1.483 3.245-1.145 5.61.319 2.228-1.17 3.663-2.609 5.051-1.111 1.072-2.161 2.084-2.383 3.413-.23 1.384.663 3.23 2.275 4.704 1.838 1.68 4.02 2.399 5.84 1.925 1.341-.35 2.56-1.067 3.851-1.826 2.519-1.48 5.373-3.157 9.739-2.187 1.356.301 2.38-.614 3-1.436 1.99-2.639 2.718-8.106.424-12.336-1.417-2.614-4.46-5.597-10.958-5.597M39.044 59.96c-1.688 0-3.51-.78-5.082-2.217-1.751-1.6-2.714-3.648-2.452-5.218.252-1.514 1.42-2.64 2.549-3.729 1.398-1.347 2.718-2.62 2.44-4.561-.36-2.528.065-4.563 1.266-6.048 1.34-1.657 3.64-2.61 6.84-2.832l.019.284-.02-.284c7.91-.549 11.488 2.87 13.096 5.836 2.403 4.43 1.627 10.171-.47 12.951-1.018 1.35-2.288 1.935-3.578 1.649-4.146-.922-6.78.626-9.326 2.122-1.326.78-2.578 1.515-3.997 1.885a5.082 5.082 0 0 1-1.285.162" fill="#A390D9"/>
        <path d="M109.951 72.244c7.184-6.258 7.51-12.003 7.826-17.558.21-3.69.408-7.174 2.46-10.827l-.298-.167c-2.091 3.721-2.3 7.409-2.503 10.974-.312 5.485-.634 11.157-7.709 17.32l.224.258z" fill="#6D9BFF"/>
        <g transform="translate(118.435 37.582)">
            <mask id="b" fill="#fff">
                <use xlink:href="#a"/>
            </mask>
            <path d="M.339 9.298C-.463 6.09.1 4.575 2.656 2.971 5.21 1.366 5.656 0 5.656 0c1.486 3.921-1.07 6.743-3.208 7.694-2.139.95-2.11 1.604-2.11 1.604" fill="#6D9BFF" mask="url(#b)"/>
        </g>
        <path d="M118.199 49.635c.375-1.837 1.034-2.474 2.734-2.67 1.7-.195 2.262-.785 2.262-.785-.2 2.37-2.198 3.188-3.525 3.15-1.326-.036-1.471.305-1.471.305M118.034 49.339c.733-1.727.551-2.625-.738-3.75-1.289-1.124-1.418-1.93-1.418-1.93-1.179 2.066.003 3.873 1.117 4.594 1.113.722 1.039 1.086 1.039 1.086M117.618 52.903c.733-1.726.551-2.624-.738-3.749-1.289-1.125-1.417-1.93-1.417-1.93-1.18 2.065.002 3.872 1.116 4.594 1.114.722 1.04 1.085 1.04 1.085" fill="#6D9BFF"/>
        <path d="M117.44 55.993c.733-1.726.551-2.625-.738-3.75-1.289-1.124-1.418-1.93-1.418-1.93-1.179 2.066.002 3.873 1.116 4.595 1.114.721 1.04 1.085 1.04 1.085M117.82 52.977c.375-1.837 1.034-2.474 2.734-2.67 1.7-.195 2.262-.785 2.262-.785-.2 2.37-2.198 3.188-3.524 3.15-1.327-.036-1.472.305-1.472.305M117.642 56.074c.375-1.837 1.034-2.474 2.734-2.67 1.7-.195 2.262-.785 2.262-.785-.2 2.37-2.198 3.188-3.525 3.15-1.326-.036-1.471.305-1.471.305" fill="#6D9BFF"/>
        <path d="M15.622 77.197C8.439 70.94 8.112 65.194 7.796 59.64c-.21-3.69-.407-7.174-2.46-10.827l.298-.167c2.091 3.721 2.3 7.409 2.504 10.974.311 5.485.634 11.157 7.708 17.32l-.224.258z" fill="#8BAFFF"/>
        <path d="M6.8 51.833c.802-3.208.238-4.723-2.317-6.328-2.555-1.604-3-2.97-3-2.97-1.486 3.921 1.069 6.743 3.208 7.694 2.139.95 2.109 1.604 2.109 1.604M7.375 54.588C7 52.751 6.34 52.114 4.64 51.918c-1.7-.195-2.262-.785-2.262-.785.2 2.37 2.197 3.188 3.524 3.15 1.327-.036 1.472.305 1.472.305M7.753 57.93c-.375-1.837-1.034-2.474-2.734-2.67-1.7-.195-2.262-.785-2.262-.785.2 2.37 2.198 3.188 3.525 3.15 1.327-.036 1.471.305 1.471.305M7.932 61.027c-.375-1.837-1.035-2.474-2.734-2.67-1.7-.195-2.262-.785-2.262-.785.2 2.37 2.197 3.188 3.524 3.15 1.327-.037 1.472.305 1.472.305M19.614 81.86c-6.136-1.512-8.072-4.802-9.944-7.983-1.244-2.113-2.418-4.11-4.737-5.641l.125-.19c2.363 1.562 3.605 3.673 4.807 5.716 1.848 3.141 3.76 6.39 9.804 7.879l-.055.22z" fill="#8BAFFF"/>
        <path d="M6.713 69.574c-.5-2.136-1.293-2.859-3.287-3.03-1.994-.171-2.672-.842-2.672-.842.314 2.764 2.677 3.654 4.228 3.565 1.55-.088 1.73.307 1.73.307" fill="#6D9BFF"/>
        <path d="M12.638 55.367s-5.075 9.903-2.16 19.373c1.27 4.127 3.848 7.49 6.353 9.971l7.99.778c1.172-3.764 2.271-9.56.534-15.202-2.915-9.47-12.717-14.92-12.717-14.92" fill="#8BAFFF"/>
        <g transform="translate(12.638 55.367)">
            <mask id="d" fill="#fff">
                <use xlink:href="#c"/>
            </mask>
            <path d="m7.845 25.48 1.339 4.35 3 .291c.07-.228.141-.465.211-.708l.02-.067.081-.29.026-.095a32.18 32.18 0 0 0 .181-.69l.017-.068c.064-.26.127-.524.187-.795l.02-.094.067-.308.026-.126.058-.29.025-.132c.02-.102.039-.204.057-.308l.021-.114c.05-.284.097-.572.14-.864l.016-.114.045-.324.02-.15a27.024 27.024 0 0 0 .086-.764l.015-.148.032-.378.007-.078c.012-.153.022-.307.032-.462l.006-.12.017-.344.006-.166a26.718 26.718 0 0 0 .014-1.317l-.002-.123c-.004-.159-.008-.318-.015-.479l-.006-.108a24.319 24.319 0 0 0-.02-.374l-.011-.17a21.77 21.77 0 0 0-.135-1.34l-.019-.146a21.05 21.05 0 0 0-.073-.49l-.013-.073a20.817 20.817 0 0 0-.073-.418l-.033-.166a20.738 20.738 0 0 0-.225-1.013 18.49 18.49 0 0 0-.088-.336l-.043-.158a19.173 19.173 0 0 0-1.131-3.049 21.408 21.408 0 0 0-.752-1.46c-.114-.203-.23-.402-.348-.6a25.766 25.766 0 0 0-2.148-3.031C4.638 2.58.001 0 0 0l7.845 25.48" mask="url(#d)"/>
        </g>
        <path d="M4.269 72.725s-.125 5.793 3.365 9.594c1.52 1.655 3.476 2.66 5.2 3.265l3.887-1.423c-.303-2.033-1.1-5.005-3.179-7.269-3.49-3.8-9.273-4.167-9.273-4.167" fill="#6D9BFF"/>
        <g transform="translate(4.269 72.725)">
            <mask id="f" fill="#fff">
                <use xlink:href="#e"/>
            </mask>
            <path d="m9.39 10.225 1.603 1.745 1.46-.535a18.46 18.46 0 0 0-.062-.38l-.006-.036a17.431 17.431 0 0 0-.028-.155l-.009-.05a17.906 17.906 0 0 0-.071-.366l-.008-.035c-.028-.136-.059-.275-.092-.416l-.012-.049a21.135 21.135 0 0 0-.038-.16l-.017-.064-.038-.15-.018-.067a15.759 15.759 0 0 0-.043-.158l-.016-.058c-.04-.145-.084-.29-.13-.438l-.018-.057a14.521 14.521 0 0 0-.052-.163l-.025-.075a14.918 14.918 0 0 0-.132-.378l-.027-.073a13.978 13.978 0 0 0-.07-.185l-.014-.038-.09-.225-.024-.057c-.022-.056-.046-.111-.07-.166-.01-.027-.022-.053-.034-.08a14.347 14.347 0 0 0-.17-.376L11.1 6.9a12.679 12.679 0 0 0-.082-.166l-.028-.057a12.22 12.22 0 0 0-.115-.222l-.027-.05a11.65 11.65 0 0 0-.094-.171l-.043-.077a11.192 11.192 0 0 0-.365-.6l-.042-.065a11.338 11.338 0 0 0-.144-.214l-.023-.031c-.042-.06-.084-.12-.128-.18l-.053-.071a10.083 10.083 0 0 0-.45-.565l-.055-.064A10.183 10.183 0 0 0 7.81 2.85a11.792 11.792 0 0 0-.546-.386A13.398 13.398 0 0 0 5.58 1.52C2.737.174.001 0 0 0l9.39 10.225" mask="url(#f)"/>
        </g>
        <path d="M111.015 45.277s5.13 14.278 1.374 27.218c-1.636 5.638-4.689 10.092-7.613 13.324l-8.949.352c-1.106-5.357-2.023-13.541.215-21.251 3.755-12.94 14.973-19.643 14.973-19.643" fill="#8BAFFF"/>
        <g transform="translate(94.668 45.277)">
            <mask id="h" fill="#fff">
                <use xlink:href="#g"/>
            </mask>
            <path d="m6.243 34.818-1.725 5.944c-1.12.044-2.239.088-3.359.13a58.335 58.335 0 0 1-.199-1.007l-.017-.095a62.31 62.31 0 0 1-.17-.948l-.022-.135a62.4 62.4 0 0 1-.073-.444l-.015-.096a58.111 58.111 0 0 1-.166-1.125l-.018-.134a60.6 60.6 0 0 1-.057-.435l-.023-.178a57.598 57.598 0 0 1-.118-1.03l-.017-.162c-.04-.4-.077-.807-.11-1.218l-.012-.16a52.232 52.232 0 0 1-.032-.456l-.014-.212a51.113 51.113 0 0 1-.055-1.072l-.009-.209a48.948 48.948 0 0 1-.016-.53c-.001-.037-.003-.073-.003-.11-.006-.214-.01-.43-.011-.647v-.167C0 30.162 0 30 0 29.839l.002-.231a44.879 44.879 0 0 1 .024-1.106l.009-.236c.006-.165.014-.33.023-.496l.008-.17c.012-.222.026-.445.042-.667.004-.05.009-.101.012-.152l.042-.519.023-.236a38.622 38.622 0 0 1 .123-1.131l.032-.249c.02-.159.043-.318.066-.478l.029-.2c.034-.226.07-.451.108-.677l.018-.101c.033-.192.068-.384.104-.576l.045-.228a34.39 34.39 0 0 1 .246-1.141l.06-.251c.037-.154.076-.308.116-.462l.055-.216a30.426 30.426 0 0 1 1.424-4.148 31.97 31.97 0 0 1 .916-1.968 35 35 0 0 1 2.976-4.835C11.038 3.173 16.346 0 16.347 0L6.243 34.818" mask="url(#h)"/>
        </g>
        <path d="M115.522 73.794s.126 5.794-3.364 9.594c-1.52 1.656-3.477 2.66-5.2 3.266l-3.888-1.424c.304-2.033 1.1-5.004 3.179-7.268 3.49-3.8 9.273-4.168 9.273-4.168" fill="#6D9BFF"/>
        <g transform="translate(103.07 73.794)">
            <mask id="j" fill="#fff">
                <use xlink:href="#i"/>
            </mask>
            <path d="M3.062 10.225 1.46 11.97 0 11.435c.018-.123.039-.25.061-.38l.006-.036.028-.155.01-.05a14.137 14.137 0 0 1 .07-.366l.008-.035c.029-.136.06-.275.092-.416l.012-.049.039-.16.016-.064a17.617 17.617 0 0 1 .1-.375l.015-.059c.04-.144.084-.29.13-.437l.018-.057.052-.163.025-.075.05-.148.028-.079.054-.151c.01-.024.018-.049.027-.073l.07-.185.014-.038.09-.225.024-.058.07-.165.034-.08a13.5 13.5 0 0 1 .171-.376l.038-.08.082-.166.028-.057.115-.222.027-.05.094-.171.044-.078.083-.144.049-.082.085-.141.05-.08c.032-.051.064-.102.098-.153l.04-.064.145-.214c.008-.01.016-.02.023-.032l.128-.18.053-.07a11.956 11.956 0 0 1 .271-.35l.062-.076.117-.139L3 4.367A10.162 10.162 0 0 1 4.643 2.85a11.193 11.193 0 0 1 .547-.386A13.386 13.386 0 0 1 6.87 1.52C9.715.174 12.451 0 12.452 0l-9.39 10.225" mask="url(#j)"/>
        </g>
        <path d="M36.652 73.527s.125 5.794-3.365 9.594c-1.52 1.655-3.476 2.66-5.2 3.265L24.2 84.963c.303-2.033 1.1-5.005 3.178-7.269 3.49-3.8 9.274-4.167 9.274-4.167" fill="#6897FF"/>
        <g transform="translate(24.2 73.527)">
            <mask id="l" fill="#fff">
                <use xlink:href="#k"/>
            </mask>
            <path d="M3.062 10.225 1.46 11.97A865.22 865.22 0 0 1 0 11.435c.018-.123.039-.25.061-.38l.006-.036.028-.155.009-.05.028-.15.01-.05.034-.166.007-.035c.028-.136.06-.275.092-.416l.012-.049a15.889 15.889 0 0 1 .093-.374l.018-.067.043-.158.016-.058c.04-.145.084-.291.13-.438l.018-.057.052-.163.025-.075a14.323 14.323 0 0 1 .132-.378c.01-.024.018-.049.027-.073l.07-.185.014-.038.09-.225.024-.057.07-.166.034-.08.065-.146.038-.084.068-.146.038-.08.082-.166.028-.057.115-.222.027-.05.094-.171.044-.077a10.29 10.29 0 0 1 .217-.368l.05-.08.097-.153.042-.064c.047-.072.095-.143.144-.214l.023-.031.128-.18.053-.071a11.032 11.032 0 0 1 .271-.35l.062-.076a9.97 9.97 0 0 1 .117-.139L3 4.367A10.161 10.161 0 0 1 4.643 2.85a11.363 11.363 0 0 1 .547-.385A13.38 13.38 0 0 1 6.87 1.52C9.715.174 12.451 0 12.452 0l-9.39 10.225" mask="url(#l)"/>
        </g>
        <path d="M110.593 87.867H6.357a1.802 1.802 0 0 1-1.802-1.802v-.503c0-.995.807-1.802 1.802-1.802h104.236c.995 0 1.802.807 1.802 1.802v.503c0 .995-.807 1.802-1.802 1.802" fill="#88A8F0"/>
        <path d="M11.77 36.316a.446.446 0 1 1-.892 0 .446.446 0 0 1 .891 0M14.16 36.316a.446.446 0 1 1-.89 0 .446.446 0 0 1 .89 0M16.552 36.316a.446.446 0 1 1-.891 0 .446.446 0 0 1 .891 0M18.943 36.316a.446.446 0 1 1-.89 0 .446.446 0 0 1 .89 0M11.77 38.707a.446.446 0 1 1-.892 0 .446.446 0 0 1 .891 0M14.16 38.707a.446.446 0 1 1-.89 0 .446.446 0 0 1 .89 0M16.552 38.707a.446.446 0 1 1-.891 0 .446.446 0 0 1 .891 0M18.943 38.707a.446.446 0 1 1-.89 0 .446.446 0 0 1 .89 0" fill="#AC92FC"/>
        <path fill="#8B75C9" d="M101.66 47.1h1.828v-1.872h-1.827zM11.829 51.823h1.827V49.95h-1.827zM9.155 30.211h1.827V28.34H9.155z"/>
        <path fill="#F0974A" d="M12.23 28.919h-1.827l.913-1.872zM44.469 21.656h-1.827l.913-1.872zM56.418 78.38a.802.802 0 1 1-1.604 0 .802.802 0 0 1 1.604 0"/>
        <path d="M57.547 77.845a.802.802 0 1 1-1.604 0 .802.802 0 0 1 1.604 0" fill="#AC92FC"/>
        <path d="M95.63 29.186a.802.802 0 1 1-1.604 0 .802.802 0 0 1 1.604 0" fill="#F0974A"/>
        <path d="M96.76 28.652a.802.802 0 1 1-1.605 0 .802.802 0 0 1 1.604 0" fill="#AC92FC"/>
        <path d="M69.442 83.608h26.63c.618 0 1.18-.237 1.602-.624a2.36 2.36 0 0 0 .764-1.741V34.938a2.363 2.363 0 0 0-2.366-2.365h-26.63c-.616 0-1.177.236-1.598.622a2.36 2.36 0 0 0-.767 1.743v46.305a2.363 2.363 0 0 0 2.366 2.366" fill="#36569D"/>
        <path d="M67.629 83.608h26.63c.617 0 1.18-.237 1.601-.624a2.36 2.36 0 0 0 .764-1.741V34.938a2.363 2.363 0 0 0-2.365-2.365h-26.63c-.617 0-1.178.236-1.599.622a2.36 2.36 0 0 0-.767 1.743v46.305a2.363 2.363 0 0 0 2.366 2.366" fill="#587BC9"/>
        <path d="M94.259 82.917a1.67 1.67 0 0 0 1.133-.442c.35-.32.541-.759.541-1.232V34.938a1.675 1.675 0 0 0-1.674-1.674h-26.63c-.42 0-.823.156-1.132.44a1.68 1.68 0 0 0-.543 1.234v46.305a1.677 1.677 0 0 0 1.675 1.675h26.63z" fill="#9CB7F3"/>
        <path d="M94.259 80.5c.247 0 .484-.085.665-.239a.85.85 0 0 0 .318-.664V36.584a.885.885 0 0 0-.432-.747 1.04 1.04 0 0 0-.551-.155h-26.63c-.247 0-.483.084-.665.237a.872.872 0 0 0-.32.665v43.013c0 .185.06.361.174.512.184.244.487.39.81.39h26.63z" fill="#FFF"/>
        <path d="M77.641 35.006h6.605c.229 0 .415-.186.415-.415v-.116a.415.415 0 0 0-.415-.415H77.64a.415.415 0 0 0-.415.415v.116c0 .23.186.415.415.415" fill="#414788"/>
        <path d="M32.623 37.504c-.208.327-.238 1.396.416 1.872.654.475.594 1.336-.06 1.693-.653.356-.801.297-.653 1.099.149.802-.06 1.277-.148 1.366-.09.09-1.872-.059-1.872-.059l.252-4.715 2.065-1.256z" fill="#2B1710"/>
        <path d="M29.684 40.16c-1.195.208-1.889-.904-1.542-1.779-.097-1.792.667-3.556 3.348-2.597 1.333.167 1.847 1.93.75 2.389-1.459 1.292-2.556 1.986-2.556 1.986" fill="#2B1710"/>
        <path d="M30.754 40.847c-.084.5.078.906.787 1.385-.021 2.25-3.38.67-3.369.337 0-.042.508-.743.727-1.128.219-.386.323-1.365.24-2.678.51.136.687-.27.698-.969.01-.698.344-1.812 1.698-1.635.51.625.781 1.02.74 1.833-.042.813.048 1.39-.05 1.778a1.446 1.446 0 0 1-1.471 1.077" fill="#FF8762"/>
        <g transform="translate(31.398 38.896)">
            <mask id="n" fill="#fff">
                <use xlink:href="#m"/>
            </mask>
            <path d="M.021.102C-.025.229 0 .418.138.5c0 0 .056-.063.124-.143L.33.28A2.53 2.53 0 0 0 .487.078C.497.064.501.054.5.05.498.042.48.038.454.037.37.03.19.046.09 0a.218.218 0 0 0-.069.102" mask="url(#n)"/>
        </g>
        <g>
            <path d="M29.997 37.852a.027.027 0 0 1-.014-.05c.347-.198.76-.213.931-.162.014.005.022.02.018.034a.027.027 0 0 1-.033.017c-.14-.042-.544-.04-.89.158a.027.027 0 0 1-.012.003M32.17 37.88a.026.026 0 0 1-.02-.01c-.005-.006-.113-.144-.456-.101a.027.027 0 1 1-.006-.053c.367-.046.49.104.504.121a.027.027 0 0 1-.022.043M31.552 39.297a.027.027 0 0 1-.017-.047c.139-.11.292-.245.325-.292-.023-.005-.075-.006-.114-.006-.096-.002-.205-.004-.27-.04-.142-.08-.004-.682.121-.965a.027.027 0 1 1 .049.021c-.146.33-.23.849-.143.897.053.03.159.032.244.033.107.002.172.004.172.053 0 .05-.19.213-.35.34a.027.027 0 0 1-.017.006M30.743 38.404c0 .158-.072.286-.161.286-.09 0-.162-.128-.162-.286 0-.158.072-.287.162-.287.089 0 .161.129.161.287" fill="#2B1710"/>
            <path d="M30.545 38.788c-.055 0-.178-.024-.218-.227a.013.013 0 0 1 .026-.005c.039.197.156.208.205.204.007 0 .014.005.014.013a.013.013 0 0 1-.012.014h-.015" fill="#E0B3A8"/>
            <path d="M31.965 38.439c0 .158-.072.286-.161.286-.09 0-.162-.128-.162-.286 0-.159.073-.287.162-.287.09 0 .161.128.161.287" fill="#2B1710"/>
            <path d="M31.767 38.822c-.055 0-.178-.024-.217-.226a.013.013 0 0 1 .01-.016.013.013 0 0 1 .016.01c.038.198.156.21.204.205.008 0 .014.005.015.012a.013.013 0 0 1-.012.015h-.016" fill="#E0B3A8"/>
            <path d="M30.775 39.276c-.025.18-.255.298-.511.261-.257-.036-.445-.212-.42-.393.026-.181.256-.299.512-.262.257.036.445.212.42.394" fill="#FF7557"/>
            <path d="M29.376 38.896a.375.375 0 1 1-.737-.134.375.375 0 0 1 .737.134" fill="#FF7A52"/>
            <path d="M29.4 39.261c-.156-.024-.259-.155-.23-.292.028-.136.177-.227.332-.202.155.024.258.156.23.292-.029.137-.178.227-.333.202m-.062-.69a.649.649 0 0 0-.5.123.028.028 0 0 0-.003.043.039.039 0 0 0 .05.003.572.572 0 0 1 .652-.029l-.022-.005c-.193-.031-.379.082-.414.252-.035.17.094.333.287.364a.379.379 0 0 0 .351-.125.48.48 0 0 1-.285.306c-.018.008-.025.026-.017.042.005.009.015.015.025.017a.04.04 0 0 0 .022-.003.54.54 0 0 0 .332-.38c.06-.284-.156-.557-.478-.608" fill="#E0B3A8"/>
            <path d="M30.687 40.832c-1-.373-1.34-1.383-1.34-1.383.228 1.413 1.01 2.548 1.34 1.383" fill="#FF7557"/>
            <path d="M30.645 39.636c.653-.278 1.282-.268 1.228-.037.038.562-.661 1.155-1.228.037" fill="#E0B3A8"/>
            <path d="m30.645 39.636 1.228-.037c0 .55-.803.808-1.228.037" fill="#2B1710"/>
            <path d="M31.646 40.018a1.038 1.038 0 0 0-.4-.334l-.378-.055-.223.007c.284.515.732.566 1.001.382" fill="#7D2727"/>
            <path d="m31.873 39.599-1.228.037c.286.198 1.042.253 1.228-.037" fill="#FFF"/>
            <path d="M24.911 81.75c.179-.358.37-1.039.323-2.018a281.22 281.22 0 0 1-.293-2.193l1.753.47-.084.882a6.34 6.34 0 0 0 .066 1.728c.031.171.067.318.105.396.14.283 1.146 1.259 1.606 2.1.043.102 1.083.267.927.505-.095.052-1.908.195-2.111 0-.203-.196-.686-.682-1.226-.792-.033.007-.034.881-.034.881l-.785.003s-.09-.776-.126-1.01c-.034-.235-.301-.591-.12-.953" fill="#FF8762"/>
            <path d="M28.393 83.125c-.328.038-.688.11-.814.055-.17-.075-1.29-1.465-2.52-1.807a2.5 2.5 0 0 1-.148.376c-.18.362.087.718.121.953.035.234.126 1.01.126 1.01l.786-.003s0-.874.033-.88c.54.109 1.023.595 1.226.79.203.196 2.016.053 2.11.001.152-.231-.824-.386-.92-.495" fill="#2B1710"/>
            <path d="M33.274 81.75c.178-.358.369-1.039.323-2.018a281.22 281.22 0 0 1-.294-2.193l1.753.47-.083.882a6.337 6.337 0 0 0 .066 1.728c.03.171.066.318.105.396.139.283 1.145 1.259 1.605 2.1.044.102 1.083.267.927.505-.094.052-1.908.195-2.11 0-.204-.196-.686-.682-1.226-.792-.034.007-.034.881-.034.881l-.785.003s-.091-.776-.126-1.01c-.035-.235-.302-.591-.121-.953" fill="#FF8762"/>
            <path d="M36.756 83.125c-.329.038-.689.11-.815.055-.17-.075-1.29-1.465-2.52-1.807-.046.15-.097.276-.147.376-.18.362.086.718.12.953.036.234.127 1.01.127 1.01l.785-.003s0-.874.034-.88c.54.109 1.022.595 1.225.79.203.196 2.017.053 2.111.001.152-.231-.825-.386-.92-.495" fill="#2B1710"/>
            <path d="M35.727 80.148a.041.041 0 0 0 0-.083l-3.483-.043a.04.04 0 0 0-.042.04c0 .024.018.042.041.043l3.484.043zM27.642 79.976a.041.041 0 0 0 0-.083l-3.956-.086a.041.041 0 1 0-.002.082l3.957.087" fill="#CBCBCB"/>
            <path d="M27.474 42.617c-2.598.914-3.964 7.254-3.665 8.55.298 1.295 3.413 1.22 5.132.1 1.72-1.122-1.467-8.65-1.467-8.65" fill="#FFBC6E"/>
        </g>
        <g transform="translate(26.369 42.026)">
            <mask id="p" fill="#fff">
                <use xlink:href="#o"/>
            </mask>
            <path d="M1.9.196A2 2 0 0 0 .868.807c-.712.767-1 2.065-.812 3.14C.318 5.44 1.85 8.392 1.85 8.58a145141 145141 0 0 0 5.643-.075s.187-2.802.897-4.073C9.1 3.162 6.31.794 6.31.794S5.849.271 5.014.047c0 0-.449-.047-1.082-.047C3.343 0 2.596.04 1.9.196" mask="url(#p)"/>
        </g>
        <g>
            <path fill="#2B1710" d="M28.243 51.54h5.73v-.996h-5.73z"/>
            <path d="M32.678 42.82c1.62.598 3.289 4.086 4.16 4.036.873-.05 2.791-1.918 2.791-1.918l.823.897c0 1.295-1.271 5.755-3.713 6.104-2.441.349-4.837-3.32-5.232-5.481-.523-2.865 1.171-3.638 1.171-3.638" fill="#FFBC6E"/>
            <path d="M36.973 47.727a.036.036 0 0 0 .035-.031c.017-.127-.035-.345-.077-.52-.015-.065-.034-.142-.04-.186.065.042.214.184.214.262a.036.036 0 1 0 .072 0c0-.096-.122-.221-.194-.28-.087-.072-.118-.066-.13-.063a.05.05 0 0 0-.027.018c-.018.03-.01.076.036.266.038.16.09.38.075.493a.036.036 0 0 0 .036.04" fill="#E0E0E0"/>
            <path fill="#414788" d="M33.011 51.652h.402v-1.177h-.402zM30.034 51.677h.402V50.5h-.402zM28.415 51.64h.401v-1.177h-.401z"/>
            <path d="M39.63 44.938c-.004-.2-.041-1.46-.004-1.61.038-.15.804-1.318.897-1.402.094-.084.87-.588.897-.588.206.159.13.383-.047.607-.177.224-.439.486-.448.533-.01.046-.093.327-.037.336.056.01.523.523.644.7.122.178.15.505.019.814-.13.308-1.1 1.507-1.1 1.507l-.822-.897z" fill="#FF8762"/>
            <path d="M35.568 57.385s-.045-1.919-1.594-5.845l-5.727-.008c-1.495 2.233-2.254 4.905-2.531 7.578l-2.252 21.73h4.548s1.785-7.035 2.366-15.632c0 0 2.085 10.92 1.698 15.715h4.065c.387-2.066 1.137-16.786-.573-23.538" fill="#414788"/>
            <path d="M30.143 64.517a.045.045 0 0 1-.045-.039c-.006-.042-.575-4.239-1.184-6.297-.63-2.133-.702-2.558.43-5.056a.045.045 0 0 1 .082.038c-1.118 2.468-1.046 2.887-.424 4.992.61 2.065 1.18 6.269 1.186 6.31a.046.046 0 0 1-.039.052h-.006M34.788 80.017h-.001a.046.046 0 0 1-.044-.047c.004-.164.4-16.57-1.8-27.576a.045.045 0 1 1 .088-.017c2.204 11.016 1.807 27.43 1.802 27.595 0 .025-.02.045-.045.045M33.638 54.783a.045.045 0 0 1-.012-.09c.237-.067.757-.773.342-2.45a.045.045 0 0 1 .088-.023c.423 1.71-.101 2.474-.405 2.561a.041.041 0 0 1-.013.002M27.844 80.2l-4.053-.035a.045.045 0 0 1-.045-.046c0-.025.017-.05.046-.045l4.053.036a.045.045 0 0 1 0 .09M32.288 80.218a.045.045 0 0 1 0-.09l3.643-.036a.046.046 0 0 1 0 .09l-3.643.036z" fill="#E0E0E0"/>
            <path d="M31.535 36.159c-.397 1.078-1.972 1.018-1.972 1.018s.238-.95.327-.98c.09-.03.683-.297.683-.297s.884.072.962.259" fill="#2B1710"/>
            <path d="M21.87 46.267h4.663c.268-.534.268-.92 1.159-1.128.891-.208 1.396-.832 1.129-1.664-.268-.832.06-1.485.534-2.139.476-.653.208-1.277-.267-2.109l-.535.09-.208-.268s.268-1.04.298-1.129c.03-.09.059-1.04.207-1.218.149-.178 1.278-.743 1.278-.743l-.505-.416c-.891-.207-1.367.298-1.396.595-.03.297-.268.683-.892.683-.623 0-1.099.475-1.099 1.247 0 .773-.178 1.07-.832 1.367-.653.297-.831 1.01-.772 1.456.06.445-.119.89-.683 1.247-.565.357-.862.713-.862 1.337s.09.832-.416 1.04c-.504.208-1.128.772-.802 1.752" fill="#2B1710"/>
            <path d="M82.517 56.546H49.064a1.187 1.187 0 0 1-1.187-1.187V27.922c0-.655.532-1.186 1.187-1.186h33.453c.655 0 1.186.53 1.186 1.186v27.437c0 .656-.531 1.187-1.186 1.187" fill="#587BC9"/>
            <path d="M80.112 54.14H48.795a2.254 2.254 0 0 1-2.254-2.255V26.583a2.254 2.254 0 0 1 2.254-2.254h31.317a2.254 2.254 0 0 1 2.254 2.254v25.302a2.254 2.254 0 0 1-2.254 2.255" fill="#FFF"/>
            <path d="M63.143 72.43a.87.87 0 0 1-.873-.873V61.32c0-.234.09-.453.256-.618a.867.867 0 0 1 .617-.255h12.454a.87.87 0 0 1 .873.873v10.239a.87.87 0 0 1-.873.872H63.143zM79.54 72.43a.87.87 0 0 1-.873-.873V61.32c0-.234.092-.453.256-.618a.867.867 0 0 1 .618-.255h12.454a.87.87 0 0 1 .873.873v10.239a.87.87 0 0 1-.873.872H79.541zM46.745 72.43a.87.87 0 0 1-.873-.873V61.32c0-.234.09-.453.256-.618a.867.867 0 0 1 .617-.255h12.454a.87.87 0 0 1 .873.873v10.239a.87.87 0 0 1-.873.872H46.745z" fill="#8EB0FF"/>
            <path d="M45.973 71.382a.87.87 0 0 1-.873-.873V60.27c0-.233.09-.452.255-.617a.867.867 0 0 1 .618-.255h12.454a.87.87 0 0 1 .873.873V70.51a.87.87 0 0 1-.873.872H45.973z" fill="#F0974A"/>
            <path d="M50.81 67.974c-1.818.587-2.9 2.42-3.366 3.408h10.584c-1.333-2.571-3.922-3.746-4.438-3.85-.552-.11-2.78.442-2.78.442" fill="#FFF"/>
            <path d="M50.157 64.97a.425.425 0 1 1-.85 0 .425.425 0 0 1 .85 0" fill="#FF7A52"/>
            <path d="M50.123 65.368a.266.266 0 0 1-.268-.263c0-.145.12-.263.268-.263.147 0 .267.118.267.263 0 .145-.12.263-.267.263m-.19-.7a.556.556 0 0 0-.436.208.032.032 0 0 0 .005.046.033.033 0 0 0 .047-.006.49.49 0 0 1 .595-.137l-.021-.002a.33.33 0 0 0-.333.328c0 .181.149.328.333.328a.333.333 0 0 0 .3-.187.482.482 0 0 1-.205.363.032.032 0 0 0-.008.045.033.033 0 0 0 .027.013.033.033 0 0 0 .019-.006.546.546 0 0 0 .234-.446.552.552 0 0 0-.556-.548" fill="#E0B3A8"/>
            <path d="M52.876 66.07c.205.963.714 1.462.714 1.462-.195.558-1.629 2.042-2.127 1.526-.5-.516-.653-1.084-.653-1.084.475-.87.15-1.57.15-1.57l1.916-.335z" fill="#FF8762"/>
            <path d="M52.545 66.998H50.73a.779.779 0 0 1-.778-.779v-2.766c0-.43.348-.778.778-.778h1.814c.43 0 .778.348.778.778v2.766c0 .43-.348.779-.778.779" fill="#FF8762"/>
        </g>
        <g transform="translate(50.995 64.803)">
            <mask id="r" fill="#fff">
                <use xlink:href="#q"/>
            </mask>
            <path d="m.248.072-.014.02C.086.306.01.52 0 .622c-.003.035 0 .056.012.06a.41.41 0 0 0 .072.006C.205.69.426.683.426.683A.318.318 0 0 0 .5.461C.493.234.303 0 .303 0L.248.072" mask="url(#r)"/>
        </g>
        <g>
            <path d="M52.123 64.563c0 .113.05.204.113.204s.114-.091.114-.204c0-.112-.051-.203-.114-.203-.062 0-.113.091-.113.203" fill="#2B1710"/>
            <path d="M52.22 64.866a.184.184 0 0 0 .08-.018.261.261 0 0 0 .132-.163.018.018 0 0 0-.034-.01.225.225 0 0 1-.114.14.136.136 0 0 1-.111.006.018.018 0 0 0-.014.033c.02.008.04.012.062.012" fill="#E0B3A8"/>
            <path d="M50.663 64.563c0 .113.05.204.113.204s.114-.091.114-.204c0-.112-.051-.203-.114-.203-.062 0-.113.091-.113.203" fill="#2B1710"/>
            <path d="M50.76 64.866a.184.184 0 0 0 .08-.018.26.26 0 0 0 .132-.163.018.018 0 0 0-.034-.01.226.226 0 0 1-.114.14.137.137 0 0 1-.111.006.018.018 0 1 0-.014.033c.02.008.04.012.062.012" fill="#E0B3A8"/>
            <path d="M52.5 64.234a1.658 1.658 0 0 0-.495-.094c-.072-.003-.092-.098-.029-.132.174-.096.427-.055.597.11.054.052-.003.142-.073.116M50.49 64.234c.177-.065.363-.089.495-.094.072-.003.092-.098.03-.132-.174-.096-.428-.055-.598.11-.053.052.003.142.073.116" fill="#2B1710"/>
            <path d="M52.849 65.297a.429.429 0 0 0-.44-.419.43.43 0 0 0-.438.419.43.43 0 0 0 .439.418c.242 0 .439-.187.439-.418M50.935 65.318a.429.429 0 0 0-.44-.418.43.43 0 0 0-.438.418.43.43 0 0 0 .439.418c.242 0 .439-.187.439-.418" fill="#FF7557"/>
            <path d="M51.061 65.511a.114.114 0 0 1-.066-.016c-.102-.078.26-.552.888-.879v-.408c0-.01.02-.018.047-.018.026 0 .048.008.048.018v.414c0 .004-.004.008-.01.01-.659.342-.941.785-.892.843.173 0 .804-.005.804-.005l.001.037-.82.004z" fill="#2B1710"/>
            <path d="M53.357 63.141c-.272-.814-.771-1.242-1.886-1.028-1.114.214-1.813.057-1.9.143-.056.528.244.957.244.957-.186.428.128 1.2.128 1.2.07-.543.274-.93.421-1.148.942.252 2.064-.167 2.064-.167.115.672.486.772.486.772.057.642.109 1.194.397 1.04.289-.155.446-1.326.046-1.769" fill="#2B1710"/>
            <path d="M51.306 66.896a2.223 2.223 0 0 0 1.278-.306c-.262 1.29-.945 1.314-1.278.306" fill="#FF7557"/>
            <path d="M50.929 65.776h1.328c-.628.729-1.171.472-1.328 0" fill="#FFF"/>
            <path d="M53.134 64.97a.425.425 0 1 0 .85 0 .425.425 0 0 0-.85 0" fill="#FF7A52"/>
            <path d="M53.357 65.105c0-.145.12-.263.267-.263.147 0 .267.118.267.263 0 .145-.12.263-.267.263a.266.266 0 0 1-.267-.263m-.1.11c0 .177.087.344.234.446a.033.033 0 0 0 .046-.007.032.032 0 0 0-.008-.045.482.482 0 0 1-.205-.363.333.333 0 0 0 .633-.14c0-.182-.15-.329-.333-.329l-.021.002a.493.493 0 0 1 .595.137.033.033 0 0 0 .046.006.032.032 0 0 0 .006-.046.556.556 0 0 0-.437-.209.552.552 0 0 0-.556.548" fill="#E0B3A8"/>
            <path d="M51.214 66.288c.267.095.562.005.562.005-.3.338-.562-.005-.562-.005" fill="#FF7557"/>
            <path d="M62.15 71.382a.87.87 0 0 1-.873-.873V60.27c0-.233.09-.452.255-.617a.867.867 0 0 1 .617-.255h12.455a.87.87 0 0 1 .873.873V70.51a.87.87 0 0 1-.873.872H62.149z" fill="#F0974A"/>
            <path d="M68.145 62.784c-1.238-.295-2.038-.028-1.723 1.343.314 1.37.2 1.97-.315 2.37-.514.4-.342 1.03.229 1.2.114-.314.4-.628.4-.628.057.4.285.543.285.543h1.114c.2 0 1.8.085 1.886.085.085 0 .742.086.657-.742.428.114.028.742.028.742.543 0 1.486-.4 1.086-1.456-.4-1.057-.914-1.371-1.171-2.314-.257-.943-.953-1.6-2.476-1.143" fill="#2B1710"/>
            <path d="M67.413 67.955c-1.466.587-2.339 2.42-2.715 3.408h8.538c-1.076-2.572-3.164-3.746-3.58-3.85-.446-.11-2.243.442-2.243.442" fill="#EFC1F7"/>
            <path d="m68.507 66.745.102.04c-.606 0-.95-.06-1.207-.594a1.998 1.998 0 0 1-.188-.933l.007-.217-.028-.905c0-.776.98-1.33 1.757-1.33l.235.25c.776 0 .633.36.633 1.137v1.152c0 .776-.535 1.4-1.311 1.4" fill="#FF8762"/>
            <path d="M68.765 64.547c0 .103.046.187.104.187.057 0 .104-.084.104-.187s-.047-.186-.104-.186c-.058 0-.104.083-.104.186" fill="#2B1710"/>
            <path d="M68.854 64.825a.168.168 0 0 0 .073-.017.24.24 0 0 0 .121-.149.016.016 0 0 0-.031-.01.207.207 0 0 1-.104.13.125.125 0 0 1-.102.005.016.016 0 0 0-.013.03c.018.007.037.01.056.01" fill="#E0B3A8"/>
            <path d="M67.685 64.566c0 .103.047.187.104.187.058 0 .104-.084.104-.187s-.046-.186-.104-.186c-.057 0-.104.083-.104.186" fill="#2B1710"/>
            <path d="M69.371 65.236a.393.393 0 0 0-.402-.383.393.393 0 0 0-.403.383c0 .212.18.384.403.384a.393.393 0 0 0 .402-.384" fill="#FF7557"/>
            <path d="M65.765 71.21a.036.036 0 0 1-.03-.058c.005-.007.437-.604.698-2.08a.037.037 0 1 1 .072.013c-.265 1.495-.693 2.085-.711 2.11a.037.037 0 0 1-.03.014M70.259 71.095a.037.037 0 0 1-.036-.028c-.003-.015-.355-1.516.598-2.716a.036.036 0 1 1 .057.045c-.93 1.172-.587 2.64-.584 2.654a.037.037 0 0 1-.035.045" fill="#C5B2FF"/>
        </g>
        <g transform="translate(67.688 64.99)">
            <mask id="t" fill="#fff">
                <use xlink:href="#s"/>
            </mask>
            <path d="M.054.147C.034.157.02.168.014.18a.108.108 0 0 0-.011.074c.007.031.03.068.09.109.014.01.03.018.047.028C.204.426.295.462.423.5.522.39.51.264.473.167.437.07.377 0 .377 0 .285.073.129.11.054.147" mask="url(#t)"/>
        </g>
        <g>
            <path d="m67.967 65.353-.005-.001a.91.91 0 0 1-.272-.141.075.075 0 0 1-.023-.081.08.08 0 0 1 .068-.056.311.311 0 0 0 .225-.117c.098-.13.12-.357.065-.696a.017.017 0 1 1 .033-.005c.056.349.033.585-.072.72a.343.343 0 0 1-.248.132.046.046 0 0 0-.039.032.042.042 0 0 0 .013.045.89.89 0 0 0 .26.135.017.017 0 0 1-.005.033" fill="#2B1710"/>
            <path d="M67.874 66.107c.214.083.532-.035.532-.035-.384.245-.52.118-.532.035" fill="#FF7557"/>
            <path d="M69.878 67.583c-.214-.057-.429-.528-.257-1.8l-1.5.7s.329 1.157-.528 1.414c1.885.543 2.285-.314 2.285-.314" fill="#FF8762"/>
            <path d="M68.378 66.683a1.56 1.56 0 0 0 .886-.385c-.6 1.657-.9 1.071-.886.385" fill="#FF7557"/>
            <path d="M67.721 65.607c.581.072 1.071-.08 1.071-.08-.466.58-.952.576-1.07.08" fill="#FFF"/>
            <path d="M68.64 64.127c.405 0 .61.185.61.185-.229-.37-.596-.366-.61-.185M67.502 64.255c.162-.157.529-.176.529-.176-.124-.18-.481-.1-.529.176" fill="#2B1710"/>
            <path d="M67.935 62.813c-.895 0 .448 1.057.677 1.123-.4-.409-.343-.628-.343-.628.6.676.79.543 1.057.828.266.286.41.895.41.895l.532-.133c.19-1.552-.77-2.809-2.333-2.085" fill="#2B1710"/>
            <path d="M69.627 64.953a.39.39 0 1 0 .78 0 .39.39 0 0 0-.78 0" fill="#FF7A52"/>
            <path d="M69.84 65.113c0-.145.12-.263.266-.263.148 0 .268.118.268.263 0 .145-.12.263-.268.263a.266.266 0 0 1-.267-.263m-.1.11c0 .177.088.343.234.446a.033.033 0 0 0 .02.006c.01 0 .02-.005.026-.013a.032.032 0 0 0-.008-.046.482.482 0 0 1-.204-.363.333.333 0 0 0 .632-.14.33.33 0 0 0-.333-.328l-.02.002a.493.493 0 0 1 .594.137.033.033 0 0 0 .047.005.032.032 0 0 0 .005-.045.557.557 0 0 0-.437-.209.553.553 0 0 0-.556.548" fill="#E0B3A8"/>
            <path d="M78.61 71.503a.87.87 0 0 1-.873-.873V60.391c0-.233.09-.452.255-.617a.867.867 0 0 1 .617-.256h12.455a.87.87 0 0 1 .873.873v10.24a.87.87 0 0 1-.873.872H78.609z" fill="#F0974A"/>
            <path d="M83.3 68.021c-1.817.588-2.899 2.42-3.365 3.409h10.584c-1.334-2.572-3.922-3.747-4.438-3.85-.552-.111-2.78.441-2.78.441" fill="#FFF"/>
            <path d="M83.448 64.58a.425.425 0 1 1-.85 0 .425.425 0 0 1 .85 0" fill="#FF7A52"/>
            <path d="M83.413 64.978a.266.266 0 0 1-.267-.263c0-.145.12-.263.267-.263.148 0 .268.118.268.263 0 .145-.12.263-.268.263m-.188-.701a.556.556 0 0 0-.437.209.032.032 0 0 0 .005.045.033.033 0 0 0 .046-.005.49.49 0 0 1 .595-.137l-.02-.002a.33.33 0 0 0-.334.328.333.333 0 0 0 .633.14.482.482 0 0 1-.205.363.032.032 0 0 0-.007.045.033.033 0 0 0 .027.014.033.033 0 0 0 .018-.006.546.546 0 0 0 .235-.446.552.552 0 0 0-.556-.548" fill="#E0B3A8"/>
            <path d="M85.835 66.607h-1.813a.779.779 0 0 1-.779-.778v-2.766c0-.43.349-.779.779-.779h1.813c.43 0 .779.349.779.779v2.766c0 .43-.349.778-.779.778" fill="#FF8762"/>
        </g>
        <g transform="translate(84.285 64.412)">
            <mask id="v" fill="#fff">
                <use xlink:href="#u"/>
            </mask>
            <path d="m.248.072-.014.02C.086.306.01.52 0 .622c-.003.035 0 .056.013.06a.407.407 0 0 0 .07.006C.206.69.427.683.427.683A.318.318 0 0 0 .5.461C.493.234.303 0 .303 0 .283.024.266.048.248.072" mask="url(#v)"/>
        </g>
        <g>
            <path d="M85.414 64.173c0 .112.05.203.113.203.062 0 .113-.09.113-.203 0-.112-.05-.203-.113-.203s-.113.09-.113.203" fill="#2B1710"/>
            <path d="M85.511 64.476a.184.184 0 0 0 .08-.019.26.26 0 0 0 .132-.162.018.018 0 0 0-.035-.01.226.226 0 0 1-.113.14.136.136 0 0 1-.111.006.018.018 0 0 0-.014.033c.02.008.04.012.061.012" fill="#E0B3A8"/>
            <path d="M83.954 64.173c0 .112.05.203.113.203.062 0 .113-.09.113-.203 0-.112-.05-.203-.113-.203s-.113.09-.113.203" fill="#2B1710"/>
            <path d="M84.051 64.476a.184.184 0 0 0 .08-.019.261.261 0 0 0 .132-.162.018.018 0 0 0-.035-.01.225.225 0 0 1-.113.14.136.136 0 0 1-.111.006.018.018 0 0 0-.014.033c.02.008.04.012.061.012" fill="#E0B3A8"/>
            <path d="M86.14 64.906a.43.43 0 0 0-.44-.418.43.43 0 0 0-.439.418.43.43 0 0 0 .44.418.43.43 0 0 0 .438-.418M84.226 64.928a.43.43 0 0 0-.44-.419.43.43 0 0 0-.439.419c0 .23.197.418.44.418a.43.43 0 0 0 .439-.418" fill="#FF7557"/>
            <path d="M86.425 64.58a.425.425 0 1 0 .85 0 .425.425 0 0 0-.85 0" fill="#FF7A52"/>
            <path d="M86.647 64.715c0-.145.12-.263.268-.263.147 0 .267.118.267.263 0 .145-.12.263-.267.263a.266.266 0 0 1-.268-.263m-.1.11c0 .177.088.343.234.446a.033.033 0 0 0 .02.006c.01 0 .02-.005.026-.014a.032.032 0 0 0-.008-.045.482.482 0 0 1-.204-.363c.053.11.167.188.3.188a.33.33 0 0 0 .333-.328.33.33 0 0 0-.333-.328l-.022.002a.493.493 0 0 1 .596.137.033.033 0 0 0 .046.005.032.032 0 0 0 .005-.045.556.556 0 0 0-.437-.209.552.552 0 0 0-.556.548" fill="#E0B3A8"/>
            <path d="m84.043 66.209-.305 1.733c1.048.685 2.857.305 2.838-.229-.552-1.314-.667-1.961-.667-1.961l-1.866.457z" fill="#FF8762"/>
            <path d="M83.558 63.81c.647-.039.885.028.885.028-.19-.428-.81-.39-.885-.029M85.986 63.847c-.648-.038-.886.03-.886.03.19-.43.81-.391.886-.03" fill="#2B1710"/>
            <path d="M85.257 63.602c-.164.138-.157.274-.157.274-.107-.2.157-.274.157-.274" fill="#2B1710"/>
        </g>
        <g transform="translate(84.146 64.483)">
            <mask id="x" fill="#fff">
                <use xlink:href="#w"/>
            </mask>
            <path d="M.278.093.235.156C.159.266.075.392.03.463A.234.234 0 0 0 0 .52c.002.005.026.02.07.035.08.03.224.063.415.05a.458.458 0 0 0 0-.232C.445.186.345 0 .345 0L.277.093" mask="url(#x)"/>
        </g>
        <g>
            <path d="M84.607 65.114c-.04-.003-.39-.026-.464-.07a.036.036 0 0 1-.017-.024c-.008-.04.036-.104.129-.235.1-.143.239-.338.315-.545l-.036-.338a.018.018 0 0 1 .037-.004l.035.343v.008c-.078.212-.219.412-.322.557-.058.084-.131.187-.122.207.055.033.341.058.447.064a.018.018 0 0 1-.002.037" fill="#2B1710"/>
            <path d="M83.267 64.128c-.028.372-.1 1.443.757 1.214.857-.228 1.057-.114 1.628-.028.572.086.629-.372.7-.971-.328-.457-.186-1.229-.3-1.514-.114-.286-.642-.357-.642-.357-.586.285-1.314.071-1.314.071-.872.471-.843 1.314-.843 1.314-.143-.371-.029-1.357.7-1.657 0-.5 1-.714 2.014-.328 1.014.385.885 2.47.785 3.213-.1.743-.01 2.112-2 2.057-2.07-.057-1.57-2.514-1.485-3.014" fill="#2B1710"/>
            <path d="M84.09 65.514h1.524c-.543.876-1.466.466-1.523 0" fill="#FFF"/>
            <path d="M83.136 76.436a2.734 2.734 0 1 1-5.47 0 2.734 2.734 0 0 1 5.47 0" fill="#D0021B"/>
            <path d="m79.822 74.852.34.478a.235.235 0 0 1-.048.324l-.26.198a.261.261 0 0 0-.076.32c.18.368.517.676.769.821a.263.263 0 0 0 .29-.019l.287-.223a.235.235 0 0 1 .298.007l.351.302a.235.235 0 0 1 .03.327c-.116.142-.233.28-.414.358a.972.972 0 0 1-.503.058c-.79-.19-1.59-1-1.795-1.755a1.266 1.266 0 0 1-.043-.48 1.185 1.185 0 0 1 .435-.765.235.235 0 0 1 .338.048" fill="#FFF"/>
            <path d="M74.657 76.436a2.734 2.734 0 1 1-5.469 0 2.734 2.734 0 0 1 5.469 0" fill="#6D9BFF"/>
            <path d="M71.923 77.065c-.284 0-.548-.112-.745-.315a1.033 1.033 0 0 1-.295-.724.14.14 0 0 1 .28 0c0 .199.076.387.215.53a.759.759 0 0 0 1.304-.53.14.14 0 0 1 .28 0 1.041 1.041 0 0 1-1.04 1.039" fill="#FFF"/>
            <path d="M71.922 76.645a.618.618 0 0 1-.62-.62v-.85a.62.62 0 1 1 1.24 0v.85a.617.617 0 0 1-.62.62M71.713 78.316h.42V76.84h-.42z" fill="#FFF"/>
            <path d="M91.631 76.436a2.734 2.734 0 1 1-5.469 0 2.734 2.734 0 0 1 5.47 0" fill="#6D9BFF"/>
            <path fill="#FFF" d="M87.84 75.506v.431h-.608v.997h.607v.432h2.723v-1.86z"/>
            <path d="M58.49 37.895c-.705 1.762-2.684 4.554-2.684 4.554l3.389 1.843s2.846 0 2.873-.705c.027-.704-1.68-5.828-1.68-5.828l-1.898.136z" fill="#FF7557"/>
            <path d="M70.158 31.737c4.859 2.082 6.45 7.504 6.81 9.167.362 1.662.218 2.313.218 2.313l-1.012-.487-2.314 2.439.94 8.24H56.872l2.097-14.674-.868-.29c1.88-4.553 4.732-6.78 5.908-6.86 1.177-.079 6.15.152 6.15.152" fill="#4A79E1"/>
            <path d="M60.232 28.292c-.66-.63-.42-1.65.51-2.19.93-.54 1.74-1.231 1.08-2.371l4.802-4.021c1.83-.27 4.051 1.47 4.201 3.18.15 1.71.75 2.101 1.41 2.491.66.39.75 1.35.27 2.34-.48.991.42 2.252.42 2.252H59.993c.57-.24.9-1.05.24-1.68" fill="#2B1710"/>
            <path d="M67.164 28.303c2.225.388 3.518-1.682 2.872-3.312.18-3.337-1.242-6.622-6.235-4.837-2.484.31-3.44 3.595-1.397 4.45 2.716 2.405 4.76 3.699 4.76 3.699" fill="#2B1710"/>
            <path d="M65.172 29.583c.155.932.278 1.845-1.163 2.003-1.526 2.408-.867 4.416-.176 4.628 1.79.55 6.34-4.03 6.325-4.477 0-.078-1.125-.33-1.532-1.048-.408-.718-.602-2.542-.447-4.986-.95.252-1.28-.505-1.3-1.805-.019-1.3-.64-3.376-3.162-3.046-.95 1.164-1.455 1.902-1.378 3.415.078 1.513-.09 2.587.09 3.311.18.717.958 2.044 2.743 2.005" fill="#FF8762"/>
        </g>
        <g transform="translate(63.071 25.95)">
            <mask id="z" fill="#fff">
                <use xlink:href="#y"/>
            </mask>
            <path d="M.083.053C.035.056.003.061 0 .073c-.002.006.007.02.023.04.048.062.165.178.285.294l.12.113c.123.116.224.208.224.208a.44.44 0 0 0 .21-.58A.328.328 0 0 0 .738 0C.56.066.235.046.083.053" mask="url(#z)"/>
        </g>
        <g>
            <path d="M66.582 24.006a.05.05 0 0 0 .025-.093c-.647-.369-1.417-.398-1.734-.301a.05.05 0 0 0 .029.094c.26-.079 1.012-.074 1.655.293a.049.049 0 0 0 .025.007M62.533 24.058a.05.05 0 0 0 .04-.02c.008-.011.208-.267.847-.188a.05.05 0 1 0 .012-.098c-.683-.085-.914.194-.938.226a.05.05 0 0 0 .04.08M63.685 26.697a.05.05 0 0 0 .03-.089c-.256-.204-.542-.455-.604-.542.044-.01.14-.011.212-.013.18-.003.382-.007.502-.074.265-.15.01-1.27-.225-1.797a.05.05 0 1 0-.09.04c.272.613.427 1.58.267 1.67-.099.056-.297.06-.456.062-.2.004-.32.006-.32.098 0 .095.355.397.653.634.009.007.02.01.03.01M65.191 25.033c0 .295.135.534.301.534.166 0 .301-.239.301-.534 0-.294-.135-.533-.3-.533-.167 0-.302.239-.302.533" fill="#2B1710"/>
            <path d="M65.56 25.748c.104 0 .332-.045.406-.422a.025.025 0 0 0-.049-.01c-.072.367-.29.389-.38.381a.024.024 0 0 0-.028.023.025.025 0 0 0 .023.027l.029.001" fill="#E0B3A8"/>
            <path d="M62.915 25.098c0 .295.135.534.3.534.167 0 .301-.24.301-.534 0-.295-.134-.534-.3-.534-.166 0-.301.24-.301.534" fill="#2B1710"/>
            <path d="M63.284 25.813c.103 0 .331-.045.405-.422a.025.025 0 0 0-.02-.03.025.025 0 0 0-.028.02c-.072.367-.29.389-.381.381a.024.024 0 0 0-.027.023.025.025 0 0 0 .023.026l.028.002M65.346 27.34c-1.151-.489-2.26-.472-2.165-.064-.067.99 1.166 2.036 2.165.064" fill="#E0B3A8"/>
            <path d="M64.175 28.869c-.12 0-.272-.016-.425-.074a.04.04 0 1 1 .027-.074c.319.119.633.046.636.045a.04.04 0 0 1 .018.077c-.007.002-.109.026-.256.026" fill="#E0B3A8"/>
            <path d="m65.346 27.34-2.165-.064c0 .971 1.416 1.425 2.165.064" fill="#2B1710"/>
            <path d="M63.58 28.015c.29-.413.707-.59.707-.59l.666-.096.393.011c-.5.91-1.29.999-1.765.675" fill="#7D2727"/>
            <path d="m63.181 27.276 2.165.064c-.504.35-1.836.447-2.165-.064" fill="#FFF"/>
            <path d="M63.717 20.852c.144 2.109 3.089 2.415 3.624 2.3.536-.115-.861-3.223-3.624-2.3M59.137 29.99a.11.11 0 0 0 .026-.003c.224-.052.539-.353.63-.702.06-.235.052-.588-.331-.936-.32-.288-.468-.677-.41-1.065.082-.535.544-1.025 1.304-1.378 1.79-.834 1.671-2.086 1.276-3.313a.115.115 0 1 0-.219.07c.431 1.34.389 2.315-1.154 3.034-.832.387-1.341.939-1.434 1.552-.07.466.105.93.482 1.27.24.218.328.456.263.708-.077.296-.344.51-.46.536a.115.115 0 0 0 .027.227" fill="#2B1710"/>
            <path d="M58.506 27.92c.027 0 .054-.01.076-.029a.115.115 0 0 0 .011-.162c-.221-.254-.296-.54-.223-.851.136-.575.763-1.167 1.598-1.51 1.359-.558 1.624-1.205 1.624-2.132a.115.115 0 1 0-.23 0c0 .869-.229 1.404-1.481 1.919-.902.37-1.583 1.026-1.735 1.67-.09.381.005.746.274 1.055.022.026.054.04.086.04M73.833 29.877a.115.115 0 1 0 0-.23c-.287 0-.56-.215-.73-.576-.212-.45-.243-1.125.167-1.621.395-.48.554-1.018.448-1.518-.095-.448-.395-.818-.846-1.044a9.985 9.985 0 0 0-.485-.22c-.824-.358-1.676-.727-1.747-1.912a.111.111 0 0 0-.122-.108.115.115 0 0 0-.108.122c.08 1.325 1.039 1.742 1.885 2.109.164.07.325.14.474.215.387.193.644.508.724.886.091.43-.051.9-.4 1.324-.474.573-.44 1.35-.198 1.865.21.444.56.708.938.708" fill="#2B1710"/>
            <path d="M73.878 27.244c.021 0 .042-.005.061-.017.472-.293.713-.848.63-1.446-.082-.599-.517-1.338-1.491-1.62-1.572-.456-2.141-.94-2.648-2.25a.115.115 0 1 0-.215.083c.533 1.377 1.161 1.913 2.799 2.387.868.252 1.255.904 1.328 1.431.07.515-.125.971-.524 1.22a.115.115 0 0 0 .06.212M67.255 26.137c.212 0 .52-.129.928-.623a.115.115 0 1 0-.178-.146c-.352.427-.676.617-.867.51-.286-.162-.344-.984.097-2.244a.115.115 0 1 0-.217-.076c-.447 1.276-.445 2.265.007 2.52.056.031.133.059.23.059M65.134 22.925c.384 0 .796-.102 1.21-.307a.115.115 0 1 0-.101-.206c-.772.381-1.526.377-2.07-.012a1.528 1.528 0 0 1-.624-1.423.115.115 0 0 0-.099-.129.117.117 0 0 0-.129.1 1.737 1.737 0 0 0 .719 1.639c.315.225.69.338 1.094.338" fill="#2B1710"/>
            <path d="M64.974 26.636c.057.396.44.67.856.61.416-.058.708-.427.652-.824-.056-.396-.44-.67-.856-.61-.416.059-.708.428-.652.824" fill="#FF7557"/>
            <path d="M67.899 26.347a.838.838 0 1 0 1.65-.3.838.838 0 0 0-1.65.3" fill="#FF7A52"/>
            <path d="M68.22 26.166a.287.287 0 1 1 .566-.102.287.287 0 0 1-.566.102m-.084.137c.035.19.16.353.335.435a.035.035 0 0 0 .047-.017.035.035 0 0 0-.017-.047.528.528 0 0 1-.287-.35.357.357 0 1 0 .225-.561c-.008.001-.015.004-.022.006a.523.523 0 0 1 .656.033.035.035 0 1 0 .046-.053.598.598 0 0 0-.983.554" fill="#E0B3A8"/>
            <path d="M68.134 27.28a.362.362 0 1 0 .725 0 .362.362 0 0 0-.725 0" fill="#FFF"/>
            <path d="M65.286 29.553c1.95-.65 2.33-2.235 2.37-2.397.082 3.427-2.14 4.822-2.37 2.397" fill="#FF7557"/>
            <path d="M58.598 49.307h-6.617a.71.71 0 0 1-.688-.538l-2.63-10.618a.71.71 0 0 1 .688-.88h6.617a.71.71 0 0 1 .688.539l2.63 10.618a.71.71 0 0 1-.688.88" fill="#5D63A6"/>
            <path d="M58.044 49.307h-6.617a.71.71 0 0 1-.688-.538l-2.63-10.618a.71.71 0 0 1 .688-.88h6.617a.71.71 0 0 1 .688.539l2.63 10.618a.71.71 0 0 1-.688.88" fill="#414788"/>
            <path d="M53.04 39.169a.488.488 0 1 1-.975 0 .488.488 0 0 1 .976 0" fill="#5D63A6"/>
            <path d="M60.129 44.586c-.586-.757-1.319-1.343-1.685-1.905-.366-.561-.855-1.49-.928-1.49-.39.391-.073 1.466.049 2.076.122.611-3.468-.488-4.2-.268-.733.22-.074.903-.074.903-.537.61-.024 1.075-.024 1.075.097.562.879.88.879.88-.147.61.293.854 1.734 1.269 1.44.415 3.248.366 3.81 1.123.561.757 2.733 6.517 7.52 7.835 4.786 1.32 9.253-4.698 8.964-13.354-3.322-1.319-5.031-1.416-5.031-1.416-.049 3.37-.422 9.226-3.5 9.421-3.077.195-6.464-5.27-7.514-6.149" fill="#FF8762"/>
            <path d="M66.459 55.831c.243.096.492.182.75.254 1.695.466 3.348.013 4.765-1.15-1.285-1.832-4.397-2.088-5.515.896" fill="#FF7557"/>
            <path d="M56.43 44.538h-.002c-.032 0-.804-.02-2.875-.517a.07.07 0 0 1 .033-.135c2.051.493 2.837.513 2.845.513a.07.07 0 0 1-.001.139M56.375 45.73h-.01a20.31 20.31 0 0 1-2.871-.694.07.07 0 0 1 .043-.132 20.17 20.17 0 0 0 2.849.689.07.07 0 0 1-.01.138M55.562 46.327l-.013-.001a8.282 8.282 0 0 1-1.259-.356.07.07 0 1 1 .05-.13 8.117 8.117 0 0 0 1.235.35.07.07 0 0 1-.013.137" fill="#E0B3A8"/>
            <path d="M70.2 40.051a.07.07 0 0 1-.069-.066c-.058-1.548.652-4.416 2.849-5.97a.07.07 0 1 1 .08.114c-2.152 1.522-2.847 4.332-2.79 5.85a.07.07 0 0 1-.067.072h-.002M59.33 38.452a.07.07 0 0 1-.05-.118c.017-.017 1.684-1.73 2.696-4.34a.07.07 0 0 1 .13.05c-1.024 2.639-2.71 4.37-2.726 4.387a.069.069 0 0 1-.05.02" fill="#134CC9"/>
            <path d="M31.314 19.055H18.419v5.696c0 .592.224 1.132.593 1.54.42.463 1.026.754 1.701.754h10.793l2.102 2.822v-8.518c0-.654-.274-1.245-.714-1.663a2.286 2.286 0 0 0-1.58-.631" fill="#638BE4"/>
            <path d="M25.774 22.22h-5.256a.833.833 0 0 1-.833-.834v-.232c0-.46.373-.833.833-.833h5.256c.46 0 .833.373.833.833v.232c0 .46-.373.833-.833.833M30.56 25.353H20.518a.833.833 0 0 1-.833-.833v-.232c0-.46.373-.834.833-.834H30.56c.46 0 .833.373.833.834v.232c0 .46-.373.833-.833.833M30.045 22.22h-1.744a.833.833 0 0 1-.833-.834v-.232c0-.46.373-.833.833-.833h1.744c.46 0 .834.373.834.833v.232c0 .46-.373.833-.834.833" fill="#D7D7F3"/>
            <path d="M34.712 23.104H19.507v6.716c0 .698.265 1.335.7 1.815.494.547 1.21.89 2.005.89H34.94l2.478 3.327V25.81c0-.772-.323-1.468-.842-1.961a2.696 2.696 0 0 0-1.863-.744" fill="#D7D7F3"/>
            <path d="M36.795 24.208H21.59v6.716c0 .698.265 1.335.7 1.815.495.547 1.21.89 2.006.89h12.726l2.478 3.327V26.913c0-.772-.323-1.469-.842-1.961a2.696 2.696 0 0 0-1.863-.744" fill="#FFF"/>
            <path d="M30.262 27.939h-6.197a.982.982 0 0 1-.982-.983v-.273c0-.543.44-.983.982-.983h6.197c.543 0 .983.44.983.983v.273c0 .543-.44.983-.983.983M35.906 31.634h-11.84a.983.983 0 0 1-.983-.983v-.273c0-.543.44-.983.982-.983h11.84c.543 0 .983.44.983.983v.273c0 .543-.44.983-.982.983M35.3 27.939h-2.057a.983.983 0 0 1-.982-.983v-.273c0-.543.44-.983.982-.983H35.3c.542 0 .982.44.982.983v.273c0 .543-.44.983-.982.983" fill="#D7D7F3"/>
        </g>
        <g transform="translate(42.44 38.77)">
            <mask id="B" fill="#fff">
                <use xlink:href="#A"/>
            </mask>
            <path fill="#56A9FF" mask="url(#B)" d="M-1.298 3.51h6.023v-4.728h-6.023z"/>
        </g>
        <g transform="translate(42.519 38.417)">
            <mask id="D" fill="#fff">
                <use xlink:href="#C"/>
            </mask>
            <path fill="#56A9FF" mask="url(#D)" d="M-1.298 2.45h5.867v-3.668h-5.867z"/>
        </g>
    </g>
</svg>
