<svg width="128" height="85" viewBox="0 0 128 85" xmlns="http://www.w3.org/2000/svg" xmlns:xlink="http://www.w3.org/1999/xlink">
    <defs>
        <path id="a" d="M0 84.293h127.078V0H0z"/>
    </defs>
    <g fill="none" fill-rule="evenodd">
        <path d="M12.581 84.06S-2.088 68.544 7.254 50.296c9.342-18.249 21.877-9.066 21.277-30.309-.6-21.243 28.844-23.058 38.214-16.895 9.37 6.163 9.311 13.582 28.66 11.134 19.348-2.448 23.037 18.015 18 28.44-7.146 14.794 19.817 12.363 2.818 41.433L12.58 84.06z" fill="#EBF3FA"/>
        <path d="M104.625 32.653a24.435 24.435 0 0 1-4.275 13.852c-4.425 6.471-11.864 10.718-20.295 10.718-10.03 0-18.655-6.008-22.473-14.623a24.545 24.545 0 0 1-2.098-9.947c0-1.794.192-3.544.558-5.228.003-.02.008-.038.012-.058a24.52 24.52 0 0 1 6.613-12.073 24.567 24.567 0 0 1 4.536-3.585 24.438 24.438 0 0 1 12.852-3.627c.625 0 1.244.024 1.857.07a24.42 24.42 0 0 1 12.17 4.325 24.659 24.659 0 0 1 7.794 8.87 24.401 24.401 0 0 1 1.873 4.777c.57 2.08.876 4.27.876 6.53" fill="#DCE8FF"/>
        <path d="M71.707 21.655c-.98 1.553.41 4.249-2.532 3.513-2.941-.735-4.74-1.062-4.902.572-.164 1.635 2.206 1.635 2.206 3.35 0 1.716-1.063 2.284-2.696 1.469-1.635-.815-2.105-2-4.004-1.265-1.9.735-3.003.245-3.432-1.226a2.15 2.15 0 0 0-.305-.643c.003-.02.008-.038.012-.058a24.52 24.52 0 0 1 6.613-12.073 24.563 24.563 0 0 1 4.536-3.585c.766.028 1.682.319 2.463 1.284 1.715 2.125 2.859 1.063 2.45 3.514-.409 2.451.246 2.779 1.634 2.696 1.39-.082 3.024-.082 3.187.981.163 1.063-4.25-.082-5.23 1.47M81.88 36.362s-2.165.694-2.737-.817c-.572-1.512.082-1.839-1.838-2.288-1.92-.45-2.084-1.757-3.31-1.593-1.225.163-.612.653-2.042 1.716-1.43 1.062-2.738.572-2.697 2.532.041 1.961 2.166 2.268 2.595 3.555.428 1.287-.307 1.838.612 2.819.92.98 2.635.551 1.839 1.9-.797 1.348-2.023 2.39-1.41 4.473.613 2.083.184 2.206 1.226 3.677 1.042 1.47 3.064 1.96 3.37.98.307-.98-1.41-2.267-.858-3.248.552-.98 1.471-.306 1.839-1.777.368-1.47 1.859-1.47 1.981-2.492.123-1.021-1.797-2.574-1.062-3.227.735-.654 2.206 1.184 3.35-.45 1.144-1.634.368-2.941 1.553-4.494 1.184-1.552-1.594-2.165-2.41-1.266M104.625 32.653a24.435 24.435 0 0 1-4.275 13.852 2.805 2.805 0 0 1-1.965-.053c-3.064-1.225-.796-4.534.43-6.189 1.225-1.654-1.9-.92-4.168-2.451-2.267-1.532.245-5.638-2.083-4.964-2.329.674-5.148 1.532-6.496-.735-1.348-2.268 1.225-2.635.061-4.535-1.164-1.9.674-3.003 3.003-3.187 2.329-.183 2.022-1.838 4.902-2.083 2.88-.245 2.82 3.432 6.006 3.186 3.186-.245 3.043.49 3.043.49.23-.005.452.042.666.14.57 2.08.876 4.27.876 6.53M101.876 21.347c-2.65 1.29-3.714-2.217-5.979-1.163-2.283 1.063-1.884-.98-3.68-2.288-1.798-1.307-5.393 1.062-5.23-.98.163-2.043 2.86-1.471 3.432-3.105.572-1.634 3.186-1.226 3.186-1.226a1.77 1.77 0 0 1 .476-.108h.001a24.66 24.66 0 0 1 7.794 8.87M79.551 14.3s1.39-2.003-.817-2.594c-2.206-.592-2.165.182-3.88 0-1.717-.183-2.39 1.145-1.104 2.595 1.287 1.45 2.329 4.233 3.493 2.75 1.165-1.484.94-2.607 2.308-2.75" fill="#9FBDFF"/>
        <path d="M116.796 72.517c.977-3.115-4.034-5.148-4.034-5.148s-6.011 2.704-6.967 2.25c-.956-.455 4.688-3.316 4.688-3.316-1.61-1.261-7.323-1.95-7.323-1.95s-3.186 5.598-4 4.922c-.815-.676 3.074-4.813 3.074-4.813-1.978-.562-4.764.384-4.764.384-3.95 1.917-2.431 8.807-4.971 10.223 0 0-.517.231-1.216.738l.452.289a5.197 5.197 0 0 1 .355-.278l.316-.207h.001a10.16 10.16 0 0 0 .685-.43c.957-.586 2.82-1.383 2.807-1.29-.285 2.155 3.41 4.905 5.85 5.84 2.441.936 1.89-.273 1.359-2.003-.531-1.73-3.132-3.024-3.604-3.87-.472-.847.827-.563 2.195.466 1.367 1.03 1.168 2.927 3.35 4.633 2.182 1.705 6.744-1.535 6.744-1.535-1.922-.526-4.234-3.25-3.99-3.873.242-.624 4.467 2.152 5.236 2.41.77.258 2.78-.327 3.757-3.442M11.155 61.604c.466-4.162 7.4-3.952 7.4-3.952s5.655 6.286 7.013 6.247c1.357-.039-3.786-6.318-3.786-6.318 2.542-.648 9.605 1.502 9.605 1.502s.84 8.22 2.146 7.85c1.306-.372-1.115-7.242-1.115-7.242 2.612.364 5.391 2.918 5.391 2.918 3.645 4.296-1.706 11.596.542 14.573 0 0 .487.538 1.045 1.495l-.681.105a6.642 6.642 0 0 0-.268-.503l-.004-.007a38.867 38.867 0 0 0-.265-.406v-.001a13.01 13.01 0 0 1-.582-.86c-.82-1.182-2.593-3.083-2.627-2.966-.78 2.676-6.542 3.99-9.89 3.825-3.35-.166-2.076-1.3-.557-3.055 1.52-1.755 5.242-1.928 6.234-2.677.992-.75-.68-1.088-2.817-.589-2.139.5-2.887 2.831-6.332 3.703-3.444.871-7.12-5.294-7.12-5.294 2.528.378 6.651-1.621 6.69-2.479.038-.858-6.358.213-7.396.117-1.037-.096-3.093-1.824-2.626-5.986" fill="#DFEBFD"/>
        <path d="M101.982 64.538s1.796-6.407 5.749-9.782c.525-.449 1.324.013 1.204.694a2.73 2.73 0 0 1-.007.034c-.224 1.158-4.735 5.487-6.946 9.054" fill="#C5DDFF"/>
        <path d="M101.285 66.343s4.604-7.64 10.86-10.362c.381-.166.84-.013 1.02.362.116.244.13.6-.123 1.111-.677 1.365-7.78 5.207-11.757 8.89M25.696 57.523s-1.797-6.407-5.749-9.782c-.525-.449-1.324.013-1.204.694l.007.034c.224 1.158 4.735 5.487 6.946 9.054" fill="#C5DDFF"/>
        <path d="M26.393 59.328s-4.604-7.64-10.86-10.362c-.381-.166-.84-.013-1.02.362-.116.244-.13.6.123 1.111.677 1.365 7.78 5.207 11.757 8.89" fill="#C5DDFF"/>
        <path d="m79.464 24.282-.02 56.045a3.333 3.333 0 0 1-3.333 3.333l-29.298-.01a3.334 3.334 0 0 1-3.332-3.335l.019-56.046a3.333 3.333 0 0 1 3.335-3.331l29.297.01a3.333 3.333 0 0 1 3.332 3.334" fill="#C2CFFF"/>
        <path d="M46.834 21.356a2.919 2.919 0 0 0-2.916 2.914L43.9 80.315a2.918 2.918 0 0 0 2.914 2.916l29.298.01a2.919 2.919 0 0 0 2.916-2.914l.019-56.045a2.918 2.918 0 0 0-2.914-2.916l-29.298-.01zM76.11 84.078l-29.297-.01a3.756 3.756 0 0 1-3.75-3.753l.018-56.045a3.756 3.756 0 0 1 3.754-3.751l29.297.01a3.756 3.756 0 0 1 3.75 3.753l-.018 56.045a3.756 3.756 0 0 1-3.754 3.751z" fill="#163560"/>
        <path d="m48.967 26.262-.493.353-.495-.35a.608.608 0 0 1 .988-.003" fill="#FFF"/>
        <path d="M48.475 25.148c-.496 0-.933.246-1.199.622l.313.22a1.083 1.083 0 0 1 1.766-.006l.311-.223a1.465 1.465 0 0 0-1.191-.613M48.475 23.51c-1.048 0-1.974.52-2.536 1.317l.313.22a2.72 2.72 0 0 1 4.434-.016l.31-.223a3.098 3.098 0 0 0-2.52-1.297" fill="#FFF"/>
        <path d="M48.475 24.406c-.745 0-1.407.369-1.809.934l.313.22a1.837 1.837 0 0 1 2.983-.011l.31-.222a2.215 2.215 0 0 0-1.797-.92" fill="#FFF"/>
        <path d="M55.052 15.107s-2.137-1.026-4.897-.462c0 0 3.157-.216 5.03 1.788 0 0 1.309-2.008 3.473-2.468 0 0-1.613-.192-3.606 1.142M49.03 14.14s-1.647-.803-3.784-.38c0 0 2.443-.152 3.881 1.406 0 0 1.022-1.547 2.698-1.893 0 0-1.246-.156-2.794.867M43.716 13.408s-1.53-.668-3.457-.2c0 0 2.216-.233 3.584 1.129 0 0 .87-1.447 2.381-1.826 0 0-1.14-.094-2.508.897M40.737 11.87s-1.074-.353-2.344.084c0 0 1.48-.297 2.488.535 0 0 .495-1.03 1.49-1.381 0 0-.774.008-1.634.762M51.403 8.09s-1.054-.408-2.345-.038c0 0 1.493-.22 2.457.664 0 0 .548-1.003 1.56-1.302 0 0-.774-.031-1.672.677M56.596 11.732s-1.47-.742-3.395-.387c0 0 2.196-.108 3.47 1.31 0 0 .936-1.378 2.445-1.67 0 0-1.117-.154-2.52.747M54.547 9.43s-1.385-.633-3.15-.238c0 0 2.024-.176 3.25 1.088 0 0 .817-1.304 2.202-1.626 0 0-1.038-.104-2.302.777" fill="#9FC1F4"/>
        <path d="M94.731 30.185a2.439 2.439 0 1 1 4.876 0 2.439 2.439 0 0 1-4.876 0m-1.7.26c0 2.458 4.139 6.386 4.139 6.386s4.138-3.928 4.138-6.385c0-2.458-1.853-4.45-4.138-4.45-2.286 0-4.139 1.992-4.139 4.45M80.533 14.553a2.342 2.342 0 1 1 4.684 0 2.342 2.342 0 0 1-4.684 0m-1.633.25c0 2.361 3.975 6.135 3.975 6.135s3.975-3.774 3.975-6.134c0-2.36-1.78-4.275-3.975-4.275-2.195 0-3.975 1.914-3.975 4.275" fill="#F78E48"/>
        <path d="M103.656 82.459h-9.805c-.94 0-1.703-.762-1.703-1.702v-.223h13.082v.35c0 .87-.704 1.575-1.574 1.575" fill="#163560"/>
        <path d="M105.68 64.374v15.612c0 .188-.022.372-.062.548h-1.83a1.428 1.428 0 0 0-1.134.554 1.43 1.43 0 0 0-.304.884v.487h-7.173v-.487a1.437 1.437 0 0 0-1.437-1.438h-1.98a2.488 2.488 0 0 1-.06-.548V64.374a2.471 2.471 0 0 1 2.47-2.473h9.038a2.471 2.471 0 0 1 2.471 2.473" fill="#F78248"/>
        <path d="M101.321 61.893c-3.237-1.277-5.496-.02-5.518-.008l-.117-.203c.024-.014.601-.341 1.599-.507.916-.152 2.375-.19 4.122.5l-.086.218z" fill="#163560"/>
        <mask id="b" fill="#fff">
            <use xlink:href="#a"/>
        </mask>
        <path fill="#163560" mask="url(#b)" d="M93.032 83.026h.947v-1.29h-.947z"/>
        <path d="M92.832 83.221a.674.674 0 1 1 1.348 0 .674.674 0 0 1-1.348 0" fill="#1F4777" mask="url(#b)"/>
        <path d="M93.097 83.221a.41.41 0 1 1 .818 0 .41.41 0 0 1-.818 0M102.77 83.026h.947v-1.29h-.947z" fill="#163560" mask="url(#b)"/>
        <path d="M102.57 83.221a.674.674 0 1 1 1.348 0 .674.674 0 0 1-1.348 0" fill="#1F4777" mask="url(#b)"/>
        <path d="M102.835 83.221a.41.41 0 1 1 .818 0 .41.41 0 0 1-.818 0" fill="#163560" mask="url(#b)"/>
        <path d="M94.53 61.9v18.871a1.433 1.433 0 0 0-.36-.171V61.9h.36zM97.053 82.459h.36V61.901h-.36zM99.744 82.459h.36V61.901h-.36zM103.015 61.9v18.86c-.139.088-.26.199-.36.328V61.9h.36z" fill="#E06832" mask="url(#b)"/>
        <path d="M83.891 53.818c0-.027.394-.842.269-.905-.125-.063-.35-.053-.376.09-.026.142.107.815.107.815" fill="#FFB27D" mask="url(#b)"/>
        <path d="M84.04 54.304c0-.08-.092-1.3-.298-1.543-.206-.243-.626-.589-.759-.578-.132.01-.649.698-.493 1.224.155.527.811 1.24.811 1.24l.739-.343z" fill="#FFB27D" mask="url(#b)"/>
        <path d="m84.825 52.826-1.199.359a.075.075 0 0 1-.093-.05l-.685-2.286a.075.075 0 0 1 .05-.094l1.199-.359c.04-.012.081.01.093.05l.685 2.286a.075.075 0 0 1-.05.094" fill="#F1A34F" mask="url(#b)"/>
        <path d="m84.513 52.919-1.087.326a.133.133 0 0 1-.166-.09l-.651-2.174a.133.133 0 0 1 .089-.166l1.087-.325a.133.133 0 0 1 .166.089l.652 2.174a.133.133 0 0 1-.09.166" fill="#D86713" mask="url(#b)"/>
        <path d="M82.86 52.272s.499-.768.62-.725c.175.06-.452 1.035-.452 1.035s.465-.728.537-.673c.165.124-.098.582-.359.933 0 0 .467-.428.482-.35.054.269-.512.922-.512.922l-.316-.722v-.42zM82.485 52.985c.024-.094.146-1.928.198-1.754.053.174.177 1.135.177 1.135l-.375.619z" fill="#FFB27D" mask="url(#b)"/>
        <path d="M90.45 52.48s-.052 1.994-.627 3.603c-.454 1.27-1.235 2.301-2.573 1.92a6.961 6.961 0 0 1-.398-.125h-.002c-2.72-.948-3.6-3.117-3.6-3.117.203-.334.79-.457.79-.457.547.03 2.954 1.052 3.108 1.083.556.112 1.006-2.947 1.368-4.007.362-1.06 1.842-1.534 1.842-1.534l.092 2.634z" fill="#739AF0" mask="url(#b)"/>
        <path d="m89.875 54.646-.052 1.437c-.454 1.27-1.235 2.301-2.573 1.92a6.933 6.933 0 0 1-.398-.125c.043.005.862.116 1.205-.227.352-.353.315-1.521.964-2.3.65-.78.854-.705.854-.705" fill="#5283DB" mask="url(#b)"/>
        <path d="M89.95 80.92s.67.611.539 1.045c-.13.434-.735.724-.816 1.254-.082.53-.408.82-.702.82H87.57s-.217-.373.306-.486c.522-.113.72-.736.687-1.315-.033-.578.049-1.35.049-1.35l1.11-.257.228.29z" fill="#133054" mask="url(#b)"/>
        <path d="M82.576 83.928H86.7a.299.299 0 0 0 .299-.29c.006-.242-.014-.593-.148-.89-.22-.488-.36-.574.57-1.994-.279.288-1.033.156-1.669.07-.078.127-1.258 1.95-1.519 2.138-.287.206-1.57.133-1.658.966M89.003 61.053s-2.99 5.643-3.803 8.75c-.631 2.413 3.219 11.745 3.219 11.745s.314-.02.828-.222c.504-.199.695-.73.695-.73s-.228-6.673-1.007-9.901c-.175-.725.847-3.062 2.573-4.342 1.725-1.28 2.444-5.4 1.417-5.678-1.028-.278-3.922.378-3.922.378" fill="#163560" mask="url(#b)"/>
        <path d="M91.563 59.45s-3.144 11.526-4.097 14.114c-.954 2.588-2.467 8.082-2.467 8.082s.957.448 2.181.236c0 0 4.597-6.735 4.798-9.712.092-1.376 4.716-6.83 4.201-10.387l-4.616-2.332z" fill="#1C468A" mask="url(#b)"/>
        <path d="M96.172 63.047s-.67.337-1.852.436h-.001c-1.355.114-3.383-.085-5.853-1.46 0 0-.69-.568.157-2.983.641-1.828.953-5.682 1.735-9.194 0 0 2.537-.796 4.573-.108 1.555.526 1.4 2.913 1.688 5.398.026.232.057.465.093.697.425 2.72-.54 7.214-.54 7.214" fill="#739AF0" mask="url(#b)"/>
        <path d="M89.464 44.646s1.732-2.818 3.072-1.368c0 0 .877.224 1.38 1.59.512 1.392-.286 2.621-.82 2.423-.34-.128-.5.461-.5.461l-3.132-3.106z" fill="#233862" mask="url(#b)"/>
        <path d="M92.27 43.056s.12-1.167 1.825-1.053c0 0-.806.014-.98.35 0 0 .587-.378 1.015-.194.428.184.609.985.586 1.24-.023.254-.352 1.05-.64 1.092-.287.041-.663-.162-.663-.162l-1.142-1.273z" fill="#233862" mask="url(#b)"/>
        <path d="M93.13 49.667c-.16-.427-.399-.875-.59-2.239l-.103.036-1.72.607s.12.551.197 1.076c.031.215.054.598.069.933.015.342.351.374.693.359.91-.043 1.412-.382 1.454-.772" fill="#FFB27D" mask="url(#b)"/>
        <path d="M90.716 48.07s.12.552.198 1.077c.987-.17 1.381-1.15 1.523-1.683l-1.72.607z" fill="#E8945B" mask="url(#b)"/>
        <path d="M92.593 47.245s.4-.896.424-1.616c.017-.514-.506-2.335-2.334-1.798 0 0-.535.131-.995.55-.366.331-.865 1.007.022 2.534l.25.523 2.633-.193z" fill="#233862" mask="url(#b)"/>
        <path d="M90.457 48.616s2.351-.3 2.142-1.761c-.209-1.462-.046-2.485-1.556-2.355-1.51.13-1.722.728-1.77 1.233-.05.505.567 2.923 1.184 2.883" fill="#FFB27D" mask="url(#b)"/>
        <path d="M89.97 44.618s.889 1.622 1.91 1.733c1.023.112 1.413-.214 1.413-.214s-.843-.492-1.151-1.518c0 0-1.806-.887-2.173-.001" fill="#233862" mask="url(#b)"/>
        <path d="M90.148 44.734s-.424.452-.487.841c-.064.389-.006 1.163-.233 1.169 0 0-.652-1.096-.203-1.833.476-.782.923-.177.923-.177" fill="#233862" mask="url(#b)"/>
        <path d="M90.068 44.805s.716 1.73 2.043 2.125c0 0-1.403-.924-1.68-2.094-.276-1.17-.363-.031-.363-.031" fill="#233862" mask="url(#b)"/>
        <path d="M96.172 63.047s-.67.337-1.852.436h-.001s-.972-1.218.112-2.583c1.084-1.366-.085-3.885.75-5.255.582-.954 1.147-.732 1.438-.509.026.232.057.465.093.697.425 2.72-.54 7.214-.54 7.214" fill="#5283DB" mask="url(#b)"/>
        <path d="M100.437 61.022s.145.336.346.358c.329.037.955.312 1.053.37.267.159.249.867-.018.933-.266.067-.4-.527-1.232-.686-.282-.054-.694.141-.86-.536l.711-.439z" fill="#FFB27D" mask="url(#b)"/>
        <path d="M94.93 49.738c2.422.89 2.512 5.18 3.591 7.069 1.113 1.948 2.197 4.512 2.197 4.512s-.02.077-.434.196c-.293.084-.598.048-.598.048s-2.287-2.07-2.909-2.886c-.621-.816-2.087-4.603-2.087-4.603s-.72-4.69.24-4.336" fill="#739AF0" mask="url(#b)"/>
        <path d="M99.785 61.629s.059.288.416.521c.357.233.644.467.678.322.034-.144-.199-.3-.254-.566-.056-.266-.84-.277-.84-.277" fill="#FFB27D" mask="url(#b)"/>
        <path fill="#F78E48" mask="url(#b)" d="M43.899 72.78h35.137V47.346H43.899z"/>
        <path d="M70.19 79.684v3.432c0 .042-.002.084-.003.125h-17.57a2.939 2.939 0 0 1-.003-.125v-3.432c0-1.565 1.01-2.846 2.245-2.846h13.085c1.235 0 2.245 1.28 2.245 2.846" fill="#F78248" mask="url(#b)"/>
        <path fill="#FFE3CA" mask="url(#b)" d="m61.384 81.204-1.131-1.012.318-.355.73.654 1.011-1.446.39.273z"/>
        <path d="M61.478 78.071a2.056 2.056 0 0 0-2.054 2.053c0 1.133.922 2.054 2.054 2.054a2.056 2.056 0 0 0 2.053-2.054 2.056 2.056 0 0 0-2.053-2.053m0 4.218a2.167 2.167 0 0 1-2.165-2.165c0-1.193.971-2.164 2.165-2.164s2.165.97 2.165 2.164a2.167 2.167 0 0 1-2.165 2.165" fill="#FFE3CA" mask="url(#b)"/>
        <path d="M47.045 30.797s.814-1.812 2.76-1.61c0 0 2.824-3.02 5.836-.403 0 0 3.202-.649 5.573.561 1.581.807 2.103 1.653 2.103 1.653l-16.272-.201zM58.505 26.514h.03a.504.504 0 0 0 .334-.13c.409-.374 1.655-1.305 2.997-.236.106.084.241.119.374.1.519-.077 1.873-.2 2.934.369.028.015.057.03.084.046.442.248.256.923-.25.917l-6.488-.085c-.636-.008-.65-.957-.015-.98" fill="#EBF3FA" mask="url(#b)"/>
        <path d="M67.739 50.178c-1.08 0-1.96.88-1.96 1.96v14.729c0 1.08.88 1.96 1.96 1.96h6.974c1.08 0 1.96-.88 1.96-1.96v-14.73c0-1.08-.88-1.959-1.96-1.959H67.74zm6.974 18.87H67.74a2.184 2.184 0 0 1-2.182-2.181v-14.73c0-1.203.978-2.182 2.182-2.182h6.974c1.203 0 2.182.98 2.182 2.182v14.73a2.184 2.184 0 0 1-2.182 2.182zM62.394 59.557H52.317a1.605 1.605 0 0 1-1.605-1.606v-6.279c0-.886.718-1.605 1.605-1.605h10.077c.886 0 1.605.719 1.605 1.605v6.28c0 .886-.719 1.605-1.605 1.605M52.168 61.233c-.741 0-1.345.604-1.345 1.346v4.902c0 .742.604 1.345 1.345 1.345h10.374c.742 0 1.346-.603 1.346-1.345v-4.902c0-.742-.604-1.346-1.346-1.346H52.168zm10.374 7.816H52.168A1.57 1.57 0 0 1 50.6 67.48v-4.902a1.57 1.57 0 0 1 1.568-1.568h10.374a1.57 1.57 0 0 1 1.568 1.568v4.902a1.57 1.57 0 0 1-1.568 1.568z" fill="#FFE3CA" mask="url(#b)"/>
        <path d="M69.517 55.165a1.709 1.709 0 1 1 3.417 0 1.709 1.709 0 0 1-3.417 0m-1.19.183c0 1.722 2.899 4.475 2.899 4.475s2.9-2.753 2.9-4.475c0-1.722-1.299-3.118-2.9-3.118-1.602 0-2.9 1.396-2.9 3.118" fill="#FFE3CA" mask="url(#b)"/>
        <path d="M62.645 56.35h-.137l-.014.003-1.053.287a.055.055 0 0 1-.038-.003l-1.48-.57c-.037-.018.192-.13.226-.154.37-.27 1.543-.925 1.983-1.217a.096.096 0 0 0-.03-.174.21.21 0 0 0-.12.007l-2.155.782-.29-.183a.09.09 0 0 0-.125.028l-.142.225a.09.09 0 0 0 .026.123l-.277.1a.055.055 0 0 1-.041 0l-1.326-.566a.552.552 0 0 0-.371-.022l-.153.045a.188.188 0 0 0-.124.241l.017.051a.588.588 0 0 0 .35.36l1.074.405a.056.056 0 0 1 .036.051l.01.465-.061-.04a.09.09 0 0 0-.125.029l-.142.224a.091.091 0 0 0 .028.126l.311.197.015.725c.001.058.02.115.053.163.043.062.088.13.104.122.05-.023.538-1.14.704-1.578.009-.025.22.053.245.063l1.466.448a.056.056 0 0 1 .036.044l.065.427c.007.048.03.092.066.125l.001.001a.055.055 0 0 0 .084-.01l.341-.522a.055.055 0 0 1 .045-.026l.157-.005a.056.056 0 0 0 .037-.095l-.038-.037.795-.564a.056.056 0 0 0-.033-.101" fill="#F78E48" mask="url(#b)"/>
        <path d="M60.533 63.099a1.933 1.933 0 0 0-1.931 1.93c0 1.066.866 1.932 1.93 1.932a1.933 1.933 0 0 0 1.932-1.931 1.933 1.933 0 0 0-1.931-1.931m0 4.1a2.171 2.171 0 0 1-2.169-2.17c0-1.195.973-2.168 2.169-2.168 1.196 0 2.169.973 2.169 2.169a2.171 2.171 0 0 1-2.17 2.169" fill="#FFE3CA" mask="url(#b)"/>
        <path d="M60.534 65.32h-.03a.076.076 0 0 1-.075-.075v-1.208c0-.041.034-.075.075-.075h.03c.041 0 .075.034.075.075v1.208a.076.076 0 0 1-.075.076" fill="#FFE3CA" mask="url(#b)"/>
        <path d="m60.493 65.281-.002-.002a.043.043 0 0 1 0-.061l1.205-1.206a.043.043 0 0 1 .061 0l.003.002a.043.043 0 0 1 0 .062l-1.206 1.205a.044.044 0 0 1-.061 0" fill="#FFE3CA" mask="url(#b)"/>
        <path d="M60.4 65.238a.119.119 0 1 1 .237 0 .119.119 0 0 1-.237 0M52.142 62.927h4.768v-.495h-4.768zM52.142 64.059h4.768v-.498h-4.768zM52.142 65.191H55v-.498h-2.86zM68.842 62.948h4.768v-.495h-4.768zM68.842 64.08h4.768v-.498h-4.768zM68.842 65.212H71.7v-.498h-2.86z" fill="#FFE3CA" mask="url(#b)"/>
        <path fill="#F78E48" mask="url(#b)" d="M52.437 52.744h4.769v-.495h-4.769zM52.437 53.876h4.769v-.498h-4.769zM52.437 55.009h2.86v-.498h-2.86zM89.18 3.916h-.009a3.668 3.668 0 0 0-.52-.003.111.111 0 1 1-.015-.222c.18-.012.365-.011.552.003a.111.111 0 0 1-.008.222m1.05.211a.11.11 0 0 1-.037-.006 2.464 2.464 0 0 0-.25-.077 5.392 5.392 0 0 0-.253-.056.111.111 0 0 1 .043-.218c.086.016.174.036.263.058.091.023.183.05.273.083a.111.111 0 0 1-.038.216M87.6 4.15a.111.111 0 0 1-.042-.215c.173-.069.351-.124.53-.164a.111.111 0 0 1 .049.217c-.168.038-.334.09-.496.154a.11.11 0 0 1-.041.008m3.55.512a.11.11 0 0 1-.07-.025 3.558 3.558 0 0 0-.424-.295.111.111 0 1 1 .113-.192c.151.09.303.195.451.314a.111.111 0 0 1-.07.198m-4.482.016a.111.111 0 0 1-.066-.2 4.51 4.51 0 0 1 .46-.303.111.111 0 0 1 .11.193c-.147.084-.294.18-.437.288a.11.11 0 0 1-.067.022m-.79.724a.111.111 0 0 1-.083-.186c.127-.138.256-.268.385-.388a.111.111 0 0 1 .151.164 6.28 6.28 0 0 0-.372.374.111.111 0 0 1-.082.036m6.027.02a.111.111 0 0 1-.086-.041 5.917 5.917 0 0 0-.352-.392.111.111 0 0 1 .16-.156c.121.124.244.26.364.407a.111.111 0 0 1-.086.182m-6.696.82a.111.111 0 0 1-.09-.175c.106-.153.215-.3.324-.436a.111.111 0 1 1 .174.138 9.22 9.22 0 0 0-.317.425.111.111 0 0 1-.091.047m7.32.055a.111.111 0 0 1-.095-.052 9.37 9.37 0 0 0-.294-.442.111.111 0 0 1 .181-.129c.101.143.203.295.302.453a.111.111 0 0 1-.094.17m-7.896.852a.111.111 0 0 1-.096-.167c.092-.16.186-.316.28-.464a.111.111 0 1 1 .188.12c-.092.145-.185.298-.276.455a.111.111 0 0 1-.096.056m8.425.085a.111.111 0 0 1-.1-.061 13.67 13.67 0 0 0-.252-.47.111.111 0 0 1 .194-.11c.086.154.172.314.256.479a.111.111 0 0 1-.098.162m-8.93.864a.111.111 0 0 1-.1-.16c.082-.166.165-.328.247-.482a.111.111 0 1 1 .196.104c-.08.153-.162.312-.242.475a.111.111 0 0 1-.1.063m9.388.109a.111.111 0 0 1-.102-.067 18.636 18.636 0 0 0-.221-.487.111.111 0 0 1 .201-.095c.075.158.15.324.224.493a.111.111 0 0 1-.102.156m-9.836.867a.111.111 0 0 1-.102-.155c.072-.168.145-.334.219-.494a.111.111 0 0 1 .202.093c-.072.158-.145.322-.217.489a.111.111 0 0 1-.102.067m10.241.13a.111.111 0 0 1-.104-.072c-.064-.17-.13-.337-.196-.498a.111.111 0 1 1 .206-.084c.067.163.133.332.198.503a.111.111 0 0 1-.104.151m-10.563.655a.111.111 0 0 1-.104-.152l.116-.29a.111.111 0 0 1 .206.084l-.114.287a.111.111 0 0 1-.104.071m10.927.358a.111.111 0 0 1-.106-.075c-.058-.17-.117-.341-.176-.507a.111.111 0 0 1 .21-.075c.06.167.119.339.177.51a.111.111 0 0 1-.105.147m.328 1.025a.111.111 0 0 1-.106-.079 38.632 38.632 0 0 0-.16-.512.111.111 0 1 1 .212-.068l.161.515a.111.111 0 0 1-.107.144m.3 1.034a.111.111 0 0 1-.107-.081 44 44 0 0 0-.146-.517.111.111 0 1 1 .214-.062c.05.172.099.345.147.519a.111.111 0 0 1-.107.141m.275 1.04a.111.111 0 0 1-.108-.083 52.46 52.46 0 0 0-.134-.52.111.111 0 1 1 .215-.057c.046.173.09.348.135.522a.111.111 0 0 1-.108.139m.255 1.047a.111.111 0 0 1-.108-.086l-.125-.524a.111.111 0 1 1 .216-.052c.043.175.084.35.125.526a.111.111 0 0 1-.108.136m.235 1.05a.111.111 0 0 1-.109-.088 68.643 68.643 0 0 0-.115-.524.111.111 0 1 1 .218-.049l.115.526a.111.111 0 0 1-.109.135m.219 1.054a.111.111 0 0 1-.11-.09c-.034-.175-.07-.35-.106-.526a.111.111 0 1 1 .218-.046l.107.529a.111.111 0 0 1-.109.133m.204 1.057a.111.111 0 0 1-.11-.09 77.538 77.538 0 0 0-.1-.53.111.111 0 0 1 .22-.041l.1.53a.111.111 0 0 1-.11.131m.19 1.06a.111.111 0 0 1-.11-.092l-.093-.53a.111.111 0 1 1 .219-.04l.093.532a.111.111 0 0 1-.11.13m.177 1.063a.111.111 0 0 1-.11-.094 92.39 92.39 0 0 0-.086-.53.111.111 0 0 1 .22-.037l.086.532a.111.111 0 0 1-.11.129m.165 1.064a.111.111 0 0 1-.11-.095 101.53 101.53 0 0 0-.081-.532.111.111 0 0 1 .22-.034c.028.181.055.36.08.534a.111.111 0 0 1-.11.127m.153 1.067a.111.111 0 0 1-.11-.096l-.075-.533a.111.111 0 1 1 .22-.032l.076.535a.111.111 0 0 1-.11.126m.14 1.07a.111.111 0 0 1-.11-.098c-.021-.17-.044-.349-.069-.535a.111.111 0 1 1 .22-.029l.07.536a.111.111 0 0 1-.11.125m.128 1.072a.111.111 0 0 1-.11-.099l-.063-.535a.111.111 0 0 1 .221-.027l.063.537a.111.111 0 0 1-.11.124m.113 1.08a.111.111 0 0 1-.11-.101c0-.002-.018-.197-.055-.54a.111.111 0 1 1 .221-.024c.037.346.055.542.055.544a.111.111 0 0 1-.11.121"/>
        <path d="M123.073 84.293 5.937 84.25c-.079 0-.143-.07-.143-.155v-.079c0-.085.064-.155.143-.155l117.136.044c.078 0 .142.07.142.155v.079c0 .085-.064.154-.142.154" fill="#2E3552" mask="url(#b)"/>
        <path d="M43.914 37.273s1.517-.105 1.847 1.085c0 0 1.168-2.38 3.636-2.184 2.467.196 2.923 1.647 2.923 1.647s1.414-.485 2.588.162c1.174.648 1.098 1.835 1.098 1.835s1.077-1.511 3.24-.972c0 0-.432-2.184 2.17-2.684 2.602-.499 3.707.364 3.707.364s2.946-1.897 5.555.481c0 0 1.911-.37 2.845.806 0 0 1.915-2.313 5.517-1.907v11.439H43.9l.015-10.072z" fill="#D7E2FF" mask="url(#b)"/>
        <path d="M43.913 42.981s2.552-.645 4.829.858c0 0 .555-.662 2-.498 1.446.164 1.844 1.5 1.844 1.5s5.058-1.671 7.562 2.504H43.9l.014-4.364zM63.26 47.345s.13-2.56 2.803-3.172c0 0-1.384-.613-.687-2.134.698-1.521 2.393-1.633 2.393-1.633s.177-2.752 4.983-2.277c1.35.134 2.778.941 3 2.352 0 0 .522-.858 1.602-.8 0 0 .133-1.565 1.686-1.552v9.216H63.26z" fill="#EBF3FA" mask="url(#b)"/>
        <path d="m76.784 25.332-2.017 6.988-.064-.008-6.892-.837s3.192-.664 3.524-1.047c.313-.36 3.627-4.643 4.596-5.1a.326.326 0 0 1 .151-.04l.702.044z" fill="#739AF0" mask="url(#b)"/>
        <path d="m74.703 32.312-6.892-.837s3.192-.664 3.524-1.047c.312-.36 3.627-4.643 4.596-5.1-.858 1.246-2.847 4.241-2.763 5.112.08.83 1.05 1.558 1.535 1.872" fill="#2B478B" mask="url(#b)"/>
        <path d="M75.448 34.417c-.236.08-.939.302-1.903.582-2.774.807-7.707 2.102-9.885 1.942-1.953-.143-12.281-.932-19.426-1.558 1.729-3.036 3.885-4.714 5.857-5.633 8.324.682 19.21 1.604 20.595 1.871 2.278.44 5.3.799 5.3.799s.021.092.04.239c.065.476.119 1.518-.578 1.758" fill="#E58638" mask="url(#b)"/>
        <path d="M76.062 33.164v.053c-.007.379-.084.802-.352 1.045l-.028.024a.738.738 0 0 1-.06.044v.001l-.032.02-.033.019a.575.575 0 0 1-.035.017l-.037.016-.037.014a.11.11 0 0 1-.012.003.107.107 0 0 0-.012.005l-.012.004a.14.14 0 0 0-.014.004.476.476 0 0 0-.029.009v.001l-.015.005-.016.005-.017.006-.017.005a2.656 2.656 0 0 1-.036.012h-.001l-.018.006h-.001a2.245 2.245 0 0 0-.02.007l-.014.004a16.952 16.952 0 0 1-.21.067c-.167.052-.369.115-.602.185l-.073.022-.124.038-.028.008-.04.012-.039.011-.04.012-.04.012a9.683 9.683 0 0 1-.04.012l-.042.013-.042.012-.042.012-.031.01-.012.003-.043.012-.221.065-.132.039a53.65 53.65 0 0 1-.203.058l-.352.1-.073.02c-.042.013-.084.024-.127.036l-.115.033-.13.036c-1.442.4-3.19.849-4.81 1.175l-.17.034-.084.016-.169.032c-.167.032-.334.063-.497.091-.055.01-.109.02-.163.028a16.04 16.04 0 0 0-.08.014l-.16.026-.16.025-.156.023a9.658 9.658 0 0 1-.306.044l-.15.02-.075.009a18.046 18.046 0 0 1-.36.04l-.14.013a11.09 11.09 0 0 1-.465.033l-.127.005a5.656 5.656 0 0 1-.413.004 3.72 3.72 0 0 1-.268-.012 7.113 7.113 0 0 0-.038-.003h-.009l-.025-.002-.101-.008-.03-.002-.036-.003c-.019 0-.038-.002-.058-.004l-.031-.002a.693.693 0 0 1-.032-.003l-.067-.005-.069-.005-.036-.002-.09-.007-.044-.004-.094-.007a24.998 24.998 0 0 0-.162-.012l-.366-.027-.049-.004-.098-.007-.15-.012a2.894 2.894 0 0 0-.064-.005l-.147-.011-.055-.004-.103-.008-.115-.009-.06-.005-.058-.004a942.461 942.461 0 0 0-.86-.066l-.306-.023a169.042 169.042 0 0 0-.297-.023l-.014-.001-1.77-.137-.095-.008-.384-.03a507.92 507.92 0 0 0-.244-.019l-.013-.001a62.256 62.256 0 0 1-.282-.022c-.012 0-.023-.002-.035-.003l-.504-.04-.13-.01c-.014 0-.027-.002-.04-.003l-.45-.035a26.732 26.732 0 0 1-.33-.026l-.267-.021-.404-.032-.037-.003-.167-.013-.012-.001-.501-.04-.014-.001-.052-.004-.297-.024-.225-.018-.14-.01-.586-.047-.005-.001-.98-.08-.135-.01h-.01l-.432-.036a941.65 941.65 0 0 1-.506-.041l-.757-.062-.48-.039-.3-.025-.713-.058a7.266 7.266 0 0 0-.034-.003l-.446-.038-.633-.053-.252-.02-.076-.007-.506-.043-.074-.006-.344-.03c-.484-.04-.96-.08-1.425-.121l-.167-.015-.102-.008-.136-.013-.27-.023a341.635 341.635 0 0 1-4.823-.452 70.73 70.73 0 0 1-.776-.084c-.661-.075-1.111-.138-1.29-.183-.965-.243-2.574-.883-3.561-1.548-.595-.4-.963-.81-.826-1.149.174-.43.551-.69.939-.88.336-.167.68-.281.904-.411l.038-.023a.784.784 0 0 0 .11-.08c.004-.006.01-.01.015-.016.088-.08.232-.213.44-.369.139-.104.306-.218.504-.334l.003-.002c.863-.506 2.306-1.04 4.506-.882 0 0 4.304.34 9.673.78l1.635.135.556.045.84.07 1.416.117.285.024.57.048a10485.973 10485.973 0 0 1 3.719.314h.003c1.914.165 3.75.325 5.379.473l.256.023a471.884 471.884 0 0 1 3.65.348c1.161.118 1.971.213 2.287.274a61.812 61.812 0 0 0 2.78.461l.011.002.306.044.01.002.34.048.464.063c.063.009.125.018.185.025.723.097 1.205.154 1.205.154a1.003 1.003 0 0 0 .009.043c0 .006.002.013.004.021l.009.054a2.48 2.48 0 0 1 .014.094l.004.027a3.127 3.127 0 0 1 .019.165l.003.042a1.481 1.481 0 0 1 .008.116.5.5 0 0 1 .001.028l.002.05v.026l.002.052v.026" fill="#D7E2FF" mask="url(#b)"/>
        <path d="M76.062 33.164v.053c-.007.379-.084.802-.352 1.045l-.028.024a.738.738 0 0 1-.06.044v.001l-.032.02-.033.019a.575.575 0 0 1-.035.017l-.037.016-.037.014a.11.11 0 0 1-.012.003.107.107 0 0 0-.012.005l-.012.004a.14.14 0 0 0-.014.004.476.476 0 0 0-.029.009v.001l-.015.005-.016.005-.017.006-.017.005a2.656 2.656 0 0 1-.036.012h-.001l-.018.006h-.001a2.245 2.245 0 0 0-.02.007l-.014.004a16.952 16.952 0 0 1-.21.067c-.167.052-.369.115-.602.185l-.073.022-.124.038-.028.008-.04.012-.039.011-.04.012-.04.012a9.683 9.683 0 0 1-.04.012l-.042.013-.042.012-.042.012-.031.01-.012.003-.043.012-.221.065-.132.039a53.65 53.65 0 0 1-.203.058l-.352.1-.073.02c-.042.013-.084.024-.127.036l-.115.033-.13.036c-1.442.4-3.19.849-4.81 1.175l-.17.034-.084.016-.169.032c-.167.032-.334.063-.497.091-.055.01-.109.02-.163.028a16.04 16.04 0 0 0-.08.014l-.16.026-.16.025-.156.023a9.658 9.658 0 0 1-.306.044l-.15.02-.075.009a18.046 18.046 0 0 1-.36.04l-.14.013a11.09 11.09 0 0 1-.465.033l-.127.005a5.656 5.656 0 0 1-.413.004 3.72 3.72 0 0 1-.268-.012 7.113 7.113 0 0 0-.038-.003h-.009l-.025-.002-.101-.008-.03-.002-.036-.003c-.019 0-.038-.002-.058-.004l-.031-.002a.693.693 0 0 1-.032-.003l-.067-.005-.069-.005-.036-.002-.09-.007-.044-.004-.094-.007a24.998 24.998 0 0 0-.162-.012l-.366-.027-.049-.004-.098-.007-.15-.012a2.894 2.894 0 0 0-.064-.005l-.147-.011-.055-.004-.103-.008-.115-.009-.06-.005-.058-.004a942.461 942.461 0 0 0-.86-.066l-.306-.023a169.042 169.042 0 0 0-.297-.023l-.014-.001-1.77-.137-.095-.008-.384-.03a507.92 507.92 0 0 0-.244-.019l-.013-.001a62.256 62.256 0 0 1-.282-.022c-.012 0-.023-.002-.035-.003l-.504-.04-.13-.01c-.014 0-.027-.002-.04-.003l-.45-.035a26.732 26.732 0 0 1-.33-.026l-.267-.021-.404-.032-.037-.003-.167-.013-.012-.001-.501-.04-.014-.001-.052-.004c3.77-2.102 4.846-5.71 4.846-5.71h.003c1.914.164 3.75.324 5.379.472l.256.023a471.884 471.884 0 0 1 3.65.348c1.161.118 1.971.213 2.287.274a61.812 61.812 0 0 0 2.78.461l.011.002.306.044.01.002.34.048.464.063c.063.009.125.018.185.025.723.097 1.205.154 1.205.154a1.003 1.003 0 0 0 .009.043c0 .006.002.013.004.021l.009.054a2.48 2.48 0 0 1 .014.094l.004.027a3.127 3.127 0 0 1 .019.165l.003.042a1.481 1.481 0 0 1 .008.116.5.5 0 0 1 .001.028l.002.05v.026l.002.052v.026" fill="#F99746" mask="url(#b)"/>
        <path d="M75.448 34.416c-.236.081-.939.303-1.903.583-.322-1.348-1.36-1.911-1.36-1.911l3.842-.43c.064.477.118 1.519-.58 1.758" fill="#E27727" mask="url(#b)"/>
        <path d="M54.904 32.637c-.125-.01-.217-.134-.205-.275l.025-.27c.013-.141.126-.248.251-.237.126.011.218.135.205.276l-.024.27c-.013.14-.126.247-.252.236M53.728 32.536c-.126-.011-.218-.135-.205-.276l.024-.27c.013-.141.126-.247.251-.236.126.01.218.134.205.275l-.024.27c-.013.141-.126.247-.251.237M52.55 32.434c-.125-.01-.217-.135-.204-.275l.024-.271c.013-.14.126-.247.252-.236.125.01.217.135.205.275l-.025.271c-.013.14-.126.247-.251.236M51.374 32.332c-.126-.01-.218-.134-.205-.275l.024-.27c.013-.141.126-.247.252-.237.125.011.217.135.205.276l-.025.27c-.013.141-.126.247-.251.236M50.197 32.23c-.125-.01-.218-.134-.205-.275l.025-.27c.012-.14.125-.247.251-.236.125.01.218.135.205.275l-.025.27c-.012.141-.125.248-.25.237M49.02 32.13c-.125-.012-.217-.136-.205-.276l.025-.27c.013-.141.126-.248.251-.237.126.011.218.135.205.276l-.024.27c-.013.14-.126.247-.252.236M47.843 32.028c-.125-.011-.217-.135-.205-.276l.025-.27c.013-.141.126-.247.251-.236.126.01.218.134.205.275l-.024.27c-.013.141-.126.247-.252.237M46.667 31.926c-.126-.01-.218-.135-.205-.275l.024-.271c.013-.14.126-.247.251-.236.126.01.218.135.205.275l-.024.271c-.013.14-.126.247-.251.236M45.49 31.824c-.126-.01-.218-.134-.205-.275l.024-.27c.013-.141.126-.248.252-.237.125.011.217.135.205.276l-.025.27c-.013.141-.126.247-.251.236M44.336 31.725c-.125-.011-.217-.135-.204-.276l.024-.27c.013-.14.126-.247.251-.236.126.01.218.134.205.275l-.024.27c-.013.141-.126.248-.252.237M43.16 31.623c-.126-.01-.218-.135-.205-.275l.024-.271c.013-.14.126-.247.251-.236.126.01.218.135.205.275l-.024.271c-.013.14-.126.247-.251.236M41.983 31.521c-.126-.01-.218-.134-.205-.275l.024-.27c.013-.141.126-.247.252-.237.125.011.217.135.205.276l-.025.27c-.013.141-.126.247-.251.236M40.525 31.382c-.126-.011-.218-.135-.205-.276l.024-.27c.013-.14.126-.247.252-.236.125.01.217.135.205.275l-.025.27c-.012.141-.126.248-.251.237M67.745 33.883c-.126-.01-.218-.134-.205-.275l.024-.27c.013-.141.126-.248.251-.237.126.011.218.135.205.276l-.024.27c-.013.14-.126.247-.251.236M66.568 33.782c-.126-.011-.218-.135-.205-.276l.024-.27c.013-.141.126-.247.252-.236.125.01.217.134.205.275l-.025.27c-.013.141-.126.247-.251.237M65.39 33.68c-.125-.01-.217-.135-.204-.275l.024-.271c.013-.14.126-.247.252-.236.125.01.217.135.205.275l-.025.271c-.013.14-.126.247-.251.236M36.12 29.865l-.802.757-.48.031a.772.772 0 0 0 .11-.081l.016-.015c.088-.08.232-.213.44-.369.139-.104.306-.218.504-.335l.003-.001.209.013zM36.295 29.893l-.784.764.89.189.28-.873zM36.765 30l-.206.82.659-.188.042-.57zM52.815 36.28c.345-.135.436-.736.15-.994-.286-.258-.677-.517-1.117-.55-.905-.065-.538 1.778-.238 1.816.177.022.745-.091 1.205-.271" fill="#2B478B" mask="url(#b)"/>
        <path d="M72.107 32.722c.037-.049 3.405-1.159 5.606-.676l-2.12 1.335-3.408-.293s-.26-.12-.078-.366" fill="#355DAF" mask="url(#b)"/>
        <path d="M70.481 24.95s-2.254 4.982-2.683 5.739c-.43.756-1.368 1.239-1.368 1.239l-.005.002-5.974 2.426s-7.45-.587-9.072-.766a4.275 4.275 0 0 1-.288-.038c-.492-.105-.723-.334-.628-.513.095-.18 11.55-1.554 12.818-1.695l.036-.004c1.235-.146 1.35-.566 1.35-.566l4.726-5.417c.06-.1.16-.175.274-.232.34-.169.814-.175.814-.175" fill="#D7E2FF" mask="url(#b)"/>
        <path d="M69.667 25.125c-1.272 1.544-4.79 5.8-5.124 6.09-.36.312-10.638 1.965-13.164 2.375a4.24 4.24 0 0 1-.288-.038c-.492-.105-.723-.334-.628-.513.095-.18 11.55-1.554 12.818-1.695 1.268-.142 1.386-.57 1.386-.57l4.726-5.417c.06-.1.16-.175.274-.232" fill="#739AF0" mask="url(#b)"/>
        <path d="M70.481 24.95s-2.254 4.982-2.683 5.739c-.43.756-1.368 1.239-1.368 1.239l-.005.002a9.937 9.937 0 0 1-3.108-.59c1.235-.146 1.35-.566 1.35-.566l4.726-5.417c.06-.1.16-.175.274-.232.34-.169.814-.175.814-.175" fill="#D7E2FF" mask="url(#b)"/>
        <path d="m52.052 34.302-.226 2.513s-.96.345-2.462.265c-.92-.049-1.532-.25-1.869-.4-.213-.094-.316-.167-.316-.167l.238-2.634a.864.864 0 0 1 .346-.161c1.187-.305 4.105.482 4.105.482l.184.102z" fill="#E9F0FF" mask="url(#b)"/>
        <path d="m47.763 33.718-.268 2.963c-.213-.095-.316-.168-.316-.168l.238-2.634a.864.864 0 0 1 .346-.161" fill="#FF9843" mask="url(#b)"/>
        <path d="M33.012 79.522 50.66 74.81c.374-.1.622-.398.551-.663l-9.896-37.203c-.07-.265-.433-.4-.807-.3l-17.65 4.71c-.373.1-.62.399-.55.663l9.895 37.203c.07.265.434.4.808.3" fill="#FFE3CA" mask="url(#b)"/>
        <path d="m33.012 79.522 1.45-.388-10.151-38.166-1.451.388c-.374.1-.622.398-.551.662l9.895 37.203c.07.265.434.4.808.3" fill="#F2BE8F" mask="url(#b)"/>
        <path fill="#EABC92" mask="url(#b)" d="m38.178 53.47-2.97-11.168-2.265.605 2.97 11.168zM44.46 56.858 40.23 40.96l-2.264.605 4.229 15.896z"/>
        <path fill="#F2BE8F" mask="url(#b)" d="M39.504 49.668 37.39 41.72l-.505.134L39 49.802zM34.514 51 32.4 43.052l-.505.134 2.114 7.949zM28.395 43.92l.048.13a.055.055 0 0 0 .006.012l.627.907a.056.056 0 0 1 .01.038l-.046 1.6c-.005.043-.188-.138-.223-.162-.38-.262-1.4-1.16-1.825-1.482a.097.097 0 0 0-.155.088c.004.041.02.08.046.112l1.469 1.79-.078.338a.092.092 0 0 0 .069.11l.262.06a.092.092 0 0 0 .109-.067l.189.23a.056.056 0 0 1 .012.04l-.094 1.453a.557.557 0 0 0 .104.361l.094.13a.19.19 0 0 0 .272.038l.043-.033a.594.594 0 0 0 .226-.454l.024-1.16c0-.023.015-.044.037-.052l.44-.165-.017.072c-.012.049.02.098.068.11l.262.06c.049.01.098-.02.11-.07l.083-.362.686-.258a.3.3 0 0 0 .138-.105c.044-.062.094-.127.082-.14-.04-.04-1.267-.13-1.741-.14-.027-.001-.023-.229-.022-.256l-.065-1.547c0-.02.012-.039.03-.048l.385-.206a.215.215 0 0 0 .097-.105v-.002a.056.056 0 0 0-.038-.076l-.612-.15a.056.056 0 0 1-.039-.034l-.057-.148a.056.056 0 0 0-.103-.003l-.023.049-.804-.569a.056.056 0 0 0-.086.065"/>
        <path d="M45.697 83.883H22.49V51.77h23.249c.879 0 1.591.712 1.591 1.59v28.89c0 .902-.731 1.633-1.633 1.633" fill="#739AF0" mask="url(#b)"/>
        <path d="M26.13 55.455h.565c.09 0 .168-.011.233-.034a.424.424 0 0 0 .16-.094.365.365 0 0 0 .093-.146.578.578 0 0 0 0-.367.418.418 0 0 0-.253-.264.615.615 0 0 0-.233-.04h-.566v.945zm0 .377v1.006h-.471v-2.707h1.036c.157 0 .297.021.419.064a.89.89 0 0 1 .31.18.764.764 0 0 1 .192.273c.044.105.066.22.066.344a.9.9 0 0 1-.066.353.7.7 0 0 1-.193.264.874.874 0 0 1-.31.166 1.395 1.395 0 0 1-.418.057h-.566zM28.36 55.829h.785l-.392-1.123-.392 1.123zm.917.379H28.23l-.22.63h-.489l1.023-2.707h.422l1.024 2.707h-.49l-.222-.63zM31.711 56.141a.413.413 0 0 0-.024-.146.289.289 0 0 0-.088-.118.732.732 0 0 0-.177-.103 2.716 2.716 0 0 0-.289-.103 2.779 2.779 0 0 1-.357-.132 1.23 1.23 0 0 1-.282-.173.74.74 0 0 1-.185-.227.626.626 0 0 1-.067-.294c0-.109.024-.21.07-.301a.713.713 0 0 1 .196-.238.934.934 0 0 1 .303-.156c.118-.038.248-.056.39-.056.153 0 .29.022.412.066a.92.92 0 0 1 .307.18.783.783 0 0 1 .26.581h-.469a.517.517 0 0 0-.03-.181.377.377 0 0 0-.094-.143.433.433 0 0 0-.16-.094.7.7 0 0 0-.229-.034.74.74 0 0 0-.216.028.432.432 0 0 0-.151.078.308.308 0 0 0-.09.12.38.38 0 0 0-.028.148c0 .1.047.184.142.251.095.067.24.13.434.186.153.045.285.094.396.149.112.054.204.116.278.185a.669.669 0 0 1 .219.523.658.658 0 0 1-.261.54.907.907 0 0 1-.305.147 1.441 1.441 0 0 1-.397.052c-.13 0-.259-.018-.385-.054a1.088 1.088 0 0 1-.34-.16.834.834 0 0 1-.243-.266.74.74 0 0 1-.092-.376h.47c0 .086.015.16.046.22a.41.41 0 0 0 .124.151c.053.04.115.068.187.086.072.018.15.027.233.027.163 0 .286-.034.369-.1a.321.321 0 0 0 .123-.263M34.01 56.141a.412.412 0 0 0-.025-.146.288.288 0 0 0-.088-.118.732.732 0 0 0-.177-.103 2.708 2.708 0 0 0-.289-.103 2.784 2.784 0 0 1-.357-.132 1.23 1.23 0 0 1-.281-.173.74.74 0 0 1-.185-.227.626.626 0 0 1-.067-.294c0-.109.023-.21.07-.301a.714.714 0 0 1 .195-.238.934.934 0 0 1 .304-.156c.117-.038.247-.056.39-.056.152 0 .29.022.41.066a.92.92 0 0 1 .309.18.783.783 0 0 1 .259.581h-.468a.517.517 0 0 0-.031-.181.378.378 0 0 0-.094-.143.433.433 0 0 0-.16-.094.7.7 0 0 0-.229-.034.74.74 0 0 0-.215.028.432.432 0 0 0-.152.078.308.308 0 0 0-.09.12.38.38 0 0 0-.028.148c0 .1.047.184.142.251.095.067.24.13.434.186.153.045.285.094.396.149.112.054.205.116.278.185a.67.67 0 0 1 .219.523.658.658 0 0 1-.261.54.907.907 0 0 1-.304.147 1.442 1.442 0 0 1-.398.052c-.13 0-.259-.018-.385-.054a1.088 1.088 0 0 1-.34-.16.834.834 0 0 1-.243-.266.74.74 0 0 1-.092-.376h.47c0 .086.015.16.046.22a.41.41 0 0 0 .124.151c.053.04.115.068.187.086.072.018.15.027.233.027.163 0 .286-.034.369-.1a.321.321 0 0 0 .124-.263M35.363 55.455h.565c.09 0 .169-.011.234-.034a.425.425 0 0 0 .16-.094.365.365 0 0 0 .093-.146.58.58 0 0 0 0-.367.418.418 0 0 0-.253-.264.615.615 0 0 0-.234-.04h-.565v.945zm0 .377v1.006h-.47v-2.707h1.035c.158 0 .298.021.42.064a.89.89 0 0 1 .31.18.764.764 0 0 1 .192.273c.044.105.066.22.066.344a.9.9 0 0 1-.066.353.7.7 0 0 1-.193.264.875.875 0 0 1-.31.166 1.395 1.395 0 0 1-.419.057h-.565zM39.017 55.414c0-.151-.015-.285-.044-.4a.854.854 0 0 0-.127-.292.551.551 0 0 0-.206-.177.612.612 0 0 0-.276-.06.56.56 0 0 0-.477.238.868.868 0 0 0-.13.29c-.03.116-.045.25-.045.401v.141c0 .152.015.285.045.402.03.116.074.214.131.293a.563.563 0 0 0 .48.239c.208 0 .368-.08.48-.238.113-.159.169-.39.169-.696v-.141zm.47.141c0 .206-.027.39-.08.554-.054.162-.13.3-.228.414a.989.989 0 0 1-.354.261 1.12 1.12 0 0 1-.457.092c-.166 0-.318-.03-.456-.092a1.016 1.016 0 0 1-.356-.26 1.203 1.203 0 0 1-.232-.415 1.72 1.72 0 0 1-.083-.554v-.137c0-.206.028-.39.083-.554a1.23 1.23 0 0 1 .23-.417.991.991 0 0 1 .355-.262c.137-.06.29-.091.455-.091.168 0 .32.03.459.09a.99.99 0 0 1 .355.263c.098.114.175.253.228.417.054.163.081.348.081.554v.137zM40.426 55.418h.484a.665.665 0 0 0 .221-.034.441.441 0 0 0 .158-.093.38.38 0 0 0 .095-.141.567.567 0 0 0 .002-.37.375.375 0 0 0-.248-.237.719.719 0 0 0-.23-.033h-.482v.908zm.525.377h-.525v1.043h-.47v-2.707h.952c.155 0 .293.018.415.053a.853.853 0 0 1 .307.156.663.663 0 0 1 .19.256c.044.101.066.22.066.353a.761.761 0 0 1-.131.455.834.834 0 0 1-.365.281l.608 1.13v.023h-.504l-.543-1.043zM44.195 54.51h-.844v2.328h-.467V54.51h-.836v-.379h2.147zM36.794 80.437H33.06a.218.218 0 0 1 0-.435h3.733a.218.218 0 1 1 0 .435M39.454 81.475H30.4a.218.218 0 1 1 0-.435h9.053a.218.218 0 1 1 0 .435M34.927 59.653a8.7 8.7 0 0 0-6.192 2.565 8.7 8.7 0 0 0-2.565 6.192 8.7 8.7 0 0 0 2.565 6.193 8.7 8.7 0 0 0 6.192 2.565 8.7 8.7 0 0 0 6.192-2.565 8.7 8.7 0 0 0 2.565-6.193 8.7 8.7 0 0 0-2.565-6.192 8.7 8.7 0 0 0-6.192-2.565m0 17.612a8.796 8.796 0 0 1-6.26-2.594 8.796 8.796 0 0 1-2.594-6.26c0-2.366.92-4.59 2.593-6.262a8.797 8.797 0 0 1 6.261-2.593c2.365 0 4.589.921 6.261 2.593a8.797 8.797 0 0 1 2.594 6.261 8.796 8.796 0 0 1-2.594 6.261 8.796 8.796 0 0 1-6.26 2.594" fill="#AEC3FF" mask="url(#b)"/>
        <path d="M42.027 68.41a7.061 7.061 0 0 1-1.235 4.003A7.1 7.1 0 0 1 27.988 66.9c0-.006.002-.011.003-.017a7.086 7.086 0 0 1 2.771-4.223 7.062 7.062 0 0 1 4.7-1.329 7.056 7.056 0 0 1 3.516 1.25h.001a7.123 7.123 0 0 1 2.794 3.943c.165.6.253 1.234.253 1.887" fill="#AEC3FF" mask="url(#b)"/>
        <path d="M32.515 65.233c-.283.448.118 1.227-.732 1.015-.85-.213-1.37-.307-1.416.165-.048.472.637.472.637.968s-.307.66-.779.424c-.472-.235-.608-.578-1.157-.365-.549.212-.868.07-.991-.354a.623.623 0 0 0-.089-.186l.004-.017a7.086 7.086 0 0 1 2.771-4.223 7.01 7.01 0 0 1 .45-.301.934.934 0 0 1 .712.37c.496.615.826.308.708 1.016s.071.803.472.78c.402-.024.874-.024.921.283.047.307-1.228-.024-1.51.425M35.455 69.482s-.626.201-.791-.236c-.166-.437.023-.531-.532-.66-.554-.13-.602-.508-.956-.461-.354.047-.177.189-.59.496-.413.306-.791.165-.78.731.013.567.626.656.75 1.027.124.372-.088.532.178.815.265.283.76.16.53.549-.23.39-.584.69-.407 1.293.178.602.054.637.355 1.062.3.425.885.567.974.283.088-.283-.408-.655-.248-.938.159-.283.425-.089.53-.514.107-.425.538-.425.573-.72.036-.295-.519-.744-.307-.932.213-.19.638.342.968-.13.331-.472.107-.85.45-1.299.341-.448-.461-.625-.697-.366M42.027 68.41a7.061 7.061 0 0 1-1.235 4.003.81.81 0 0 1-.568-.015c-.886-.354-.23-1.31.124-1.788.354-.479-.55-.266-1.204-.709-.655-.442.07-1.629-.602-1.434-.673.195-1.488.443-1.877-.212-.39-.656.354-.762.017-1.31-.336-.55.195-.869.868-.922.673-.053.584-.53 1.417-.602.832-.07.814.992 1.735.921.92-.07.88.142.88.142a.43.43 0 0 1 .192.04c.165.6.253 1.234.253 1.887M41.232 65.144c-.765.372-1.073-.641-1.727-.336-.66.307-.544-.284-1.064-.662-.52-.377-1.558.307-1.51-.283.046-.59.825-.425.99-.897.166-.472.922-.354.922-.354a.511.511 0 0 1 .137-.031 7.128 7.128 0 0 1 2.252 2.563M34.782 63.108s.401-.58-.236-.75c-.638-.171-.626.052-1.122 0-.496-.053-.69.33-.319.75.372.419.673 1.223 1.01.794.336-.428.271-.753.667-.794" fill="#94B0ED" mask="url(#b)"/>
    </g>
</svg>
