<svg width="103" height="91" viewBox="0 0 103 91" xmlns="http://www.w3.org/2000/svg" xmlns:xlink="http://www.w3.org/1999/xlink">
    <defs>
        <path d="M0 .928C.106.911 4.252.25 5.439 4.163c1.204 3.963 1.486 8.02 7.44 10.372 2.236.884 3.56.87 4.234.277.061-.054.118-.113.17-.178.874-1.094.207-3.547-.981-6.138C14.675 4.947 11.345 0 5.035 0 3.53 0 1.859.28 0 .928" id="a"/>
        <path d="M0 .174c1.448 1.35 2.278 3.11 3.079 4.813.424.9.824 1.751 1.3 2.508C5.39 9.098 7.53 10.526 8.65 11.2c.06-.054.117-.113.169-.178-1.09-.656-3.254-2.09-4.238-3.654-.47-.744-.867-1.588-1.287-2.481C2.48 3.163 1.643 1.382.16 0L0 .174z" id="d"/>
        <path d="M1.92 7.032c3.184 3.56 4.246 3.984 5.04 8.053l.054.281c.005-.01.05-.108.12-.28C7.876 13.265 11.445 3.151.536 0c0 0-1.873 3.391 1.384 7.032" id="g"/>
        <path d="M0 .087C.008.102.034.164.06.23c.161.398.586 1.452 1.276 2.22.667.74 2.79 4.868 2.436 8.385l.054.281c.005-.01.05-.108.12-.28.325-3.419-1.633-7.566-2.478-8.506C.798 1.587.38.553.224.164.185.068.167.024.154 0L0 .087z" id="j"/>
        <path id="m" d="M0 90.055h102.276V0H0z"/>
        <path id="p" d="M0 90.055h102.276V0H0z"/>
        <path d="M7.671 2.46c-.686.907-1.495.858-2.157.81-.803-.059-1.389-.117-1.275 1.526.363 5.247-6.04 1.65-3.086 7.129 2.954 5.478-2.608 3.097-.772 7.515 1.835 4.417-.544 9.686 2.218 7.52 0 0 2.432-5.333 4.94-6.983 2.509-1.65-1.502-3.608-.718-5.85 1.14-3.254 3.887-3.126 1.906-6.625-1.98-3.498 3.763-6.006.726-7.458A.429.429 0 0 0 9.267 0C8.44 0 7.67 2.46 7.67 2.46" id="r"/>
        <path d="M.195.222C.022.386-.125.708.163 1.308c.262.548.602.895.875 1.174.368.375.611.623.485 1.117-.03.116-.064.234-.099.351-.245.84-.524 1.793.914 2.439.305.137.583.246.829.342 1.003.394 1.61.632 2.293 2.076.133.28.25.544.362.8.54 1.222.948 2.147 2.062 2.147.154 0 .322-.018.506-.055.462-.093.764-.337.9-.724.322-.923-.425-2.422-1.032-3.145-.01-.012-1.026-1.254-.918-2.975.018-.288.048-.555.074-.79.077-.682.132-1.174-.16-1.502-.258-.29-.756-.415-1.665-.42-1.593-.007-2.223-.667-2.73-1.197-.214-.225-.417-.438-.664-.573C1.743.127 1.276 0 .891 0 .598 0 .352.073.195.222m5.809 9.305c-.114-.257-.231-.523-.365-.805-.718-1.515-1.387-1.777-2.4-2.175a17.854 17.854 0 0 1-.82-.339c-1.28-.575-1.05-1.366-.805-2.202.035-.12.07-.24.1-.358.155-.602-.15-.912-.534-1.304C.903 2.06.59 1.74.34 1.222.211.951.104.582.331.366c.3-.284 1.06-.206 1.77.181.219.12.403.313.616.536.532.557 1.194 1.25 2.872 1.258.835.004 1.303.113 1.517.353.233.263.182.718.112 1.348-.027.238-.057.508-.076.8-.113 1.803.92 3.062.964 3.115.6.716 1.281 2.14.997 2.953-.111.316-.364.516-.752.595-.17.034-.326.05-.468.05-.984 0-1.338-.8-1.88-2.028" id="u"/>
        <path d="M0 .195c.017.003 1.689.311 1.996 1.387.298 1.042.922 2.595 2.9 4.037 1.684 1.226 1.935 5.652 1.937 5.697l.198-.01c-.01-.187-.26-4.566-2.018-5.847-1.929-1.406-2.537-2.917-2.826-3.931C1.845.332.108.013.034 0L0 .195z" id="x"/>
        <path d="M1.431.05c-1.443.495.33 2.442-1.188 5.641s4.634 4.771 2.935 6.356c-1.7 1.584-1.42 2.263.297 2.846 1.716.583.993 5.487 2.643 6.546 1.65 1.06.264-3.105 1.782-7 1.518-3.894-3.564-.924-1.32-5.386 2.244-4.463-3.102-3.458-3.63-5.24C2.462 2.171 2.644 0 1.7 0a.837.837 0 0 0-.27.05" id="A"/>
        <path id="D" d="m0 0 1.784 6.77h3.988L7.556 0z"/>
        <path d="m0 0 1.784 6.77h1.844C3.628.737 7.556 0 7.556 0H0z" id="G"/>
        <path id="J" d="M0 0h4.207v2.008H0z"/>
        <path id="L" d="M0 90.055h102.276V0H0z"/>
        <path d="M11.288.055c-2.293.211-3.712 1.04-4.964 1.77-1.077.628-2.007 1.171-3.268 1.177C.496 3.014.003 2.04 0 2.03v.557c.013.053.798.92 3.059.843 1.399-.048 2.432-.609 3.524-1.246C7.79 1.48 9.158.68 11.337.48c3.412-.314 5.974.832 8.45 1.94 2.007.897 3.931 1.758 6.145 1.758.816 0 1.547-.073 2.46-.349v-.457c-3.204.966-5.737-.148-8.393-1.335C17.755 1.034 15.444 0 12.484 0c-.387 0-.785.018-1.196.055" id="N"/>
        <path d="M22.126.222c-2.127.549-4.29 2.052-6.583 3.63-3.028 2.083-4.772.753-6.791-.787-.996-.759-2.025-1.544-3.264-1.931C3.532.522 2.114.78 1.268 1.107.34 1.465.02 1.84 0 1.861v.628c.016-.019 1.815-2.08 5.332-.951 1.152.37 2.15 1.12 3.112 1.854 1.269.967 2.565 1.956 4.2 1.956.933 0 1.976-.323 3.188-1.156 4.574-3.146 8.247-5.615 12.56-1.718l.015-.57C26.923.57 25.365 0 23.821 0a6.77 6.77 0 0 0-1.695.222" id="Q"/>
        <linearGradient x1="-126.979%" y1="50%" x2="-126.845%" y2="50%" id="b">
            <stop stop-color="#3FD4E6" offset="0%"/>
            <stop stop-color="#5477FF" offset="100%"/>
        </linearGradient>
        <linearGradient x1="-350.63%" y1="50%" x2="-350.361%" y2="50%" id="e">
            <stop stop-color="#3FD4E6" offset="0%"/>
            <stop stop-color="#5477FF" offset="100%"/>
        </linearGradient>
        <linearGradient x1="-369.236%" y1="50%" x2="-368.95%" y2="50%" id="h">
            <stop stop-color="#3FD4E6" offset="0%"/>
            <stop stop-color="#5477FF" offset="100%"/>
        </linearGradient>
        <linearGradient x1="-848.115%" y1="50%" x2="-847.52%" y2="50%" id="k">
            <stop stop-color="#3FD4E6" offset="0%"/>
            <stop stop-color="#5477FF" offset="100%"/>
        </linearGradient>
        <linearGradient x1="0%" y1="50%" x2="100%" y2="50%" id="o">
            <stop stop-color="#3FD4E6" offset="0%"/>
            <stop stop-color="#5477FF" offset="100%"/>
        </linearGradient>
        <linearGradient x1="-219.256%" y1="50%" x2="-219.028%" y2="50%" id="s">
            <stop stop-color="#3FD4E6" offset="0%"/>
            <stop stop-color="#5477FF" offset="100%"/>
        </linearGradient>
        <linearGradient x1="-171.917%" y1="50%" x2="-171.664%" y2="50%" id="v">
            <stop stop-color="#3FD4E6" offset="0%"/>
            <stop stop-color="#5477FF" offset="100%"/>
        </linearGradient>
        <linearGradient x1="-250.894%" y1="50%" x2="-250.557%" y2="50%" id="y">
            <stop stop-color="#3FD4E6" offset="0%"/>
            <stop stop-color="#5477FF" offset="100%"/>
        </linearGradient>
        <linearGradient x1="-232.309%" y1="50%" x2="-232.019%" y2="50%" id="B">
            <stop stop-color="#3FD4E6" offset="0%"/>
            <stop stop-color="#5477FF" offset="100%"/>
        </linearGradient>
        <linearGradient x1="-284.985%" y1="50%" x2="-284.672%" y2="50%" id="E">
            <stop stop-color="#FF933F" offset="0%"/>
            <stop stop-color="#FFCD44" offset="100%"/>
        </linearGradient>
        <linearGradient x1="-284.985%" y1="50%" x2="-284.672%" y2="50%" id="H">
            <stop stop-color="#C87231" offset="0%"/>
            <stop stop-color="#FFCD44" offset="100%"/>
        </linearGradient>
        <linearGradient x1="0%" y1="50%" x2="100%" y2="50%" id="O">
            <stop stop-color="#3FD4E6" offset="0%"/>
            <stop stop-color="#5477FF" offset="100%"/>
        </linearGradient>
        <linearGradient x1="0%" y1="50%" x2="100%" y2="50%" id="R">
            <stop stop-color="#3FD4E6" offset="0%"/>
            <stop stop-color="#5477FF" offset="100%"/>
        </linearGradient>
    </defs>
    <g fill="none" fill-rule="evenodd">
        <path d="M0 56.644S11.477 89.551 55.432 86.46c43.954-3.091 51.898-31.092 44.304-44.034C86.835 20.438 31.379 21.444 36.383 0H0v56.644z" fill="#FFF"/>
        <g transform="translate(9.84 34.29)">
            <mask id="c" fill="#fff">
                <use xlink:href="#a"/>
            </mask>
            <path d="M0 .928C.106.911 4.252.25 5.439 4.163c1.204 3.963 1.486 8.02 7.44 10.372 2.236.884 3.56.87 4.234.277.061-.054.118-.113.17-.178.874-1.094.207-3.547-.981-6.138C14.675 4.947 11.345 0 5.035 0 3.53 0 1.859.28 0 .928" fill="url(#b)" mask="url(#c)"/>
        </g>
        <g transform="translate(18.305 37.902)">
            <mask id="f" fill="#fff">
                <use xlink:href="#d"/>
            </mask>
            <path d="M0 .174c1.448 1.35 2.278 3.11 3.079 4.813.424.9.824 1.751 1.3 2.508C5.39 9.098 7.53 10.526 8.65 11.2c.06-.054.117-.113.169-.178-1.09-.656-3.254-2.09-4.238-3.654-.47-.744-.867-1.588-1.287-2.481C2.48 3.163 1.643 1.382.16 0L0 .174z" fill="url(#e)" mask="url(#f)"/>
        </g>
        <g transform="translate(17.974 28.76)">
            <mask id="i" fill="#fff">
                <use xlink:href="#g"/>
            </mask>
            <path d="M1.92 7.032c3.184 3.56 4.246 3.984 5.04 8.053l.054.281c.005-.01.05-.108.12-.28C7.876 13.265 11.445 3.151.536 0c0 0-1.873 3.391 1.384 7.032" fill="url(#h)" mask="url(#i)"/>
        </g>
        <g transform="translate(21.162 33.01)">
            <mask id="l" fill="#fff">
                <use xlink:href="#j"/>
            </mask>
            <path d="M0 .087C.008.102.034.164.06.23c.161.398.586 1.452 1.276 2.22.667.74 2.79 4.868 2.436 8.385l.054.281c.005-.01.05-.108.12-.28.325-3.419-1.633-7.566-2.478-8.506C.798 1.587.38.553.224.164.185.068.167.024.154 0L0 .087z" fill="url(#k)" mask="url(#l)"/>
        </g>
        <g>
            <path d="m86.98 27.118-1.345-2.201a.383.383 0 1 1 .654-.4l.95 1.557 2.528-1.496a.383.383 0 0 1 .39.66l-3.177 1.88z" fill="#EEF0F7"/>
            <path d="M87.882 21.532a4.15 4.15 0 0 0-4.144 4.144 4.15 4.15 0 0 0 4.144 4.145 4.15 4.15 0 0 0 4.145-4.145 4.15 4.15 0 0 0-4.145-4.144m0 8.98a4.84 4.84 0 0 1-4.835-4.836 4.84 4.84 0 0 1 4.835-4.835 4.84 4.84 0 0 1 4.835 4.835 4.84 4.84 0 0 1-4.835 4.836" fill="#EEF0F7"/>
            <path d="m72.005 20.007-.83-1.36a.237.237 0 0 1 .403-.247l.588.962 1.562-.925a.237.237 0 0 1 .241.407l-1.964 1.163z" fill="#F0F0F0"/>
            <path d="M72.563 16.554a2.564 2.564 0 0 0-2.561 2.562 2.564 2.564 0 0 0 2.561 2.56 2.564 2.564 0 0 0 2.561-2.56 2.564 2.564 0 0 0-2.56-2.562m0 5.55a2.991 2.991 0 0 1-2.989-2.988 2.991 2.991 0 0 1 2.988-2.988 2.991 2.991 0 0 1 2.988 2.988 2.991 2.991 0 0 1-2.988 2.988M56.64 14.985 55.365 12.9a.363.363 0 0 1 .62-.379l.901 1.476 2.396-1.418a.363.363 0 1 1 .37.625l-3.012 1.782z" fill="#F0F0F0"/>
            <path d="M57.496 9.69a3.933 3.933 0 0 0-3.93 3.929 3.933 3.933 0 0 0 3.93 3.929 3.933 3.933 0 0 0 3.928-3.93 3.933 3.933 0 0 0-3.928-3.928m0 8.512a4.589 4.589 0 0 1-4.584-4.583 4.589 4.589 0 0 1 4.584-4.584 4.589 4.589 0 0 1 4.583 4.584 4.589 4.589 0 0 1-4.583 4.583" fill="#F0F0F0"/>
            <path d="m43.159 19.988-.843-1.38a.24.24 0 1 1 .41-.25l.596.976 1.583-.937a.24.24 0 0 1 .244.412l-1.99 1.179z" fill="#F0C141"/>
            <path d="M43.724 16.488a2.599 2.599 0 0 0-2.596 2.596 2.599 2.599 0 0 0 2.596 2.597 2.599 2.599 0 0 0 2.596-2.597 2.599 2.599 0 0 0-2.596-2.596m0 5.625a3.032 3.032 0 0 1-3.029-3.029 3.032 3.032 0 0 1 3.03-3.028 3.032 3.032 0 0 1 3.028 3.028 3.032 3.032 0 0 1-3.029 3.03M31.327 13.364l-1.055-1.726a.3.3 0 1 1 .513-.313l.746 1.22 1.982-1.173a.3.3 0 1 1 .305.517l-2.491 1.475z" fill="#F0C141"/>
            <path d="M32.035 8.984a3.254 3.254 0 0 0-3.25 3.25 3.254 3.254 0 0 0 3.25 3.25 3.254 3.254 0 0 0 3.25-3.25 3.254 3.254 0 0 0-3.25-3.25m0 7.041c-2.091 0-3.792-1.701-3.792-3.792 0-2.09 1.7-3.791 3.792-3.791 2.09 0 3.791 1.7 3.791 3.791s-1.7 3.792-3.791 3.792M17.897 21.945l-1.17-1.913a.333.333 0 1 1 .57-.348l.826 1.354 2.197-1.3a.333.333 0 0 1 .34.572l-2.763 1.635z" fill="#F0C141"/>
            <path d="M18.681 17.089a3.607 3.607 0 0 0-3.603 3.603 3.607 3.607 0 0 0 3.603 3.603 3.607 3.607 0 0 0 3.603-3.603 3.607 3.607 0 0 0-3.603-3.603m0 7.806a4.208 4.208 0 0 1-4.203-4.203 4.208 4.208 0 0 1 4.203-4.204 4.208 4.208 0 0 1 4.204 4.204 4.208 4.208 0 0 1-4.204 4.203M82.024 14.077l-.665-1.088a.19.19 0 1 1 .323-.198l.47.77 1.25-.74a.19.19 0 1 1 .193.326l-1.571.93z" fill="#F0C141"/>
            <path d="M82.47 11.315c-1.13 0-2.049.92-2.049 2.049 0 1.13.92 2.049 2.049 2.049 1.13 0 2.049-.92 2.049-2.05 0-1.129-.92-2.048-2.05-2.048m0 4.44a2.393 2.393 0 0 1-2.39-2.391 2.393 2.393 0 0 1 2.39-2.39 2.393 2.393 0 0 1 2.391 2.39 2.393 2.393 0 0 1-2.39 2.39" fill="#F0C141"/>
            <mask id="n" fill="#fff">
                <use xlink:href="#m"/>
            </mask>
            <path fill="#8F8F8F" mask="url(#n)" d="M48.575 80.396h6.593V60.373h-6.593z"/>
            <path d="M26.304 70.018h51.135c1.6 0 2.896-1.296 2.896-2.895V32.755c0-1.599-1.297-2.895-2.896-2.895H26.304a2.895 2.895 0 0 0-2.895 2.895v34.368c0 1.599 1.296 2.895 2.895 2.895" fill="#F0F0F0" mask="url(#n)"/>
            <path fill="#FFF" mask="url(#n)" d="M25.638 63.725h52.467v-38.14H25.638z"/>
        </g>
        <path fill="url(#o)" d="M25.638 30.192h52.467v-4.606H25.638z"/>
        <g>
            <path d="M71.72 66.605c0 1.014.967 1.836 2.16 1.836 1.192 0 2.158-.822 2.158-1.836 0-1.015-.966-1.837-2.159-1.837-1.192 0-2.159.822-2.159 1.837" fill="#CCC"/>
            <mask id="q" fill="#fff">
                <use xlink:href="#p"/>
            </mask>
            <path fill="#CCC" mask="url(#q)" d="M37.042 81.152h29.659V79.64H37.042z"/>
            <path d="M34.687 28.76h-6.232a.626.626 0 0 1-.626-.626v-.49c0-.345.28-.625.626-.625h6.232c.346 0 .626.28.626.625v.49c0 .345-.28.625-.626.625" fill="#F5F7FF" mask="url(#q)"/>
            <path fill="#E6E6E6" mask="url(#q)" d="M29.482 47.187h27.47v-.944h-27.47zM29.482 48.887h20.374v-.944H29.482zM29.482 52.583h12.919v-.944H29.482zM29.482 54.283h23.21v-.944h-23.21zM29.482 58.347h21.742v-.944H29.482zM29.482 60.047h26.55v-.944h-26.55z"/>
            <path fill="#78C2FF" mask="url(#q)" d="M28.142 48.887h.69v-2.644h-.69zM28.142 54.283h.69V51.64h-.69zM28.142 60.047h.69v-2.644h-.69zM66.075 61.238h-2.2a.792.792 0 0 1-.792-.791v-2.2c0-.438.354-.792.792-.792h2.2c.437 0 .791.354.791.791v2.2a.792.792 0 0 1-.791.792"/>
            <path d="m64.855 60.18-.957-.834a.188.188 0 1 1 .248-.284l.676.59.965-1.076a.188.188 0 0 1 .28.251l-1.212 1.353z" fill="#F3F3F3" mask="url(#q)"/>
            <path d="M63.943 51.929a.623.623 0 0 0-.622.622v2.063c0 .343.28.622.622.622h2.063c.343 0 .622-.28.622-.622V52.55a.623.623 0 0 0-.622-.622h-2.063zm2.063 3.547h-2.063a.863.863 0 0 1-.862-.862V52.55c0-.475.387-.862.862-.862h2.063c.476 0 .862.387.862.862v2.063a.863.863 0 0 1-.862.862zM69.64 57.693a.623.623 0 0 0-.622.622v2.063c0 .343.279.622.622.622h2.063c.343 0 .622-.28.622-.622v-2.063a.623.623 0 0 0-.622-.622H69.64zm2.063 3.547H69.64a.863.863 0 0 1-.862-.862v-2.063c0-.475.387-.862.862-.862h2.063c.475 0 .862.387.862.862v2.063a.863.863 0 0 1-.862.862zM71.771 55.474h-2.2a.792.792 0 0 1-.791-.791v-2.2c0-.438.354-.792.791-.792h2.2c.438 0 .792.354.792.791v2.2a.792.792 0 0 1-.792.792" fill="#78C2FF" mask="url(#q)"/>
            <path d="m70.552 54.416-.957-.834a.188.188 0 0 1 .248-.284l.676.59.965-1.076a.188.188 0 0 1 .28.251l-1.212 1.353z" fill="#F3F3F3" mask="url(#q)"/>
            <path d="M69.64 46.165a.623.623 0 0 0-.622.622v2.063c0 .343.279.622.622.622h2.063c.343 0 .622-.28.622-.622v-2.063a.623.623 0 0 0-.622-.622H69.64zm2.063 3.547H69.64a.863.863 0 0 1-.862-.862v-2.063c0-.475.387-.862.862-.862h2.063c.475 0 .862.387.862.862v2.063a.863.863 0 0 1-.862.862zM66.075 49.71h-2.2a.792.792 0 0 1-.792-.791v-2.2c0-.438.354-.792.792-.792h2.2c.437 0 .791.354.791.791v2.2a.792.792 0 0 1-.791.792" fill="#78C2FF" mask="url(#q)"/>
            <path d="m64.855 48.652-.957-.834a.188.188 0 1 1 .248-.284l.676.59.965-1.076a.188.188 0 0 1 .28.251l-1.212 1.353z" fill="#F3F3F3" mask="url(#q)"/>
        </g>
        <g transform="translate(10.1 51.074)">
            <mask id="t" fill="#fff">
                <use xlink:href="#r"/>
            </mask>
            <path d="M7.671 2.46c-.686.907-1.495.858-2.157.81-.803-.059-1.389-.117-1.275 1.526.363 5.247-6.04 1.65-3.086 7.129 2.954 5.478-2.608 3.097-.772 7.515 1.835 4.417-.544 9.686 2.218 7.52 0 0 2.432-5.333 4.94-6.983 2.509-1.65-1.502-3.608-.718-5.85 1.14-3.254 3.887-3.126 1.906-6.625-1.98-3.498 3.763-6.006.726-7.458A.429.429 0 0 0 9.267 0C8.44 0 7.67 2.46 7.67 2.46" fill="url(#s)" mask="url(#t)"/>
        </g>
        <path d="M11.824 76.027c1.198-.842 2.599-6.71 2.682-10.205.043-1.79.572-2.536 1.04-3.194.446-.629.831-1.172.607-2.42-.43-2.383.699-3.412.71-3.422l-.13-.15c-.05.045-1.226 1.106-.775 3.608.21 1.165-.136 1.652-.574 2.27-.46.647-1.031 1.453-1.076 3.304-.09 3.75-1.522 9.29-2.598 10.047l.114.162z" fill="#FFF"/>
        <g transform="translate(3.492 64.708)">
            <mask id="w" fill="#fff">
                <use xlink:href="#u"/>
            </mask>
            <path d="M.195.222C.022.386-.125.708.163 1.308c.262.548.602.895.875 1.174.368.375.611.623.485 1.117-.03.116-.064.234-.099.351-.245.84-.524 1.793.914 2.439.305.137.583.246.829.342 1.003.394 1.61.632 2.293 2.076.133.28.25.544.362.8.54 1.222.948 2.147 2.062 2.147.154 0 .322-.018.506-.055.462-.093.764-.337.9-.724.322-.923-.425-2.422-1.032-3.145-.01-.012-1.026-1.254-.918-2.975.018-.288.048-.555.074-.79.077-.682.132-1.174-.16-1.502-.258-.29-.756-.415-1.665-.42-1.593-.007-2.223-.667-2.73-1.197-.214-.225-.417-.438-.664-.573C1.743.127 1.276 0 .891 0 .598 0 .352.073.195.222m5.809 9.305c-.114-.257-.231-.523-.365-.805-.718-1.515-1.387-1.777-2.4-2.175a17.854 17.854 0 0 1-.82-.339c-1.28-.575-1.05-1.366-.805-2.202.035-.12.07-.24.1-.358.155-.602-.15-.912-.534-1.304C.903 2.06.59 1.74.34 1.222.211.951.104.582.331.366c.3-.284 1.06-.206 1.77.181.219.12.403.313.616.536.532.557 1.194 1.25 2.872 1.258.835.004 1.303.113 1.517.353.233.263.182.718.112 1.348-.027.238-.057.508-.076.8-.113 1.803.92 3.062.964 3.115.6.716 1.281 2.14.997 2.953-.111.316-.364.516-.752.595-.17.034-.326.05-.468.05-.984 0-1.338-.8-1.88-2.028" fill="url(#v)" mask="url(#w)"/>
        </g>
        <g transform="translate(5.028 66.29)">
            <mask id="z" fill="#fff">
                <use xlink:href="#x"/>
            </mask>
            <path d="M0 .195c.017.003 1.689.311 1.996 1.387.298 1.042.922 2.595 2.9 4.037 1.684 1.226 1.935 5.652 1.937 5.697l.198-.01c-.01-.187-.26-4.566-2.018-5.847-1.929-1.406-2.537-2.917-2.826-3.931C1.845.332.108.013.034 0L0 .195z" fill="url(#y)" mask="url(#z)"/>
        </g>
        <g transform="translate(6.41 55.486)">
            <mask id="C" fill="#fff">
                <use xlink:href="#A"/>
            </mask>
            <path d="M1.431.05c-1.443.495.33 2.442-1.188 5.641s4.634 4.771 2.935 6.356c-1.7 1.584-1.42 2.263.297 2.846 1.716.583.993 5.487 2.643 6.546 1.65 1.06.264-3.105 1.782-7 1.518-3.894-3.564-.924-1.32-5.386 2.244-4.463-3.102-3.458-3.63-5.24C2.462 2.171 2.644 0 1.7 0a.837.837 0 0 0-.27.05" fill="url(#B)" mask="url(#C)"/>
        </g>
        <path d="M11.762 76.739c.157-.667 1.5-6.534.247-7.243-1.104-.625-1.077-3.056-.905-5.352.153-2.032-2.457-2.982-2.568-3.021l-.066.186c.025.01 2.578.94 2.437 2.82-.177 2.358-.196 4.86 1.004 5.54.951.538.076 5.253-.342 7.024l.193.046z" fill="#FFF"/>
        <g transform="translate(8.921 74.65)">
            <mask id="F" fill="#fff">
                <use xlink:href="#D"/>
            </mask>
            <path fill="url(#E)" mask="url(#F)" d="m0 0 1.784 6.77h3.988L7.556 0z"/>
        </g>
        <g transform="translate(8.921 74.65)">
            <mask id="I" fill="#fff">
                <use xlink:href="#G"/>
            </mask>
            <path d="m0 0 1.784 6.77h1.844C3.628.737 7.556 0 7.556 0H0z" fill="url(#H)" mask="url(#I)"/>
        </g>
        <g>
            <path d="M47.726 70.157s.137.225.154.409c.014.145.136.362.189.482.053.12.223.664.23.805.002.057-.127.422-.109.538.018.117.085.347-.02.363-.104.015-.223-.174-.223-.174s.01.107-.078.148c-.173.08-.264.01-.264.01s-.063.117-.143.133c-.175.035-.262-.035-.262-.035s-.077.066-.198.064c-.156-.003-.22-.137-.22-.137s-.198.04-.255-.052c-.057-.092-.047-.19-.07-.273-.024-.083-.006-.834.249-1.375.255-.54-.065-1.067-.065-1.067l1.085.161z" fill="#EEA886"/>
            <path d="M47.975 72.51s.017-.674-.16-.818c-.177-.143-.197.1-.197.1s.024-.24-.17-.273c-.194-.032-.202.253-.202.253s-.032-.185-.235-.147c-.204.038-.155.275-.155.275s-.195-.232-.32-.01c-.214.377-.009.82-.009.82s.06.103.254.053c0 0 .13.26.42.073 0 0 .296.163.404-.098 0 0 .328.155.37-.229" fill="#DB9C7C"/>
            <path d="M50.011 60.453s-1.153 3.844-1.543 5.261c-.122.445-.418 4.692-.47 4.863-.052.17-1.515.405-1.515.405s.177-5.313.194-5.602c.016-.29 1.614-6.222 2.078-6.434.348-.159.532-.027.97.298.616.457.286 1.209.286 1.209" fill="#323657"/>
            <path fill="#4DA8F2" d="m61.386 55.265-.128-.196 2.64-1.728.128.196z"/>
            <path d="M64.307 54.334s-.025.15-.068.21c0 0-.086.103-.143.18a.644.644 0 0 0-.042.06c-.034.064-.092.212-.218.34-.125.127-.615.533-.615.533l-.42-.356-.435-.196s.244-1.06.347-1.192a.417.417 0 0 1 .032-.036c.098-.104.215-.14.273-.188.021-.018.245-.18.325-.158.11.028.176.093.201.168 0 0 .215.066.299.192 0 0 .2.054.259.24 0 0 .197.078.205.203" fill="#EFAA88"/>
            <path d="M49.075 86.697s-.105.73-.118.84c-.013.109-1.17-.065-1.17-.065l-.093-.869s1.237-.009 1.381.094" fill="#424773"/>
            <path d="M48.97 87.443s.366.44.72.632c.354.191.911.267 1.12.466.152.143.552.76-.92.747-1.472-.012-2.181.087-2.339-.15-.158-.236.228-1.744.228-1.744s.349.126 1.19.05" fill="#292C47"/>
            <path d="M57.36 86.697s-.105.73-.118.84c-.013.109-1.17-.065-1.17-.065l-.093-.869s1.237-.009 1.381.094" fill="#424773"/>
            <path d="M57.254 87.443s.367.44.721.632c.354.191 1.658.349 1.868.547.151.143.403.72-1.668.666-1.471-.038-2.181.087-2.339-.15-.158-.236.228-1.744.228-1.744s.329.134 1.19.05M50.033 67.947s-1.087 1.727-1.006 3.287c.081 1.56-.394 3.264-.557 4.894-.182 1.817-.926 6.12-.953 7.091-.027.972.115 4.076.115 4.076l1.49.034s1.253-7.52 1.577-8.288c.324-.767 1.932-6.238 1.986-6.852.054-.614-2.652-4.242-2.652-4.242" fill="#292C47"/>
            <path d="M55.752 68.181s.819 4.277.927 5.232c.108.955.18 4.622.234 5.219.054.597.505 7.792.649 8.697h-1.906s-1.463-5.244-1.463-7.725c0-2.482-1.13-5.395-1.86-7.032-.729-1.637-2.399-1.676-2.847-4.713 0 0 5.66-.641 6.266.322" fill="#292C47"/>
            <path d="M51.846 53.434s1.458-.544 2.13.566c.673 1.11.608 3.332-.127 3.606-.735.273-1.84.13-2.216-.565-.376-.694-.716-1.698-.7-2.37.017-.67.53-1.043.913-1.237" fill="#EEA886"/>
            <path d="M53.69 57.656s-.06.394.04.588c.1.194-1.889.2-1.889.2s-.162-1.056-.468-1.947c-.306-.892 2.318 1.16 2.318 1.16" fill="#EEA886"/>
            <path d="M51.373 56.497s.138.226.698.138c.56-.087 1.245-.833 1.479-.915.234-.082.236-.22.236-.22l.146.215.249.015s-.227-.667.115-.939c.342-.272-.355-2.16-2.152-1.53 0 0-1.381.38-1.331 1.165.05.785.251 1.68.56 2.07" fill="#D88A51"/>
            <path d="M53.848 58.22s-.006-.37-.174-.405c-.168-.036-1.854-.198-2.06-.117v.432s.397.244 2.234.09" fill="#E2D2CA"/>
            <path d="M53.749 55.215c-.032-.132-.367-.508-.495-.105s.194.945.373.899c.18-.047.201-.46.122-.794" fill="#EEA886"/>
            <path d="M56.637 58.782c-1.156-.152-2.789-.561-2.789-.561l-2.234-.091s-2.051.451-2.859.816c-.076.035-.077 1.83-.287 2.3l.67 1.413s.387 2.799.467 4.043c.037.571-.798 5.358-.798 5.358s.894.263 2.42.431c1.525.168 5.335-.06 5.36-.24.023-.181-.739-6.708-.773-7.046-.051-.519.18-3.276.18-3.276.351-.273 3.443-1.708 4.287-2.456.225-.2 1.178-1.128 1.449-1.448.959-1.134 1.745-2.107 1.84-2.317.11-.12-1.041-.745-1.146-.78-.091-.03-1.387 1.65-1.886 2.19-.223.241-1.148.914-1.148.914s-2.03.791-2.753.75" fill="#323657"/>
            <path d="M51.43 53.565s-1.86.146-.057 2.932l.057-2.932z" fill="#D88A51"/>
            <path fill="#DFE1E8" d="m64.026 53.537.152-.233-.28.037z"/>
            <path d="M26.797 66.912s.904.055 1.158.196c.253.141 1.964-.398 1.995-.522.032-.125 0-.186 0-.186h-3.357l.204.512z" fill="#DE9673"/>
            <path d="M22.736 62.923s-.289 2.268 0 2.565c1.102 1.135 5.188 1.045 5.188 1.045l-.002.462s-6.21.774-6.787-.43c-.693-1.447-.424-3.808-.424-3.808l2.025.166z" fill="#DE9673"/>
            <path fill="#2F4563" d="m20.686 86.82.37-.42-.667-.697-.562.394z"/>
            <path d="M19.827 86.097s.76.572.971.595c.212.023.311.118.286.44-.025.322.31 1.679.542 1.7.233.022 1.025.026 1.169.549.144.522-2.514.412-2.679-.016-.164-.428-1.309-2.505-1.173-2.672.135-.167.494-.543.884-.596" fill="#1E2D40"/>
            <path d="M24.704 69.866s4.966 8.65 2.95 10.44c-.79.702-1.551 1.337-2.645 2.276-.582.5-1.284 1.078-2.116 1.944l-.034.037a139.142 139.142 0 0 0-1.249 1.318l-.017.018-.552.527-.811-.712s.919-1.272 1.437-2.25c.728-1.37 1.95-2.982 2.516-3.432.968-.77 1.235-.921 1.235-1.658 0-.79-4.552-5.202-4.552-5.202s-.66-2.762.917-3.484c1.537-.705 2.921.178 2.921.178" fill="#23344A"/>
            <path d="M20.917 88.16s-.031-.399.036-.653c.067-.255-1.028-.109-1.028-.109s-.141 1.064-.1 1.308c.04.243 1.092-.546 1.092-.546" fill="#41608A"/>
            <path d="m21.122 87.508-1.478.266s-.106-1.884-.087-3.328c.02-1.552-.057-2.773.417-4.008.443-1.156.342-1.596.381-2.385.039-.788-.379-4.85-.379-4.85s-.504-1.82.664-3.103c1.138-1.25 4.082-.005 4.082-.005s-.614 5.55-2.086 8.982c-.417.972-.192 1.562-.723 3.063 0 0-.807 3.274-.791 5.368" fill="#2F4563"/>
            <path d="M22.407 59.123c-.077.13-.134.298-.175.475-.039.167-.064.344-.08.507-.037.354-.03.645-.03.645s-1.97-.429-1.647-.888c.323-.46.133-1.853.133-1.853s2.054.684 1.8 1.114" fill="#EEA987"/>
            <path d="M23.516 55.328s.504.438.279 1.7c0 0 .111 1.005.265 1.18.154.175-.413.24-.473.366-.06.127-.172.717-.567 1.073-.396.357-2.353-.717-2.448-1.323-.095-.607-1.451-3.206.695-3.325 2.146-.12 2.249.329 2.249.329" fill="#EEA886"/>
            <path d="M24.866 64.638c-.04.127.11 2.069.097 2.236-.075.918.162 2.314.255 2.814l.035.178c-2.128 1.04-5.087.95-5.087.95.01-.08.424-1.08.435-1.157.175-1.25.433-1.82.363-2.664-.039-.475-.16-.971-.41-1.586-.722-1.775-.683-2.956-.565-3.932.117-.975.41-1.531.41-1.531l1.797.193c.382.422.721.648 1.805 1.61 1.154 1.025 1.356 1.335.865 2.89" fill="#EB4747"/>
            <path fill="#6E6760" d="M25.418 66.666h6.167v-.345h-6.167z"/>
            <path fill="#6E6760" d="m34.362 61.16-2.777 5.506-.308-.155 2.778-5.506z"/>
            <path fill="#EB4747" d="m20.399 59.946.126-.344 1.727.344v.305z"/>
            <path d="M26.324 65.669s.905-.07 1.158-.25c.254-.179 1.964.508 1.996.666.032.158 0 .236 0 .236H26.12l.204-.652zM21.699 62s.185-1.302-.721-1.416c-.906-.114-1.005 1.17-1.005 1.17l1.726.245z" fill="#EEA987"/>
            <path d="M23.848 56.574s.242-2.62-2.299-2.152c-2.54.467-1.23 3.331-.889 4.265 0 0-.041-1.45 1.182-1.497 1.223-.047 1.476-.33 2.006-.616" fill="#464240"/>
            <path d="M21.643 56.822c-.153-.266-.677-.124-.617.28.06.406.48.81.62.615.139-.196.222-.504-.003-.895M21.701 61.97s-.21 2.245.08 2.542c1.102 1.135 5.451 1.157 5.451 1.157l.208.652s-6.465.44-7.042-.764c-.694-1.447-.425-3.808-.425-3.808l1.728.22z" fill="#EEA987"/>
            <path d="M20.744 55.066s-.978-.938-1.674.125.826 2.546 1.443 1.666c.617-.88.231-1.79.231-1.79" fill="#464240"/>
            <path d="M22.232 59.598c-.039.167-.064.344-.08.507-.655-.299-1.145-1.21-1.145-1.21.474.408 1.225.703 1.225.703z" fill="#A77860"/>
            <g transform="translate(19.644 88.047)">
                <mask id="K" fill="#fff">
                    <use xlink:href="#J"/>
                </mask>
                <path d="M.114.383s1.04-.296 1.07-.325c.031-.03.038-.092.182-.035.143.058.202.275.343.344.14.069.999.32 1.469.55.17.084.888.358.992.587.104.23.071.573-1.163.492C1.77 1.914.42 2.088.15 1.953-.12 1.818.043.74.114.383" fill="#23344A" mask="url(#K)"/>
            </g>
            <mask id="M" fill="#fff">
                <use xlink:href="#L"/>
            </mask>
            <path d="M80.709 86.528s.105.736.118.847c.013.11 1.17-.065 1.17-.065l.093-.877s-1.236-.01-1.381.095" fill="#5C544D" mask="url(#M)"/>
            <path d="M80.815 87.281s-.366.444-.72.637c-.355.194-.912.27-1.121.47-.151.145-.55.768.92.755 1.472-.012 2.181.088 2.339-.15.158-.24-.228-1.762-.228-1.762s-.349.127-1.19.05" fill="#3C4145" mask="url(#M)"/>
            <path d="M72.425 86.528s.105.736.119.847c.013.11 1.169-.065 1.169-.065l.093-.877s-1.236-.01-1.38.095" fill="#5C544D" mask="url(#M)"/>
            <path d="M72.531 87.281s-.366.444-.72.637c-.355.194-1.658.353-1.868.553-.151.145-.403.727 1.668.672 1.47-.039 2.18.088 2.338-.15.158-.24-.228-1.762-.228-1.762s-.328.136-1.19.05" fill="#3C4145" mask="url(#M)"/>
            <path d="M80.298 67.512s.616 1.828.535 3.403c-.081 1.575.318 3.299.481 4.944.182 1.834.926 6.177.953 7.158.027.981-.115 4.114-.115 4.114l-1.49.035s-1.252-7.592-1.576-8.367c-.324-.774-1.932-6.297-1.986-6.916-.054-.62 3.198-4.37 3.198-4.37" fill="#33373B" mask="url(#M)"/>
            <path d="M74.033 67.838s-.819 4.316-.927 5.28c-.108.965-.18 4.666-.234 5.268-.054.603-.36 7.885-.648 8.78h1.905s1.463-5.294 1.463-7.798c0-2.505 1.13-5.446 1.86-7.098.728-1.653 2.398-1.692 2.846-4.758 0 0-5.658-.647-6.265.326" fill="#3C4145" mask="url(#M)"/>
            <path d="M77.905 53.084s-1.502-.561-2.194.582c-.693 1.143-.626 3.432.131 3.714.757.281 1.894.134 2.282-.582.388-.715.737-1.749.72-2.44-.016-.691-.544-1.075-.939-1.274" fill="#EEA886" mask="url(#M)"/>
            <path d="M76.094 57.31s.06.393-.04.587c-.1.194 1.89.199 1.89.199s.161-1.055.467-1.946c.306-.891-2.317 1.16-2.317 1.16" fill="#EEA886" mask="url(#M)"/>
            <path d="M78.411 56.15s-.137.226-.697.139c-.56-.088-1.245-.834-1.479-.916-.234-.082-.236-.22-.236-.22l-.146.215-.249.015s.227-.667-.115-.939c-.342-.272.355-2.159 2.152-1.53 0 0 1.38.38 1.33 1.165-.05.785-.25 1.68-.56 2.07" fill="#FCCCA2" mask="url(#M)"/>
            <path d="M75.937 57.874s.006-.37.174-.406c.168-.036 1.854-.198 2.06-.117v.432s-.397.244-2.234.09" fill="#E2D2CA" mask="url(#M)"/>
            <path d="M76.036 54.868c.032-.131.367-.508.495-.105s-.194.945-.373.899c-.18-.047-.201-.46-.122-.794" fill="#EEA886" mask="url(#M)"/>
            <path d="M75.937 57.874s-.925.332-1.995.787c0 0-1.232.46-1.365 1.82-.07.721-.84 4.552-.983 4.877-.144.324-1.849 5.531-1.909 5.64-.06.108 1.391.71 1.487.662.096-.048 1.65-4.75 1.807-5.098 0 0 .894-2.82.918-3.24 0 0 .026 1.198.074 1.535.048.336-.796 6.864-.772 7.044.024.18 3.834.409 5.36.24a18.672 18.672 0 0 0 2.754-.518s-1.2-5.152-1.163-5.723c.08-1.245.497-3.589.497-3.589l1.243 2.344-1.592 4.095.365 1.244s2.957-4.469 3.053-4.877c.096-.408-.145-.928-.3-1.265-.157-.336-1.182-2.895-1.422-3.255-.24-.36-.646-1.802-1.627-2.204-.82-.335-2.196-.61-2.196-.61l-2.234.09z" fill="#EB4747" mask="url(#M)"/>
            <path fill="#D6D6D6" mask="url(#M)" d="m73.903 73.358-6.967-1.787 1.246-4.86 6.967 1.786z"/>
            <path d="M69.078 72.06s-.199.322-.271.414c-.073.092.178.15.286.056.108-.093-.015-.47-.015-.47" fill="#C98462" mask="url(#M)"/>
            <path d="M70.53 73.16s.117-.123.142-.202c0 0 .035-.147.066-.25.01-.032.02-.06.028-.078.033-.073.129-.224.16-.423.03-.199.117-1.09.117-1.09l-.54-.136-.434-.092s-.936.935-.986 1.116a.48.48 0 0 0-.012.053c-.027.158.019.287.014.371-.002.032.003.341.075.4.1.08.202.095.286.068 0 0 .203.15.373.14 0 0 .182.144.39.073 0 0 .202.125.32.05" fill="#DE9D7D" mask="url(#M)"/>
            <path d="M72.636 67.522s-1.237 3.745-1.464 4.138c0 0-.907-.19-1.487-.662l1.358-4.042 1.593.566z" fill="#EB4747" mask="url(#M)"/>
            <path d="M99.063 71.993s-.05-.863-.279-.996c-.228-.134-.096.132-.096.132s.128.626.157.88c0 .012.218-.016.218-.016" fill="#1D3B54" mask="url(#M)"/>
            <path d="M92.986 53.857s2.144-.178 2.085 2.077c-.058 2.256-.416 2.595.002 4.19.417 1.593-2.091-.906-2.091-.906l.004-5.361z" fill="#434343" mask="url(#M)"/>
            <path d="M91.182 59.952s-3.037 1.895-3.294 1.694c-.36-.282-1.336-2.687-1.336-2.687l-.764.364s.912 4.158 2.14 3.852c1.228-.306 4.048-2.05 4.048-2.05l-.794-1.173zM95.322 67.796s.79 1.006 1.068 1.672c.28.666.744 2.125.682 3.256-.062 1.13-.434 3.251-.325 3.73.108.48.216 1.472.332 1.812.117.341.581 1.332.628 2.354.046 1.022-.65 5.512-.62 5.93.031.418-.79.17-.79.17s-.278-4.056-.433-4.753c-.155-.697-.34-3.066-.48-3.236-.14-.17-.52-1.935-.461-2.214.058-.279-1.52-4.46-1.614-5.295-.093-.836-2.421-3.426-2.421-3.426s2.034-.778 4.434 0" fill="#EEA987" mask="url(#M)"/>
            <path d="M91.554 67.796s-.04.422-.087.577c-.047.155-1.115 4.103-1.223 5.62-.109 1.517-.387 2.804-.434 3.129-.046.324.047 1.408.14 1.686.092.279-.465 6.86-.511 7.014-.047.155.371.201.665.155.295-.046 1.78-4.83 1.688-5.636-.093-.805-.186-2.522.077-3.22.264-.697 2.633-5.744 2.648-6.054.016-.31 1.025-5.644-2.963-3.271M96.312 86.226s-.076.535-.16.68c-.083.147-.312.89-.416 1.028-.104.139-.333 1.18 0 1.305s1.118.333 1.381-.083c.264-.417.299-.833.257-1.152-.041-.32-.358-1.785-.354-1.93.005-.145-.708.152-.708.152" fill="#EEA987" mask="url(#M)"/>
            <path d="M95.869 87.646s-.036.809.575.809.882-.736.882-.736.208.36 0 1.131c-.209.771-1.076.611-1.27.584-.195-.028-1.116-.272-.187-1.788M89.505 85.5s-.432.772-.689.929c-.32.195-.94.82-1.156.85-.217.028-.995.166-.845.606.123.36 1.98.309 2.19.128.21-.18.836-.829 1.089-.814.253.014.159.935.159.935h.274s.096-.896.108-1.05c.034-.456-.291-.79-.306-1.05-.014-.26-.029-.455-.029-.455l-.795-.08z" fill="#EB4747" mask="url(#M)"/>
            <path d="M87.722 87.257s.612.212 1.084-.06c.47-.27 1.375-.681 1.695-.684 0 0-.174-.533-.178-.593l-.023-.34-.79-.127s-.513.753-.74.93c-.225.177-.804.62-1.048.874" fill="#EEA987" mask="url(#M)"/>
            <path d="M90.875 67.726s-.22.918-.302 1.185c-.082.267-.603 4.41-.732 7.002 0 0 3.124 1.184 7.42.987 0 0 .105-4.761-.29-6.108-.395-1.347-1.11-2.607-1.649-2.996-.48-.346-4.447-.07-4.447-.07" fill="#EB4747" mask="url(#M)"/>
            <path d="M98.006 70.051s-.064.387-.181.76c-.117.372-.225.491-.178.705.035.161.218.282.264.23.046-.051.068-.678.328-.675.26.003-.078.776.077.72.154-.058.75-.383.712-.7-.037-.315-.275-.544-.26-1.016.014-.428-.12-.607-.12-.607l-.642.583z" fill="#EEA987" mask="url(#M)"/>
            <path d="M85.582 59.138s.362.471.586.521c.223.05.463-.493.463-.493l-.129-.468-.92.44z" fill="#EEA886" mask="url(#M)"/>
            <path d="M86.477 58.98s.173-.543.197-.626c.024-.084-.06-.33-.215-.564a5.003 5.003 0 0 0-.404-.544c-.034-.034-.053-.072-.166-.021-.113.05-.18.156-.18.156s-.17-.003-.243.133c0 0-.16.005-.217.173 0 0-.156.01-.188.135 0 0 .075.232.078.326.003.094.192.566.443.99 0 0 .373.321.895-.157" fill="#EEA886" mask="url(#M)"/>
            <path d="M86.079 58.275s-.187.217-.209.305c-.022.087-.568-.238-.568-.238s.507-.287.777-.067" fill="#CF8C6C" mask="url(#M)"/>
            <path d="M86.084 57.301s.302.64.2.695c-.1.056-.171.014-.171.014l-.016.321s-.13.207-.318.004c0 0-.101.206-.258-.011 0 0-.128.106-.219.018-.09-.088-.24-.52-.24-.52s.009-.106.187-.135c0 0 .046-.164.217-.173 0 0 .097-.168.281-.176 0 0 .106-.15.308-.092 0 0 .018.027.029.055" fill="#DB9C7C" mask="url(#M)"/>
            <path d="M86.668 58.332s-.366-.322-.643-.41c-.063-.02-.128-.028-.17.023-.042.05-.022.176.13.324.151.147.28.408.28.408s.2.106.403-.345" fill="#EEA886" mask="url(#M)"/>
            <path d="M85.747 57.338s.374.666.37.744c-.004.078.245-.055.244-.122-.001-.067-.27-.66-.306-.714-.035-.055-.24-.095-.308.092" fill="#EEA886" mask="url(#M)"/>
            <path d="M86.132 57.374s-.596-1.112-.684-1.071c-.127.059-.093.367.41 1.197.488.806.274-.126.274-.126" fill="#EEA886" mask="url(#M)"/>
            <path d="m91.02 62.257-1.228-1.628s2.193-1.698 2.87-.618c0 0 .048 1.78-1.643 2.246" fill="#323657" mask="url(#M)"/>
            <path d="M90.282 62.199c.035.546.314.999.36 1.196.047.197 0 .65.058 1.103.059.453.233 2.613.175 3.228-.058.616 4.224.338 4.55.152 0 0-.722-1.29-.741-1.824-.007-.183-.117-.755.185-1.173.16-.22.455-.923.75-1.436 0 0-.054-.107 0 0 .115-.2.235-.398.318-.546.11-.193.17-.421.17-.421s.19-2.37-.332-2.636c-.522-.267-.801-.314-1.312-.337a3.71 3.71 0 0 1-.848-.128l-1.196.128s-.766.267-1.068.29c-.302.023-.685.674-.65 1.092.034.418-.453.766-.419 1.312" fill="#323657" mask="url(#M)"/>
            <path d="M98.213 71.045s-.346.088-.325 1.258l.391-.066s-.007-.646.11-.999c0 0-.02-.228-.176-.193" fill="#1D3B54" mask="url(#M)"/>
            <path fill="#1D3B54" mask="url(#M)" d="m96.777 72.567 3.05-.865-.009 3.756-3.035 1.819z"/>
            <path fill="#1D3B54" mask="url(#M)" d="m96.783 77.277.382.07 2.952-1.835-.036-3.793-.254-.017z"/>
            <path d="M95.267 59.624s.95-.003 1.379.833c.43.836.476 1.719.58 2.032.105.314.378 2.158.483 2.426.104.267.725 2.08.876 3.102.151 1.022.183 2.058.183 2.058l-.762-.024s-.756-2.78-1.017-3.442c-.223-.565-.308-1.553-.436-1.902-.128-.348-.917-2.798-1.08-2.973-.162-.174-1.017-1.955-.206-2.11" fill="#EEA886" mask="url(#M)"/>
            <path d="m95.578 63.013 1.935-.61s-.593-2.855-2.246-2.779c-1.327.062.31 3.389.31 3.389" fill="#323657" mask="url(#M)"/>
            <path d="M93.195 54.086c-.531-.087-1.747.046-2.092 1.441 0 0 0 .387.058.698.058.31-.312 1.164-.247 1.216.065.051.349.14.349.14s.201 1.002.541 1.033c.34.03 1.655-.088 2.397-1.22.743-1.134 1.14-2.957-1.006-3.308" fill="#EEA886" mask="url(#M)"/>
            <path d="M92.313 58.226a5.756 5.756 0 0 0 .083.704c.021.36.01.776-.113 1.04 0 0 .666.413 1.38-.58 0 0-.07-1.238.34-1.892.41-.655-1.69.728-1.69.728" fill="#EEA886" mask="url(#M)"/>
            <path d="M91.103 55.527s.8.691 1.648.909c.847.218 1.295 1.17 1.295 1.17s1.5-1.496.595-2.947-3.536-.804-3.538.868" fill="#434343" mask="url(#M)"/>
            <path d="M92.364 58.572c.012.106.024.228.032.358.747-.362 1.16-.86 1.16-.86-.44.315-1.192.502-1.192.502" fill="#A77860" mask="url(#M)"/>
            <path d="M92.906 56.486s.867 2.33.763 2.891c0 0 .459-.079 1.276.171 0 0-.395-4.158-2.039-3.062" fill="#434343" mask="url(#M)"/>
            <path d="M93.959 59.452s-.286 1.748-1.342 1.55c-1.057-.197-.256-1.477-.256-1.477s.413-.37 1.598-.073" fill="#EEA886" mask="url(#M)"/>
            <path d="M73.338 37.722a5.553 5.553 0 0 1-1.306 3.586 5.562 5.562 0 0 1-4.268 1.989 5.566 5.566 0 0 1-4.411-2.166 5.575 5.575 0 1 1 9.986-3.408" fill="#EEF0F7" mask="url(#M)"/>
            <path d="M71.751 40.711c-.02-.02-.067-.037-.094-.055l-.005-.003c-.245-.135-.962-.491-2.376-.897h-.002c-.256-.079-.45-.13-.517-.147l-.12-.19a5.94 5.94 0 0 1-.01-.671c.2-.232.38-.593.48-1.156.033.024.058-.03.058-.03-.018-.03.269-.731.217-.89-.03-.089-.089-.078-.135-.051l.021-.129s.114-1.074-.43-1.672c-.056-.054-.256-.067-.256-.067-.873-.267-1.397-.148-1.725-.008-.486.398-.522 1.076-.5 1.45a60.19 60.19 0 0 0 .042.367c-.045-.028-.105-.042-.138.047-.058.155.154.855.18.898 0 0 .046.072.082.04v-.002c.101.614.282.993.472 1.227-.014.249-.05.542-.075.73l-.216.225-.034.012v-.002c-2.44.651-3.13 1.104-3.13 1.104-.061.038-.124.14-.187.29a5.565 5.565 0 0 0 4.411 2.166 5.562 5.562 0 0 0 4.268-1.989c-.105-.256-.18-.497-.281-.597" fill="#78C2FF" mask="url(#M)"/>
            <path fill="#E0E0E0" mask="url(#M)" d="M28.502 42.75h.1v-9.42h-.1zM35.6 42.75h.1v-9.42h-.1zM42.699 42.75h.1v-9.42h-.1zM49.797 42.75h.1v-9.42h-.1zM56.895 42.75h.1v-9.42h-.1z"/>
            <path fill="#B8B8B8" mask="url(#M)" d="M28.552 43.635h1.13v-.327h-1.13z"/>
            <path fill="#D9D9D9" mask="url(#M)" d="M28.552 32.414h1.7v-.245h-1.7zM28.552 32.868h2.412v-.245h-2.412zM35.574 32.414h1.996v-.245h-1.996zM35.574 32.868h1.276v-.245h-1.276zM42.798 32.414h1.237v-.245h-1.237zM42.798 32.868h1.442v-.245h-1.442zM49.896 32.414h1.802v-.245h-1.802zM49.896 32.868h1.442v-.245h-1.442zM56.944 32.414h1.077v-.245h-1.077zM56.944 32.868h.862v-.245h-.862z"/>
            <path fill="#B8B8B8" mask="url(#M)" d="M35.65 43.635h1.13v-.327h-1.13zM42.798 43.635h1.13v-.327h-1.13zM49.896 43.635h1.13v-.327h-1.13zM56.994 43.635h1.13v-.327h-1.13z"/>
        </g>
        <g transform="translate(28.552 35.772)">
            <mask id="P" fill="#fff">
                <use xlink:href="#N"/>
            </mask>
            <path d="M11.288.055c-2.293.211-3.712 1.04-4.964 1.77-1.077.628-2.007 1.171-3.268 1.177C.496 3.014.003 2.04 0 2.03v.557c.013.053.798.92 3.059.843 1.399-.048 2.432-.609 3.524-1.246C7.79 1.48 9.158.68 11.337.48c3.412-.314 5.974.832 8.45 1.94 2.007.897 3.931 1.758 6.145 1.758.816 0 1.547-.073 2.46-.349v-.457c-3.204.966-5.737-.148-8.393-1.335C17.755 1.034 15.444 0 12.484 0c-.387 0-.785.018-1.196.055" fill="url(#O)" mask="url(#P)"/>
        </g>
        <g transform="translate(28.552 34.496)">
            <mask id="S" fill="#fff">
                <use xlink:href="#Q"/>
            </mask>
            <path d="M22.126.222c-2.127.549-4.29 2.052-6.583 3.63-3.028 2.083-4.772.753-6.791-.787-.996-.759-2.025-1.544-3.264-1.931C3.532.522 2.114.78 1.268 1.107.34 1.465.02 1.84 0 1.861v.628c.016-.019 1.815-2.08 5.332-.951 1.152.37 2.15 1.12 3.112 1.854 1.269.967 2.565 1.956 4.2 1.956.933 0 1.976-.323 3.188-1.156 4.574-3.146 8.247-5.615 12.56-1.718l.015-.57C26.923.57 25.365 0 23.821 0a6.77 6.77 0 0 0-1.695.222" fill="url(#R)" mask="url(#S)"/>
        </g>
    </g>
</svg>
