<svg width="83" height="91" viewBox="0 0 83 91" xmlns="http://www.w3.org/2000/svg" xmlns:xlink="http://www.w3.org/1999/xlink">
    <defs>
        <path id="a" d="M0 0h80.797v86.885H0z"/>
        <path id="c" d="M0 90.207h82.976V0H0z"/>
    </defs>
    <g fill="none" fill-rule="evenodd">
        <g>
            <mask id="b" fill="#fff">
                <use xlink:href="#a"/>
            </mask>
            <path d="M40.318.414c23.106 1.242 24.1 26.088 21.616 35.778-2.485 9.69 16.398 11.926 18.634 27.827 2.236 15.902-12.423 22.61-22.858 22.858-10.435.249-18.634-5.963-20.374-13.665-1.739-7.702-6.708-11.429-15.404-12.92-8.696-1.49-24.35-13.168-21.616-28.324 0 0 .64-16.126 15.777-26.833C26.28-2.071 40.318.414 40.318.414" fill="#E2E7FF" opacity=".35" mask="url(#b)"/>
        </g>
        <path d="M25.371 38.489s-.63-8.028 1.731-13.38c.945-1.258 1.574-.786 1.574-.786s.315 3.305-.472 6.453c-.787 3.148-1.259 9.287-1.259 9.287l-1.574-1.574z" fill="#61A27D"/>
        <path d="M24.899 37.86s-.158-3.778-4.093-7.084c-3.934-3.305-4.722-3.305-4.722-3.305s3.148-.157 5.352 1.26c2.204 1.416 2.99 5.35 3.148 5.98.157.63 1.102 3.148 1.102 3.148h-.787zM27.451 38.438s.738-3.708 5.135-6.368 5.175-2.539 5.175-2.539-3.086-.64-5.482.42c-2.395 1.06-3.78 4.827-4.031 5.425-.253.598-1.574 2.94-1.574 2.94l.777.122z" fill="#578B71"/>
        <path d="M25.686 37.86s-4.093-13.537-7.713-16.685c.158-.472 4.407.944 5.666 4.407 1.26 3.463 1.575 8.657 2.047 10.074a23.166 23.166 0 0 0 1.102 2.675" fill="#7CC97D"/>
        <path d="M25.371 38.489s1.574-7.398 5.666-9.916c.315.944-4.25 8.656-3.777 12.12.472 3.462-1.889-2.204-1.889-2.204" fill="#7CC97D"/>
        <path d="M23.124 46.827h6.053c.372-2.525.685-4.795.743-5.662.12-1.789-.483-3.305-.783-3.935h-5.974c-.3.63-.902 2.146-.783 3.935.058.867.371 3.137.744 5.662" fill="#A9A7E7"/>
        <mask id="d" fill="#fff">
            <use xlink:href="#c"/>
        </mask>
        <path fill="#24ADB2" mask="url(#d)" d="M67.14 46.772h11.102v-15.02H67.141z"/>
        <path fill="#26C6DA" mask="url(#d)" d="M65.998 46.772h11.101v-15.02H65.998z"/>
        <path fill="#E1543C" mask="url(#d)" d="M63.223 46.772h11.101V30.229H63.223z"/>
        <path fill="#FF634D" mask="url(#d)" d="M60.448 46.772H73.18V30.229H60.448z"/>
        <path fill="#EB594D" mask="url(#d)" d="M71.004 46.772h2.177V30.229h-2.177z"/>
        <path d="M9.622 34.365s-1.742.87-2.503 3.373c-.762 2.504 3.373 9.251 3.373 8.925 0-.327 4.136-2.177 4.136-2.177l-2.068-7.618-2.938-2.503z" fill="#202F7C" mask="url(#d)"/>
        <path fill="#4F57A0" mask="url(#d)" d="m53.117 47.575-2.3-6.076H45.07l2.299 6.076"/>
        <path fill="#E2E7FF" mask="url(#d)" d="M32.259 42.703h32.684l.571-3.066H32.831"/>
        <path d="m35.723 24.123-2.892 15.514h32.683l2.826-15.155a.98.98 0 0 0-.963-1.16h-30.69a.98.98 0 0 0-.964.8" fill="#243FA7" mask="url(#d)"/>
        <path fill="#FFF" mask="url(#d)" d="m51.822 45.384 8.653-6.448-8.49-.49-7.999 6.203z"/>
        <path d="m49.4 43.289 2.178-1.197s2.101-.87 2.163-.87c.06 0 .245.203.02.632-.224.428-.816.53-.816.53l-.388 1.082 2.014-.286.462-.109s-.326.817-.462 1.007c-.136.19-.898.68-.898.68s-1.442 1.197-1.96 1.333c-.516.137-2.312.218-2.312.218l-1.143-.027-1.06.218s-.545-1.007-.463-2.422l2.666-.789z" fill="#FF8D68" mask="url(#d)"/>
        <path fill="#E2E7FF" mask="url(#d)" d="m62.298 48.295 6.312 41.14h1.524l-4.136-41.357zM75.14 48.295l6.313 41.14h1.523l-4.135-41.357z"/>
        <path fill="#C2D3EB" mask="url(#d)" d="m38.136 48.295-6.312 41.14H30.3l4.136-41.357zM25.294 48.295l-6.312 41.14h-1.524l4.136-41.357z"/>
        <path fill="#A9A7E7" mask="url(#d)" d="M22.9 49.819H79.71V47.86H22.9z"/>
        <path d="M80.8 48.73H24.64a1.088 1.088 0 1 1 0-2.176H80.8a1.088 1.088 0 1 1 0 2.177" fill="#FFC757" mask="url(#d)"/>
        <path d="M26.522 85.3s.357-.875 1.85-.72c1.492.157 1.677.433 1.884 1.165.207.733.759 1.505 1.109 1.66.35.154 1.645.947 2.68 1.068 1.033.12 1.178.742.964 1.038-.214.296-4.077.713-4.937.64 0 0-2.909.086-3.604-.109-.695-.194.011-4.455.054-4.742" fill="#201360" mask="url(#d)"/>
        <path d="m26.918 79.032-.448 6.822s1.063.343 1.873.936c1.196.876 2.175-.185 2.175-.185l.27-4.292-3.87-3.28z" fill="#FF8D68" mask="url(#d)"/>
        <path d="M35.579 67.015 31.17 85.952s-2.286.327-5.06-.98c0 0 2.448-17.794 2.611-18.937.163-1.142 6.53 0 6.857.98" fill="#202F7C" mask="url(#d)"/>
        <path d="M17.711 18.021s1.81.337 3 3.002c1.188 2.665.902 8.516.276 9.243-.627.728-2.685.602-5.578-.144-3.056-.788-4.273-3.83-4.944-5.846-1.284-3.859 1.862-8.127 7.246-6.255" fill="#FF8D68" mask="url(#d)"/>
        <path d="m12.687 33.619 1.041-4.986s2.68-.978 4.508.73l.622.759.212 3.187s-2.808.758-6.383.31" fill="#FF8D68" mask="url(#d)"/>
        <path d="M12.63 64.28s5.832 1.706 12.75 1.47c6.917-.235 7.832-2.197 8.048-4.067.216-1.87-5.165-3.007-7.506-3.622-2.34-.615-10.344-2.916-12.508-.582-2.164 2.334-2.668 5.205-.785 6.8M42.684 85.3s.357-.875 1.85-.72c1.492.157 1.677.433 1.884 1.165.207.733.759 1.505 1.109 1.66.35.154 1.645.947 2.68 1.068 1.033.12 1.178.742.964 1.038-.214.296-4.077.713-4.937.64 0 0-2.909.086-3.604-.109-.695-.194.011-4.455.054-4.742" fill="#201360" mask="url(#d)"/>
        <path d="M40.966 79.531 42.6 86.17s1.306-.327 2.067.326c.763.654 2.177.218 2.177.218l-1.197-5.224-4.68-1.959z" fill="#FF8D68" mask="url(#d)"/>
        <path d="M27.47 57.329c.327 0 11.428 3.7 13.605 5.333 2.177 1.74 5.66 21.14 5.877 21.576.218.435-3.156 1.633-5.333 1.306-.109-.435-5.224-16.788-5.224-17.876 0 0-8.707-.435-12.407-1.088-3.7-.653-6.204-.762-7.727-4.79-1.524-4.026 7.4-4.353 7.4-4.353l3.81-.108z" fill="#202F7C" mask="url(#d)"/>
        <path d="M46.462 43.017s2.123-.055 2.286.163c.163.218.925 2.177.217 2.993l-.598.435h-1.85l-.055-3.591zM12.315 32.895l.572-1.469s3.428-1.061 6.367.245c.734.734 1.142 1.877 1.142 1.877l-8.08-.653z" fill="#E2E7FF" mask="url(#d)"/>
        <path d="M11.58 33.059s.436-.762 1.198-.871c.762-.11 4.245-.544 6.53.109.87.326 1.306.762 1.306.762s3.265 1.088 4.353 1.741c1.089.653 1.415 5.66 1.633 7.292.218 1.632-.435 3.374-.435 3.374s2.612 10.665 2.612 12.19c0 1.523-.871 3.264-3.918 4.353-3.048 1.088-11.32.653-14.149-1.089-.87-1.741-2.177-22.42-2.394-24.379-.218-1.959 3.265-3.482 3.265-3.482" fill="#202F7C" mask="url(#d)"/>
        <path d="M23.172 34.365s.816-.49 2.775.816c1.96 1.306 7.346 6.203 8 6.53.652.326 13.223.98 13.223.98s1.795 2.285-.164 4.08c0 0-12.134.49-14.42.327-2.286-.163-9.904-4.57-9.904-4.57s-3.102-4.572.49-8.163" fill="#202F7C" mask="url(#d)"/>
        <path d="M20.555 41.568s10.178 5.343 11.365 5.513c1.187.17 5.682 0 5.682 0" stroke="#1B2048" stroke-width=".826" mask="url(#d)"/>
        <path d="M34.295 42.925s.339 1.866-.849 2.968M35.058 42.416s1.018 1.612.509 2.799M20.47 39.448s-.848-2.969 2.12-4.92M9.53 36.649s-.594 5.258-.594 7.718M12.583 33.172s3.901-.34 7.124 0M38.111 67.35s1.866-.593 2.545-3.477M39.383 67.605s1.103-.34 1.612-1.866M32.598 70.913 29.8 84.907" stroke="#1B2048" stroke-width=".826" mask="url(#d)"/>
        <path d="M20.315 21.55s.326 1.468-.98 2.448l.082 1.633s.49 1.469.163 1.632c-.326.163-.408-.082-.408-.082s-1.061-1.714-1.388-1.795c-.326-.082.735 2.285.735 2.285s-1.061 1.633-3.02 1.878l.408-.572s-.898.572-2.286.49c-1.387-.082-2.448-2.204-2.448-2.204s.245.571 0 .816-1.633-1.877-1.714-4.57l-.409.816s.082-1.878.817-4c.734-2.122 4-3.673 5.795-3.673 1.796 0 3.592.163 4.081 0 .49-.163.245 1.224.245 1.224s.245-.571.327-1.061c.326-.245.816 1.714.653 2.449l-.163.734s.57-.734.653-1.142c.326-.082.244 1.714-1.143 2.693" fill="#201360" mask="url(#d)"/>
        <path d="M19.13 25.616s-.33-1.093-1.235-.518c-.905.574.38 3.147 1.138 2.925.757-.221.296-1.992.097-2.407" fill="#FF634D" mask="url(#d)"/>
        <path stroke="#E66657" stroke-width="1.281" mask="url(#d)" d="m52.258 44.54 2.313-.462.462-1.007M54.489 44.132s-1.17.98-1.333 1.062c-.164.081-.898.272-.898.272M18.764 28.379s-.327 1.142 1.632 1.795"/>
        <path fill="#2E60BE" mask="url(#d)" d="M63.386 36.977H45.973l2.176-11.32h17.414z"/>
        <path d="M40.377 29.576a.526.526 0 0 0 .517.625H59.85a.526.526 0 0 0 .517-.426l.279-1.451H40.618l-.24 1.252z" fill="#26C6F8" mask="url(#d)"/>
        <path d="M62.153 17.183H43.195a.526.526 0 0 0-.517.426l-2.06 10.715h20.029l2.022-10.516a.526.526 0 0 0-.516-.625" fill="#CAE5FF" mask="url(#d)"/>
        <path d="M49.192 30.21c.25-.689.403-1.18.403-1.18s.572-2.99-1.975-2.223c0 0-.884.663-1.3 2.066-.129.436-.283.902-.434 1.337h3.306z" fill="#387AB6" mask="url(#d)"/>
        <path d="M54.467 30.21c-.047-1.474-.139-2.656-.298-2.974-.468-.858-2.378-1.637-2.378-1.637l-2.611.39s-1.092.311-1.443 1.09c-.118.263-.403 1.538-.707 3.13h7.437z" fill="#DCE4FF" mask="url(#d)"/>
        <path d="M49.625 23.83s-.158 1.168-.505 2.02c0 0-.095.664 1.295.38 1.389-.284 1.2-.98 1.2-.98v-2.746l-1.99 1.326z" fill="#FF8D68" mask="url(#d)"/>
        <path d="M47.675 20.941s.016 2.612.765 3.87c.512.53 2.257-.301 2.99-1.424.735-1.123.72-2.813.14-3.753-.581-.941-2.495-.658-3.055-.333-.561.325-.872 1.223-.84 1.64" fill="#FF8D68" mask="url(#d)"/>
        <path d="M51.2 22.417s.493-.76.822-.307c.33.452-.812 1.376-.899 1.024-.087-.351.077-.717.077-.717" fill="#FBA894" mask="url(#d)"/>
        <path d="M47.675 20.941s-.916-.805.189-1.847c.631-.474.947-.127 1.61-.253.663-.126 1.863 0 2.305.695.442.694.284 2.305.158 2.463-.126.157-.505.252-.505.536 0 .285-.063.506-.158.506s-.095-.474-.095-.821c0-.348-.063-1.01-.22-1.484-.159-.474-.885-.443-1.17-.38-.283.064-.471.791-2.114.585" fill="#713336" mask="url(#d)"/>
        <path d="M51.116 21.726s.02-.01.052-.023V21.7l-.052.026z" fill="#505E83" mask="url(#d)"/>
        <path d="M48.894 24.494c-.598-.13-.52-.598.09-.793 0 0 .65-.299.871.156.091.3-.364.767-.961.637m2.274-2.791c.006.051.171 1.564-.43 1.985-.623.416-.649-.117-1.143-.195s-.896-.052-1.117.273c-.195.325-.156.468-.338.377-.039.104.234.74.65.91.415.169 1.403-.351 1.845-.741.442-.39.715-.637.793-.975.077-.337.038-.987.13-1.442.051-.343-.263-.245-.39-.192" fill="#713336" mask="url(#d)"/>
        <path d="M51.616 25.053s-.76.955-2.008 1.072c-.253-.098-.39-.566-.39-.566l-.195.293s-.097.585 0 .818c.118.02.546-.272.546-.272s.293.409.507.487c.215.078 1.579-.838 1.715-1.287 0 0-.01-.321-.175-.545" fill="#FFF" mask="url(#d)"/>
        <path d="M54.666 30.21c-.068-1.453-.155-2.563-.237-2.792-.312-.728-1.481-1.664-2.638-1.82 0 0-.434 2.006-.862 4.612h3.737zM47.938 30.21c.613-2.6 1.085-4.144 1.085-4.144-.35.04-.974.312-1.403.741-.233.466-.594 1.803-.968 3.403h1.286z" fill="#387AB6" mask="url(#d)"/>
        <path d="M54.432 30.21c.042-1.391-.035-2.677-.263-2.974-.74-.624-1.52-.585-1.91.117-.213.383-.496 1.722-.709 2.857h2.882z" fill="#387AB6" mask="url(#d)"/>
        <path d="M49.57 26.398c-.222.9-.405 1.81-.57 2.723" stroke="#87B8EB" stroke-width=".359" mask="url(#d)"/>
        <path d="M65.506 16.654c-.54 2.164-2.732 3.92-4.897 3.92-2.164 0-3.481-1.756-2.942-3.92.54-2.165 2.732-3.92 4.897-3.92 2.164 0 3.482 1.755 2.942 3.92M66.302 20.864c-.148.593-.748 1.073-1.34 1.073-.592 0-.953-.48-.805-1.073.148-.592.748-1.072 1.34-1.072.593 0 .953.48.805 1.072" fill="#6787FF" mask="url(#d)"/>
        <path d="M60.576 18.646a.372.372 0 0 1-.306-.141l-1.012-1.35c-.142-.188-.066-.493.17-.681.235-.188.54-.188.68 0l.758 1.008 2.705-2.165c.235-.188.54-.188.681 0 .142.188.066.493-.17.682l-3.13 2.506a.612.612 0 0 1-.376.14" fill="#FFF" mask="url(#d)"/>
        <path d="M32.787 10.12h-1.282c-.321 0-.517-.26-.437-.582l.32-1.282c.08-.322.406-.583.728-.583h1.282c.321 0 .517.261.437.583l-.32 1.282c-.08.322-.406.583-.728.583" fill="#BFD9FF" mask="url(#d)"/>
        <path d="M31.85 13.879h-1.282c-.322 0-.517-.26-.437-.583l.32-1.282c.08-.321.406-.582.728-.582h1.281c.322 0 .518.26.438.582l-.32 1.282c-.08.322-.406.583-.728.583z" stroke="#A9A7E7" stroke-width=".75" mask="url(#d)"/>
        <path d="M35.93 13.879h-1.283c-.322 0-.517-.26-.437-.583l.32-1.282c.08-.321.406-.582.727-.582h1.282c.322 0 .518.26.438.582l-.32 1.282c-.08.322-.406.583-.728.583" fill="#26C6DA" mask="url(#d)"/>
        <path d="M40.008 13.879h-1.282c-.322 0-.517-.26-.437-.583l.32-1.282c.08-.321.405-.582.727-.582h1.282c.322 0 .518.26.437.582l-.32 1.282c-.08.322-.405.583-.727.583" fill="#FFF" mask="url(#d)"/>
        <path d="M30.891 17.725H29.61c-.322 0-.518-.261-.438-.583l.32-1.282c.08-.322.406-.583.728-.583h1.282c.322 0 .517.261.437.583l-.32 1.282c-.08.322-.406.583-.728.583" fill="#26C6DA" mask="url(#d)"/>
        <path d="M29.867 21.833h-1.282c-.322 0-.517-.261-.437-.583l.32-1.282c.08-.322.406-.582.727-.582h1.282c.322 0 .518.26.438.582l-.32 1.282c-.08.322-.406.583-.728.583" fill="#FFF" mask="url(#d)"/>
        <path d="M34.97 17.725h-1.282c-.322 0-.517-.261-.437-.583l.32-1.282c.08-.322.406-.583.727-.583h1.282c.322 0 .518.261.438.583l-.32 1.282c-.08.322-.406.583-.728.583" fill="#EDF4FF" mask="url(#d)"/>
        <path d="M33.183 24.892h-1.282c-.321 0-.517-.261-.437-.583l.32-1.282c.08-.322.406-.582.728-.582h1.281c.322 0 .518.26.438.582l-.32 1.282c-.08.322-.406.583-.728.583z" stroke="#A9A7E7" stroke-width=".75" mask="url(#d)"/>
        <path d="M71.748 19.912h-.47c-.119 0-.19-.096-.161-.214l.117-.47a.292.292 0 0 1 .267-.214h.47c.12 0 .191.095.161.214l-.117.47a.292.292 0 0 1-.267.214M71.404 21.292h-.47c-.119 0-.19-.096-.161-.214l.117-.47a.292.292 0 0 1 .267-.215h.47c.119 0 .191.096.161.214l-.117.47a.292.292 0 0 1-.267.215M72.901 21.292h-.47c-.118 0-.19-.096-.16-.214l.116-.47a.292.292 0 0 1 .268-.215h.47c.119 0 .19.096.16.214l-.117.47a.292.292 0 0 1-.267.215M74.399 21.292h-.471c-.118 0-.19-.096-.16-.214l.117-.47a.292.292 0 0 1 .267-.215h.47c.119 0 .19.096.161.214l-.117.47a.292.292 0 0 1-.267.215M71.052 22.704h-.47c-.119 0-.19-.096-.161-.214l.117-.47a.292.292 0 0 1 .267-.215h.471c.118 0 .19.096.16.214l-.117.47a.292.292 0 0 1-.267.215M70.676 24.212h-.47c-.119 0-.19-.096-.161-.214l.117-.47a.292.292 0 0 1 .267-.215h.471c.118 0 .19.096.16.214l-.117.47a.292.292 0 0 1-.267.215M72.55 22.704h-.471c-.118 0-.19-.096-.16-.214l.116-.47a.292.292 0 0 1 .268-.215h.47c.119 0 .19.096.16.214l-.117.47a.292.292 0 0 1-.267.215M71.893 25.335h-.47c-.118 0-.19-.096-.16-.214l.116-.47a.292.292 0 0 1 .268-.215h.47c.119 0 .19.096.16.214l-.117.47a.292.292 0 0 1-.267.215" fill="#CAE5FF" mask="url(#d)"/>
        <path d="M71.597 37.743H56.125a.248.248 0 0 1-.24-.311l1.444-5.55a.249.249 0 0 1 .24-.185h15.472c.163 0 .282.153.241.31l-1.444 5.55a.248.248 0 0 1-.24.186" fill="#BFD9FF" mask="url(#d)"/>
        <path stroke="#A9C2FF" stroke-width="1.076" stroke-linecap="round" stroke-linejoin="round" mask="url(#d)" d="M58.247 32.884h5.384M57.833 35.368h5.384M60.097 34.43h5.384M58.109 33.712h1.615M57.888 34.43h1.615M64.487 32.884h1.918"/>
        <path d="M65.427 36.534H62.56a.022.022 0 0 1-.02-.028l.127-.492a.022.022 0 0 1 .022-.017h2.865c.015 0 .025.014.022.028l-.129.493a.022.022 0 0 1-.021.016zM61.865 36.534H59a.022.022 0 0 1-.021-.028l.128-.492a.022.022 0 0 1 .021-.017h2.865c.015 0 .025.014.022.028l-.128.493a.022.022 0 0 1-.022.016z" stroke="#84AEE5" stroke-width=".359" mask="url(#d)"/>
        <path d="M70.463 35.82c-.147-.196-.743-.338-.907-.534-.084-.1-.084-.285-.064-.443a.607.607 0 0 0 .136-.11c.05-.072.105-.173.161-.284.017.016.04.03.069.029.078-.003.376-.408.299-.502-.044-.054-.115-.007-.168.043.08-.181.135-.32.135-.32h-.003a.902.902 0 0 0 .02-.068c.118-.474-.17-.858-.644-.858s-.954.384-1.072.858a.958.958 0 0 0-.015.069h-.003s-.013.138-.024.319c-.028-.05-.076-.097-.147-.043-.123.094-.028.5.05.502a.152.152 0 0 0 .082-.029c0 .11.006.212.02.284.014.043.055.09.11.135-.06.152-.15.324-.276.418-.262.196-.93.338-1.174.534-.22.176-.416.69-.453.791h3.927c.013-.101.073-.615-.059-.791" fill="#387AB6" mask="url(#d)"/>
        <path d="M50.618 35.764H37.922c-1.114 0-1.792-.904-1.515-2.018.279-1.115 1.407-2.019 2.522-2.019h12.696c1.114 0 1.792.904 1.515 2.019-.278 1.114-1.407 2.018-2.522 2.018" fill="#FFF" mask="url(#d)"/>
        <path d="m39.27 34.273-.545.253c-.051.023-.095-.015-.074-.065l.226-.536c.008-.02.007-.04-.004-.055l-.295-.38c-.028-.035.008-.098.06-.105l.558-.078a.086.086 0 0 0 .055-.034l.362-.488c.034-.045.1-.045.111 0l.12.488c.004.018.018.03.037.034l.519.078c.049.007.053.07.008.105l-.484.38a.079.079 0 0 0-.032.055l-.041.536c-.004.05-.067.088-.106.065l-.418-.253c-.016-.01-.038-.01-.058 0M41.95 34.273l-.545.253c-.051.023-.094-.015-.073-.065l.225-.536c.009-.02.007-.04-.004-.055l-.294-.38c-.028-.035.008-.098.06-.105l.558-.078a.086.086 0 0 0 .055-.034l.362-.488c.034-.045.1-.045.11 0l.12.488c.004.018.018.03.038.034l.518.078c.049.007.054.07.008.105l-.484.38a.079.079 0 0 0-.031.055l-.042.536c-.004.05-.066.088-.106.065l-.418-.253c-.016-.01-.037-.01-.057 0M44.63 34.273l-.544.253c-.051.023-.095-.015-.074-.065l.226-.536c.008-.02.007-.04-.004-.055l-.295-.38c-.028-.035.008-.098.06-.105l.558-.078a.086.086 0 0 0 .055-.034l.362-.488c.034-.045.1-.045.111 0l.12.488c.004.018.018.03.037.034l.519.078c.048.007.053.07.008.105l-.484.38a.08.08 0 0 0-.032.055l-.041.536c-.004.05-.067.088-.106.065l-.418-.253c-.016-.01-.038-.01-.058 0M47.31 34.273l-.544.253c-.051.023-.094-.015-.073-.065l.225-.536c.009-.02.007-.04-.004-.055l-.295-.38c-.027-.035.008-.098.061-.105l.558-.078a.086.086 0 0 0 .055-.034l.362-.488c.034-.045.1-.045.11 0l.12.488c.004.018.018.03.038.034l.518.078c.049.007.054.07.008.105l-.484.38a.08.08 0 0 0-.031.055l-.042.536c-.004.05-.066.088-.106.065l-.418-.253c-.016-.01-.037-.01-.057 0" fill="#FFA402" mask="url(#d)"/>
        <path d="m49.991 34.273-.544.253c-.052.023-.095-.015-.074-.065l.226-.536c.008-.02.007-.04-.004-.055l-.295-.38c-.028-.035.008-.098.06-.105l.558-.078a.086.086 0 0 0 .055-.034l.362-.488c.034-.045.1-.045.111 0l.12.488c.004.018.018.03.037.034l.519.078c.048.007.053.07.008.105l-.484.38a.08.08 0 0 0-.032.055l-.041.536c-.004.05-.067.088-.106.065l-.418-.253c-.016-.01-.038-.01-.058 0" fill="#C2D4D9" mask="url(#d)"/>
        <path d="M20.45 26.514c0 .808-.47 1.463-1.05 1.463-.58 0-1.05-.655-1.05-1.463s.47-1.463 1.05-1.463c.58 0 1.05.655 1.05 1.463" fill="#202F7C" mask="url(#d)"/>
        <path d="M19.559 26.641s2.926 3.244 2.926 3.753c0 .509-.954.445-.954.445" stroke="#202F7C" stroke-width="1.102" mask="url(#d)"/>
        <path d="M21.753 30.84a.382.382 0 1 1-.763 0 .382.382 0 0 1 .763 0" fill="#202F7C" mask="url(#d)"/>
        <path d="M14.356 68.81c1.04 1.794 4.3 3.103 8.163 3.103 3.863 0 7.123-1.31 8.162-3.102H14.356z" fill="#4F57A0" mask="url(#d)"/>
        <path fill="#A9A7E7" mask="url(#d)" d="m36.395 59.614-1.959 9.033H33.24l1.088-8.815z"/>
        <path d="M39.987 60.376H22.45V58.2h15.795c.962 0 1.742.78 1.742 1.742v.435z" fill="#7A82CC" mask="url(#d)"/>
        <path d="M8.098 67.668 3.854 47.255a1.306 1.306 0 0 1 1.278-1.572h14.045c.774 0 1.441.543 1.599 1.3l4.3 20.685" fill="#A9A7E7" mask="url(#d)"/>
        <path d="M36.941 69.907H10.27c-.9 0-1.692-.594-1.944-1.458l-.228-.781h28.843v2.24z" fill="#A9A7E7" mask="url(#d)"/>
        <path fill="#E2E7FF" mask="url(#d)" d="M21.703 89.87h2.122V70.933h-2.122z"/>
        <path fill="#4F57A0" mask="url(#d)" d="m23.825 74.443-2.123 1.714v-5.224h2.123z"/>
        <path fill="#E2E7FF" mask="url(#d)" d="M23.76 87.048h-1.747l-7.955 3.159h17.657z"/>
        <path stroke="#4F57A0" mask="url(#d)" d="M5.724 47.08h12.625M19.657 48.542l2.156 10.854M22.198 61.321l.462 3.156"/>
        <path d="M81.05 28.836H70.884a.853.853 0 0 1-.842-.986l.076-.488a.853.853 0 0 1 .843-.72h10.166c.524 0 .924.469.843.986l-.077.488a.854.854 0 0 1-.843.72" fill="#CAE5FF" mask="url(#d)"/>
        <path stroke="#FFF" stroke-width="2" mask="url(#d)" d="M71.31 27.758h8.775"/>
        <path d="M44.022 16.212h-2.771c-1.318 0-2.614 1.068-2.894 2.386-.28 1.318.562 2.386 1.88 2.386h.601c.672 1.592 2.26 1.386 2.26 1.386-.3-.598-.364-1.077-.362-1.386h.272c1.318 0 2.613-1.068 2.893-2.386.28-1.318-.56-2.386-1.879-2.386" fill="#FF634D" mask="url(#d)"/>
        <path stroke="#FFF" stroke-width="2" mask="url(#d)" d="M40.072 18.136h2.617M39.851 19.175h4.253"/>
    </g>
</svg>
