<svg width="180" height="182" viewBox="0 0 180 182" xmlns="http://www.w3.org/2000/svg" xmlns:xlink="http://www.w3.org/1999/xlink">
    <defs>
        <circle id="g" cx="90" cy="90" r="90"/>
        <circle id="a" cx="90" cy="90" r="90"/>
        <circle id="b" cx="90" cy="90" r="90"/>
        <circle id="c" cx="90" cy="90" r="90"/>
        <circle id="d" cx="90" cy="90" r="90"/>
        <circle id="e" cx="90" cy="90" r="90"/>
        <circle id="f" cx="90" cy="90" r="90"/>
        <mask id="i" maskContentUnits="userSpaceOnUse" maskUnits="objectBoundingBox" x="0" y="0" width="180" height="180" fill="#fff">
            <use xlink:href="#a"/>
        </mask>
        <mask id="j" maskContentUnits="userSpaceOnUse" maskUnits="objectBoundingBox" x="0" y="0" width="180" height="180" fill="#fff">
            <use xlink:href="#b"/>
        </mask>
        <mask id="k" maskContentUnits="userSpaceOnUse" maskUnits="objectBoundingBox" x="0" y="0" width="180" height="180" fill="#fff">
            <use xlink:href="#c"/>
        </mask>
        <mask id="l" maskContentUnits="userSpaceOnUse" maskUnits="objectBoundingBox" x="0" y="0" width="180" height="180" fill="#fff">
            <use xlink:href="#d"/>
        </mask>
        <mask id="m" maskContentUnits="userSpaceOnUse" maskUnits="objectBoundingBox" x="0" y="0" width="180" height="180" fill="#fff">
            <use xlink:href="#e"/>
        </mask>
        <mask id="n" maskContentUnits="userSpaceOnUse" maskUnits="objectBoundingBox" x="0" y="0" width="180" height="180" fill="#fff">
            <use xlink:href="#f"/>
        </mask>
        <mask id="o" maskContentUnits="userSpaceOnUse" maskUnits="objectBoundingBox" x="0" y="0" width="180" height="180" fill="#fff">
            <use xlink:href="#f"/>
        </mask>
    </defs>
    <g fill="none" fill-rule="evenodd">
        <g>
            <mask id="h" fill="#fff">
                <use xlink:href="#g"/>
            </mask>
            <g stroke-dasharray="56.57142857142857,900" mask="url(#h)" transform="rotate(36 90 90)" stroke="#9B9B9B" stroke-width="180">
                <use mask="url(#i)" xlink:href="#a"/>
            </g>
            <g stroke-dasharray="113.1428571428571,900" mask="url(#h)" transform="rotate(108 90 90)" stroke="#6DC8E6" stroke-width="180">
                <use mask="url(#j)" xlink:href="#b"/>
            </g>
            <g stroke-dasharray="56.57142857142857,900" mask="url(#h)" transform="rotate(144 90 90)" stroke="#F19FCA" stroke-width="180">
                <use mask="url(#k)" xlink:href="#c"/>
            </g>
            <g stroke-dasharray="113.1428571428571,900" mask="url(#h)" transform="rotate(-144 90 90)" stroke="#CD8AE5" stroke-width="180">
                <use mask="url(#l)" xlink:href="#d"/>
            </g>
            <g stroke-dasharray="56.57142857142857,900" mask="url(#h)" transform="rotate(-108 90 90)" stroke="#13B600" stroke-width="180">
                <use mask="url(#m)" xlink:href="#e"/>
            </g>
            <g stroke-dasharray="169.7142857142857,900" mask="url(#h)">
                <use stroke="#979797" mask="url(#n)" stroke-width="2" xlink:href="#f"/>
                <use stroke="#EFCB5F" mask="url(#o)" stroke-width="180" xlink:href="#f"/>
            </g>
        </g>
        <g stroke="#FFF" stroke-linecap="round" stroke-width="2">
            <path d="m36.5 17.5 53.193 71.605M142.5 17.5l-53 73M175.5 61.5l-86 29M89.5 180.5v-91M36.5 164.5l53-74M3.5 61.5l86 28"/>
        </g>
    </g>
</svg>
